<svg viewBox="0 0 564.59326171875 400" xmlns="http://www.w3.org/2000/svg"><g><g><g><g><g><line x1="50" y1="377" x2="45" y2="377" style="visibility: inherit;" fill="rgb(0, 0, 0)" stroke="rgb(204, 204, 204)" stroke-width="1px"></line><line x1="50" y1="345.5833333333333" x2="45" y2="345.5833333333333" style="visibility: inherit;" fill="rgb(0, 0, 0)" stroke="rgb(204, 204, 204)" stroke-width="1px"></line><line x1="50" y1="314.1666666666667" x2="45" y2="314.1666666666667" style="visibility: inherit;" fill="rgb(0, 0, 0)" stroke="rgb(204, 204, 204)" stroke-width="1px"></line><line x1="50" y1="282.75" x2="45" y2="282.75" style="visibility: inherit;" fill="rgb(0, 0, 0)" stroke="rgb(204, 204, 204)" stroke-width="1px"></line><line x1="50" y1="251.33333333333337" x2="45" y2="251.33333333333337" style="visibility: inherit;" fill="rgb(0, 0, 0)" stroke="rgb(204, 204, 204)" stroke-width="1px"></line><line x1="50" y1="219.91666666666669" x2="45" y2="219.91666666666669" style="visibility: inherit;" fill="rgb(0, 0, 0)" stroke="rgb(204, 204, 204)" stroke-width="1px"></line><line x1="50" y1="188.50000000000003" x2="45" y2="188.50000000000003" style="visibility: inherit;" fill="rgb(0, 0, 0)" stroke="rgb(204, 204, 204)" stroke-width="1px"></line><line x1="50" y1="157.08333333333337" x2="45" y2="157.08333333333337" style="visibility: inherit;" fill="rgb(0, 0, 0)" stroke="rgb(204, 204, 204)" stroke-width="1px"></line><line x1="50" y1="125.66666666666673" x2="45" y2="125.66666666666673" style="visibility: inherit;" fill="rgb(0, 0, 0)" stroke="rgb(204, 204, 204)" stroke-width="1px"></line><line x1="50" y1="94.25000000000004" x2="45" y2="94.25000000000004" style="visibility: inherit;" fill="rgb(0, 0, 0)" stroke="rgb(204, 204, 204)" stroke-width="1px"></line><line x1="50" y1="62.833333333333364" x2="45" y2="62.833333333333364" style="visibility: inherit;" fill="rgb(0, 0, 0)" stroke="rgb(204, 204, 204)" stroke-width="1px"></line><line x1="50" y1="31.416666666666682" x2="45" y2="31.416666666666682" style="visibility: inherit;" fill="rgb(0, 0, 0)" stroke="rgb(204, 204, 204)" stroke-width="1px"></line><line x1="50" y1="0" x2="45" y2="0" style="visibility: inherit;" fill="rgb(0, 0, 0)" stroke="rgb(204, 204, 204)" stroke-width="1px"></line></g><g transform="translate(40, 0)"><text x="0" y="377" dx="0em" dy="0.3em" style="text-anchor: end; visibility: hidden; font-family: Roboto, sans-serif; font-size: 12px; font-weight: 200;" fill="rgb(33, 33, 33)" stroke="none" stroke-width="1px">-0.1</text><text x="0" y="345.5833333333333" dx="0em" dy="0.3em" style="text-anchor: end; visibility: inherit; font-family: Roboto, sans-serif; font-size: 12px; font-weight: 200;" fill="rgb(33, 33, 33)" stroke="none" stroke-width="1px">0</text><text x="0" y="314.1666666666667" dx="0em" dy="0.3em" style="text-anchor: end; visibility: inherit; font-family: Roboto, sans-serif; font-size: 12px; font-weight: 200;" fill="rgb(33, 33, 33)" stroke="none" stroke-width="1px">0.1</text><text x="0" y="282.75" dx="0em" dy="0.3em" style="text-anchor: end; visibility: inherit; font-family: Roboto, sans-serif; font-size: 12px; font-weight: 200;" fill="rgb(33, 33, 33)" stroke="none" stroke-width="1px">0.2</text><text x="0" y="251.33333333333337" dx="0em" dy="0.3em" style="text-anchor: end; visibility: inherit; font-family: Roboto, sans-serif; font-size: 12px; font-weight: 200;" fill="rgb(33, 33, 33)" stroke="none" stroke-width="1px">0.3</text><text x="0" y="219.91666666666669" dx="0em" dy="0.3em" style="text-anchor: end; visibility: inherit; font-family: Roboto, sans-serif; font-size: 12px; font-weight: 200;" fill="rgb(33, 33, 33)" stroke="none" stroke-width="1px">0.4</text><text x="0" y="188.50000000000003" dx="0em" dy="0.3em" style="text-anchor: end; visibility: inherit; font-family: Roboto, sans-serif; font-size: 12px; font-weight: 200;" fill="rgb(33, 33, 33)" stroke="none" stroke-width="1px">0.5</text><text x="0" y="157.08333333333337" dx="0em" dy="0.3em" style="text-anchor: end; visibility: inherit; font-family: Roboto, sans-serif; font-size: 12px; font-weight: 200;" fill="rgb(33, 33, 33)" stroke="none" stroke-width="1px">0.6</text><text x="0" y="125.66666666666673" dx="0em" dy="0.3em" style="text-anchor: end; visibility: inherit; font-family: Roboto, sans-serif; font-size: 12px; font-weight: 200;" fill="rgb(33, 33, 33)" stroke="none" stroke-width="1px">0.7</text><text x="0" y="94.25000000000004" dx="0em" dy="0.3em" style="text-anchor: end; visibility: inherit; font-family: Roboto, sans-serif; font-size: 12px; font-weight: 200;" fill="rgb(33, 33, 33)" stroke="none" stroke-width="1px">0.8</text><text x="0" y="62.833333333333364" dx="0em" dy="0.3em" style="text-anchor: end; visibility: inherit; font-family: Roboto, sans-serif; font-size: 12px; font-weight: 200;" fill="rgb(33, 33, 33)" stroke="none" stroke-width="1px">0.9</text><text x="0" y="31.416666666666682" dx="0em" dy="0.3em" style="text-anchor: end; visibility: inherit; font-family: Roboto, sans-serif; font-size: 12px; font-weight: 200;" fill="rgb(33, 33, 33)" stroke="none" stroke-width="1px">1</text><text x="0" y="0" dx="0em" dy="0.3em" style="text-anchor: end; visibility: hidden; font-family: Roboto, sans-serif; font-size: 12px; font-weight: 200;" fill="rgb(33, 33, 33)" stroke="none" stroke-width="1px">1.1</text></g><line x1="50" y1="0" x2="50" y2="377" fill="rgb(0, 0, 0)" stroke="rgb(204, 204, 204)" stroke-width="1px"></line></g></g><g transform="translate(50, 0)" clip-path="url(#clip_0)"><clipPath id="clip_0"><rect width="514" height="376"></rect></clipPath><g><g><g><line x1="0" y1="0" x2="0" y2="377" fill="rgb(0, 0, 0)" stroke="rgb(66, 66, 66)" stroke-width="1px" opacity="0.25"></line><line x1="42.882749999999994" y1="0" x2="42.882749999999994" y2="377" fill="rgb(0, 0, 0)" stroke="rgb(66, 66, 66)" stroke-width="1px" opacity="0.25"></line><line x1="85.76549999999999" y1="0" x2="85.76549999999999" y2="377" fill="rgb(0, 0, 0)" stroke="rgb(66, 66, 66)" stroke-width="1px" opacity="0.25"></line><line x1="128.64825" y1="0" x2="128.64825" y2="377" fill="rgb(0, 0, 0)" stroke="rgb(66, 66, 66)" stroke-width="1px" opacity="0.25"></line><line x1="171.53099999999998" y1="0" x2="171.53099999999998" y2="377" fill="rgb(0, 0, 0)" stroke="rgb(66, 66, 66)" stroke-width="1px" opacity="0.25"></line><line x1="214.41375" y1="0" x2="214.41375" y2="377" fill="rgb(0, 0, 0)" stroke="rgb(66, 66, 66)" stroke-width="1px" opacity="0.25"></line><line x1="257.2965" y1="0" x2="257.2965" y2="377" fill="rgb(0, 0, 0)" stroke="rgb(66, 66, 66)" stroke-width="1px" opacity="0.25"></line><line x1="300.17925" y1="0" x2="300.17925" y2="377" fill="rgb(0, 0, 0)" stroke="rgb(66, 66, 66)" stroke-width="1px" opacity="0.25"></line><line x1="343.06199999999995" y1="0" x2="343.06199999999995" y2="377" fill="rgb(0, 0, 0)" stroke="rgb(66, 66, 66)" stroke-width="1px" opacity="0.25"></line><line x1="385.94475" y1="0" x2="385.94475" y2="377" fill="rgb(0, 0, 0)" stroke="rgb(66, 66, 66)" stroke-width="1px" opacity="0.25"></line><line x1="428.8275" y1="0" x2="428.8275" y2="377" fill="rgb(0, 0, 0)" stroke="rgb(66, 66, 66)" stroke-width="1px" opacity="0.25"></line><line x1="471.7102499999999" y1="0" x2="471.7102499999999" y2="377" fill="rgb(0, 0, 0)" stroke="rgb(66, 66, 66)" stroke-width="1px" opacity="0.25"></line><line x1="514.593" y1="0" x2="514.593" y2="377" fill="rgb(0, 0, 0)" stroke="rgb(66, 66, 66)" stroke-width="1px" opacity="0.25"></line></g><g><line x1="0" y1="377" x2="514.593" y2="377" fill="rgb(0, 0, 0)" stroke="rgb(66, 66, 66)" stroke-width="1px" opacity="0.25"></line><line x1="0" y1="345.5833333333333" x2="514.593" y2="345.5833333333333" fill="rgb(0, 0, 0)" stroke="rgb(66, 66, 66)" stroke-width="1px" opacity="0.25"></line><line x1="0" y1="314.1666666666667" x2="514.593" y2="314.1666666666667" fill="rgb(0, 0, 0)" stroke="rgb(66, 66, 66)" stroke-width="1px" opacity="0.25"></line><line x1="0" y1="282.75" x2="514.593" y2="282.75" fill="rgb(0, 0, 0)" stroke="rgb(66, 66, 66)" stroke-width="1px" opacity="0.25"></line><line x1="0" y1="251.33333333333337" x2="514.593" y2="251.33333333333337" fill="rgb(0, 0, 0)" stroke="rgb(66, 66, 66)" stroke-width="1px" opacity="0.25"></line><line x1="0" y1="219.91666666666669" x2="514.593" y2="219.91666666666669" fill="rgb(0, 0, 0)" stroke="rgb(66, 66, 66)" stroke-width="1px" opacity="0.25"></line><line x1="0" y1="188.50000000000003" x2="514.593" y2="188.50000000000003" fill="rgb(0, 0, 0)" stroke="rgb(66, 66, 66)" stroke-width="1px" opacity="0.25"></line><line x1="0" y1="157.08333333333337" x2="514.593" y2="157.08333333333337" fill="rgb(0, 0, 0)" stroke="rgb(66, 66, 66)" stroke-width="1px" opacity="0.25"></line><line x1="0" y1="125.66666666666673" x2="514.593" y2="125.66666666666673" fill="rgb(0, 0, 0)" stroke="rgb(66, 66, 66)" stroke-width="1px" opacity="0.25"></line><line x1="0" y1="94.25000000000004" x2="514.593" y2="94.25000000000004" fill="rgb(0, 0, 0)" stroke="rgb(66, 66, 66)" stroke-width="1px" opacity="0.25"></line><line x1="0" y1="62.833333333333364" x2="514.593" y2="62.833333333333364" fill="rgb(0, 0, 0)" stroke="rgb(66, 66, 66)" stroke-width="1px" opacity="0.25"></line><line x1="0" y1="31.416666666666682" x2="514.593" y2="31.416666666666682" fill="rgb(0, 0, 0)" stroke="rgb(66, 66, 66)" stroke-width="1px" opacity="0.25"></line><line x1="0" y1="0" x2="514.593" y2="0" fill="rgb(0, 0, 0)" stroke="rgb(66, 66, 66)" stroke-width="1px" opacity="0.25"></line></g></g></g><g><g><line x1="0" y1="345.5833333333333" x2="514.593" y2="345.5833333333333" fill="rgb(0, 0, 0)" stroke="rgb(153, 153, 153)" stroke-width="1.5px"></line></g></g><g><g><line x1="42.882749999999994" y1="0" x2="42.882749999999994" y2="377" fill="rgb(0, 0, 0)" stroke="rgb(153, 153, 153)" stroke-width="1.5px"></line></g></g><g><g><g><g><g><path stroke="rgb(51, 187, 238)" stroke-width="2px" d="M57.8917125,-5.942144566952094L60.035849999999996,16.682981066987885L62.179987499999996,36.0373336526983L64.324125,52.728947226098086L66.46826250000001,67.24209826930756L68.6124,79.96313169662633L70.75653750000001,91.20038825898052L72.90067499999999,101.20019915033784L75.0448125,110.1597926052719L77.18894999999999,118.23764380377172L79.3330875,125.56176012172936L81.47722499999999,132.23624490743052L83.6213625,138.34624311847617L85.76549999999999,143.96216349448977L87.9096375,149.14249728180758L90.05377499999999,153.93635558486866L92.1979125,158.38524584846724L94.34204999999999,162.52456039141674L96.4861875,166.3846544742555L98.630325,169.99180648681693L100.77446249999998,173.36881585449026L102.9186,176.5356685159281L105.06273749999998,179.50993600701776L107.206875,182.3071496256079L109.35101249999998,184.94117467512365L111.49515,187.42438628953977L113.63928749999998,189.76789849965124L115.783425,191.9817728202746L117.92756249999998,194.07515463213883L120.07169999999999,196.05634751739782L122.21583749999998,197.93297395899947L124.35997499999999,199.71198936577653L126.50411249999998,201.3998103319876L128.64825,203.00236163144334L130.7923875,204.52503700094198L132.93652500000002,205.97290406489518L135.0806625,207.35056512894747L137.2248,208.66230211078363L139.3689375,209.91205863415587L141.51307500000001,211.1034667368742L143.65721249999999,212.23988162138704L145.80134999999999,213.32439501480914L147.94548749999998,214.359869401046L150.089625,215.34896230522577L152.23376249999998,216.29413711919932L154.37789999999998,217.19764338073026L156.52203749999998,218.0616060602886L158.666175,218.88799673963973L160.81031249999998,219.67865377058249L162.95444999999998,220.43529062503396L165.0985875,221.15951214055522L167.242725,221.8528055418748L169.38686249999998,222.51658374086338L171.53099999999998,223.15220382620086L173.6751375,223.76085456694682L175.819275,224.34373609514347L177.96341249999998,224.90190555428254L180.10754999999997,225.43643915916357L182.2516875,225.94832719324953L184.395825,226.43845594898218L186.53996249999997,226.90770924672697L188.68409999999997,227.35692448170118L190.8282375,227.78686999728956L192.972375,228.19827645093602L195.11651249999997,228.59185188851998L197.26065,228.96830951477435L199.4047875,229.3282420395137L201.54892499999997,229.672256014247L203.69306249999997,230.00091011812245L205.8372,230.3147455423472L207.9813375,230.61426676925407L210.12547499999997,230.89996000101002L212.26961249999997,231.1722255685121L214.41375,231.43151714433372L216.5578875,231.67821179645745L218.70202499999996,231.9127380042324L220.84616249999996,232.13542401327982L222.9903,232.34659410636206L225.1344375,232.54662636590353L227.27857499999996,232.73571393493225L229.4227125,232.91421613456853L231.56685,233.08235604780148L233.7109875,233.24039860497254L235.85512499999996,233.3885776674569L237.9992625,233.52711220040837L240.14339999999999,233.65620099577262L242.28753749999998,233.77601950609457L244.43167499999996,233.88672543512052L246.57581249999998,233.98865684040146L248.71994999999998,234.08185551465212L250.86408749999998,234.166586223646L253.00822499999995,234.24291045272585L255.15236249999998,234.3111422348275L257.2965,234.37132018337175L259.4406375,234.42370715655602L261.584775,234.4684533789817L263.7289125,234.50570890794575L265.87305000000003,234.53563868099678L268.0171875,234.55844652510228L270.161325,234.57418357843085L272.3054625,234.58306403665105L274.4496,234.58525012359036L276.5937375,234.58101894115416L278.737875,234.5704843182664L280.8820125,234.5535610007823L283.02615000000003,234.53048621342072L285.1702875,234.50160078441394L287.31442499999997,234.46674967548427L289.45856249999997,234.42621063435777L291.60269999999997,234.38008289681702L293.74683749999997,234.3284185140142L295.89097499999997,234.27143971972524L298.0351125,234.20909259628968L300.17925,234.14174552507234L302.32338749999997,234.06940231569826L304.46752499999997,233.9920427829915L306.61166249999997,233.9097896415528L308.75579999999997,233.82284760069066L310.89993749999996,233.73120840544232L313.04407499999996,233.63503938012164L315.1882125,233.53437350646362L317.33235,233.42946277333724L319.47648749999996,233.32027860645508L321.62062499999996,233.20698737401202L323.76476249999996,233.08947167773107L325.90889999999996,232.9680543202901L328.05303749999996,232.8425956641879L330.197175,232.71334150087318L332.3413125,232.58019961507011L334.48545,232.4435378805253L336.62958749999996,232.3031950153184L338.77372499999996,232.15933641139304L340.91786249999996,232.01199389106216L343.06199999999995,231.8611416058114L345.20613749999995,231.70709362048137L347.350275,231.5497537419293L349.4944125,231.38926649282934L351.63855,231.22566240940824L353.78268749999995,231.0589635585607L355.92682499999995,230.88937043834886L358.07096249999995,230.71667002850276L360.21509999999995,230.5411801907231L362.3592375,230.36290812926353L364.503375,230.18176828287162L366.6475125,229.99793027914833L368.79165,229.81138728505738L370.93578749999995,229.62235616512916L373.07992499999995,229.43087340911916L375.22406249999995,229.2368298303328L377.36819999999994,229.04037339078835L379.5123375,228.8415441806363L381.656475,228.64054227641702L383.8006125,228.43717687589813L385.94475,228.23146083312966L388.08888749999994,228.0233381928468L390.23302499999994,227.81311244615696L392.37716249999994,227.6006061525074L394.5213,227.3861210698442L396.6654375,227.16958732731482L398.809575,226.950936786298L400.9537125,226.73056300200864L403.09784999999994,226.50817778538374L405.24198749999994,226.28396775820283L407.38612499999994,226.05804863869207L409.53026249999994,225.83022020637426L411.6744,225.600609509425L413.8185375,225.369289031591L415.962675,225.13627604701082L418.1068125,224.9013711912908L420.25094999999993,224.66506905179088L422.39508749999993,224.427344297295L424.53922499999993,224.1880281775744L426.6833625,223.9471505230398L428.8275,223.7047292319376L430.9716375,223.46081998511787L433.115775,223.21541124918838L435.2599125,222.96857849760121L437.4040499999999,222.7202471693552L439.5481874999999,222.47066090505498L441.6923249999999,222.2197786311379L443.8364625,221.9676918033801L445.9806,221.7143129792239L448.1247375,221.4594623577451L450.268875,221.20343653550876L452.4130125,220.94648462846556L454.5571499999999,220.68838159033467L456.7012874999999,220.42911223841995L458.845425,220.16879854365163L460.9895625,219.9073226855038L463.1337,219.64469261998963L465.2778375,219.38117902697144L467.421975,219.11676080159958L469.5661125,218.85127547462352" style="fill: none;" fill="none"></path></g><g><path stroke="rgb(204, 51, 17)" stroke-width="2px" d="M55.747575,-15.2704500511513L57.8917125,20.63937327432055L60.035849999999996,50.469874493594524L62.179987499999996,75.58077471335625L64.324125,96.97849117640281L66.46826250000001,115.42135864217657L68.6124,131.48726002885505L70.75653750000001,145.6204986174986L72.90067499999999,158.16515840483956L75.0448125,169.38977623012354L77.18894999999999,179.50573478101717L79.3330875,188.68092121689747L81.47722499999999,197.0498972141555L83.6213625,204.72159938443826L85.76549999999999,211.78515792221464L87.9096375,218.3142498463601L90.05377499999999,224.37020108770898L92.1979125,230.00476642831185L94.34204999999999,235.26182953061863L96.4861875,240.17896686854624L98.630325,244.7885717872339L100.77446249999998,249.11880898100668L102.9186,253.19428409271526L105.06273749999998,257.0365763007237L107.206875,260.66478618619027L109.35101249999998,264.09589246482096L111.49515,267.3450165426769L113.63928749999998,270.4256860902037L115.783425,273.3500793119405L117.92756249999998,276.12916588312675L120.07169999999999,278.7728626654815L122.21583749999998,281.29018143910724L124.35997499999999,283.6893025596657L126.50411249999998,285.9777090357368L128.64825,288.162201434534L130.7923875,290.2490641217506L132.93652500000002,292.24403392478274L135.0806625,294.1524049208159L137.2248,295.9790782015789L139.3689375,297.7285524080057L141.51307500000001,299.4050304057744L143.65721249999999,301.01238029876265L145.80134999999999,302.5542412450854L147.94548749999998,304.0339633564837L150.089625,305.4547167628489L152.23376249999998,306.8194306518365L154.37789999999998,308.13085219417616L156.52203749999998,309.39157440854007L158.666175,310.60400512969306L160.81031249999998,311.7704195473942L162.95444999999998,312.8929542781526L165.0985875,313.97361223488747L167.242725,315.01428052935825L169.38686249999998,316.0167421499124L171.53099999999998,316.98267641410615L173.6751375,317.9136639217261L175.819275,318.811207316104L177.96341249999998,319.6767203336656L180.10754999999997,320.51154370461114L182.2516875,321.31693596753007L184.395825,322.0941082186253L186.53996249999997,322.8441953378966L188.68409999999997,323.5682827304632L190.8282375,324.2673999004064L192.972375,324.942507700324L195.11651249999997,325.594553880612L197.26065,326.2244193440993L199.4047875,326.8329453532191L201.54892499999997,327.4209404914156L203.69306249999997,327.9891768815264L205.8372,328.5383874486672L207.9813375,329.06928300375466L210.12547499999997,329.58253861823516L212.26961249999997,330.0788013658454L214.41375,330.55869403137945L216.5578875,331.022810781921L218.70202499999996,331.47171925103174L220.84616249999996,331.90596459813224L222.9903,332.32607241227606L225.1344375,332.73254109151793L227.27857499999996,333.1258456971405L229.4227125,333.50645056537735L231.56685,333.8747855087436L233.7109875,334.2312760105918L235.85512499999996,334.57632529469475L237.9992625,334.91031807948434L240.14339999999999,335.2336303209123L242.28753749999998,335.54661633237345L244.43167499999996,335.84962750684207L246.57581249999998,336.1429989725509L248.71994999999998,336.42705258780177L250.86408749999998,336.7020989719239L253.00822499999995,336.9684434052978L255.15236249999998,337.2263739205901L257.2965,337.47617452179423L259.4406375,337.71811673058585L261.584775,337.95246223852644L263.7289125,338.17946449838445L265.87305000000003,338.39936827449424L268.0171875,338.6124098411158L270.161325,338.81881663330626L272.3054625,339.018809144094L274.4496,339.2125957428283L276.5937375,339.4003840786785L278.737875,339.5823706013751L280.8820125,339.7587471476371L283.02615000000003,339.9296941256975L285.1702875,340.0953900022182L287.31442499999997,340.25600716339784L289.45856249999997,340.4117075590575L291.60269999999997,340.5626530801103L293.74683749999997,340.7089946977578L295.89097499999997,340.8508830342933L298.0351125,340.98845925680513L300.17925,341.12186318959823L302.32338749999997,341.2512294039316L304.46752499999997,341.376683701499L306.61166249999997,341.4983509525947L308.75579999999997,341.6163528938766L310.89993749999996,341.7308035300106L313.04407499999996,341.8418174930968L315.1882125,341.9495008969441L317.33235,342.05396036212454L319.47648749999996,342.15529614220446L321.62062499999996,342.2536063090536L323.76476249999996,342.3489856359084L325.90889999999996,342.4415250442456L328.05303749999996,342.531313729668L330.197175,342.61843739449296L332.3413125,342.70297788952377L334.48545,342.78501569094516L336.62958749999996,342.8646281094462L338.77372499999996,342.9418900882742L340.91786249999996,343.0168739798491L343.06199999999995,343.08964964580485L345.20613749999995,343.1602857458943L347.350275,343.22884746839105L349.4944125,343.2953978601627L351.63855,343.35999950248697L353.78268749999995,343.4227106010203L355.92682499999995,343.48358931084306L358.07096249999995,343.5426911233753L360.21509999999995,343.6000704585037L362.3592375,343.65577916209776L364.503375,343.70986771117083L366.6475125,343.76238541031387L368.79165,343.8133795732665L370.93578749999995,343.86289596814856L373.07992499999995,343.9109789090454L375.22406249999995,343.9576723642843L377.36819999999994,344.0030169932786L379.5123375,344.04705386933523L381.656475,344.0898217393008L383.8006125,344.1313584222909L385.94475,344.1717010052276L388.08888749999994,344.2108849653553L390.23302499999994,344.24894475559347L392.37716249999994,344.2859135705677L394.5213,344.32182417177654L396.6654375,344.3567075101128L398.809575,344.39059424010026L400.9537125,344.42351398992867L403.09784999999994,344.4554950990291L405.24198749999994,344.4865651335779L407.38612499999994,344.5167510787618L409.53026249999994,344.5460790152521L411.6744,344.5745739543478L413.8185375,344.6022603242427L415.962675,344.6291620569724L418.1068125,344.65530182132846L420.25094999999993,344.68070185000596L422.39508749999993,344.7053842603372L424.53922499999993,344.7293696960023L426.6833625,344.7526784724123L428.8275,344.77533047394405L430.9716375,344.7973445071006L433.115775,344.81873879017905L435.2599125,344.8395318615106L437.4040499999999,344.8597409592358L439.5481874999999,344.87938298026637L441.6923249999999,344.8984742949271L443.8364625,344.91703110388596L445.9806,344.9350681601006L448.1247375,344.9526013228882L450.268875,344.9696443796605L452.4130125,344.98621158634046L454.5571499999999,345.00231707033106L456.7012874999999,345.0179733311936L458.845425,345.03319391065884L460.9895625,345.0479910007733L463.1337,345.06237664210164L465.2778375,345.0763627696898L467.421975,345.0899607578688L469.5661125,345.1031816737995" style="fill: none;" fill="none"></path></g></g></g></g><g opacity="0.2"><g><g><g><path stroke="rgb(51, 187, 238)" stroke-width="2px" d="M53.6034375,-11.718870639801025L55.747575,12.702970961729699L57.8917125,32.93310007452969L60.035849999999996,50.05064667264622L62.179987499999996,64.77629160881047L64.324125,77.61497587958978L66.46826250000001,88.9328449070454L68.6124,99.00314545631413L70.75653750000001,108.03425814708076L72.90067499999999,116.18816108504937L75.0448125,123.5928637882074L77.18894999999999,130.35100232561433L79.3330875,136.54607500632608L81.47722499999999,142.24695529540384L83.6213625,147.51068195700648L85.76549999999999,152.38573606808984L87.9096375,156.9128275016944L90.05377499999999,161.1270483930906L92.1979125,165.05852854251864L94.34204999999999,168.73350278536483L96.4861875,172.17477913697564L98.630325,175.4025252759457L100.77446249999998,178.43432472149536L102.9186,181.28594459096595L105.06273749999998,183.97133559981987L107.206875,186.50296912590667L109.35101249999998,188.8922117253145L111.49515,191.14920341471836L113.63928749999998,193.28316664695743L115.783425,195.30258420606458L117.92756249999998,197.21522729595506L120.07169999999999,199.02813681463405L122.21583749999998,200.74791360398137L124.35997499999999,202.38051246603334L126.50411249999998,203.93154177566373L128.64825,205.4061885774136L130.7923875,206.8090500533581L132.93652500000002,208.1447046597799L135.0806625,209.41705672442916L137.2248,210.629907583197L139.3689375,211.78669341901943L141.51307500000001,212.89057889084026L143.65721249999999,213.94450394809246L145.80134999999999,214.9511651049058L147.94548749999998,215.9130809803804L150.089625,216.8326016614835L152.23376249999998,217.71189934015274L154.37789999999998,218.55290277302265L156.52203749999998,219.3575500796239L158.666175,220.12758275866508L160.81031249999998,220.86463931699598L162.95444999999998,221.57024590671062L165.0985875,222.24584441383683L167.242725,222.89274564385414L169.38686249999998,223.5122510393461L171.53099999999998,224.10563395420715L173.6751375,224.67383067806566L175.819275,225.2180583874385L177.96341249999998,225.73915974299118L180.10754999999997,226.23823956648513L182.2516875,226.71615924437845L184.395825,227.17364908258125L186.53996249999997,227.61158919334412L188.68409999999997,228.03074733416244L190.8282375,228.4317882706722L192.972375,228.81538613140583L195.11651249999997,229.18221504489586L197.26065,229.53299595415592L199.4047875,229.8681408266227L201.54892499999997,230.18827697634697L203.69306249999997,230.49389127393567L205.8372,230.78549867868423L207.9813375,231.06354860961437L210.12547499999997,231.328499848644L212.26961249999997,231.5806239197652L214.41375,231.82045450806618L216.5578875,232.04825377464294L218.70202499999996,232.2645273158948L220.84616249999996,232.46945302685106L222.9903,232.6633492459854L225.1344375,232.84667475521564L227.27857499999996,233.0193452884754L229.4227125,233.1819694340229L231.56685,233.3345659176509L233.7109875,233.47746244072914L235.85512499999996,233.61084626118347L237.9992625,233.7349139998357L240.14339999999999,233.84983418881893L242.28753749999998,233.95574727157756L244.43167499999996,234.0527843286594L246.57581249999998,234.14155394832298L248.71994999999998,234.22165352602804L250.86408749999998,234.29368228713676L253.00822499999995,234.3573967963457L255.15236249999998,234.41348990797997L257.2965,234.46158710618818L259.4406375,234.5022876163324L261.584775,234.53557271262014L263.7289125,234.5615922013919L265.87305000000003,234.5805333405733L268.0171875,234.59265829126045L270.161325,234.59778915842378L272.3054625,234.59638472398126L274.4496,234.58852925399944L276.5937375,234.5746721674999L278.737875,234.5546823839347L280.8820125,234.52817602455616L283.02615000000003,234.4958740323782L285.1702875,234.45827264090383L287.31442499999997,234.41447301208973L289.45856249999997,234.36540207266808L291.60269999999997,234.31089129050577L293.74683749999997,234.25092193981015L295.89097499999997,234.1859715282917L298.0351125,234.11557191113636L300.17925,234.04072491824627L302.32338749999997,233.9608875016372L304.46752499999997,233.87600348393127L306.61166249999997,233.78640992939472L308.75579999999997,233.6924345393976L310.89993749999996,233.5937496125698L313.04407499999996,233.49078584214055L315.1882125,233.3833746959766L317.33235,233.2720966736476L319.47648749999996,233.1565023561319L321.62062499999996,233.03705052534744L323.76476249999996,232.91319813330972L325.90889999999996,232.78592828412854L328.05303749999996,232.65440768003464L330.197175,232.51946025590107L332.3413125,232.3804867863655L334.48545,232.2385452787082L336.62958749999996,232.09268071750805L338.77372499999996,231.94354850550496L340.91786249999996,231.79098011056587L343.06199999999995,231.63486317793533L345.20613749999995,231.4760216424863L347.350275,231.31374392410123L349.4944125,231.14853561917946L351.63855,230.9802562842767L353.78268749999995,230.80891528228923L355.92682499999995,230.63498075803125L358.07096249999995,230.45761941373348L360.21509999999995,230.27794543405378L362.3592375,230.0955000370741L364.503375,229.91005851328373L366.6475125,229.72217327356339L368.79165,229.53157279392087L370.93578749999995,229.33880948523685L373.07992499999995,229.14364927510425L375.22406249999995,228.94576446215316L377.36819999999994,228.74568873147174L379.5123375,228.5433003654083L381.656475,228.33903942008817L383.8006125,228.13212877511978L385.94475,227.9228867689769L388.08888749999994,227.71115423242256L390.23302499999994,227.49777382612228L392.37716249999994,227.281846712033L394.5213,227.06439344584942L396.6654375,226.84478671352073L398.809575,226.6229609747728L400.9537125,226.4000023255746L403.09784999999994,226.17459996044636L405.24198749999994,225.94765271743142L407.38612499999994,225.71916995942593L409.53026249999994,225.48847755789757L411.6744,225.25619346400106L413.8185375,225.02230831484005L415.962675,224.78675657014057L418.1068125,224.54901390771076L420.25094999999993,224.3106158425411L422.39508749999993,224.07075716555119L424.53922499999993,223.82905399799347L426.6833625,223.58583404123783L428.8275,223.34109729528427L430.9716375,223.0949561148882L433.115775,222.8472981452942L435.2599125,222.59832937022054L437.4040499999999,222.3477501769861L439.5481874999999,222.09628150860473L441.6923249999999,221.84345522026226L443.8364625,221.58956156174347L445.9806,221.33424474298954L448.1247375,221.07718642552697L450.268875,220.81939780215427L452.4130125,220.56105676790082L454.5571499999999,220.30122703313828L456.7012874999999,220.0402082105478L458.845425,219.77832800149918L460.9895625,219.51510889828205L463.1337,219.25074752171838L465.2778375,218.98590863744423L467.421975,218.7201334635417L469.5661125,218.45304748415947" style="fill: none;" fill="none"></path></g><g><path stroke="rgb(204, 51, 17)" stroke-width="2px" d="M51.4593,-22.797236780325544L53.6034375,16.386896133422894L55.747575,47.477853854497305L57.8917125,72.99624041716264L60.035849999999996,94.46406951546673L62.179987499999996,112.86753501494728L64.324125,128.8809901575248L66.46826250000001,142.98529457052553L68.6124,155.53365415334704L70.75653750000001,166.7926680147648L72.90067499999999,176.96740230917933L75.0448125,186.21878649791086L77.18894999999999,194.67539187272394L79.3330875,202.44137129187587L81.47722499999999,209.60208628078306L83.6213625,216.22845141589642L85.76549999999999,222.38010834654176L87.9096375,228.1076728900274L90.05377499999999,233.45400838553905L92.1979125,238.4565476924181L94.34204999999999,243.14738681912422L96.4861875,247.554651906093L98.630325,251.70296737054989L100.77446249999998,255.6141581237316L102.9186,259.3074930061897L105.06273749999998,262.80001248915994L107.206875,266.1070998112361L109.35101249999998,269.24255120009184L111.49515,272.2187022715807L113.63928749999998,275.04669019083184L115.783425,277.73666901886463L117.92756249999998,280.29779566824436L120.07169999999999,282.73840779811144L122.21583749999998,285.0661595761776L124.35997499999999,287.2879842271408L126.50411249999998,289.4103187421958L128.64825,291.4389400283496L130.7923875,293.37935815006495L132.93652500000002,295.23648862789076L135.0806625,297.01496141403913L137.2248,298.71908812224865L139.3689375,300.35276371737325L141.51307500000001,301.9197474022707L143.65721249999999,303.42340513815486L145.80134999999999,304.8670326645176L147.94548749999998,306.25354652355117L150.089625,307.5858468723794L152.23376249999998,308.86650148530805L154.37789999999998,310.09798450767994L156.52203749999998,311.2826577300827L158.666175,312.4226512114207L160.81031249999998,313.5200411739449L162.95444999999998,314.57675637428963L165.0985875,315.59459916998946L167.242725,316.57528297106427L169.38686249999998,317.5204345807433L171.53099999999998,318.4315778103968L173.6751375,319.31014518315595L175.819275,320.15752240767085L177.96341249999998,320.9749898600082L180.10754999999997,321.76377876102924L182.2516875,322.52502436190844L184.395825,323.25986659526825L186.53996249999997,323.9693260168036L188.68409999999997,324.65441381931305L190.8282375,325.3160756553213L192.972375,325.95516940020025L195.11651249999997,326.57262315104407L197.26065,327.16921753933036L199.4047875,327.7457343668988L201.54892499999997,328.3029331987103L203.69306249999997,328.8415314666927L205.8372,329.3622032993784L207.9813375,329.86562633638584L210.12547499999997,330.35242203995585L212.26961249999997,330.8231954872608L214.41375,331.2785330296805L216.5578875,331.71898590773344L218.70202499999996,332.1450819546978L220.84616249999996,332.55733261878294L222.9903,332.95623413349193L225.1344375,333.34224411038065L227.27857499999996,333.71580260557437L229.4227125,334.07735786773264L231.56685,334.427287923793L233.7109875,334.7660117633641L235.85512499999996,335.0938992208491L237.9992625,335.4113072566688L240.14339999999999,335.71859868305427L242.28753749999998,336.01609534956515L244.43167499999996,336.30414426854503L246.57581249999998,336.58305617111426L248.71994999999998,336.853133010678L250.86408749999998,337.11466854810715L253.00822499999995,337.3679600553587L255.15236249999998,337.6132696935286L257.2965,337.85087542360026L259.4406375,338.08103004377335L261.584775,338.3039805004373L263.7289125,338.5199678881715L265.87305000000003,338.72922393865883L268.0171875,338.93197219104815L270.161325,339.128426821592L272.3054625,339.3187979102756L274.4496,339.50327564092976L276.5937375,339.68206658245373L278.737875,339.85535038542L280.8820125,340.02331196703017L283.02615000000003,340.1861145927881L285.1702875,340.3439338169992L287.31442499999997,340.49693290516734L289.45856249999997,340.645258152547L291.60269999999997,340.78907136168954L293.74683749999997,340.92850712422904L295.89097499999997,341.06371553909656L298.0351125,341.1948235905729L300.17925,341.32196908878785L302.32338749999997,341.4452787254316L304.46752499999997,341.5648651478502L306.61166249999997,341.68085182923824L308.75579999999997,341.79335580579937L310.89993749999996,341.90247948421165L313.04407499999996,342.0083384377261L315.1882125,342.11102600271505L317.33235,342.2106495598952L319.47648749999996,342.30729981232435L321.62062499999996,342.40107155932736L323.76476249999996,342.4920546261904L325.90889999999996,342.58033415675163L328.05303749999996,342.6659967578016L330.197175,342.74912289173034L332.3413125,342.82978863207L334.48545,342.90807239307713L336.62958749999996,342.9840467371978L338.77372499999996,343.0577830565162L340.91786249999996,343.12934981721145L343.06199999999995,343.1988131447385L345.20613749999995,343.2662398960286L347.350275,343.33169005213614L349.4944125,343.3952234478202L351.63855,343.45690196597326L353.78268749999995,343.5167772488203L355.92682499999995,343.5749073755772L358.07096249999995,343.63134384217364L360.21509999999995,343.6861394611963L362.3592375,343.73934221748885L364.503375,343.7910005347803L366.6475125,343.8411619590285L368.79165,343.88987081769545L370.93578749999995,343.9371705604717L373.07992499999995,343.9831033203906L375.22406249999995,344.0277125471427L377.36819999999994,344.07103393677L379.5123375,344.11310918342014L381.656475,344.1539735442493L383.8006125,344.19366344677593L385.94475,344.23221487963264L388.08888749999994,344.2696609055468L390.23302499999994,344.3060344409508L392.37716249999994,344.341366793029L394.5213,344.3756900735898L396.6654375,344.4090325176173L398.809575,344.4414243350814L400.9537125,344.4728936146712L403.09784999999994,344.5034667626799L405.24198749999994,344.5331701854011L407.38612499999994,344.5620299965376L409.53026249999994,344.59007091998745L411.6744,344.6173163629913L413.8185375,344.6437898790852L415.962675,344.6695146560669L418.1068125,344.6945114678626L420.25094999999993,344.7188018930222L422.39508749999993,344.74240787583403L424.53922499999993,344.7653478495001L426.6833625,344.78764163702726L428.8275,344.8093084762416L430.9716375,344.8303655568355L433.115775,344.8508302147966L435.2599125,344.87072146850795L437.4040499999999,344.89005460582365L439.5481874999999,344.90884601181216L441.6923249999999,344.9271112669182L443.8364625,344.94486631732434L445.9806,344.96212374442257L448.1247375,344.97890106706956L450.268875,344.9952089648189L452.4130125,345.0110623963604L454.5571499999999,345.02647529631696L456.7012874999999,345.0414577224874L458.845425,345.05602477985667L460.9895625,345.070186635945L463.1337,345.0839551040942L465.2778375,345.0973419610721L467.421975,345.11035774013726L469.5661125,345.12301304769545" style="fill: none;" fill="none"></path></g></g></g></g></g></g><g transform="translate(50, 377)" clip-path="url(#clip_1)"><clipPath id="clip_1"><rect width="514" height="22"></rect></clipPath><g><g><line x1="0" y1="0" x2="0" y2="5" style="visibility: inherit;" fill="rgb(0, 0, 0)" stroke="rgb(204, 204, 204)" stroke-width="1px"></line><line x1="42.882749999999994" y1="0" x2="42.882749999999994" y2="5" style="visibility: inherit;" fill="rgb(0, 0, 0)" stroke="rgb(204, 204, 204)" stroke-width="1px"></line><line x1="85.76549999999999" y1="0" x2="85.76549999999999" y2="5" style="visibility: inherit;" fill="rgb(0, 0, 0)" stroke="rgb(204, 204, 204)" stroke-width="1px"></line><line x1="128.64825" y1="0" x2="128.64825" y2="5" style="visibility: inherit;" fill="rgb(0, 0, 0)" stroke="rgb(204, 204, 204)" stroke-width="1px"></line><line x1="171.53099999999998" y1="0" x2="171.53099999999998" y2="5" style="visibility: inherit;" fill="rgb(0, 0, 0)" stroke="rgb(204, 204, 204)" stroke-width="1px"></line><line x1="214.41375" y1="0" x2="214.41375" y2="5" style="visibility: inherit;" fill="rgb(0, 0, 0)" stroke="rgb(204, 204, 204)" stroke-width="1px"></line><line x1="257.2965" y1="0" x2="257.2965" y2="5" style="visibility: inherit;" fill="rgb(0, 0, 0)" stroke="rgb(204, 204, 204)" stroke-width="1px"></line><line x1="300.17925" y1="0" x2="300.17925" y2="5" style="visibility: inherit;" fill="rgb(0, 0, 0)" stroke="rgb(204, 204, 204)" stroke-width="1px"></line><line x1="343.06199999999995" y1="0" x2="343.06199999999995" y2="5" style="visibility: inherit;" fill="rgb(0, 0, 0)" stroke="rgb(204, 204, 204)" stroke-width="1px"></line><line x1="385.94475" y1="0" x2="385.94475" y2="5" style="visibility: inherit;" fill="rgb(0, 0, 0)" stroke="rgb(204, 204, 204)" stroke-width="1px"></line><line x1="428.8275" y1="0" x2="428.8275" y2="5" style="visibility: inherit;" fill="rgb(0, 0, 0)" stroke="rgb(204, 204, 204)" stroke-width="1px"></line><line x1="471.7102499999999" y1="0" x2="471.7102499999999" y2="5" style="visibility: inherit;" fill="rgb(0, 0, 0)" stroke="rgb(204, 204, 204)" stroke-width="1px"></line><line x1="514.593" y1="0" x2="514.593" y2="5" style="visibility: inherit;" fill="rgb(0, 0, 0)" stroke="rgb(204, 204, 204)" stroke-width="1px"></line></g><g transform="translate(0, 8)"><text x="0" y="0" dx="0em" dy="0.95em" style="text-anchor: middle; visibility: hidden; font-family: Roboto, sans-serif; font-size: 12px; font-weight: 200;" fill="rgb(33, 33, 33)" stroke="none" stroke-width="1px">-20</text><text x="42.882749999999994" y="0" dx="0em" dy="0.95em" style="text-anchor: middle; visibility: inherit; font-family: Roboto, sans-serif; font-size: 12px; font-weight: 200;" fill="rgb(33, 33, 33)" stroke="none" stroke-width="1px">0</text><text x="85.76549999999999" y="0" dx="0em" dy="0.95em" style="text-anchor: middle; visibility: inherit; font-family: Roboto, sans-serif; font-size: 12px; font-weight: 200;" fill="rgb(33, 33, 33)" stroke="none" stroke-width="1px">20</text><text x="128.64825" y="0" dx="0em" dy="0.95em" style="text-anchor: middle; visibility: inherit; font-family: Roboto, sans-serif; font-size: 12px; font-weight: 200;" fill="rgb(33, 33, 33)" stroke="none" stroke-width="1px">40</text><text x="171.53099999999998" y="0" dx="0em" dy="0.95em" style="text-anchor: middle; visibility: inherit; font-family: Roboto, sans-serif; font-size: 12px; font-weight: 200;" fill="rgb(33, 33, 33)" stroke="none" stroke-width="1px">60</text><text x="214.41375" y="0" dx="0em" dy="0.95em" style="text-anchor: middle; visibility: inherit; font-family: Roboto, sans-serif; font-size: 12px; font-weight: 200;" fill="rgb(33, 33, 33)" stroke="none" stroke-width="1px">80</text><text x="257.2965" y="0" dx="0em" dy="0.95em" style="text-anchor: middle; visibility: inherit; font-family: Roboto, sans-serif; font-size: 12px; font-weight: 200;" fill="rgb(33, 33, 33)" stroke="none" stroke-width="1px">100</text><text x="300.17925" y="0" dx="0em" dy="0.95em" style="text-anchor: middle; visibility: inherit; font-family: Roboto, sans-serif; font-size: 12px; font-weight: 200;" fill="rgb(33, 33, 33)" stroke="none" stroke-width="1px">120</text><text x="343.06199999999995" y="0" dx="0em" dy="0.95em" style="text-anchor: middle; visibility: inherit; font-family: Roboto, sans-serif; font-size: 12px; font-weight: 200;" fill="rgb(33, 33, 33)" stroke="none" stroke-width="1px">140</text><text x="385.94475" y="0" dx="0em" dy="0.95em" style="text-anchor: middle; visibility: inherit; font-family: Roboto, sans-serif; font-size: 12px; font-weight: 200;" fill="rgb(33, 33, 33)" stroke="none" stroke-width="1px">160</text><text x="428.8275" y="0" dx="0em" dy="0.95em" style="text-anchor: middle; visibility: inherit; font-family: Roboto, sans-serif; font-size: 12px; font-weight: 200;" fill="rgb(33, 33, 33)" stroke="none" stroke-width="1px">180</text><text x="471.7102499999999" y="0" dx="0em" dy="0.95em" style="text-anchor: middle; visibility: inherit; font-family: Roboto, sans-serif; font-size: 12px; font-weight: 200;" fill="rgb(33, 33, 33)" stroke="none" stroke-width="1px">200</text><text x="514.593" y="0" dx="0em" dy="0.95em" style="text-anchor: middle; visibility: hidden; font-family: Roboto, sans-serif; font-size: 12px; font-weight: 200;" fill="rgb(33, 33, 33)" stroke="none" stroke-width="1px">220</text></g><line x1="0" y1="0" x2="514.593" y2="0" fill="rgb(0, 0, 0)" stroke="rgb(204, 204, 204)" stroke-width="1px"></line></g></g></g></g></svg>