<svg viewBox="0 0 553 400" xmlns="http://www.w3.org/2000/svg"><g><g><g><g><g><line x1="40" y1="377" x2="35" y2="377" style="visibility: inherit;" fill="rgb(0, 0, 0)" stroke="rgb(204, 204, 204)" stroke-width="1px"></line><line x1="40" y1="335.11111111111114" x2="35" y2="335.11111111111114" style="visibility: inherit;" fill="rgb(0, 0, 0)" stroke="rgb(204, 204, 204)" stroke-width="1px"></line><line x1="40" y1="293.22222222222223" x2="35" y2="293.22222222222223" style="visibility: inherit;" fill="rgb(0, 0, 0)" stroke="rgb(204, 204, 204)" stroke-width="1px"></line><line x1="40" y1="251.33333333333337" x2="35" y2="251.33333333333337" style="visibility: inherit;" fill="rgb(0, 0, 0)" stroke="rgb(204, 204, 204)" stroke-width="1px"></line><line x1="40" y1="209.44444444444446" x2="35" y2="209.44444444444446" style="visibility: inherit;" fill="rgb(0, 0, 0)" stroke="rgb(204, 204, 204)" stroke-width="1px"></line><line x1="40" y1="167.55555555555563" x2="35" y2="167.55555555555563" style="visibility: inherit;" fill="rgb(0, 0, 0)" stroke="rgb(204, 204, 204)" stroke-width="1px"></line><line x1="40" y1="125.66666666666669" x2="35" y2="125.66666666666669" style="visibility: inherit;" fill="rgb(0, 0, 0)" stroke="rgb(204, 204, 204)" stroke-width="1px"></line><line x1="40" y1="83.77777777777786" x2="35" y2="83.77777777777786" style="visibility: inherit;" fill="rgb(0, 0, 0)" stroke="rgb(204, 204, 204)" stroke-width="1px"></line><line x1="40" y1="41.88888888888891" x2="35" y2="41.88888888888891" style="visibility: inherit;" fill="rgb(0, 0, 0)" stroke="rgb(204, 204, 204)" stroke-width="1px"></line><line x1="40" y1="0" x2="35" y2="0" style="visibility: inherit;" fill="rgb(0, 0, 0)" stroke="rgb(204, 204, 204)" stroke-width="1px"></line></g><g transform="translate(30, 0)"><text x="0" y="377" dx="0em" dy="0.3em" style="text-anchor: end; visibility: hidden; font-family: Roboto, sans-serif; font-size: 12px; font-weight: 200;" fill="rgb(33, 33, 33)" stroke="none" stroke-width="1px">0.2</text><text x="0" y="335.11111111111114" dx="0em" dy="0.3em" style="text-anchor: end; visibility: inherit; font-family: Roboto, sans-serif; font-size: 12px; font-weight: 200;" fill="rgb(33, 33, 33)" stroke="none" stroke-width="1px">0.3</text><text x="0" y="293.22222222222223" dx="0em" dy="0.3em" style="text-anchor: end; visibility: inherit; font-family: Roboto, sans-serif; font-size: 12px; font-weight: 200;" fill="rgb(33, 33, 33)" stroke="none" stroke-width="1px">0.4</text><text x="0" y="251.33333333333337" dx="0em" dy="0.3em" style="text-anchor: end; visibility: inherit; font-family: Roboto, sans-serif; font-size: 12px; font-weight: 200;" fill="rgb(33, 33, 33)" stroke="none" stroke-width="1px">0.5</text><text x="0" y="209.44444444444446" dx="0em" dy="0.3em" style="text-anchor: end; visibility: inherit; font-family: Roboto, sans-serif; font-size: 12px; font-weight: 200;" fill="rgb(33, 33, 33)" stroke="none" stroke-width="1px">0.6</text><text x="0" y="167.55555555555563" dx="0em" dy="0.3em" style="text-anchor: end; visibility: inherit; font-family: Roboto, sans-serif; font-size: 12px; font-weight: 200;" fill="rgb(33, 33, 33)" stroke="none" stroke-width="1px">0.7</text><text x="0" y="125.66666666666669" dx="0em" dy="0.3em" style="text-anchor: end; visibility: inherit; font-family: Roboto, sans-serif; font-size: 12px; font-weight: 200;" fill="rgb(33, 33, 33)" stroke="none" stroke-width="1px">0.8</text><text x="0" y="83.77777777777786" dx="0em" dy="0.3em" style="text-anchor: end; visibility: inherit; font-family: Roboto, sans-serif; font-size: 12px; font-weight: 200;" fill="rgb(33, 33, 33)" stroke="none" stroke-width="1px">0.9</text><text x="0" y="41.88888888888891" dx="0em" dy="0.3em" style="text-anchor: end; visibility: inherit; font-family: Roboto, sans-serif; font-size: 12px; font-weight: 200;" fill="rgb(33, 33, 33)" stroke="none" stroke-width="1px">1</text><text x="0" y="0" dx="0em" dy="0.3em" style="text-anchor: end; visibility: hidden; font-family: Roboto, sans-serif; font-size: 12px; font-weight: 200;" fill="rgb(33, 33, 33)" stroke="none" stroke-width="1px">1.1</text></g><line x1="40" y1="0" x2="40" y2="377" fill="rgb(0, 0, 0)" stroke="rgb(204, 204, 204)" stroke-width="1px"></line></g></g><g transform="translate(40, 0)" clip-path="url(#clip_0)"><clipPath id="clip_0"><rect width="513" height="377"></rect></clipPath><g><g><g><line x1="0" y1="0" x2="0" y2="377" fill="rgb(0, 0, 0)" stroke="rgb(66, 66, 66)" stroke-width="1px" opacity="0.25"></line><line x1="42.75" y1="0" x2="42.75" y2="377" fill="rgb(0, 0, 0)" stroke="rgb(66, 66, 66)" stroke-width="1px" opacity="0.25"></line><line x1="85.5" y1="0" x2="85.5" y2="377" fill="rgb(0, 0, 0)" stroke="rgb(66, 66, 66)" stroke-width="1px" opacity="0.25"></line><line x1="128.25" y1="0" x2="128.25" y2="377" fill="rgb(0, 0, 0)" stroke="rgb(66, 66, 66)" stroke-width="1px" opacity="0.25"></line><line x1="171" y1="0" x2="171" y2="377" fill="rgb(0, 0, 0)" stroke="rgb(66, 66, 66)" stroke-width="1px" opacity="0.25"></line><line x1="213.75" y1="0" x2="213.75" y2="377" fill="rgb(0, 0, 0)" stroke="rgb(66, 66, 66)" stroke-width="1px" opacity="0.25"></line><line x1="256.5" y1="0" x2="256.5" y2="377" fill="rgb(0, 0, 0)" stroke="rgb(66, 66, 66)" stroke-width="1px" opacity="0.25"></line><line x1="299.25" y1="0" x2="299.25" y2="377" fill="rgb(0, 0, 0)" stroke="rgb(66, 66, 66)" stroke-width="1px" opacity="0.25"></line><line x1="342" y1="0" x2="342" y2="377" fill="rgb(0, 0, 0)" stroke="rgb(66, 66, 66)" stroke-width="1px" opacity="0.25"></line><line x1="384.75" y1="0" x2="384.75" y2="377" fill="rgb(0, 0, 0)" stroke="rgb(66, 66, 66)" stroke-width="1px" opacity="0.25"></line><line x1="427.5" y1="0" x2="427.5" y2="377" fill="rgb(0, 0, 0)" stroke="rgb(66, 66, 66)" stroke-width="1px" opacity="0.25"></line><line x1="470.25" y1="0" x2="470.25" y2="377" fill="rgb(0, 0, 0)" stroke="rgb(66, 66, 66)" stroke-width="1px" opacity="0.25"></line><line x1="513" y1="0" x2="513" y2="377" fill="rgb(0, 0, 0)" stroke="rgb(66, 66, 66)" stroke-width="1px" opacity="0.25"></line></g><g><line x1="0" y1="377" x2="513" y2="377" fill="rgb(0, 0, 0)" stroke="rgb(66, 66, 66)" stroke-width="1px" opacity="0.25"></line><line x1="0" y1="335.11111111111114" x2="513" y2="335.11111111111114" fill="rgb(0, 0, 0)" stroke="rgb(66, 66, 66)" stroke-width="1px" opacity="0.25"></line><line x1="0" y1="293.22222222222223" x2="513" y2="293.22222222222223" fill="rgb(0, 0, 0)" stroke="rgb(66, 66, 66)" stroke-width="1px" opacity="0.25"></line><line x1="0" y1="251.33333333333337" x2="513" y2="251.33333333333337" fill="rgb(0, 0, 0)" stroke="rgb(66, 66, 66)" stroke-width="1px" opacity="0.25"></line><line x1="0" y1="209.44444444444446" x2="513" y2="209.44444444444446" fill="rgb(0, 0, 0)" stroke="rgb(66, 66, 66)" stroke-width="1px" opacity="0.25"></line><line x1="0" y1="167.55555555555563" x2="513" y2="167.55555555555563" fill="rgb(0, 0, 0)" stroke="rgb(66, 66, 66)" stroke-width="1px" opacity="0.25"></line><line x1="0" y1="125.66666666666669" x2="513" y2="125.66666666666669" fill="rgb(0, 0, 0)" stroke="rgb(66, 66, 66)" stroke-width="1px" opacity="0.25"></line><line x1="0" y1="83.77777777777786" x2="513" y2="83.77777777777786" fill="rgb(0, 0, 0)" stroke="rgb(66, 66, 66)" stroke-width="1px" opacity="0.25"></line><line x1="0" y1="41.88888888888891" x2="513" y2="41.88888888888891" fill="rgb(0, 0, 0)" stroke="rgb(66, 66, 66)" stroke-width="1px" opacity="0.25"></line><line x1="0" y1="0" x2="513" y2="0" fill="rgb(0, 0, 0)" stroke="rgb(66, 66, 66)" stroke-width="1px" opacity="0.25"></line></g></g></g><g><g><line x1="0" y1="460.7777777777778" x2="513" y2="460.7777777777778" fill="rgb(0, 0, 0)" stroke="rgb(153, 153, 153)" stroke-width="1.5px"></line></g></g><g><g><line x1="42.75" y1="0" x2="42.75" y2="377" fill="rgb(0, 0, 0)" stroke="rgb(153, 153, 153)" stroke-width="1.5px"></line></g></g><g><g><g><g><g><path stroke="rgb(0, 119, 187)" stroke-width="2px" d="M42.75,395.0444471140703L51.300000000000004,361.2111103356712L59.85,344.9356032513302L68.4,330.6473886178186L76.95,321.1234032557372L85.5,315.9061824881094L94.05,312.9361219942256L102.60000000000001,310.15947940172936L111.15,306.44043224969283L119.7,304.2331367130384L128.25,302.3998966009773L136.8,301.3042184219906L145.35,299.6158794312482L153.9,298.60428839984223L162.45,297.99784136356413L171,298.1498596910815L179.54999999999998,297.7253974333172L188.1,299.01759373065335L196.65,299.7928275132807L205.20000000000002,300.77350992594245L213.75,301.8774612629709L222.3,302.53981656589525L230.85,301.9061089702198L239.4,301.52588761576123L247.95,301.29775595613495L256.5,300.64531797505117L265.05,300.25385589868324L273.6,300.0189789092836L282.15000000000003,299.87805280795516L290.7,298.76238490407724L299.25,297.57743072380987L307.8,296.86645831624304L316.35,295.9243213558898L324.9,294.84348067274647L333.45,294.1949762826796L342,293.80587365577435L350.55,293.5724120821998L359.09999999999997,293.4323351389797L367.65,293.34828897338053L376.2,293.81341979578286L384.75,294.60805181664807L393.3,294.569277501103L401.85,294.5460129117879L410.40000000000003,294.53205415820315L418.95,294.5236789060539L427.5,294.51865375476484L436.05,294.5156386639916L444.6,294.51382960952776L453.15,295.0282977042646L461.7,294.82142503368993" style="fill: none;" fill="none"></path></g><g><path stroke="rgb(255, 112, 67)" stroke-width="2px" d="M51.300000000000004,381.0477711444514L59.85,338.6639975557725L68.4,298.8034760372567L76.95,261.9788848958115L85.5,226.47457669098816L94.05,195.5041352004587L102.60000000000001,168.5422969967171L111.15,145.575409700302L119.7,125.4882467310859L128.25,109.33963837673566L136.8,96.9489113894716L145.35,86.43804331274066L153.9,77.99963286027611L162.45,71.0385842239894L171,65.3187814586681L179.54999999999998,60.69938771981133L188.1,57.215181245451404L196.65,54.88720659357625L205.20000000000002,52.4209660767529L213.75,50.58477251371519L222.3,49.12656833404187L230.85,47.895156152418636L239.4,47.037488115007946L247.95,46.40405317924377L256.5,45.78632021211527L265.05,44.7026820922506L273.6,43.93366348077299L282.15000000000003,43.35341619593839L290.7,42.767605143611036L299.25,42.41611859509957L307.8,42.20522669583113L316.35,42.0786915670119L324.9,42.00277049358757L333.45,41.957217850925026L342,41.92988626582869L350.55,41.913487314951226L359.09999999999997,41.90364794448973L367.65,41.89774432223628L376.2,41.89420214889262L384.75,41.892076844889445L393.3,41.890801662488585L401.85,41.890036553048446L410.40000000000003,41.88957748738456L418.95,41.88930204798636L427.5,41.88913678434735L436.05,41.88903762616404L444.6,41.88897813125395L453.15,41.88894243430798L461.7,41.88892101614032" style="fill: none;" fill="none"></path></g></g></g></g><g opacity="0.2"><g><g><g><path stroke="rgb(0, 119, 187)" stroke-width="2px" d="M42.75,395.0444471140703L51.300000000000004,340.91110826863184L59.85,329.31111645036276L68.4,313.8444482088089L76.95,308.6888879670037L85.5,308.6888879670037L94.05,308.6888879670037L102.60000000000001,306.11110784610116L111.15,300.95556008815765L119.7,300.95556008815765L128.25,299.66666378577554L136.8,299.66666378577554L145.35,297.0888836648729L153.9,297.0888836648729L162.45,297.0888836648729L171,298.3777799672551L179.54999999999998,297.0888836648729L188.1,300.95556008815765L196.65,300.95556008815765L205.20000000000002,302.2444439066781L213.75,303.53332772519855L222.3,303.53332772519855L230.85,300.95556008815765L239.4,300.95556008815765L247.95,300.95556008815765L256.5,299.66666378577554L265.05,299.66666378577554L273.6,299.66666378577554L282.15000000000003,299.66666378577554L290.7,297.0888836648729L299.25,295.7999998463525L307.8,295.7999998463525L316.35,294.51111602783203L324.9,293.2222197254499L333.45,293.2222197254499L342,293.2222197254499L350.55,293.2222197254499L359.09999999999997,293.2222197254499L367.65,293.2222197254499L376.2,294.51111602783203L384.75,295.7999998463525L393.3,294.51111602783203L401.85,294.51111602783203L410.40000000000003,294.51111602783203L418.95,294.51111602783203L427.5,294.51111602783203L436.05,294.51111602783203L444.6,294.51111602783203L453.15,295.7999998463525L461.7,294.51111602783203" style="fill: none;" fill="none"></path></g><g><path stroke="rgb(255, 112, 67)" stroke-width="2px" d="M42.75,423.93932190703026L51.300000000000004,355.31284068690405L59.85,297.9755749106407L68.4,251.9275027314822L76.95,213.90069870154068L85.5,177.3593368927638L94.05,151.21590834193762L102.60000000000001,129.23167806201513L111.15,111.7037120262782L119.7,95.66115076012083L128.25,85.26319253444676L136.8,78.43025069766577L145.35,70.70606100559239L153.9,65.35854890611438L162.45,60.605193720923566L171,56.74311135874858L179.54999999999998,53.77225188414257L188.1,51.98975617355773L196.65,51.39559925927061L205.20000000000002,48.7218307256699L213.75,47.830582870377484L222.3,46.939310047361616L230.85,46.048062192069196L239.4,45.750996218787336L247.95,45.453905277782034L256.5,44.859723395771475L265.05,43.07722768518663L273.6,42.78013674418133L282.15000000000003,42.48304580317607L290.7,41.88888888888891L299.25,41.88888888888891L307.8,41.88888888888891L316.35,41.88888888888891L324.9,41.88888888888891L333.45,41.88888888888891L342,41.88888888888891L350.55,41.88888888888891L359.09999999999997,41.88888888888891L367.65,41.88888888888891L376.2,41.88888888888891L384.75,41.88888888888891L393.3,41.88888888888891L401.85,41.88888888888891L410.40000000000003,41.88888888888891L418.95,41.88888888888891L427.5,41.88888888888891L436.05,41.88888888888891L444.6,41.88888888888891L453.15,41.88888888888891L461.7,41.88888888888891" style="fill: none;" fill="none"></path></g></g></g></g></g></g><g transform="translate(40, 377)" clip-path="url(#clip_1)"><clipPath id="clip_1"><rect width="513" height="23"></rect></clipPath><g><g><line x1="0" y1="0" x2="0" y2="5" style="visibility: inherit;" fill="rgb(0, 0, 0)" stroke="rgb(204, 204, 204)" stroke-width="1px"></line><line x1="42.75" y1="0" x2="42.75" y2="5" style="visibility: inherit;" fill="rgb(0, 0, 0)" stroke="rgb(204, 204, 204)" stroke-width="1px"></line><line x1="85.5" y1="0" x2="85.5" y2="5" style="visibility: inherit;" fill="rgb(0, 0, 0)" stroke="rgb(204, 204, 204)" stroke-width="1px"></line><line x1="128.25" y1="0" x2="128.25" y2="5" style="visibility: inherit;" fill="rgb(0, 0, 0)" stroke="rgb(204, 204, 204)" stroke-width="1px"></line><line x1="171" y1="0" x2="171" y2="5" style="visibility: inherit;" fill="rgb(0, 0, 0)" stroke="rgb(204, 204, 204)" stroke-width="1px"></line><line x1="213.75" y1="0" x2="213.75" y2="5" style="visibility: inherit;" fill="rgb(0, 0, 0)" stroke="rgb(204, 204, 204)" stroke-width="1px"></line><line x1="256.5" y1="0" x2="256.5" y2="5" style="visibility: inherit;" fill="rgb(0, 0, 0)" stroke="rgb(204, 204, 204)" stroke-width="1px"></line><line x1="299.25" y1="0" x2="299.25" y2="5" style="visibility: inherit;" fill="rgb(0, 0, 0)" stroke="rgb(204, 204, 204)" stroke-width="1px"></line><line x1="342" y1="0" x2="342" y2="5" style="visibility: inherit;" fill="rgb(0, 0, 0)" stroke="rgb(204, 204, 204)" stroke-width="1px"></line><line x1="384.75" y1="0" x2="384.75" y2="5" style="visibility: inherit;" fill="rgb(0, 0, 0)" stroke="rgb(204, 204, 204)" stroke-width="1px"></line><line x1="427.5" y1="0" x2="427.5" y2="5" style="visibility: inherit;" fill="rgb(0, 0, 0)" stroke="rgb(204, 204, 204)" stroke-width="1px"></line><line x1="470.25" y1="0" x2="470.25" y2="5" style="visibility: inherit;" fill="rgb(0, 0, 0)" stroke="rgb(204, 204, 204)" stroke-width="1px"></line><line x1="513" y1="0" x2="513" y2="5" style="visibility: inherit;" fill="rgb(0, 0, 0)" stroke="rgb(204, 204, 204)" stroke-width="1px"></line></g><g transform="translate(0, 8)"><text x="0" y="0" dx="0em" dy="0.95em" style="text-anchor: middle; visibility: hidden; font-family: Roboto, sans-serif; font-size: 12px; font-weight: 200;" fill="rgb(33, 33, 33)" stroke="none" stroke-width="1px">-5</text><text x="42.75" y="0" dx="0em" dy="0.95em" style="text-anchor: middle; visibility: inherit; font-family: Roboto, sans-serif; font-size: 12px; font-weight: 200;" fill="rgb(33, 33, 33)" stroke="none" stroke-width="1px">0</text><text x="85.5" y="0" dx="0em" dy="0.95em" style="text-anchor: middle; visibility: inherit; font-family: Roboto, sans-serif; font-size: 12px; font-weight: 200;" fill="rgb(33, 33, 33)" stroke="none" stroke-width="1px">5</text><text x="128.25" y="0" dx="0em" dy="0.95em" style="text-anchor: middle; visibility: inherit; font-family: Roboto, sans-serif; font-size: 12px; font-weight: 200;" fill="rgb(33, 33, 33)" stroke="none" stroke-width="1px">10</text><text x="171" y="0" dx="0em" dy="0.95em" style="text-anchor: middle; visibility: inherit; font-family: Roboto, sans-serif; font-size: 12px; font-weight: 200;" fill="rgb(33, 33, 33)" stroke="none" stroke-width="1px">15</text><text x="213.75" y="0" dx="0em" dy="0.95em" style="text-anchor: middle; visibility: inherit; font-family: Roboto, sans-serif; font-size: 12px; font-weight: 200;" fill="rgb(33, 33, 33)" stroke="none" stroke-width="1px">20</text><text x="256.5" y="0" dx="0em" dy="0.95em" style="text-anchor: middle; visibility: inherit; font-family: Roboto, sans-serif; font-size: 12px; font-weight: 200;" fill="rgb(33, 33, 33)" stroke="none" stroke-width="1px">25</text><text x="299.25" y="0" dx="0em" dy="0.95em" style="text-anchor: middle; visibility: inherit; font-family: Roboto, sans-serif; font-size: 12px; font-weight: 200;" fill="rgb(33, 33, 33)" stroke="none" stroke-width="1px">30</text><text x="342" y="0" dx="0em" dy="0.95em" style="text-anchor: middle; visibility: inherit; font-family: Roboto, sans-serif; font-size: 12px; font-weight: 200;" fill="rgb(33, 33, 33)" stroke="none" stroke-width="1px">35</text><text x="384.75" y="0" dx="0em" dy="0.95em" style="text-anchor: middle; visibility: inherit; font-family: Roboto, sans-serif; font-size: 12px; font-weight: 200;" fill="rgb(33, 33, 33)" stroke="none" stroke-width="1px">40</text><text x="427.5" y="0" dx="0em" dy="0.95em" style="text-anchor: middle; visibility: inherit; font-family: Roboto, sans-serif; font-size: 12px; font-weight: 200;" fill="rgb(33, 33, 33)" stroke="none" stroke-width="1px">45</text><text x="470.25" y="0" dx="0em" dy="0.95em" style="text-anchor: middle; visibility: inherit; font-family: Roboto, sans-serif; font-size: 12px; font-weight: 200;" fill="rgb(33, 33, 33)" stroke="none" stroke-width="1px">50</text><text x="513" y="0" dx="0em" dy="0.95em" style="text-anchor: middle; visibility: hidden; font-family: Roboto, sans-serif; font-size: 12px; font-weight: 200;" fill="rgb(33, 33, 33)" stroke="none" stroke-width="1px">55</text></g><line x1="0" y1="0" x2="513" y2="0" fill="rgb(0, 0, 0)" stroke="rgb(204, 204, 204)" stroke-width="1px"></line></g></g></g></g></svg>