<svg viewBox="0 0 652.7142944335938 400.0000305175781" xmlns="http://www.w3.org/2000/svg"><g><g><g><g><g><line x1="50" y1="377" x2="45" y2="377" style="visibility: inherit;" fill="rgb(0, 0, 0)" stroke="rgb(204, 204, 204)" stroke-width="1px"></line><line x1="50" y1="329.875" x2="45" y2="329.875" style="visibility: inherit;" fill="rgb(0, 0, 0)" stroke="rgb(204, 204, 204)" stroke-width="1px"></line><line x1="50" y1="282.75" x2="45" y2="282.75" style="visibility: inherit;" fill="rgb(0, 0, 0)" stroke="rgb(204, 204, 204)" stroke-width="1px"></line><line x1="50" y1="235.62499999999997" x2="45" y2="235.62499999999997" style="visibility: inherit;" fill="rgb(0, 0, 0)" stroke="rgb(204, 204, 204)" stroke-width="1px"></line><line x1="50" y1="188.49999999999997" x2="45" y2="188.49999999999997" style="visibility: inherit;" fill="rgb(0, 0, 0)" stroke="rgb(204, 204, 204)" stroke-width="1px"></line><line x1="50" y1="141.375" x2="45" y2="141.375" style="visibility: inherit;" fill="rgb(0, 0, 0)" stroke="rgb(204, 204, 204)" stroke-width="1px"></line><line x1="50" y1="94.25" x2="45" y2="94.25" style="visibility: inherit;" fill="rgb(0, 0, 0)" stroke="rgb(204, 204, 204)" stroke-width="1px"></line><line x1="50" y1="47.125" x2="45" y2="47.125" style="visibility: inherit;" fill="rgb(0, 0, 0)" stroke="rgb(204, 204, 204)" stroke-width="1px"></line><line x1="50" y1="0" x2="45" y2="0" style="visibility: inherit;" fill="rgb(0, 0, 0)" stroke="rgb(204, 204, 204)" stroke-width="1px"></line></g><g transform="translate(40, 0)"><text x="0" y="377" dx="0em" dy="0.3em" style="text-anchor: end; visibility: hidden; font-family: Roboto, sans-serif; font-size: 12px; font-weight: 200;" fill="rgb(33, 33, 33)" stroke="none" stroke-width="1px">-0.2</text><text x="0" y="329.875" dx="0em" dy="0.3em" style="text-anchor: end; visibility: inherit; font-family: Roboto, sans-serif; font-size: 12px; font-weight: 200;" fill="rgb(33, 33, 33)" stroke="none" stroke-width="1px">0</text><text x="0" y="282.75" dx="0em" dy="0.3em" style="text-anchor: end; visibility: inherit; font-family: Roboto, sans-serif; font-size: 12px; font-weight: 200;" fill="rgb(33, 33, 33)" stroke="none" stroke-width="1px">0.2</text><text x="0" y="235.62499999999997" dx="0em" dy="0.3em" style="text-anchor: end; visibility: inherit; font-family: Roboto, sans-serif; font-size: 12px; font-weight: 200;" fill="rgb(33, 33, 33)" stroke="none" stroke-width="1px">0.4</text><text x="0" y="188.49999999999997" dx="0em" dy="0.3em" style="text-anchor: end; visibility: inherit; font-family: Roboto, sans-serif; font-size: 12px; font-weight: 200;" fill="rgb(33, 33, 33)" stroke="none" stroke-width="1px">0.6</text><text x="0" y="141.375" dx="0em" dy="0.3em" style="text-anchor: end; visibility: inherit; font-family: Roboto, sans-serif; font-size: 12px; font-weight: 200;" fill="rgb(33, 33, 33)" stroke="none" stroke-width="1px">0.8</text><text x="0" y="94.25" dx="0em" dy="0.3em" style="text-anchor: end; visibility: inherit; font-family: Roboto, sans-serif; font-size: 12px; font-weight: 200;" fill="rgb(33, 33, 33)" stroke="none" stroke-width="1px">1</text><text x="0" y="47.125" dx="0em" dy="0.3em" style="text-anchor: end; visibility: inherit; font-family: Roboto, sans-serif; font-size: 12px; font-weight: 200;" fill="rgb(33, 33, 33)" stroke="none" stroke-width="1px">1.2</text><text x="0" y="0" dx="0em" dy="0.3em" style="text-anchor: end; visibility: hidden; font-family: Roboto, sans-serif; font-size: 12px; font-weight: 200;" fill="rgb(33, 33, 33)" stroke="none" stroke-width="1px">1.4</text></g><line x1="50" y1="0" x2="50" y2="377" fill="rgb(0, 0, 0)" stroke="rgb(204, 204, 204)" stroke-width="1px"></line></g></g><g transform="translate(50, 0)" clip-path="url(#clip_0)"><clipPath id="clip_0"><rect width="602" height="377"></rect></clipPath><g><g><g><line x1="0" y1="0" x2="0" y2="377" fill="rgb(0, 0, 0)" stroke="rgb(66, 66, 66)" stroke-width="1px" opacity="0.25"></line><line x1="50.22616666666667" y1="0" x2="50.22616666666667" y2="377" fill="rgb(0, 0, 0)" stroke="rgb(66, 66, 66)" stroke-width="1px" opacity="0.25"></line><line x1="100.45233333333334" y1="0" x2="100.45233333333334" y2="377" fill="rgb(0, 0, 0)" stroke="rgb(66, 66, 66)" stroke-width="1px" opacity="0.25"></line><line x1="150.6785" y1="0" x2="150.6785" y2="377" fill="rgb(0, 0, 0)" stroke="rgb(66, 66, 66)" stroke-width="1px" opacity="0.25"></line><line x1="200.90466666666669" y1="0" x2="200.90466666666669" y2="377" fill="rgb(0, 0, 0)" stroke="rgb(66, 66, 66)" stroke-width="1px" opacity="0.25"></line><line x1="251.13083333333336" y1="0" x2="251.13083333333336" y2="377" fill="rgb(0, 0, 0)" stroke="rgb(66, 66, 66)" stroke-width="1px" opacity="0.25"></line><line x1="301.357" y1="0" x2="301.357" y2="377" fill="rgb(0, 0, 0)" stroke="rgb(66, 66, 66)" stroke-width="1px" opacity="0.25"></line><line x1="351.5831666666667" y1="0" x2="351.5831666666667" y2="377" fill="rgb(0, 0, 0)" stroke="rgb(66, 66, 66)" stroke-width="1px" opacity="0.25"></line><line x1="401.80933333333337" y1="0" x2="401.80933333333337" y2="377" fill="rgb(0, 0, 0)" stroke="rgb(66, 66, 66)" stroke-width="1px" opacity="0.25"></line><line x1="452.03550000000007" y1="0" x2="452.03550000000007" y2="377" fill="rgb(0, 0, 0)" stroke="rgb(66, 66, 66)" stroke-width="1px" opacity="0.25"></line><line x1="502.2616666666667" y1="0" x2="502.2616666666667" y2="377" fill="rgb(0, 0, 0)" stroke="rgb(66, 66, 66)" stroke-width="1px" opacity="0.25"></line><line x1="552.4878333333334" y1="0" x2="552.4878333333334" y2="377" fill="rgb(0, 0, 0)" stroke="rgb(66, 66, 66)" stroke-width="1px" opacity="0.25"></line><line x1="602.714" y1="0" x2="602.714" y2="377" fill="rgb(0, 0, 0)" stroke="rgb(66, 66, 66)" stroke-width="1px" opacity="0.25"></line></g><g><line x1="0" y1="377" x2="602.714" y2="377" fill="rgb(0, 0, 0)" stroke="rgb(66, 66, 66)" stroke-width="1px" opacity="0.25"></line><line x1="0" y1="329.875" x2="602.714" y2="329.875" fill="rgb(0, 0, 0)" stroke="rgb(66, 66, 66)" stroke-width="1px" opacity="0.25"></line><line x1="0" y1="282.75" x2="602.714" y2="282.75" fill="rgb(0, 0, 0)" stroke="rgb(66, 66, 66)" stroke-width="1px" opacity="0.25"></line><line x1="0" y1="235.62499999999997" x2="602.714" y2="235.62499999999997" fill="rgb(0, 0, 0)" stroke="rgb(66, 66, 66)" stroke-width="1px" opacity="0.25"></line><line x1="0" y1="188.49999999999997" x2="602.714" y2="188.49999999999997" fill="rgb(0, 0, 0)" stroke="rgb(66, 66, 66)" stroke-width="1px" opacity="0.25"></line><line x1="0" y1="141.375" x2="602.714" y2="141.375" fill="rgb(0, 0, 0)" stroke="rgb(66, 66, 66)" stroke-width="1px" opacity="0.25"></line><line x1="0" y1="94.25" x2="602.714" y2="94.25" fill="rgb(0, 0, 0)" stroke="rgb(66, 66, 66)" stroke-width="1px" opacity="0.25"></line><line x1="0" y1="47.125" x2="602.714" y2="47.125" fill="rgb(0, 0, 0)" stroke="rgb(66, 66, 66)" stroke-width="1px" opacity="0.25"></line><line x1="0" y1="0" x2="602.714" y2="0" fill="rgb(0, 0, 0)" stroke="rgb(66, 66, 66)" stroke-width="1px" opacity="0.25"></line></g></g></g><g><g><line x1="0" y1="329.875" x2="602.714" y2="329.875" fill="rgb(0, 0, 0)" stroke="rgb(153, 153, 153)" stroke-width="1.5px"></line></g></g><g><g><line x1="50.22616666666667" y1="0" x2="50.22616666666667" y2="377" fill="rgb(0, 0, 0)" stroke="rgb(153, 153, 153)" stroke-width="1.5px"></line></g></g><g><g><g><g><g><path stroke="rgb(0, 119, 187)" stroke-width="2px" d="M60.27140000000001,-13.898540956899524L70.31663333333334,35.5923583991065L80.36186666666667,73.2208510254893L90.4071,102.75686578541514L100.45233333333334,126.37256332124636L110.49756666666667,145.48178446358745L120.54280000000001,161.07139879748755L130.58803333333336,173.87252309662998L140.63326666666669,184.45110304352056L150.6785,193.25540842645395L160.72373333333334,200.6404508482442L170.76896666666667,206.88351057512753L180.8142,212.19988979370228L190.85943333333333,216.75734625542512L200.90466666666669,220.68816769432158L210.9499,224.09836204360656L220.99513333333334,227.07378752730546L231.0403666666667,229.68411447712379L241.08560000000003,231.98583636675752L251.13083333333336,234.0248244646539L261.1760666666667,235.83838756815507L271.22130000000004,237.45689339113883L281.26653333333337,238.90513633179742L291.3117666666667,240.20352408018388L301.357,241.36895707404838L311.4022333333334,242.41566460811922L321.4474666666667,243.35565003948545L331.49270000000007,244.19924988505684L341.53793333333334,244.9554158327202L351.5831666666667,245.63202996748444L361.6284,246.23608545817942L371.6736333333334,246.77385113487418L381.71886666666666,247.25100112642866L391.76410000000004,247.67263646216438L401.80933333333337,248.04338510592467L411.8545666666667,248.36741984245853L421.8998,248.64851114173408L431.94503333333336,248.89001674419606L441.9902666666667,249.09496810443358L452.03550000000007,249.26609135973558L462.0807333333334,249.40579463135828L472.1259666666667,249.51625590680231L482.17120000000006,249.59941397405032L492.2164333333334,249.65698545305347L502.2616666666667,249.69053400086622L512.3069,249.70145565734703L522.3521333333334,249.69102061221813L532.3973666666667,249.66036175000517L542.4426000000001,249.6105379987226" style="fill: none;" fill="none"></path></g><g><path stroke="rgb(255, 112, 67)" stroke-width="2px" d="M60.27140000000001,-99.8100990783424L70.31663333333334,6.0447098019779535L80.36186666666667,76.74342778067599L90.4071,127.62185008426785L100.45233333333334,165.66619439720236L110.49756666666667,194.7884849657233L120.54280000000001,217.46390674054706L130.58803333333336,235.37044918931002L140.63326666666669,249.69039633827393L150.6785,261.27761692320297L160.72373333333334,270.75885384562787L170.76896666666667,278.5987253615133L180.8142,285.1448277907369L190.85943333333333,290.6596893822346L200.90466666666669,295.3435329838331L210.9499,299.35068497876796L220.99513333333334,302.8013276917726L231.0403666666667,305.7898892165434L241.08560000000003,308.3912037902611L251.13083333333336,310.6652160270919L261.1760666666667,312.6605482404559L271.22130000000004,314.4171484517933L281.26653333333337,315.9682153199051L291.3117666666667,317.3415627361839L301.357,318.5606602940004L311.4022333333334,319.64541212109685L321.4474666666667,320.61278641144645L331.49270000000007,321.4773116468629L341.53793333333334,322.2514721992973L351.5831666666667,322.9460413221268L361.6284,323.5703418374339L371.6736333333334,324.1324604681875L381.71886666666666,324.63943278354424L391.76410000000004,325.0973890976515L401.80933333333337,325.5116848422199L411.8545666666667,325.88700696548733L421.8998,326.227468580819L431.94503333333336,326.53668717319374L441.9902666666667,326.8178518872345L452.03550000000007,327.07377882205606L462.0807333333334,327.30696404576366L472.1259666666667,327.51962383073413L482.17120000000006,327.71373011802314L492.2164333333334,327.89104202204084L502.2616666666667,328.05313043886787L512.3069,328.2014039150531L522.3521333333334,328.33712430055647L532.3973666666667,328.4614271126579L542.4426000000001,328.5753339737458" style="fill: none;" fill="none"></path></g></g></g></g><g opacity="0.2"><g><g><g><path stroke="rgb(0, 119, 187)" stroke-width="2px" d="M50.22616666666667,-83.50584056973457L60.27140000000001,27.865838810801506L70.31663333333334,83.10362178087234L80.36186666666667,117.47195835411549L90.4071,141.3190866559744L100.45233333333334,159.04157466441393L110.49756666666667,172.80827644467354L120.54280000000001,183.80120615661144L130.58803333333336,192.75169494748116L140.63326666666669,200.15906139463186L150.6785,206.38201209902763L160.72373333333334,211.67782540619373L170.76896666666667,216.22771549224854L180.8142,220.16404328122735L190.85943333333333,223.58817382901907L200.90466666666669,226.58162753283978L210.9499,229.21221048757434L220.99513333333334,231.5361702926457L231.0403666666667,233.59920724481344L241.08560000000003,235.43820881471038L251.13083333333336,237.08319478854537L261.1760666666667,238.5586725473404L271.22130000000004,239.8846201710403L281.26653333333337,241.077483586967L291.3117666666667,242.1510964743793L301.357,243.11710159480572L311.4022333333334,243.9857232309878L321.4474666666667,244.76562674343586L331.49270000000007,245.4646488763392L341.53793333333334,246.08966433629394L351.5831666666667,246.64695094525814L361.6284,247.14216857403517L371.6736333333334,247.58049958571792L381.71886666666666,247.96672607958317L391.76410000000004,248.30508944764733L401.80933333333337,248.59950806200504L411.8545666666667,248.85347194224596L421.8998,249.07014808803797L431.94503333333336,249.25227514654398L441.9902666666667,249.40239514410496L452.03550000000007,249.52277624234557L462.0807333333334,249.6153495386243L472.1259666666667,249.6819478198886L482.17120000000006,249.72415107488632L492.2164333333334,249.74334267154336L502.2616666666667,249.7408568225801L512.3069,249.7178381420672L522.3521333333334,249.67536804452538L532.3973666666667,249.61437345668674L542.4426000000001,249.53580237179995" style="fill: none;" fill="none"></path></g><g><path stroke="rgb(255, 112, 67)" stroke-width="2px" d="M50.22616666666667,-290.681605309248L60.27140000000001,14.712804660201073L70.31663333333334,107.6653263270855L80.36186666666667,159.8851201236248L90.4071,194.04871824383736L100.45233333333334,218.2952185459435L110.49756666666667,236.43382643535733L120.54280000000001,250.52488937228918L130.58803333333336,261.77912113443017L140.63326666666669,270.95384895056486L150.6785,278.55335256271064L160.72373333333334,284.9291127566248L170.76896666666667,290.33293409459293L180.8142,294.95115693844855L190.85943333333333,298.9254992567003L200.90466666666669,302.36599497683346L210.9499,305.3597172787413L220.99513333333334,307.9764156434685L231.0403666666667,310.27227622643113L241.08560000000003,312.29293788038194L251.13083333333336,314.0761096701026L261.1760666666667,315.6534809032455L271.22130000000004,317.0520140877925L281.26653333333337,318.29479724820703L291.3117666666667,319.4015740994364L301.357,320.389301431831L311.4022333333334,321.272537086159L321.4474666666667,322.0638463618234L331.49270000000007,322.7740987036377L341.53793333333334,323.41271260008216L351.5831666666667,323.9878947760444L361.6284,324.5067924861796L371.6736333333334,324.9756383472122L381.71886666666666,325.399891220266L391.76410000000004,325.78432354913093L401.80933333333337,326.13312844838947L411.8545666666667,326.44999014458153L421.8998,326.73816100065596L431.94503333333336,327.00051506003365L441.9902666666667,327.23959895735607L452.03550000000007,327.45766922377516L462.0807333333334,327.6567418810446L472.1259666666667,327.83861350803636L482.17120000000006,328.0048895488726L492.2164333333334,328.1570098780212L502.2616666666667,328.2962630640832L512.3069,328.4238141293172L522.3521333333334,328.5407048788038L532.3973666666667,328.64788133080583L542.4426000000001,328.7461942653754" style="fill: none;" fill="none"></path></g></g></g></g></g><g><g opacity="0.768306"><span fill="rgb(0, 0, 0)" stroke="none" stroke-width="1px">Alt + Scroll to Zoom</span></g></g></g><g transform="translate(50, 377)" clip-path="url(#clip_1)"><clipPath id="clip_1"><rect width="602" height="23"></rect></clipPath><g><g><line x1="0" y1="0" x2="0" y2="5" style="visibility: inherit;" fill="rgb(0, 0, 0)" stroke="rgb(204, 204, 204)" stroke-width="1px"></line><line x1="50.22616666666667" y1="0" x2="50.22616666666667" y2="5" style="visibility: inherit;" fill="rgb(0, 0, 0)" stroke="rgb(204, 204, 204)" stroke-width="1px"></line><line x1="100.45233333333334" y1="0" x2="100.45233333333334" y2="5" style="visibility: inherit;" fill="rgb(0, 0, 0)" stroke="rgb(204, 204, 204)" stroke-width="1px"></line><line x1="150.6785" y1="0" x2="150.6785" y2="5" style="visibility: inherit;" fill="rgb(0, 0, 0)" stroke="rgb(204, 204, 204)" stroke-width="1px"></line><line x1="200.90466666666669" y1="0" x2="200.90466666666669" y2="5" style="visibility: inherit;" fill="rgb(0, 0, 0)" stroke="rgb(204, 204, 204)" stroke-width="1px"></line><line x1="251.13083333333336" y1="0" x2="251.13083333333336" y2="5" style="visibility: inherit;" fill="rgb(0, 0, 0)" stroke="rgb(204, 204, 204)" stroke-width="1px"></line><line x1="301.357" y1="0" x2="301.357" y2="5" style="visibility: inherit;" fill="rgb(0, 0, 0)" stroke="rgb(204, 204, 204)" stroke-width="1px"></line><line x1="351.5831666666667" y1="0" x2="351.5831666666667" y2="5" style="visibility: inherit;" fill="rgb(0, 0, 0)" stroke="rgb(204, 204, 204)" stroke-width="1px"></line><line x1="401.80933333333337" y1="0" x2="401.80933333333337" y2="5" style="visibility: inherit;" fill="rgb(0, 0, 0)" stroke="rgb(204, 204, 204)" stroke-width="1px"></line><line x1="452.03550000000007" y1="0" x2="452.03550000000007" y2="5" style="visibility: inherit;" fill="rgb(0, 0, 0)" stroke="rgb(204, 204, 204)" stroke-width="1px"></line><line x1="502.2616666666667" y1="0" x2="502.2616666666667" y2="5" style="visibility: inherit;" fill="rgb(0, 0, 0)" stroke="rgb(204, 204, 204)" stroke-width="1px"></line><line x1="552.4878333333334" y1="0" x2="552.4878333333334" y2="5" style="visibility: inherit;" fill="rgb(0, 0, 0)" stroke="rgb(204, 204, 204)" stroke-width="1px"></line><line x1="602.714" y1="0" x2="602.714" y2="5" style="visibility: inherit;" fill="rgb(0, 0, 0)" stroke="rgb(204, 204, 204)" stroke-width="1px"></line></g><g transform="translate(0, 8)"><text x="0" y="0" dx="0em" dy="0.95em" style="text-anchor: middle; visibility: hidden; font-family: Roboto, sans-serif; font-size: 12px; font-weight: 200;" fill="rgb(33, 33, 33)" stroke="none" stroke-width="1px">-5</text><text x="50.22616666666667" y="0" dx="0em" dy="0.95em" style="text-anchor: middle; visibility: inherit; font-family: Roboto, sans-serif; font-size: 12px; font-weight: 200;" fill="rgb(33, 33, 33)" stroke="none" stroke-width="1px">0</text><text x="100.45233333333334" y="0" dx="0em" dy="0.95em" style="text-anchor: middle; visibility: inherit; font-family: Roboto, sans-serif; font-size: 12px; font-weight: 200;" fill="rgb(33, 33, 33)" stroke="none" stroke-width="1px">5</text><text x="150.6785" y="0" dx="0em" dy="0.95em" style="text-anchor: middle; visibility: inherit; font-family: Roboto, sans-serif; font-size: 12px; font-weight: 200;" fill="rgb(33, 33, 33)" stroke="none" stroke-width="1px">10</text><text x="200.90466666666669" y="0" dx="0em" dy="0.95em" style="text-anchor: middle; visibility: inherit; font-family: Roboto, sans-serif; font-size: 12px; font-weight: 200;" fill="rgb(33, 33, 33)" stroke="none" stroke-width="1px">15</text><text x="251.13083333333336" y="0" dx="0em" dy="0.95em" style="text-anchor: middle; visibility: inherit; font-family: Roboto, sans-serif; font-size: 12px; font-weight: 200;" fill="rgb(33, 33, 33)" stroke="none" stroke-width="1px">20</text><text x="301.357" y="0" dx="0em" dy="0.95em" style="text-anchor: middle; visibility: inherit; font-family: Roboto, sans-serif; font-size: 12px; font-weight: 200;" fill="rgb(33, 33, 33)" stroke="none" stroke-width="1px">25</text><text x="351.5831666666667" y="0" dx="0em" dy="0.95em" style="text-anchor: middle; visibility: inherit; font-family: Roboto, sans-serif; font-size: 12px; font-weight: 200;" fill="rgb(33, 33, 33)" stroke="none" stroke-width="1px">30</text><text x="401.80933333333337" y="0" dx="0em" dy="0.95em" style="text-anchor: middle; visibility: inherit; font-family: Roboto, sans-serif; font-size: 12px; font-weight: 200;" fill="rgb(33, 33, 33)" stroke="none" stroke-width="1px">35</text><text x="452.03550000000007" y="0" dx="0em" dy="0.95em" style="text-anchor: middle; visibility: inherit; font-family: Roboto, sans-serif; font-size: 12px; font-weight: 200;" fill="rgb(33, 33, 33)" stroke="none" stroke-width="1px">40</text><text x="502.2616666666667" y="0" dx="0em" dy="0.95em" style="text-anchor: middle; visibility: inherit; font-family: Roboto, sans-serif; font-size: 12px; font-weight: 200;" fill="rgb(33, 33, 33)" stroke="none" stroke-width="1px">45</text><text x="552.4878333333334" y="0" dx="0em" dy="0.95em" style="text-anchor: middle; visibility: inherit; font-family: Roboto, sans-serif; font-size: 12px; font-weight: 200;" fill="rgb(33, 33, 33)" stroke="none" stroke-width="1px">50</text><text x="602.714" y="0" dx="0em" dy="0.95em" style="text-anchor: middle; visibility: hidden; font-family: Roboto, sans-serif; font-size: 12px; font-weight: 200;" fill="rgb(33, 33, 33)" stroke="none" stroke-width="1px">55</text></g><line x1="0" y1="0" x2="602.714" y2="0" fill="rgb(0, 0, 0)" stroke="rgb(204, 204, 204)" stroke-width="1px"></line></g></g></g></g></svg>