<svg viewBox="0 0 564.59326171875 400" xmlns="http://www.w3.org/2000/svg"><g><g><g><g><g><line x1="50" y1="377" x2="45" y2="377" style="visibility: inherit;" fill="rgb(0, 0, 0)" stroke="rgb(204, 204, 204)" stroke-width="1px"></line><line x1="50" y1="351.8666666666666" x2="45" y2="351.8666666666666" style="visibility: inherit;" fill="rgb(0, 0, 0)" stroke="rgb(204, 204, 204)" stroke-width="1px"></line><line x1="50" y1="326.7333333333333" x2="45" y2="326.7333333333333" style="visibility: inherit;" fill="rgb(0, 0, 0)" stroke="rgb(204, 204, 204)" stroke-width="1px"></line><line x1="50" y1="301.5999999999999" x2="45" y2="301.5999999999999" style="visibility: inherit;" fill="rgb(0, 0, 0)" stroke="rgb(204, 204, 204)" stroke-width="1px"></line><line x1="50" y1="276.4666666666666" x2="45" y2="276.4666666666666" style="visibility: inherit;" fill="rgb(0, 0, 0)" stroke="rgb(204, 204, 204)" stroke-width="1px"></line><line x1="50" y1="251.33333333333337" x2="45" y2="251.33333333333337" style="visibility: inherit;" fill="rgb(0, 0, 0)" stroke="rgb(204, 204, 204)" stroke-width="1px"></line><line x1="50" y1="226.20000000000005" x2="45" y2="226.20000000000005" style="visibility: inherit;" fill="rgb(0, 0, 0)" stroke="rgb(204, 204, 204)" stroke-width="1px"></line><line x1="50" y1="201.06666666666672" x2="45" y2="201.06666666666672" style="visibility: inherit;" fill="rgb(0, 0, 0)" stroke="rgb(204, 204, 204)" stroke-width="1px"></line><line x1="50" y1="175.93333333333334" x2="45" y2="175.93333333333334" style="visibility: inherit;" fill="rgb(0, 0, 0)" stroke="rgb(204, 204, 204)" stroke-width="1px"></line><line x1="50" y1="150.79999999999995" x2="45" y2="150.79999999999995" style="visibility: inherit;" fill="rgb(0, 0, 0)" stroke="rgb(204, 204, 204)" stroke-width="1px"></line><line x1="50" y1="125.66666666666664" x2="45" y2="125.66666666666664" style="visibility: inherit;" fill="rgb(0, 0, 0)" stroke="rgb(204, 204, 204)" stroke-width="1px"></line><line x1="50" y1="100.53333333333339" x2="45" y2="100.53333333333339" style="visibility: inherit;" fill="rgb(0, 0, 0)" stroke="rgb(204, 204, 204)" stroke-width="1px"></line><line x1="50" y1="75.40000000000006" x2="45" y2="75.40000000000006" style="visibility: inherit;" fill="rgb(0, 0, 0)" stroke="rgb(204, 204, 204)" stroke-width="1px"></line><line x1="50" y1="50.266666666666694" x2="45" y2="50.266666666666694" style="visibility: inherit;" fill="rgb(0, 0, 0)" stroke="rgb(204, 204, 204)" stroke-width="1px"></line><line x1="50" y1="25.13333333333337" x2="45" y2="25.13333333333337" style="visibility: inherit;" fill="rgb(0, 0, 0)" stroke="rgb(204, 204, 204)" stroke-width="1px"></line><line x1="50" y1="0" x2="45" y2="0" style="visibility: inherit;" fill="rgb(0, 0, 0)" stroke="rgb(204, 204, 204)" stroke-width="1px"></line></g><g transform="translate(40, 0)"><text x="0" y="377" dx="0em" dy="0.3em" style="text-anchor: end; visibility: hidden; font-family: Roboto, sans-serif; font-size: 12px; font-weight: 200;" fill="rgb(33, 33, 33)" stroke="none" stroke-width="1px">0.72</text><text x="0" y="351.8666666666666" dx="0em" dy="0.3em" style="text-anchor: end; visibility: inherit; font-family: Roboto, sans-serif; font-size: 12px; font-weight: 200;" fill="rgb(33, 33, 33)" stroke="none" stroke-width="1px">0.74</text><text x="0" y="326.7333333333333" dx="0em" dy="0.3em" style="text-anchor: end; visibility: inherit; font-family: Roboto, sans-serif; font-size: 12px; font-weight: 200;" fill="rgb(33, 33, 33)" stroke="none" stroke-width="1px">0.76</text><text x="0" y="301.5999999999999" dx="0em" dy="0.3em" style="text-anchor: end; visibility: inherit; font-family: Roboto, sans-serif; font-size: 12px; font-weight: 200;" fill="rgb(33, 33, 33)" stroke="none" stroke-width="1px">0.78</text><text x="0" y="276.4666666666666" dx="0em" dy="0.3em" style="text-anchor: end; visibility: inherit; font-family: Roboto, sans-serif; font-size: 12px; font-weight: 200;" fill="rgb(33, 33, 33)" stroke="none" stroke-width="1px">0.8</text><text x="0" y="251.33333333333337" dx="0em" dy="0.3em" style="text-anchor: end; visibility: inherit; font-family: Roboto, sans-serif; font-size: 12px; font-weight: 200;" fill="rgb(33, 33, 33)" stroke="none" stroke-width="1px">0.82</text><text x="0" y="226.20000000000005" dx="0em" dy="0.3em" style="text-anchor: end; visibility: inherit; font-family: Roboto, sans-serif; font-size: 12px; font-weight: 200;" fill="rgb(33, 33, 33)" stroke="none" stroke-width="1px">0.84</text><text x="0" y="201.06666666666672" dx="0em" dy="0.3em" style="text-anchor: end; visibility: inherit; font-family: Roboto, sans-serif; font-size: 12px; font-weight: 200;" fill="rgb(33, 33, 33)" stroke="none" stroke-width="1px">0.86</text><text x="0" y="175.93333333333334" dx="0em" dy="0.3em" style="text-anchor: end; visibility: inherit; font-family: Roboto, sans-serif; font-size: 12px; font-weight: 200;" fill="rgb(33, 33, 33)" stroke="none" stroke-width="1px">0.88</text><text x="0" y="150.79999999999995" dx="0em" dy="0.3em" style="text-anchor: end; visibility: inherit; font-family: Roboto, sans-serif; font-size: 12px; font-weight: 200;" fill="rgb(33, 33, 33)" stroke="none" stroke-width="1px">0.9</text><text x="0" y="125.66666666666664" dx="0em" dy="0.3em" style="text-anchor: end; visibility: inherit; font-family: Roboto, sans-serif; font-size: 12px; font-weight: 200;" fill="rgb(33, 33, 33)" stroke="none" stroke-width="1px">0.92</text><text x="0" y="100.53333333333339" dx="0em" dy="0.3em" style="text-anchor: end; visibility: inherit; font-family: Roboto, sans-serif; font-size: 12px; font-weight: 200;" fill="rgb(33, 33, 33)" stroke="none" stroke-width="1px">0.94</text><text x="0" y="75.40000000000006" dx="0em" dy="0.3em" style="text-anchor: end; visibility: inherit; font-family: Roboto, sans-serif; font-size: 12px; font-weight: 200;" fill="rgb(33, 33, 33)" stroke="none" stroke-width="1px">0.96</text><text x="0" y="50.266666666666694" dx="0em" dy="0.3em" style="text-anchor: end; visibility: inherit; font-family: Roboto, sans-serif; font-size: 12px; font-weight: 200;" fill="rgb(33, 33, 33)" stroke="none" stroke-width="1px">0.98</text><text x="0" y="25.13333333333337" dx="0em" dy="0.3em" style="text-anchor: end; visibility: inherit; font-family: Roboto, sans-serif; font-size: 12px; font-weight: 200;" fill="rgb(33, 33, 33)" stroke="none" stroke-width="1px">1</text><text x="0" y="0" dx="0em" dy="0.3em" style="text-anchor: end; visibility: hidden; font-family: Roboto, sans-serif; font-size: 12px; font-weight: 200;" fill="rgb(33, 33, 33)" stroke="none" stroke-width="1px">1.02</text></g><line x1="50" y1="0" x2="50" y2="377" fill="rgb(0, 0, 0)" stroke="rgb(204, 204, 204)" stroke-width="1px"></line></g></g><g transform="translate(50, 0)" clip-path="url(#clip_0)"><clipPath id="clip_0"><rect width="514" height="376"></rect></clipPath><g><g><g><line x1="0" y1="0" x2="0" y2="377" fill="rgb(0, 0, 0)" stroke="rgb(66, 66, 66)" stroke-width="1px" opacity="0.25"></line><line x1="42.882749999999994" y1="0" x2="42.882749999999994" y2="377" fill="rgb(0, 0, 0)" stroke="rgb(66, 66, 66)" stroke-width="1px" opacity="0.25"></line><line x1="85.76549999999999" y1="0" x2="85.76549999999999" y2="377" fill="rgb(0, 0, 0)" stroke="rgb(66, 66, 66)" stroke-width="1px" opacity="0.25"></line><line x1="128.64825" y1="0" x2="128.64825" y2="377" fill="rgb(0, 0, 0)" stroke="rgb(66, 66, 66)" stroke-width="1px" opacity="0.25"></line><line x1="171.53099999999998" y1="0" x2="171.53099999999998" y2="377" fill="rgb(0, 0, 0)" stroke="rgb(66, 66, 66)" stroke-width="1px" opacity="0.25"></line><line x1="214.41375" y1="0" x2="214.41375" y2="377" fill="rgb(0, 0, 0)" stroke="rgb(66, 66, 66)" stroke-width="1px" opacity="0.25"></line><line x1="257.2965" y1="0" x2="257.2965" y2="377" fill="rgb(0, 0, 0)" stroke="rgb(66, 66, 66)" stroke-width="1px" opacity="0.25"></line><line x1="300.17925" y1="0" x2="300.17925" y2="377" fill="rgb(0, 0, 0)" stroke="rgb(66, 66, 66)" stroke-width="1px" opacity="0.25"></line><line x1="343.06199999999995" y1="0" x2="343.06199999999995" y2="377" fill="rgb(0, 0, 0)" stroke="rgb(66, 66, 66)" stroke-width="1px" opacity="0.25"></line><line x1="385.94475" y1="0" x2="385.94475" y2="377" fill="rgb(0, 0, 0)" stroke="rgb(66, 66, 66)" stroke-width="1px" opacity="0.25"></line><line x1="428.8275" y1="0" x2="428.8275" y2="377" fill="rgb(0, 0, 0)" stroke="rgb(66, 66, 66)" stroke-width="1px" opacity="0.25"></line><line x1="471.7102499999999" y1="0" x2="471.7102499999999" y2="377" fill="rgb(0, 0, 0)" stroke="rgb(66, 66, 66)" stroke-width="1px" opacity="0.25"></line><line x1="514.593" y1="0" x2="514.593" y2="377" fill="rgb(0, 0, 0)" stroke="rgb(66, 66, 66)" stroke-width="1px" opacity="0.25"></line></g><g><line x1="0" y1="377" x2="514.593" y2="377" fill="rgb(0, 0, 0)" stroke="rgb(66, 66, 66)" stroke-width="1px" opacity="0.25"></line><line x1="0" y1="351.8666666666666" x2="514.593" y2="351.8666666666666" fill="rgb(0, 0, 0)" stroke="rgb(66, 66, 66)" stroke-width="1px" opacity="0.25"></line><line x1="0" y1="326.7333333333333" x2="514.593" y2="326.7333333333333" fill="rgb(0, 0, 0)" stroke="rgb(66, 66, 66)" stroke-width="1px" opacity="0.25"></line><line x1="0" y1="301.5999999999999" x2="514.593" y2="301.5999999999999" fill="rgb(0, 0, 0)" stroke="rgb(66, 66, 66)" stroke-width="1px" opacity="0.25"></line><line x1="0" y1="276.4666666666666" x2="514.593" y2="276.4666666666666" fill="rgb(0, 0, 0)" stroke="rgb(66, 66, 66)" stroke-width="1px" opacity="0.25"></line><line x1="0" y1="251.33333333333337" x2="514.593" y2="251.33333333333337" fill="rgb(0, 0, 0)" stroke="rgb(66, 66, 66)" stroke-width="1px" opacity="0.25"></line><line x1="0" y1="226.20000000000005" x2="514.593" y2="226.20000000000005" fill="rgb(0, 0, 0)" stroke="rgb(66, 66, 66)" stroke-width="1px" opacity="0.25"></line><line x1="0" y1="201.06666666666672" x2="514.593" y2="201.06666666666672" fill="rgb(0, 0, 0)" stroke="rgb(66, 66, 66)" stroke-width="1px" opacity="0.25"></line><line x1="0" y1="175.93333333333334" x2="514.593" y2="175.93333333333334" fill="rgb(0, 0, 0)" stroke="rgb(66, 66, 66)" stroke-width="1px" opacity="0.25"></line><line x1="0" y1="150.79999999999995" x2="514.593" y2="150.79999999999995" fill="rgb(0, 0, 0)" stroke="rgb(66, 66, 66)" stroke-width="1px" opacity="0.25"></line><line x1="0" y1="125.66666666666664" x2="514.593" y2="125.66666666666664" fill="rgb(0, 0, 0)" stroke="rgb(66, 66, 66)" stroke-width="1px" opacity="0.25"></line><line x1="0" y1="100.53333333333339" x2="514.593" y2="100.53333333333339" fill="rgb(0, 0, 0)" stroke="rgb(66, 66, 66)" stroke-width="1px" opacity="0.25"></line><line x1="0" y1="75.40000000000006" x2="514.593" y2="75.40000000000006" fill="rgb(0, 0, 0)" stroke="rgb(66, 66, 66)" stroke-width="1px" opacity="0.25"></line><line x1="0" y1="50.266666666666694" x2="514.593" y2="50.266666666666694" fill="rgb(0, 0, 0)" stroke="rgb(66, 66, 66)" stroke-width="1px" opacity="0.25"></line><line x1="0" y1="25.13333333333337" x2="514.593" y2="25.13333333333337" fill="rgb(0, 0, 0)" stroke="rgb(66, 66, 66)" stroke-width="1px" opacity="0.25"></line><line x1="0" y1="0" x2="514.593" y2="0" fill="rgb(0, 0, 0)" stroke="rgb(66, 66, 66)" stroke-width="1px" opacity="0.25"></line></g></g></g><g><g><line x1="0" y1="1281.7999999999997" x2="514.593" y2="1281.7999999999997" fill="rgb(0, 0, 0)" stroke="rgb(153, 153, 153)" stroke-width="1.5px"></line></g></g><g><g><line x1="42.882749999999994" y1="0" x2="42.882749999999994" y2="377" fill="rgb(0, 0, 0)" stroke="rgb(153, 153, 153)" stroke-width="1.5px"></line></g></g><g><g><g><g><g><path stroke="rgb(51, 187, 238)" stroke-width="2px" d="M55.747575,399.98519658904297L57.8917125,376.427542170181L60.035849999999996,355.80824854246583L62.179987499999996,337.6032259328831L64.324125,322.9241349266578L66.46826250000001,309.2681778185636L68.6124,297.48786892387227L70.75653750000001,287.7796346424387L72.90067499999999,278.46275950312634L75.0448125,270.01497862801864L77.18894999999999,262.299530316893L79.3330875,254.70519973948532L81.47722499999999,248.34846291207893L83.6213625,242.20449571572112L85.76549999999999,236.39992107997466L87.9096375,231.54036959508764L90.05377499999999,227.1418548101112L92.1979125,223.65545949358673L94.34204999999999,219.6571919666983L96.4861875,215.88136630102474L98.630325,212.34488676856543L100.77446249999998,208.95204359201418L102.9186,206.38677341062532L105.06273749999998,203.25891531411585L107.206875,201.27628780195508L109.35101249999998,198.92163749863172L111.49515,196.7674558218599L113.63928749999998,195.05129453845893L115.783425,193.59794546156976L117.92756249999998,191.77271827676705L120.07169999999999,189.93619039403563L122.21583749999998,188.6224475053672L124.35997499999999,187.3046363603155L126.50411249999998,185.87844121649417L128.64825,184.49315871720407L130.7923875,183.8738153839602L132.93652500000002,183.07855705304792L135.0806625,182.38957588909366L137.2248,180.91705636310135L139.3689375,180.03354464760397L141.51307500000001,179.3975245355783L143.65721249999999,178.80408630285626L145.80134999999999,178.34211028047147L147.94548749999998,177.8530985015258L150.089625,177.66560451691996L152.23376249999998,177.1294557951215L154.37789999999998,177.2314188930783L156.52203749999998,177.29259675185241L158.666175,176.7997380533236L160.81031249999998,176.39810975144806L162.95444999999998,175.8393935220468L165.0985875,175.29233761888906L167.242725,174.43450870193317L169.38686249999998,173.7079851862427L171.53099999999998,172.9543318285525L173.6751375,172.18440056566286L175.819275,171.5106156424119L177.96341249999998,171.00043160570266L180.10754999999997,170.48249501816008L182.2516875,169.74808073459997L184.395825,169.2015190817056L186.53996249999997,168.6617559244516L188.68409999999997,168.2319849473407L190.8282375,167.97412236107402L192.972375,167.50166556103832L195.11651249999997,166.90045223274115L197.26065,166.32789807024562L199.4047875,166.09027865550715L201.54892499999997,165.7358808411466L203.69306249999997,165.20550290425453L205.8372,164.7813630593608L207.9813375,164.63279223518325L210.12547499999997,164.64956282343516L212.26961249999997,164.5537120936277L214.41375,164.60211473850177L216.5578875,164.41933015990912L218.70202499999996,163.99192016447776L220.84616249999996,163.3118218361846L222.9903,162.79784975645003L225.1344375,162.38355342585078L227.27857499999996,161.81720641794746L229.4227125,161.2655720476883L231.56685,161.04050450829138L233.7109875,160.90546398465315L235.85512499999996,160.29487425667736L237.9992625,159.82260733713323L240.14339999999999,159.53924718540674L242.28753749999998,158.9455787633365L244.43167499999996,158.80120387561163L246.57581249999998,158.82049202573526L248.71994999999998,158.5143256675337L250.86408749999998,158.01288660433693L253.00822499999995,157.39428391814317L255.15236249999998,157.02312230642684L257.2965,156.69451225663857L259.4406375,156.6032593095241L261.584775,156.23076829297972L263.7289125,156.11318676581166L265.87305000000003,156.04263784951075L268.0171875,155.89439541697175L270.161325,155.80544995744827L272.3054625,155.75208268173427L274.4496,155.82597539906442L276.5937375,155.8703110294624L278.737875,156.0028254904599L280.8820125,156.0823341670584L283.02615000000003,156.0241262902589L285.1702875,155.9892015641792L287.31442499999997,155.75642056301413L289.45856249999997,155.6167519623152L291.60269999999997,155.5329508018958L293.74683749999997,155.48267010564416L295.89097499999997,155.4525016878932L298.0351125,155.43440063724256L300.17925,155.42354000685216L302.32338749999997,155.41702362861798L304.46752499999997,155.4131138016774L306.61166249999997,155.30485482275455L308.75579999999997,155.13398635264218L310.89993749999996,155.13737835333333L313.04407499999996,155.1394135537481L315.1882125,155.14063467399689L317.33235,155.14136734614627L319.47648749999996,155.14180694943582L321.62062499999996,154.93024454589244L323.76476249999996,154.6973940210078L325.90889999999996,154.55768370607697L328.05303749999996,154.57977059987715L330.197175,154.8048489016744L332.3413125,154.9398958827527L334.48545,155.0209240713997L336.62958749999996,154.9636279018293L338.77372499999996,154.82333711732852L340.91786249999996,154.6332495638695L343.06199999999995,154.51919703179408L345.20613749999995,154.55667859530737L347.350275,154.5791675334153L349.4944125,154.69857397903868L351.63855,154.66430476365412L353.78268749999995,154.74965631718194L355.92682499999995,154.80086724929856L358.07096249999995,154.83159380856864L360.21509999999995,154.74411666137212L362.3592375,154.58571729029558L364.503375,154.3847645848911L366.6475125,154.2641929616483L368.79165,154.19184998770274L370.93578749999995,154.25435728609403L373.07992499999995,154.18594858237006L375.22406249999995,154.25081644289432L377.36819999999994,154.28973715920893L379.5123375,154.31308958899774L381.656475,154.32710104687098L383.8006125,154.22959483883636L385.94475,154.27700419677407L388.08888749999994,154.51727597705394L390.23302499999994,154.55552596246326L392.37716249999994,154.5784759537089L394.5213,154.5922459484562L396.6654375,154.49459486254602L398.809575,154.43600421099987L400.9537125,154.18902365455511L403.09784999999994,154.0408353206882L405.24198749999994,153.84600923760945L407.38612499999994,153.72911358776227L409.53026249999994,153.65897619785392L411.6744,153.61689376390893L413.8185375,153.59164430354195L415.962675,153.57649462732175L418.1068125,153.56740482158955L420.25094999999993,153.4560378553917L422.39508749999993,153.60104384119015L424.53922499999993,153.5821343499107L426.6833625,153.35896248962575L428.8275,153.33097245621343L430.9716375,153.31417843616603L433.115775,153.3041020241375L435.2599125,153.29805617692045L437.4040499999999,153.18851558583165L439.5481874999999,153.01687814841986L441.6923249999999,152.91389568597265L443.8364625,152.85210620850435L445.9806,152.81503252202347L448.1247375,152.89870139289343L450.268875,152.94890271541544L452.4130125,152.97902350892866L454.5571499999999,153.10300906779517L456.7012874999999,153.17740040311506L458.845425,153.11612212154847L460.9895625,152.97344206984988L463.1337,152.78192095607216L465.2778375,152.66700828780543L467.421975,152.49214760408685L469.5661125,152.49314427661434" style="fill: none;" fill="none"></path></g><g><path stroke="rgb(204, 51, 17)" stroke-width="2px" d="M53.6034375,397.1152191260548L55.747575,356.01118476604324L57.8917125,322.432302753179L60.035849999999996,293.79229930571756L62.179987499999996,269.10844412297325L64.324125,247.833520224748L66.46826250000001,229.72474877470208L68.6124,213.44353520577863L70.75653750000001,198.6441798182943L72.90067499999999,185.77984371149958L75.0448125,174.33634127193702L77.18894999999999,164.0590202564114L79.3330875,154.11311399007442L81.47722499999999,144.89081647036804L83.6213625,137.41509790258283L85.76549999999999,130.77716724037933L87.9096375,124.16929113474751L90.05377499999999,117.92071555320204L92.1979125,112.12394913763144L94.34204999999999,106.28327439251915L96.4861875,100.9412326200306L98.630325,96.134671853096L100.77446249999998,92.0956710240121L102.9186,88.0971777079596L105.06273749999998,84.35923313860327L107.206875,80.85638570593865L109.35101249999998,77.7046248967853L111.49515,74.34345895941797L113.63928749999998,70.96169412438104L115.783425,68.06633516442841L117.92756249999998,65.56780398985791L120.07169999999999,63.09737094483381L122.21583749999998,60.8013031602574L124.35997499999999,58.87240512183761L126.50411249999998,57.006272580978845L128.64825,55.02026299004862L130.7923875,53.27736990307401L132.93652500000002,51.57536243461871L135.0806625,49.87161030499412L137.2248,48.32431776504504L139.3689375,46.84465490797339L141.51307500000001,45.48433803445482L143.65721249999999,44.274366963635785L145.80134999999999,43.154603374424994L147.94548749999998,42.16773244802754L150.089625,41.15558287459896L152.23376249999998,40.28577249938965L154.37789999999998,39.39638135966325L156.52203749999998,38.36395148438123L158.666175,37.42948078633419L160.81031249999998,36.58003166549021L162.95444999999998,35.80784156182941L165.0985875,35.00326865589333L167.242725,34.15299003646184L169.38686249999998,33.406548304510586L171.53099999999998,32.801176878900804L173.6751375,32.175433392380604L175.819275,31.537466669313996L177.96341249999998,30.970934178173295L180.10754999999997,30.39474012319636L182.2516875,30.022777619348172L184.395825,29.668339801462256L186.53996249999997,29.403184969007036L188.68409999999997,29.191599927810234L190.8282375,28.82837434279964L192.972375,28.4004105023624L195.11651249999997,28.06489398551481L197.26065,27.811091933682572L199.4047875,27.527550387006077L201.54892499999997,27.33114942687016L203.69306249999997,27.160816709064882L205.8372,26.92735676280472L207.9813375,26.76103472418681L210.12547499999997,26.63499543015412L212.26961249999997,26.48060367988103L214.41375,26.335476487993464L216.5578875,26.169631999007382L218.70202499999996,26.017633163892242L220.84616249999996,25.90018779196129L222.9903,25.803444536672792L225.1344375,25.719152512637994L227.27857499999996,25.66857729821702L229.4227125,25.638232169564354L231.56685,25.567532950649223L233.7109875,25.525113419300144L235.85512499999996,25.499661700490652L237.9992625,25.48439066920491L240.14339999999999,25.475228050433472L242.28753749999998,25.469730479170675L244.43167499999996,25.440185865551097L246.57581249999998,25.39621302651745L248.71994999999998,25.343553290967385L250.86408749999998,25.311957449637468L253.00822499999995,25.292999944839387L255.15236249999998,25.255379371098897L257.2965,25.232807026854502L259.4406375,25.21926362030788L261.584775,25.21113757637991L263.7289125,25.206261950023194L265.87305000000003,25.203336574209082L268.0171875,25.20158134872057L270.161325,25.174282142565616L272.3054625,25.15790261887269L274.4496,25.148074904656887L276.5937375,25.142178276127495L278.737875,25.13864029900978L280.8820125,25.136517512739147L283.02615000000003,25.13524384097677L285.1702875,25.134479637919384L287.31442499999997,25.134021116084988L289.45856249999997,25.133746002984275L291.60269999999997,25.13358093512397L293.74683749999997,25.133481894407698L295.89097499999997,25.133422469977972L298.0351125,25.13338681532015L300.17925,25.13336542252541L302.32338749999997,25.13335258684852L304.46752499999997,25.133344885442433L306.61166249999997,25.133340264598818L308.75579999999997,25.133337492092696L310.89993749999996,25.133335828588976L313.04407499999996,25.133334830486792L315.1882125,25.133334231625472L317.33235,25.13333387230864L319.47648749999996,25.13333365671855L321.62062499999996,25.13333352736441L323.76476249999996,25.133333449751927L325.90889999999996,25.133333403184437L328.05303749999996,25.133333375244028L330.197175,25.133333358479806L332.3413125,25.13333334842124L334.48545,25.13333334238611L336.62958749999996,25.13333333876507L338.77372499999996,25.133333336592358L340.91786249999996,25.133333335288686L343.06199999999995,25.133333334506577L345.20613749999995,25.13333333403721L347.350275,25.13333333375569L349.4944125,25.13333333358672L351.63855,25.13333333348543L353.78268749999995,25.133333333424613L355.92682499999995,25.133333333388034L358.07096249999995,25.133333333366142L360.21509999999995,25.133333333353043L362.3592375,25.133333333345213L364.503375,25.133333333340484L366.6475125,25.13333333333768L368.79165,25.133333333336008L370.93578749999995,25.133333333334875L373.07992499999995,25.13333333333433L375.22406249999995,25.133333333333916L377.36819999999994,25.13333333333362L379.5123375,25.133333333333496L381.656475,25.133333333333496L383.8006125,25.133333333333496L385.94475,25.133333333333496L388.08888749999994,25.133333333333496L390.23302499999994,25.133333333333496L392.37716249999994,25.133333333333496L394.5213,25.133333333333496L396.6654375,25.133333333333496L398.809575,25.133333333333496L400.9537125,25.133333333333496L403.09784999999994,25.133333333333496L405.24198749999994,25.133333333333496L407.38612499999994,25.133333333333496L409.53026249999994,25.133333333333496L411.6744,25.133333333333496L413.8185375,25.133333333333496L415.962675,25.133333333333496L418.1068125,25.133333333333496L420.25094999999993,25.133333333333496L422.39508749999993,25.133333333333496L424.53922499999993,25.133333333333496L426.6833625,25.133333333333496L428.8275,25.133333333333496L430.9716375,25.133333333333496L433.115775,25.133333333333496L435.2599125,25.133333333333496L437.4040499999999,25.133333333333496L439.5481874999999,25.133333333333496L441.6923249999999,25.133333333333496L443.8364625,25.133333333333496L445.9806,25.133333333333496L448.1247375,25.133333333333496L450.268875,25.133333333333496L452.4130125,25.133333333333496L454.5571499999999,25.133333333333496L456.7012874999999,25.133333333333496L458.845425,25.133333333333496L460.9895625,25.133333333333496L463.1337,25.133333333333496L465.2778375,25.133333333333496L467.421975,25.133333333333496L469.5661125,25.133333333333496" style="fill: none;" fill="none"></path></g></g></g></g><g opacity="0.2"><g><g><g><path stroke="rgb(51, 187, 238)" stroke-width="2px" d="M53.6034375,381.53310391108187L55.747575,360.08555484612776L57.8917125,342.080255873998L60.035849999999996,325.3987955331802L62.179987499999996,310.57088904380794L64.324125,301.038636692365L66.46826250000001,288.85855727195735L68.6124,279.8558703343073L70.75653750000001,273.2363026618957L72.90067499999999,264.49839843114216L75.0448125,257.34926534493763L77.18894999999999,250.72962276935573L79.3330875,243.3156320730845L81.47722499999999,238.81432605584462L83.6213625,232.9891065041224L85.76549999999999,227.69337746302284L87.9096375,224.2512022733688L90.05377499999999,220.54416947364803L92.1979125,218.42590781847633L94.34204999999999,213.65981909433998L96.4861875,210.21764390468593L98.630325,207.04017651875813L100.77446249999998,203.86278403600056L102.9186,202.5388705015182L105.06273749999998,198.56712989807124L107.206875,198.30234719117482L109.35101249999998,195.38966251214345L111.49515,193.53618356386824L113.63928749999998,192.4770527362823L115.783425,191.41792190869648L117.92756249999998,189.0348775466283L120.07169999999999,187.18139859835304L122.21583749999998,186.65183318456013L124.35997499999999,185.32791965007783L126.50411249999998,183.73914850552876L128.64825,182.41523497104646L130.7923875,182.94480038483937L132.93652500000002,181.8856695572535L135.0806625,181.35610414346058L137.2248,178.70827707449592L139.3689375,178.70827707449592L141.51307500000001,178.4434943675995L143.65721249999999,177.91392895380653L145.80134999999999,177.6491462469101L147.94548749999998,177.11958083311714L150.089625,177.38436354001362L152.23376249999998,176.32523271242775L154.37789999999998,177.38436354001362L156.52203749999998,177.38436354001362L158.666175,176.06045000553132L160.81031249999998,175.79566729863484L162.95444999999998,175.00131917794545L165.0985875,174.47175376415254L167.242725,173.14776532649995L169.38686249999998,172.61819991270698L171.53099999999998,171.8238517920176L173.6751375,171.0295036713282L175.819275,170.4999382575353L177.96341249999998,170.2351555506388L180.10754999999997,169.7055901368459L182.2516875,168.64645930926002L184.395825,168.3816766023636L186.53996249999997,167.85211118857063L188.68409999999997,167.5873284816742L190.8282375,167.5873284816742L192.972375,166.7929803609848L195.11651249999997,165.99863224029542L197.26065,165.46906682650246L199.4047875,165.73384953339894L201.54892499999997,165.20428411960603L203.69306249999997,164.40993599891664L205.8372,164.14515329202015L207.9813375,164.40993599891664L210.12547499999997,164.67471870581306L212.26961249999997,164.40993599891664L214.41375,164.67471870581306L216.5578875,164.14515329202015L218.70202499999996,163.35080517133076L220.84616249999996,162.2916743437449L222.9903,162.02689163684846L225.1344375,161.76210892995198L227.27857499999996,160.9676859060923L229.4227125,160.4381204922994L231.56685,160.70290319919587L233.7109875,160.70290319919587L235.85512499999996,159.37898966471352L237.9992625,159.1142069578171L240.14339999999999,159.1142069578171L242.28753749999998,158.0550761302312L244.43167499999996,158.58464154402412L246.57581249999998,158.8494242509206L248.71994999999998,158.0550761302312L250.86408749999998,157.26072800954182L253.00822499999995,156.46637988885243L255.15236249999998,156.46637988885243L257.2965,156.20159718195595L259.4406375,156.46637988885243L261.584775,155.67203176816304L263.7289125,155.93681447505952L265.87305000000003,155.93681447505952L268.0171875,155.67203176816304L270.161325,155.67203176816304L272.3054625,155.67203176816304L274.4496,155.93681447505952L276.5937375,155.93681447505952L278.737875,156.20159718195595L280.8820125,156.20159718195595L283.02615000000003,155.93681447505952L285.1702875,155.93681447505952L287.31442499999997,155.40724906126655L289.45856249999997,155.40724906126655L291.60269999999997,155.40724906126655L293.74683749999997,155.40724906126655L295.89097499999997,155.40724906126655L298.0351125,155.40724906126655L300.17925,155.40724906126655L302.32338749999997,155.40724906126655L304.46752499999997,155.40724906126655L306.61166249999997,155.14246635437013L308.75579999999997,154.87768364747365L310.89993749999996,155.14246635437013L313.04407499999996,155.14246635437013L315.1882125,155.14246635437013L317.33235,155.14246635437013L319.47648749999996,155.14246635437013L321.62062499999996,154.61290094057716L323.76476249999996,154.34811823368074L325.90889999999996,154.34811823368074L328.05303749999996,154.61290094057716L330.197175,155.14246635437013L332.3413125,155.14246635437013L334.48545,155.14246635437013L336.62958749999996,154.87768364747365L338.77372499999996,154.61290094057716L340.91786249999996,154.34811823368074L343.06199999999995,154.34811823368074L345.20613749999995,154.61290094057716L347.350275,154.61290094057716L349.4944125,154.87768364747365L351.63855,154.61290094057716L353.78268749999995,154.87768364747365L355.92682499999995,154.87768364747365L358.07096249999995,154.87768364747365L360.21509999999995,154.61290094057716L362.3592375,154.34811823368074L364.503375,154.08333552678425L366.6475125,154.08333552678425L368.79165,154.08333552678425L370.93578749999995,154.34811823368074L373.07992499999995,154.08333552678425L375.22406249999995,154.34811823368074L377.36819999999994,154.34811823368074L379.5123375,154.34811823368074L381.656475,154.34811823368074L383.8006125,154.08333552678425L385.94475,154.34811823368074L388.08888749999994,154.87768364747365L390.23302499999994,154.61290094057716L392.37716249999994,154.61290094057716L394.5213,154.61290094057716L396.6654375,154.34811823368074L398.809575,154.34811823368074L400.9537125,153.81855281988777L403.09784999999994,153.81855281988777L405.24198749999994,153.55377011299134L407.38612499999994,153.55377011299134L409.53026249999994,153.55377011299134L411.6744,153.55377011299134L413.8185375,153.55377011299134L415.962675,153.55377011299134L418.1068125,153.55377011299134L420.25094999999993,153.28898740609486L422.39508749999993,153.81855281988777L424.53922499999993,153.55377011299134L426.6833625,153.02420469919838L428.8275,153.28898740609486L430.9716375,153.28898740609486L433.115775,153.28898740609486L435.2599125,153.28898740609486L437.4040499999999,153.02420469919838L439.5481874999999,152.75942199230195L441.6923249999999,152.75942199230195L443.8364625,152.75942199230195L445.9806,152.75942199230195L448.1247375,153.02420469919838L450.268875,153.02420469919838L452.4130125,153.02420469919838L454.5571499999999,153.28898740609486L456.7012874999999,153.28898740609486L458.845425,153.02420469919838L460.9895625,152.75942199230195L463.1337,152.49463928540547L465.2778375,152.49463928540547L467.421975,152.229856578509L469.5661125,152.49463928540547" style="fill: none;" fill="none"></path></g><g><path stroke="rgb(204, 51, 17)" stroke-width="2px" d="M49.3151625,414.97040344079335L51.4593,365.945454565684L53.6034375,328.33994341691334L55.747575,297.2317579666773L57.8917125,273.4739704211553L60.035849999999996,251.55385725498195L62.179987499999996,232.45579593181606L64.324125,216.11409637133278L66.46826250000001,202.66013873418171L68.6124,189.07487583955128L70.75653750000001,176.47414021492006L72.90067499999999,166.49846109549202L75.0448125,157.17915845712025L77.18894999999999,148.6473877509435L79.3330875,139.19677985509236L81.47722499999999,131.05877511501313L83.6213625,126.20220336119336L85.76549999999999,120.82063528696698L87.9096375,114.25769441127778L90.05377499999999,108.54797554810841L92.1979125,103.4288681825002L94.34204999999999,97.52230378786724L96.4861875,92.9281927426656L98.630325,88.92484300136567L100.77446249999998,86.03717598120373L102.9186,82.0994414170583L105.06273749999998,78.75231835047406L107.206875,75.60211571852368L109.35101249999998,72.97698431015016L111.49515,69.30171045462292L113.63928749999998,65.88904711405438L115.783425,63.723296848932925L117.92756249999998,61.82000729242963L120.07169999999999,59.391721415519726L122.21583749999998,57.35720150470735L124.35997499999999,55.97905807495118L126.50411249999998,54.20707377592725L128.64825,52.04124860763551L130.7923875,50.66303027470906L132.93652500000002,49.02235123316449L135.0806625,47.31598211129506L137.2248,46.003378955523196L139.3689375,44.62516062259675L141.51307500000001,43.44386272430421L143.65721249999999,42.45941035747529L145.80134999999999,41.474957990646374L147.94548749999998,40.68742605845136L150.089625,39.6373585144679L152.23376249999998,38.981056936581965L154.37789999999998,38.06229465007783L156.52203749999998,36.815306671460505L158.666175,36.02777473926545L160.81031249999998,35.30585798422498L162.95444999999998,34.649556406339045L165.0985875,33.79640929698945L167.242725,32.877572107315075L169.38686249999998,32.28688570658368L171.53099999999998,31.893119740486153L173.6751375,31.236818162600223L175.819275,30.58051658471429L177.96341249999998,30.121135441462222L180.10754999999997,29.53044904073083L182.2516875,29.46483386357629L184.395825,29.136683074633304L186.53996249999997,29.00545272032422L188.68409999999997,28.87422236601514L190.8282375,28.283535965283747L192.972375,27.758464741706856L195.11651249999997,27.561619210243233L197.26065,27.43038885593415L199.4047875,27.102238066991205L201.54892499999997,27.036547986666385L203.69306249999997,26.905317632357303L205.8372,26.577166843414314L207.9813375,26.511551666259773L210.12547499999997,26.445936489105232L212.26961249999997,26.24901605447137L214.41375,26.117785700162287L216.5578875,25.920865265528384L218.70202499999996,25.789634911219302L220.84616249999996,25.72401973406476L222.9903,25.658329653739937L225.1344375,25.592714476585396L227.27857499999996,25.592714476585396L229.4227125,25.592714476585396L231.56685,25.461484122276314L233.7109875,25.461484122276314L235.85512499999996,25.461484122276314L237.9992625,25.461484122276314L240.14339999999999,25.461484122276314L242.28753749999998,25.461484122276314L244.43167499999996,25.395868945121773L246.57581249999998,25.330253767967232L248.71994999999998,25.26456368764245L250.86408749999998,25.26456368764245L253.00822499999995,25.26456368764245L255.15236249999998,25.19894851048791L257.2965,25.19894851048791L259.4406375,25.19894851048791L261.584775,25.19894851048791L263.7289125,25.19894851048791L265.87305000000003,25.19894851048791L268.0171875,25.19894851048791L270.161325,25.13333333333337L272.3054625,25.13333333333337L274.4496,25.13333333333337L276.5937375,25.13333333333337L278.737875,25.13333333333337L280.8820125,25.13333333333337L283.02615000000003,25.13333333333337L285.1702875,25.13333333333337L287.31442499999997,25.13333333333337L289.45856249999997,25.13333333333337L291.60269999999997,25.13333333333337L293.74683749999997,25.13333333333337L295.89097499999997,25.13333333333337L298.0351125,25.13333333333337L300.17925,25.13333333333337L302.32338749999997,25.13333333333337L304.46752499999997,25.13333333333337L306.61166249999997,25.13333333333337L308.75579999999997,25.13333333333337L310.89993749999996,25.13333333333337L313.04407499999996,25.13333333333337L315.1882125,25.13333333333337L317.33235,25.13333333333337L319.47648749999996,25.13333333333337L321.62062499999996,25.13333333333337L323.76476249999996,25.13333333333337L325.90889999999996,25.13333333333337L328.05303749999996,25.13333333333337L330.197175,25.13333333333337L332.3413125,25.13333333333337L334.48545,25.13333333333337L336.62958749999996,25.13333333333337L338.77372499999996,25.13333333333337L340.91786249999996,25.13333333333337L343.06199999999995,25.13333333333337L345.20613749999995,25.13333333333337L347.350275,25.13333333333337L349.4944125,25.13333333333337L351.63855,25.13333333333337L353.78268749999995,25.13333333333337L355.92682499999995,25.13333333333337L358.07096249999995,25.13333333333337L360.21509999999995,25.13333333333337L362.3592375,25.13333333333337L364.503375,25.13333333333337L366.6475125,25.13333333333337L368.79165,25.13333333333337L370.93578749999995,25.13333333333337L373.07992499999995,25.13333333333337L375.22406249999995,25.13333333333337L377.36819999999994,25.13333333333337L379.5123375,25.13333333333337L381.656475,25.13333333333337L383.8006125,25.13333333333337L385.94475,25.13333333333337L388.08888749999994,25.13333333333337L390.23302499999994,25.13333333333337L392.37716249999994,25.13333333333337L394.5213,25.13333333333337L396.6654375,25.13333333333337L398.809575,25.13333333333337L400.9537125,25.13333333333337L403.09784999999994,25.13333333333337L405.24198749999994,25.13333333333337L407.38612499999994,25.13333333333337L409.53026249999994,25.13333333333337L411.6744,25.13333333333337L413.8185375,25.13333333333337L415.962675,25.13333333333337L418.1068125,25.13333333333337L420.25094999999993,25.13333333333337L422.39508749999993,25.13333333333337L424.53922499999993,25.13333333333337L426.6833625,25.13333333333337L428.8275,25.13333333333337L430.9716375,25.13333333333337L433.115775,25.13333333333337L435.2599125,25.13333333333337L437.4040499999999,25.13333333333337L439.5481874999999,25.13333333333337L441.6923249999999,25.13333333333337L443.8364625,25.13333333333337L445.9806,25.13333333333337L448.1247375,25.13333333333337L450.268875,25.13333333333337L452.4130125,25.13333333333337L454.5571499999999,25.13333333333337L456.7012874999999,25.13333333333337L458.845425,25.13333333333337L460.9895625,25.13333333333337L463.1337,25.13333333333337L465.2778375,25.13333333333337L467.421975,25.13333333333337L469.5661125,25.13333333333337" style="fill: none;" fill="none"></path></g></g></g></g></g></g><g transform="translate(50, 377)" clip-path="url(#clip_1)"><clipPath id="clip_1"><rect width="514" height="22"></rect></clipPath><g><g><line x1="0" y1="0" x2="0" y2="5" style="visibility: inherit;" fill="rgb(0, 0, 0)" stroke="rgb(204, 204, 204)" stroke-width="1px"></line><line x1="42.882749999999994" y1="0" x2="42.882749999999994" y2="5" style="visibility: inherit;" fill="rgb(0, 0, 0)" stroke="rgb(204, 204, 204)" stroke-width="1px"></line><line x1="85.76549999999999" y1="0" x2="85.76549999999999" y2="5" style="visibility: inherit;" fill="rgb(0, 0, 0)" stroke="rgb(204, 204, 204)" stroke-width="1px"></line><line x1="128.64825" y1="0" x2="128.64825" y2="5" style="visibility: inherit;" fill="rgb(0, 0, 0)" stroke="rgb(204, 204, 204)" stroke-width="1px"></line><line x1="171.53099999999998" y1="0" x2="171.53099999999998" y2="5" style="visibility: inherit;" fill="rgb(0, 0, 0)" stroke="rgb(204, 204, 204)" stroke-width="1px"></line><line x1="214.41375" y1="0" x2="214.41375" y2="5" style="visibility: inherit;" fill="rgb(0, 0, 0)" stroke="rgb(204, 204, 204)" stroke-width="1px"></line><line x1="257.2965" y1="0" x2="257.2965" y2="5" style="visibility: inherit;" fill="rgb(0, 0, 0)" stroke="rgb(204, 204, 204)" stroke-width="1px"></line><line x1="300.17925" y1="0" x2="300.17925" y2="5" style="visibility: inherit;" fill="rgb(0, 0, 0)" stroke="rgb(204, 204, 204)" stroke-width="1px"></line><line x1="343.06199999999995" y1="0" x2="343.06199999999995" y2="5" style="visibility: inherit;" fill="rgb(0, 0, 0)" stroke="rgb(204, 204, 204)" stroke-width="1px"></line><line x1="385.94475" y1="0" x2="385.94475" y2="5" style="visibility: inherit;" fill="rgb(0, 0, 0)" stroke="rgb(204, 204, 204)" stroke-width="1px"></line><line x1="428.8275" y1="0" x2="428.8275" y2="5" style="visibility: inherit;" fill="rgb(0, 0, 0)" stroke="rgb(204, 204, 204)" stroke-width="1px"></line><line x1="471.7102499999999" y1="0" x2="471.7102499999999" y2="5" style="visibility: inherit;" fill="rgb(0, 0, 0)" stroke="rgb(204, 204, 204)" stroke-width="1px"></line><line x1="514.593" y1="0" x2="514.593" y2="5" style="visibility: inherit;" fill="rgb(0, 0, 0)" stroke="rgb(204, 204, 204)" stroke-width="1px"></line></g><g transform="translate(0, 8)"><text x="0" y="0" dx="0em" dy="0.95em" style="text-anchor: middle; visibility: hidden; font-family: Roboto, sans-serif; font-size: 12px; font-weight: 200;" fill="rgb(33, 33, 33)" stroke="none" stroke-width="1px">-20</text><text x="42.882749999999994" y="0" dx="0em" dy="0.95em" style="text-anchor: middle; visibility: inherit; font-family: Roboto, sans-serif; font-size: 12px; font-weight: 200;" fill="rgb(33, 33, 33)" stroke="none" stroke-width="1px">0</text><text x="85.76549999999999" y="0" dx="0em" dy="0.95em" style="text-anchor: middle; visibility: inherit; font-family: Roboto, sans-serif; font-size: 12px; font-weight: 200;" fill="rgb(33, 33, 33)" stroke="none" stroke-width="1px">20</text><text x="128.64825" y="0" dx="0em" dy="0.95em" style="text-anchor: middle; visibility: inherit; font-family: Roboto, sans-serif; font-size: 12px; font-weight: 200;" fill="rgb(33, 33, 33)" stroke="none" stroke-width="1px">40</text><text x="171.53099999999998" y="0" dx="0em" dy="0.95em" style="text-anchor: middle; visibility: inherit; font-family: Roboto, sans-serif; font-size: 12px; font-weight: 200;" fill="rgb(33, 33, 33)" stroke="none" stroke-width="1px">60</text><text x="214.41375" y="0" dx="0em" dy="0.95em" style="text-anchor: middle; visibility: inherit; font-family: Roboto, sans-serif; font-size: 12px; font-weight: 200;" fill="rgb(33, 33, 33)" stroke="none" stroke-width="1px">80</text><text x="257.2965" y="0" dx="0em" dy="0.95em" style="text-anchor: middle; visibility: inherit; font-family: Roboto, sans-serif; font-size: 12px; font-weight: 200;" fill="rgb(33, 33, 33)" stroke="none" stroke-width="1px">100</text><text x="300.17925" y="0" dx="0em" dy="0.95em" style="text-anchor: middle; visibility: inherit; font-family: Roboto, sans-serif; font-size: 12px; font-weight: 200;" fill="rgb(33, 33, 33)" stroke="none" stroke-width="1px">120</text><text x="343.06199999999995" y="0" dx="0em" dy="0.95em" style="text-anchor: middle; visibility: inherit; font-family: Roboto, sans-serif; font-size: 12px; font-weight: 200;" fill="rgb(33, 33, 33)" stroke="none" stroke-width="1px">140</text><text x="385.94475" y="0" dx="0em" dy="0.95em" style="text-anchor: middle; visibility: inherit; font-family: Roboto, sans-serif; font-size: 12px; font-weight: 200;" fill="rgb(33, 33, 33)" stroke="none" stroke-width="1px">160</text><text x="428.8275" y="0" dx="0em" dy="0.95em" style="text-anchor: middle; visibility: inherit; font-family: Roboto, sans-serif; font-size: 12px; font-weight: 200;" fill="rgb(33, 33, 33)" stroke="none" stroke-width="1px">180</text><text x="471.7102499999999" y="0" dx="0em" dy="0.95em" style="text-anchor: middle; visibility: inherit; font-family: Roboto, sans-serif; font-size: 12px; font-weight: 200;" fill="rgb(33, 33, 33)" stroke="none" stroke-width="1px">200</text><text x="514.593" y="0" dx="0em" dy="0.95em" style="text-anchor: middle; visibility: hidden; font-family: Roboto, sans-serif; font-size: 12px; font-weight: 200;" fill="rgb(33, 33, 33)" stroke="none" stroke-width="1px">220</text></g><line x1="0" y1="0" x2="514.593" y2="0" fill="rgb(0, 0, 0)" stroke="rgb(204, 204, 204)" stroke-width="1px"></line></g></g></g></g></svg>