<svg viewBox="0 0 651.5714721679688 400.0000305175781" xmlns="http://www.w3.org/2000/svg"><g><g><g><g><g><line x1="50" y1="377" x2="45" y2="377" style="visibility: inherit;" fill="rgb(0, 0, 0)" stroke="rgb(204, 204, 204)" stroke-width="1px"></line><line x1="50" y1="348" x2="45" y2="348" style="visibility: inherit;" fill="rgb(0, 0, 0)" stroke="rgb(204, 204, 204)" stroke-width="1px"></line><line x1="50" y1="319" x2="45" y2="319" style="visibility: inherit;" fill="rgb(0, 0, 0)" stroke="rgb(204, 204, 204)" stroke-width="1px"></line><line x1="50" y1="290" x2="45" y2="290" style="visibility: inherit;" fill="rgb(0, 0, 0)" stroke="rgb(204, 204, 204)" stroke-width="1px"></line><line x1="50" y1="261" x2="45" y2="261" style="visibility: inherit;" fill="rgb(0, 0, 0)" stroke="rgb(204, 204, 204)" stroke-width="1px"></line><line x1="50" y1="232" x2="45" y2="232" style="visibility: inherit;" fill="rgb(0, 0, 0)" stroke="rgb(204, 204, 204)" stroke-width="1px"></line><line x1="50" y1="203.00000000000003" x2="45" y2="203.00000000000003" style="visibility: inherit;" fill="rgb(0, 0, 0)" stroke="rgb(204, 204, 204)" stroke-width="1px"></line><line x1="50" y1="174" x2="45" y2="174" style="visibility: inherit;" fill="rgb(0, 0, 0)" stroke="rgb(204, 204, 204)" stroke-width="1px"></line><line x1="50" y1="145.00000000000003" x2="45" y2="145.00000000000003" style="visibility: inherit;" fill="rgb(0, 0, 0)" stroke="rgb(204, 204, 204)" stroke-width="1px"></line><line x1="50" y1="116" x2="45" y2="116" style="visibility: inherit;" fill="rgb(0, 0, 0)" stroke="rgb(204, 204, 204)" stroke-width="1px"></line><line x1="50" y1="87.00000000000003" x2="45" y2="87.00000000000003" style="visibility: inherit;" fill="rgb(0, 0, 0)" stroke="rgb(204, 204, 204)" stroke-width="1px"></line><line x1="50" y1="58" x2="45" y2="58" style="visibility: inherit;" fill="rgb(0, 0, 0)" stroke="rgb(204, 204, 204)" stroke-width="1px"></line><line x1="50" y1="28.999999999999982" x2="45" y2="28.999999999999982" style="visibility: inherit;" fill="rgb(0, 0, 0)" stroke="rgb(204, 204, 204)" stroke-width="1px"></line><line x1="50" y1="0" x2="45" y2="0" style="visibility: inherit;" fill="rgb(0, 0, 0)" stroke="rgb(204, 204, 204)" stroke-width="1px"></line></g><g transform="translate(40, 0)"><text x="0" y="377" dx="0em" dy="0.3em" style="text-anchor: end; visibility: hidden; font-family: Roboto, sans-serif; font-size: 12px; font-weight: 200;" fill="rgb(33, 33, 33)" stroke="none" stroke-width="1px">-0.1</text><text x="0" y="348" dx="0em" dy="0.3em" style="text-anchor: end; visibility: inherit; font-family: Roboto, sans-serif; font-size: 12px; font-weight: 200;" fill="rgb(33, 33, 33)" stroke="none" stroke-width="1px">0</text><text x="0" y="319" dx="0em" dy="0.3em" style="text-anchor: end; visibility: inherit; font-family: Roboto, sans-serif; font-size: 12px; font-weight: 200;" fill="rgb(33, 33, 33)" stroke="none" stroke-width="1px">0.1</text><text x="0" y="290" dx="0em" dy="0.3em" style="text-anchor: end; visibility: inherit; font-family: Roboto, sans-serif; font-size: 12px; font-weight: 200;" fill="rgb(33, 33, 33)" stroke="none" stroke-width="1px">0.2</text><text x="0" y="261" dx="0em" dy="0.3em" style="text-anchor: end; visibility: inherit; font-family: Roboto, sans-serif; font-size: 12px; font-weight: 200;" fill="rgb(33, 33, 33)" stroke="none" stroke-width="1px">0.3</text><text x="0" y="232" dx="0em" dy="0.3em" style="text-anchor: end; visibility: inherit; font-family: Roboto, sans-serif; font-size: 12px; font-weight: 200;" fill="rgb(33, 33, 33)" stroke="none" stroke-width="1px">0.4</text><text x="0" y="203.00000000000003" dx="0em" dy="0.3em" style="text-anchor: end; visibility: inherit; font-family: Roboto, sans-serif; font-size: 12px; font-weight: 200;" fill="rgb(33, 33, 33)" stroke="none" stroke-width="1px">0.5</text><text x="0" y="174" dx="0em" dy="0.3em" style="text-anchor: end; visibility: inherit; font-family: Roboto, sans-serif; font-size: 12px; font-weight: 200;" fill="rgb(33, 33, 33)" stroke="none" stroke-width="1px">0.6</text><text x="0" y="145.00000000000003" dx="0em" dy="0.3em" style="text-anchor: end; visibility: inherit; font-family: Roboto, sans-serif; font-size: 12px; font-weight: 200;" fill="rgb(33, 33, 33)" stroke="none" stroke-width="1px">0.7</text><text x="0" y="116" dx="0em" dy="0.3em" style="text-anchor: end; visibility: inherit; font-family: Roboto, sans-serif; font-size: 12px; font-weight: 200;" fill="rgb(33, 33, 33)" stroke="none" stroke-width="1px">0.8</text><text x="0" y="87.00000000000003" dx="0em" dy="0.3em" style="text-anchor: end; visibility: inherit; font-family: Roboto, sans-serif; font-size: 12px; font-weight: 200;" fill="rgb(33, 33, 33)" stroke="none" stroke-width="1px">0.9</text><text x="0" y="58" dx="0em" dy="0.3em" style="text-anchor: end; visibility: inherit; font-family: Roboto, sans-serif; font-size: 12px; font-weight: 200;" fill="rgb(33, 33, 33)" stroke="none" stroke-width="1px">1</text><text x="0" y="28.999999999999982" dx="0em" dy="0.3em" style="text-anchor: end; visibility: inherit; font-family: Roboto, sans-serif; font-size: 12px; font-weight: 200;" fill="rgb(33, 33, 33)" stroke="none" stroke-width="1px">1.1</text><text x="0" y="0" dx="0em" dy="0.3em" style="text-anchor: end; visibility: hidden; font-family: Roboto, sans-serif; font-size: 12px; font-weight: 200;" fill="rgb(33, 33, 33)" stroke="none" stroke-width="1px">1.2</text></g><line x1="50" y1="0" x2="50" y2="377" fill="rgb(0, 0, 0)" stroke="rgb(204, 204, 204)" stroke-width="1px"></line></g></g><g transform="translate(50, 0)" clip-path="url(#clip_0)"><clipPath id="clip_0"><rect width="601" height="377"></rect></clipPath><g><g><g><line x1="0" y1="0" x2="0" y2="377" fill="rgb(0, 0, 0)" stroke="rgb(66, 66, 66)" stroke-width="1px" opacity="0.25"></line><line x1="50.130916666666664" y1="0" x2="50.130916666666664" y2="377" fill="rgb(0, 0, 0)" stroke="rgb(66, 66, 66)" stroke-width="1px" opacity="0.25"></line><line x1="100.26183333333333" y1="0" x2="100.26183333333333" y2="377" fill="rgb(0, 0, 0)" stroke="rgb(66, 66, 66)" stroke-width="1px" opacity="0.25"></line><line x1="150.39275" y1="0" x2="150.39275" y2="377" fill="rgb(0, 0, 0)" stroke="rgb(66, 66, 66)" stroke-width="1px" opacity="0.25"></line><line x1="200.52366666666666" y1="0" x2="200.52366666666666" y2="377" fill="rgb(0, 0, 0)" stroke="rgb(66, 66, 66)" stroke-width="1px" opacity="0.25"></line><line x1="250.65458333333336" y1="0" x2="250.65458333333336" y2="377" fill="rgb(0, 0, 0)" stroke="rgb(66, 66, 66)" stroke-width="1px" opacity="0.25"></line><line x1="300.7855" y1="0" x2="300.7855" y2="377" fill="rgb(0, 0, 0)" stroke="rgb(66, 66, 66)" stroke-width="1px" opacity="0.25"></line><line x1="350.9164166666667" y1="0" x2="350.9164166666667" y2="377" fill="rgb(0, 0, 0)" stroke="rgb(66, 66, 66)" stroke-width="1px" opacity="0.25"></line><line x1="401.0473333333333" y1="0" x2="401.0473333333333" y2="377" fill="rgb(0, 0, 0)" stroke="rgb(66, 66, 66)" stroke-width="1px" opacity="0.25"></line><line x1="451.17825000000005" y1="0" x2="451.17825000000005" y2="377" fill="rgb(0, 0, 0)" stroke="rgb(66, 66, 66)" stroke-width="1px" opacity="0.25"></line><line x1="501.3091666666667" y1="0" x2="501.3091666666667" y2="377" fill="rgb(0, 0, 0)" stroke="rgb(66, 66, 66)" stroke-width="1px" opacity="0.25"></line><line x1="551.4400833333333" y1="0" x2="551.4400833333333" y2="377" fill="rgb(0, 0, 0)" stroke="rgb(66, 66, 66)" stroke-width="1px" opacity="0.25"></line><line x1="601.571" y1="0" x2="601.571" y2="377" fill="rgb(0, 0, 0)" stroke="rgb(66, 66, 66)" stroke-width="1px" opacity="0.25"></line></g><g><line x1="0" y1="377" x2="601.571" y2="377" fill="rgb(0, 0, 0)" stroke="rgb(66, 66, 66)" stroke-width="1px" opacity="0.25"></line><line x1="0" y1="348" x2="601.571" y2="348" fill="rgb(0, 0, 0)" stroke="rgb(66, 66, 66)" stroke-width="1px" opacity="0.25"></line><line x1="0" y1="319" x2="601.571" y2="319" fill="rgb(0, 0, 0)" stroke="rgb(66, 66, 66)" stroke-width="1px" opacity="0.25"></line><line x1="0" y1="290" x2="601.571" y2="290" fill="rgb(0, 0, 0)" stroke="rgb(66, 66, 66)" stroke-width="1px" opacity="0.25"></line><line x1="0" y1="261" x2="601.571" y2="261" fill="rgb(0, 0, 0)" stroke="rgb(66, 66, 66)" stroke-width="1px" opacity="0.25"></line><line x1="0" y1="232" x2="601.571" y2="232" fill="rgb(0, 0, 0)" stroke="rgb(66, 66, 66)" stroke-width="1px" opacity="0.25"></line><line x1="0" y1="203.00000000000003" x2="601.571" y2="203.00000000000003" fill="rgb(0, 0, 0)" stroke="rgb(66, 66, 66)" stroke-width="1px" opacity="0.25"></line><line x1="0" y1="174" x2="601.571" y2="174" fill="rgb(0, 0, 0)" stroke="rgb(66, 66, 66)" stroke-width="1px" opacity="0.25"></line><line x1="0" y1="145.00000000000003" x2="601.571" y2="145.00000000000003" fill="rgb(0, 0, 0)" stroke="rgb(66, 66, 66)" stroke-width="1px" opacity="0.25"></line><line x1="0" y1="116" x2="601.571" y2="116" fill="rgb(0, 0, 0)" stroke="rgb(66, 66, 66)" stroke-width="1px" opacity="0.25"></line><line x1="0" y1="87.00000000000003" x2="601.571" y2="87.00000000000003" fill="rgb(0, 0, 0)" stroke="rgb(66, 66, 66)" stroke-width="1px" opacity="0.25"></line><line x1="0" y1="58" x2="601.571" y2="58" fill="rgb(0, 0, 0)" stroke="rgb(66, 66, 66)" stroke-width="1px" opacity="0.25"></line><line x1="0" y1="28.999999999999982" x2="601.571" y2="28.999999999999982" fill="rgb(0, 0, 0)" stroke="rgb(66, 66, 66)" stroke-width="1px" opacity="0.25"></line><line x1="0" y1="0" x2="601.571" y2="0" fill="rgb(0, 0, 0)" stroke="rgb(66, 66, 66)" stroke-width="1px" opacity="0.25"></line></g></g></g><g><g><line x1="0" y1="348" x2="601.571" y2="348" fill="rgb(0, 0, 0)" stroke="rgb(153, 153, 153)" stroke-width="1.5px"></line></g></g><g><g><line x1="50.130916666666664" y1="0" x2="50.130916666666664" y2="377" fill="rgb(0, 0, 0)" stroke="rgb(153, 153, 153)" stroke-width="1.5px"></line></g></g><g><g><g><g><g><path stroke="rgb(0, 119, 187)" stroke-width="2px" d="M60.15710000000001,-16.896980673074747L70.18328333333334,33.431284746345185L80.20946666666667,71.43305524657754L90.23565,101.15701160515292L100.26183333333333,124.90012092220925L110.28801666666666,144.05961277358426L120.31420000000001,159.62397968932774L130.34038333333334,172.3782903310052L140.36656666666667,182.92496474154603L150.39275,191.72162035438672L160.41893333333334,199.13239306972378L170.44511666666668,205.4490245116667L180.4713,210.88561228034618L190.49748333333332,215.57923075130384L200.52366666666666,219.6092290275182L210.54985,223.01602569161298L220.57603333333333,225.8337334971058L230.6022166666667,228.1487050091707L240.62840000000003,230.09723811559715L250.65458333333336,231.78691005645783L260.68076666666667,233.26870679920887L270.70695,234.55612324372004L280.73313333333334,235.6445165868608L290.7593166666667,236.53314924133446L300.7855,237.23348026466024L310.8116833333334,237.76282482079915L320.8378666666667,238.13843741077687L330.86405,238.37572133974209L340.89023333333336,238.48936338812686L350.9164166666667,238.4926386574713L360.9426,238.39698308539894L370.96878333333336,238.21106281484973L380.99496666666664,237.9426703293066L391.02115000000003,237.6000902974687L401.0473333333333,237.19119745810772L411.0735166666667,236.72418063780697L421.0997,236.20549844251815L431.1258833333334,235.63871144255927L441.15206666666666,235.02464229383L451.17825000000005,234.3610396768369L461.2044333333334,233.64491414904214L471.23061666666666,232.87213160897605L481.25680000000006,232.03874579835585L491.28298333333333,231.1451719030921L501.3091666666667,230.1973217144127L511.33535,229.20554581963378L521.3615333333333,228.18459698962874L531.3877166666666,227.14880634191852L541.4139,226.11405313516747" style="fill: none;" fill="none"></path></g><g><path stroke="rgb(255, 112, 67)" stroke-width="2px" d="M60.15710000000001,-106.03136149048811L70.18328333333334,10.651744010497042L80.20946666666667,87.45431794313829L90.23565,142.23482942816952L100.26183333333333,183.04187248035007L110.28801666666666,214.25960788286721L120.31420000000001,238.5777695832516L130.34038333333334,257.78435508077035L140.36656666666667,273.1329156865503L150.39275,285.5272385122103L160.41893333333334,295.6286811253763L170.44511666666668,303.92720371951714L180.4713,310.79076550752035L190.49748333333332,316.50063244229875L200.52366666666666,321.2754295625807L210.54985,325.2870100578031L220.57603333333333,328.6703660439288L230.6022166666667,331.53117618024476L240.62840000000003,333.95390246273206L250.65458333333336,336.0069245959728L260.68076666666667,337.7463971783938L270.70695,339.22110294109507L280.73313333333334,340.4729972825793L290.7593166666667,341.53735421682353L300.7855,342.4437546259848L310.8116833333334,343.21700372945634L320.8378666666667,343.87784306324284L330.86405,344.44357897990176L340.89023333333336,344.92864947703197L350.9164166666667,345.3451272730828L360.9426,345.70314257407716L370.96878333333336,346.0112348707485L380.99496666666664,346.27663482700535L391.02115000000003,346.5054880750018L401.0473333333333,346.70303021928794L411.0735166666667,346.8737249237723L421.0997,347.02137498723715L431.1258833333334,347.1492196699383L441.15206666666666,347.26001801817193L451.17825000000005,347.35611533405785L461.2044333333334,347.439503543219L471.23061666666666,347.51188089913944L481.25680000000006,347.5747097095468L491.28298333333333,347.62926343659467L501.3091666666667,347.6766560305511L511.33535,347.7178583078835L521.3615333333333,347.75370684632014L531.3877166666666,347.7849179443046L541.4139,347.81210454481186" style="fill: none;" fill="none"></path></g></g></g></g><g opacity="0.2"><g><g><g><path stroke="rgb(0, 119, 187)" stroke-width="2px" d="M50.130916666666664,-88.78239583969119L60.15710000000001,26.234268426895117L70.18328333333334,81.74641954898831L80.20946666666667,116.12313735485077L90.23565,139.9646090269089L100.26183333333333,157.74538862705234L110.28801666666666,171.45799267292023L120.31420000000001,182.31697607040405L130.34038333333334,191.1884211301804L140.36656666666667,198.58554708957672L150.39275,204.836818754673L160.41893333333334,210.20822304487228L170.44511666666668,214.90334677696225L180.4713,219.02984309196472L190.49748333333332,222.61414128541944L200.52366666666666,225.65138417482376L210.54985,228.12477904558185L220.57603333333333,230.05957978963855L230.6022166666667,231.62080961465838L240.62840000000003,233.0198596715927L250.65458333333336,234.32132530212402L260.68076666666667,235.49135315418243L270.70695,236.48722249269488L280.73313333333334,237.27709370851517L290.7593166666667,237.8660919070244L300.7855,238.28397381305695L310.8116833333334,238.55684030056L320.8378666666667,238.70185571908954L330.86405,238.73164701461792L340.89023333333336,238.65982639789584L350.9164166666667,238.49755156040192L360.9426,238.25349974632266L370.96878333333336,237.932182431221L380.99496666666664,237.5400816202164L391.02115000000003,237.0862202644348L401.0473333333333,236.57785820960999L411.0735166666667,236.02365541458133L421.0997,235.4274751543999L431.1258833333334,234.78853094577792L441.15206666666666,234.1035385727882L451.17825000000005,233.36563575267792L461.2044333333334,232.57072585821152L471.23061666666666,231.71295779943466L481.25680000000006,230.78866708278656L491.28298333333333,229.80481106042865L501.3091666666667,228.77554643154144L511.33535,227.71788197755816L521.3615333333333,226.6531737446785L531.3877166666666,225.59512037038803L541.4139,224.56192332506177" style="fill: none;" fill="none"></path></g><g><path stroke="rgb(255, 112, 67)" stroke-width="2px" d="M50.130916666666664,-320.11088085174555L60.15710000000001,22.416350126266483L70.18328333333334,122.66752529144287L80.20946666666667,177.77414488792422L90.23565,213.7562652230263L100.26183333333333,239.49270355701447L110.28801666666666,258.9014689922333L120.31420000000001,274.0338827967644L130.34038333333334,286.1103380024433L140.36656666666667,295.92373940348625L150.39275,304.00630715489393L160.41893333333334,310.7258734405041L170.44511666666668,316.34789149463177L180.4713,321.0726617574692L190.49748333333332,325.0587211102247L200.52366666666666,328.43425768613815L210.54985,331.3026832342148L220.57603333333333,333.74454098939896L230.6022166666667,335.82195556908846L240.62840000000003,337.5877704396844L250.65458333333336,339.08634520322084L260.68076666666667,340.3555488139391L270.70695,341.4331324696541L280.73313333333334,342.3508239649236L290.7593166666667,343.13388205319643L300.7855,343.80335137434304L310.8116833333334,344.37687540613115L320.8378666666667,344.8691010493785L330.86405,345.2921823337674L340.89023333333336,345.6562549546361L350.9164166666667,345.96984382905066L360.9426,346.2401654543355L370.96878333333336,346.4733732789755L380.99496666666664,346.6747347423807L391.02115000000003,346.848767937161L401.0473333333333,346.9993434306234L411.0735166666667,347.1297669778578L421.0997,347.2428500810638L431.1258833333334,347.34098669327796L441.15206666666666,347.42621554015204L451.17825000000005,347.500261307694L461.2044333333334,347.5645858568605L471.23061666666666,347.62044693296775L481.25680000000006,347.6689529251307L491.28298333333333,347.7110940271523L501.3091666666667,347.74774492147844L511.33535,347.77966172387823L521.3615333333333,347.80747965397313L531.3877166666666,347.8317345912801L541.4139,347.8528844455723" style="fill: none;" fill="none"></path></g></g></g></g></g></g><g transform="translate(50, 377)" clip-path="url(#clip_1)"><clipPath id="clip_1"><rect width="601" height="23"></rect></clipPath><g><g><line x1="0" y1="0" x2="0" y2="5" style="visibility: inherit;" fill="rgb(0, 0, 0)" stroke="rgb(204, 204, 204)" stroke-width="1px"></line><line x1="50.130916666666664" y1="0" x2="50.130916666666664" y2="5" style="visibility: inherit;" fill="rgb(0, 0, 0)" stroke="rgb(204, 204, 204)" stroke-width="1px"></line><line x1="100.26183333333333" y1="0" x2="100.26183333333333" y2="5" style="visibility: inherit;" fill="rgb(0, 0, 0)" stroke="rgb(204, 204, 204)" stroke-width="1px"></line><line x1="150.39275" y1="0" x2="150.39275" y2="5" style="visibility: inherit;" fill="rgb(0, 0, 0)" stroke="rgb(204, 204, 204)" stroke-width="1px"></line><line x1="200.52366666666666" y1="0" x2="200.52366666666666" y2="5" style="visibility: inherit;" fill="rgb(0, 0, 0)" stroke="rgb(204, 204, 204)" stroke-width="1px"></line><line x1="250.65458333333336" y1="0" x2="250.65458333333336" y2="5" style="visibility: inherit;" fill="rgb(0, 0, 0)" stroke="rgb(204, 204, 204)" stroke-width="1px"></line><line x1="300.7855" y1="0" x2="300.7855" y2="5" style="visibility: inherit;" fill="rgb(0, 0, 0)" stroke="rgb(204, 204, 204)" stroke-width="1px"></line><line x1="350.9164166666667" y1="0" x2="350.9164166666667" y2="5" style="visibility: inherit;" fill="rgb(0, 0, 0)" stroke="rgb(204, 204, 204)" stroke-width="1px"></line><line x1="401.0473333333333" y1="0" x2="401.0473333333333" y2="5" style="visibility: inherit;" fill="rgb(0, 0, 0)" stroke="rgb(204, 204, 204)" stroke-width="1px"></line><line x1="451.17825000000005" y1="0" x2="451.17825000000005" y2="5" style="visibility: inherit;" fill="rgb(0, 0, 0)" stroke="rgb(204, 204, 204)" stroke-width="1px"></line><line x1="501.3091666666667" y1="0" x2="501.3091666666667" y2="5" style="visibility: inherit;" fill="rgb(0, 0, 0)" stroke="rgb(204, 204, 204)" stroke-width="1px"></line><line x1="551.4400833333333" y1="0" x2="551.4400833333333" y2="5" style="visibility: inherit;" fill="rgb(0, 0, 0)" stroke="rgb(204, 204, 204)" stroke-width="1px"></line><line x1="601.571" y1="0" x2="601.571" y2="5" style="visibility: inherit;" fill="rgb(0, 0, 0)" stroke="rgb(204, 204, 204)" stroke-width="1px"></line></g><g transform="translate(0, 8)"><text x="0" y="0" dx="0em" dy="0.95em" style="text-anchor: middle; visibility: hidden; font-family: Roboto, sans-serif; font-size: 12px; font-weight: 200;" fill="rgb(33, 33, 33)" stroke="none" stroke-width="1px">-5</text><text x="50.130916666666664" y="0" dx="0em" dy="0.95em" style="text-anchor: middle; visibility: inherit; font-family: Roboto, sans-serif; font-size: 12px; font-weight: 200;" fill="rgb(33, 33, 33)" stroke="none" stroke-width="1px">0</text><text x="100.26183333333333" y="0" dx="0em" dy="0.95em" style="text-anchor: middle; visibility: inherit; font-family: Roboto, sans-serif; font-size: 12px; font-weight: 200;" fill="rgb(33, 33, 33)" stroke="none" stroke-width="1px">5</text><text x="150.39275" y="0" dx="0em" dy="0.95em" style="text-anchor: middle; visibility: inherit; font-family: Roboto, sans-serif; font-size: 12px; font-weight: 200;" fill="rgb(33, 33, 33)" stroke="none" stroke-width="1px">10</text><text x="200.52366666666666" y="0" dx="0em" dy="0.95em" style="text-anchor: middle; visibility: inherit; font-family: Roboto, sans-serif; font-size: 12px; font-weight: 200;" fill="rgb(33, 33, 33)" stroke="none" stroke-width="1px">15</text><text x="250.65458333333336" y="0" dx="0em" dy="0.95em" style="text-anchor: middle; visibility: inherit; font-family: Roboto, sans-serif; font-size: 12px; font-weight: 200;" fill="rgb(33, 33, 33)" stroke="none" stroke-width="1px">20</text><text x="300.7855" y="0" dx="0em" dy="0.95em" style="text-anchor: middle; visibility: inherit; font-family: Roboto, sans-serif; font-size: 12px; font-weight: 200;" fill="rgb(33, 33, 33)" stroke="none" stroke-width="1px">25</text><text x="350.9164166666667" y="0" dx="0em" dy="0.95em" style="text-anchor: middle; visibility: inherit; font-family: Roboto, sans-serif; font-size: 12px; font-weight: 200;" fill="rgb(33, 33, 33)" stroke="none" stroke-width="1px">30</text><text x="401.0473333333333" y="0" dx="0em" dy="0.95em" style="text-anchor: middle; visibility: inherit; font-family: Roboto, sans-serif; font-size: 12px; font-weight: 200;" fill="rgb(33, 33, 33)" stroke="none" stroke-width="1px">35</text><text x="451.17825000000005" y="0" dx="0em" dy="0.95em" style="text-anchor: middle; visibility: inherit; font-family: Roboto, sans-serif; font-size: 12px; font-weight: 200;" fill="rgb(33, 33, 33)" stroke="none" stroke-width="1px">40</text><text x="501.3091666666667" y="0" dx="0em" dy="0.95em" style="text-anchor: middle; visibility: inherit; font-family: Roboto, sans-serif; font-size: 12px; font-weight: 200;" fill="rgb(33, 33, 33)" stroke="none" stroke-width="1px">45</text><text x="551.4400833333333" y="0" dx="0em" dy="0.95em" style="text-anchor: middle; visibility: inherit; font-family: Roboto, sans-serif; font-size: 12px; font-weight: 200;" fill="rgb(33, 33, 33)" stroke="none" stroke-width="1px">50</text><text x="601.571" y="0" dx="0em" dy="0.95em" style="text-anchor: middle; visibility: hidden; font-family: Roboto, sans-serif; font-size: 12px; font-weight: 200;" fill="rgb(33, 33, 33)" stroke="none" stroke-width="1px">55</text></g><line x1="0" y1="0" x2="601.571" y2="0" fill="rgb(0, 0, 0)" stroke="rgb(204, 204, 204)" stroke-width="1px"></line></g></g></g></g></svg>