<svg viewBox="0 0 438.888916015625 400.0000305175781" xmlns="http://www.w3.org/2000/svg"><g><g><g><g><g><line x1="50" y1="377" x2="45" y2="377" style="visibility: inherit;" fill="rgb(0, 0, 0)" stroke="rgb(204, 204, 204)" stroke-width="1px"></line><line x1="50" y1="339.30000000000007" x2="45" y2="339.30000000000007" style="visibility: inherit;" fill="rgb(0, 0, 0)" stroke="rgb(204, 204, 204)" stroke-width="1px"></line><line x1="50" y1="301.6" x2="45" y2="301.6" style="visibility: inherit;" fill="rgb(0, 0, 0)" stroke="rgb(204, 204, 204)" stroke-width="1px"></line><line x1="50" y1="263.9000000000001" x2="45" y2="263.9000000000001" style="visibility: inherit;" fill="rgb(0, 0, 0)" stroke="rgb(204, 204, 204)" stroke-width="1px"></line><line x1="50" y1="226.20000000000005" x2="45" y2="226.20000000000005" style="visibility: inherit;" fill="rgb(0, 0, 0)" stroke="rgb(204, 204, 204)" stroke-width="1px"></line><line x1="50" y1="188.5" x2="45" y2="188.5" style="visibility: inherit;" fill="rgb(0, 0, 0)" stroke="rgb(204, 204, 204)" stroke-width="1px"></line><line x1="50" y1="150.80000000000004" x2="45" y2="150.80000000000004" style="visibility: inherit;" fill="rgb(0, 0, 0)" stroke="rgb(204, 204, 204)" stroke-width="1px"></line><line x1="50" y1="113.10000000000002" x2="45" y2="113.10000000000002" style="visibility: inherit;" fill="rgb(0, 0, 0)" stroke="rgb(204, 204, 204)" stroke-width="1px"></line><line x1="50" y1="75.40000000000006" x2="45" y2="75.40000000000006" style="visibility: inherit;" fill="rgb(0, 0, 0)" stroke="rgb(204, 204, 204)" stroke-width="1px"></line><line x1="50" y1="37.70000000000003" x2="45" y2="37.70000000000003" style="visibility: inherit;" fill="rgb(0, 0, 0)" stroke="rgb(204, 204, 204)" stroke-width="1px"></line><line x1="50" y1="0" x2="45" y2="0" style="visibility: inherit;" fill="rgb(0, 0, 0)" stroke="rgb(204, 204, 204)" stroke-width="1px"></line></g><g transform="translate(40, 0)"><text x="0" y="377" dx="0em" dy="0.3em" style="text-anchor: end; visibility: hidden; font-family: Roboto, sans-serif; font-size: 12px; font-weight: 200;" fill="rgb(33, 33, 33)" stroke="none" stroke-width="1px">0.55</text><text x="0" y="339.30000000000007" dx="0em" dy="0.3em" style="text-anchor: end; visibility: inherit; font-family: Roboto, sans-serif; font-size: 12px; font-weight: 200;" fill="rgb(33, 33, 33)" stroke="none" stroke-width="1px">0.6</text><text x="0" y="301.6" dx="0em" dy="0.3em" style="text-anchor: end; visibility: inherit; font-family: Roboto, sans-serif; font-size: 12px; font-weight: 200;" fill="rgb(33, 33, 33)" stroke="none" stroke-width="1px">0.65</text><text x="0" y="263.9000000000001" dx="0em" dy="0.3em" style="text-anchor: end; visibility: inherit; font-family: Roboto, sans-serif; font-size: 12px; font-weight: 200;" fill="rgb(33, 33, 33)" stroke="none" stroke-width="1px">0.7</text><text x="0" y="226.20000000000005" dx="0em" dy="0.3em" style="text-anchor: end; visibility: inherit; font-family: Roboto, sans-serif; font-size: 12px; font-weight: 200;" fill="rgb(33, 33, 33)" stroke="none" stroke-width="1px">0.75</text><text x="0" y="188.5" dx="0em" dy="0.3em" style="text-anchor: end; visibility: inherit; font-family: Roboto, sans-serif; font-size: 12px; font-weight: 200;" fill="rgb(33, 33, 33)" stroke="none" stroke-width="1px">0.8</text><text x="0" y="150.80000000000004" dx="0em" dy="0.3em" style="text-anchor: end; visibility: inherit; font-family: Roboto, sans-serif; font-size: 12px; font-weight: 200;" fill="rgb(33, 33, 33)" stroke="none" stroke-width="1px">0.85</text><text x="0" y="113.10000000000002" dx="0em" dy="0.3em" style="text-anchor: end; visibility: inherit; font-family: Roboto, sans-serif; font-size: 12px; font-weight: 200;" fill="rgb(33, 33, 33)" stroke="none" stroke-width="1px">0.9</text><text x="0" y="75.40000000000006" dx="0em" dy="0.3em" style="text-anchor: end; visibility: inherit; font-family: Roboto, sans-serif; font-size: 12px; font-weight: 200;" fill="rgb(33, 33, 33)" stroke="none" stroke-width="1px">0.95</text><text x="0" y="37.70000000000003" dx="0em" dy="0.3em" style="text-anchor: end; visibility: inherit; font-family: Roboto, sans-serif; font-size: 12px; font-weight: 200;" fill="rgb(33, 33, 33)" stroke="none" stroke-width="1px">1</text><text x="0" y="0" dx="0em" dy="0.3em" style="text-anchor: end; visibility: hidden; font-family: Roboto, sans-serif; font-size: 12px; font-weight: 200;" fill="rgb(33, 33, 33)" stroke="none" stroke-width="1px">1.05</text></g><line x1="50" y1="0" x2="50" y2="377" fill="rgb(0, 0, 0)" stroke="rgb(204, 204, 204)" stroke-width="1px"></line></g></g><g transform="translate(50, 0)" clip-path="url(#clip_0)"><clipPath id="clip_0"><rect width="388" height="376"></rect></clipPath><g><g><g><line x1="0" y1="0" x2="0" y2="377" fill="rgb(0, 0, 0)" stroke="rgb(66, 66, 66)" stroke-width="1px" opacity="0.25"></line><line x1="32.40741666666666" y1="0" x2="32.40741666666666" y2="377" fill="rgb(0, 0, 0)" stroke="rgb(66, 66, 66)" stroke-width="1px" opacity="0.25"></line><line x1="64.81483333333333" y1="0" x2="64.81483333333333" y2="377" fill="rgb(0, 0, 0)" stroke="rgb(66, 66, 66)" stroke-width="1px" opacity="0.25"></line><line x1="97.22225" y1="0" x2="97.22225" y2="377" fill="rgb(0, 0, 0)" stroke="rgb(66, 66, 66)" stroke-width="1px" opacity="0.25"></line><line x1="129.62966666666665" y1="0" x2="129.62966666666665" y2="377" fill="rgb(0, 0, 0)" stroke="rgb(66, 66, 66)" stroke-width="1px" opacity="0.25"></line><line x1="162.03708333333336" y1="0" x2="162.03708333333336" y2="377" fill="rgb(0, 0, 0)" stroke="rgb(66, 66, 66)" stroke-width="1px" opacity="0.25"></line><line x1="194.4445" y1="0" x2="194.4445" y2="377" fill="rgb(0, 0, 0)" stroke="rgb(66, 66, 66)" stroke-width="1px" opacity="0.25"></line><line x1="226.85191666666668" y1="0" x2="226.85191666666668" y2="377" fill="rgb(0, 0, 0)" stroke="rgb(66, 66, 66)" stroke-width="1px" opacity="0.25"></line><line x1="259.2593333333333" y1="0" x2="259.2593333333333" y2="377" fill="rgb(0, 0, 0)" stroke="rgb(66, 66, 66)" stroke-width="1px" opacity="0.25"></line><line x1="291.66675" y1="0" x2="291.66675" y2="377" fill="rgb(0, 0, 0)" stroke="rgb(66, 66, 66)" stroke-width="1px" opacity="0.25"></line><line x1="324.0741666666667" y1="0" x2="324.0741666666667" y2="377" fill="rgb(0, 0, 0)" stroke="rgb(66, 66, 66)" stroke-width="1px" opacity="0.25"></line><line x1="356.48158333333333" y1="0" x2="356.48158333333333" y2="377" fill="rgb(0, 0, 0)" stroke="rgb(66, 66, 66)" stroke-width="1px" opacity="0.25"></line><line x1="388.889" y1="0" x2="388.889" y2="377" fill="rgb(0, 0, 0)" stroke="rgb(66, 66, 66)" stroke-width="1px" opacity="0.25"></line></g><g><line x1="0" y1="377" x2="388.889" y2="377" fill="rgb(0, 0, 0)" stroke="rgb(66, 66, 66)" stroke-width="1px" opacity="0.25"></line><line x1="0" y1="339.30000000000007" x2="388.889" y2="339.30000000000007" fill="rgb(0, 0, 0)" stroke="rgb(66, 66, 66)" stroke-width="1px" opacity="0.25"></line><line x1="0" y1="301.6" x2="388.889" y2="301.6" fill="rgb(0, 0, 0)" stroke="rgb(66, 66, 66)" stroke-width="1px" opacity="0.25"></line><line x1="0" y1="263.9000000000001" x2="388.889" y2="263.9000000000001" fill="rgb(0, 0, 0)" stroke="rgb(66, 66, 66)" stroke-width="1px" opacity="0.25"></line><line x1="0" y1="226.20000000000005" x2="388.889" y2="226.20000000000005" fill="rgb(0, 0, 0)" stroke="rgb(66, 66, 66)" stroke-width="1px" opacity="0.25"></line><line x1="0" y1="188.5" x2="388.889" y2="188.5" fill="rgb(0, 0, 0)" stroke="rgb(66, 66, 66)" stroke-width="1px" opacity="0.25"></line><line x1="0" y1="150.80000000000004" x2="388.889" y2="150.80000000000004" fill="rgb(0, 0, 0)" stroke="rgb(66, 66, 66)" stroke-width="1px" opacity="0.25"></line><line x1="0" y1="113.10000000000002" x2="388.889" y2="113.10000000000002" fill="rgb(0, 0, 0)" stroke="rgb(66, 66, 66)" stroke-width="1px" opacity="0.25"></line><line x1="0" y1="75.40000000000006" x2="388.889" y2="75.40000000000006" fill="rgb(0, 0, 0)" stroke="rgb(66, 66, 66)" stroke-width="1px" opacity="0.25"></line><line x1="0" y1="37.70000000000003" x2="388.889" y2="37.70000000000003" fill="rgb(0, 0, 0)" stroke="rgb(66, 66, 66)" stroke-width="1px" opacity="0.25"></line><line x1="0" y1="0" x2="388.889" y2="0" fill="rgb(0, 0, 0)" stroke="rgb(66, 66, 66)" stroke-width="1px" opacity="0.25"></line></g></g></g><g><g><line x1="0" y1="791.7" x2="388.889" y2="791.7" fill="rgb(0, 0, 0)" stroke="rgb(153, 153, 153)" stroke-width="1.5px"></line></g></g><g><g><line x1="32.40741666666666" y1="0" x2="32.40741666666666" y2="377" fill="rgb(0, 0, 0)" stroke="rgb(153, 153, 153)" stroke-width="1.5px"></line></g></g><g><g><g><g><g><path stroke="rgb(204, 51, 17)" stroke-width="2px" d="M38.88890000000001,399.69194160286264L42.12964166666667,370.78398317019736L45.370383333333336,347.0614398249316L48.611125,327.43070083539357L51.851866666666666,309.84286384604434L55.09260833333333,294.690496545369L58.333349999999996,280.59494544083384L61.57409166666667,268.76605839074824L64.81483333333333,258.7268955075751L68.05557499999999,251.1418209484686L71.29631666666667,244.64519571572976L74.53705833333333,238.98372201776039L77.77780000000001,234.19357604872116L81.01854166666668,230.01816444464714L84.25928333333334,226.11800716003862L87.50002500000001,221.82451242155201L90.74076666666667,217.57407532333045L93.98150833333334,213.7215328660111L97.22225,209.54947995186714L100.46299166666668,206.76721389242206L103.70373333333333,204.07454250037736L106.94447500000001,201.80774202671742L110.18521666666666,199.14526656613748L113.42595833333334,196.89657686112244L116.66669999999999,194.52405531027713L119.90744166666667,192.26327578243863L123.14818333333334,190.72074941076815L126.38892500000001,188.6788948318094L129.62966666666665,186.89560387445619L132.87040833333333,185.08139149242052L136.11114999999998,183.62074518794722L139.35189166666666,182.18619698583615L142.59263333333334,180.67425991737198L145.833375,179.20891926233546L149.07411666666667,177.77153645069689L152.31485833333335,176.35094631926006L155.55560000000003,175.0334435553749L158.79634166666668,173.8708229485348L162.03708333333336,172.89416137278408L165.277825,172.02907521528294L168.5185666666667,171.2309343085505L171.75930833333334,170.2869190539762L175.00005000000002,169.4414206888896L178.24079166666667,168.93412166989393L181.48153333333335,168.5367125210408L184.722275,168.391296769213L187.96301666666668,168.1179878431709L191.20375833333333,167.95400248754794L194.4445,167.5765220617561L197.68524166666666,166.88488511891802L200.92598333333336,166.5629326906893L204.166725,165.9976422838618L207.40746666666666,165.47240856482054L210.64820833333332,164.78516736026657L213.88895000000002,164.1867631625893L217.12969166666667,163.73469090651045L220.37043333333332,163.09132860297305L223.61117499999997,162.42622200843303L226.85191666666668,161.84109857676393L230.09265833333333,161.5830542552351L233.33339999999998,161.5212573997903L236.57414166666666,161.1120603366332L239.81488333333334,160.77351236126643L243.05562500000002,160.38432410110119L246.29636666666667,159.77869219511211L249.53710833333335,159.50834278899117L252.77785000000003,159.34613314531856L256.0185916666667,158.87670638598556L259.2593333333333,158.59505033038585L262.50007500000004,158.3330269595536L265.74081666666666,158.2688426745267L268.98155833333334,158.04427262856552L272.22229999999996,157.8165008635163L275.4630416666667,157.5868080670142L278.7037833333333,157.44899238911293L281.944525,157.27327324489963L285.1852666666667,156.98178228342658L288.42600833333336,156.80688770654274L291.66675,156.5158914854674L294.90749166666666,156.24826401534963L298.14823333333334,156.08768753327897L301.388975,155.8983119065641L304.6297166666667,155.69165679306258L307.8704583333333,155.5676637249617L311.11120000000005,155.5862976215737L314.3519416666667,155.41141848459586L317.59268333333335,154.93437205251897L320.833425,154.64814419327283L324.0741666666667,154.29034800278012L327.31490833333334,153.9826405510119L330.55565,153.70498634247846L333.79639166666664,153.63142355483097L337.0371333333334,153.49425614476993L340.277875,153.41195569873332L343.5186166666667,153.26954569363878L346.75935833333335,153.18409969058203L350.00010000000003,153.03982032803634L353.24084166666665,153.04626447122064" style="fill: none;" fill="none"></path></g><g><path stroke="rgb(0, 119, 187)" stroke-width="2px" d="M38.88890000000001,413.0802594518174L42.12964166666667,364.29904174703887L45.370383333333336,325.3788629138329L48.611125,294.0236971369251L51.851866666666666,268.43737418108276L55.09260833333333,246.1373793037632L58.333349999999996,227.54031125652378L61.57409166666667,211.4358651125547L64.81483333333333,197.49664672214442L68.05557499999999,185.66245300852165L71.29631666666667,174.6639082194626L74.53705833333333,164.7368755767379L77.77780000000001,156.16279885800603L81.01854166666668,148.49058395421312L84.25928333333334,141.33559816908766L87.50002500000001,134.30650161698236L90.74076666666667,128.01969201253092L93.98150833333334,122.47705777334686L97.22225,117.21983575771566L100.46299166666668,112.57078901834838L103.70373333333333,107.98764679601753L106.94447500000001,103.88098217190539L110.18521666666666,100.12919097189788L113.42595833333334,96.63630429637539L116.66669999999999,93.36775304841252L119.90744166666667,90.3027787386735L123.14818333333334,87.42896273698597L126.38892500000001,84.48584915760726L129.62966666666665,81.8920975484976L132.87040833333333,79.57695778293962L136.11114999999998,77.17603403120432L139.35189166666666,74.79261669595499L142.59263333333334,72.48869800111463L145.833375,70.20948620078981L149.07411666666667,67.92208827652365L152.31485833333335,65.99774499368085L155.55560000000003,64.31420879246083L158.79634166666668,62.729172284160896L162.03708333333336,61.34122520738084L165.277825,60.09450608940468L168.5185666666667,58.77155982963714L171.75930833333334,57.47187209293064L175.00005000000002,56.32411110964305L178.24079166666667,55.22152162406057L181.48153333333335,54.26101439957127L184.722275,53.01780819034355L187.96301666666668,51.903936123450244L191.20375833333333,50.775677456607994L194.4445,49.89175580867729L197.68524166666666,49.06244928674823L200.92598333333336,48.3118963947099L204.166725,47.53961884916956L207.40746666666666,46.708303980475925L210.64820833333332,45.91056152608734L213.88895000000002,45.224949605624126L217.12969166666667,44.537621197319176L220.37043333333332,43.895265427360584L223.61117499999997,43.348870071846086L226.85191666666668,42.81406641070717L230.09265833333333,42.37820485153599L233.33339999999998,42.024700830690875L236.57414166666666,41.7206113328414L239.81488333333334,41.37717574059226L243.05562500000002,41.05613502275504L246.29636666666667,40.77152350671036L249.53710833333335,40.55477204279267L252.77785000000003,40.35572635624511L256.0185916666667,40.09830932792249L259.2593333333333,39.92086683378347L262.50007500000004,39.81440133730014L265.74081666666666,39.65853495406767L268.98155833333334,39.49602031593125L272.22229999999996,39.37551925590401L275.4630416666667,39.2802263427423L278.7037833333333,39.177048063793656L281.944525,39.09214881927898L285.1852666666667,39.01821699542477L288.42600833333336,38.95086562396693L291.66675,38.8874625239468L294.90749166666666,38.757433578592305L298.14823333333334,38.63341368032799L301.388975,38.513017187078646L304.6297166666667,38.39477676007736L307.8704583333333,38.30084022673126L311.11120000000005,38.244478306723536L314.3519416666667,38.18766887757355L317.59268333333335,38.15358322008354L320.833425,38.133131825589565L324.0741666666667,38.0978507349869L327.31490833333334,38.05368980348L330.55565,38.027193244575784L333.79639166666664,37.98830303208784L337.0371333333334,37.96496890459516L340.277875,37.950968428099515L343.5186166666667,37.94256814220216L346.75935833333335,37.91453569351827L350.00010000000003,37.89771622430803L353.24084166666665,37.841622011730216" style="fill: none;" fill="none"></path></g></g></g></g><g opacity="0.2"><g><g><g><path stroke="rgb(204, 51, 17)" stroke-width="2px" d="M35.648158333333335,406.7925172567368L38.88890000000001,367.2551934242249L42.12964166666667,336.7882240533829L45.370383333333336,316.0892872333527L48.611125,300.2743217468262L51.851866666666666,284.6919755458832L55.09260833333333,272.5981995582581L58.333349999999996,259.80674548149113L61.57409166666667,251.20153970718388L64.81483333333333,243.7592056512833L68.05557499999999,239.80548675060277L71.29631666666667,234.92147047519688L74.53705833333333,230.50260288715367L77.77780000000001,227.01398773193364L81.01854166666668,223.7579918622971L84.25928333333334,220.26942164897923L87.50002500000001,215.3853604316712L90.74076666666667,211.1990671873093L93.98150833333334,207.94307131767277L97.22225,203.29162938594823L100.46299166666668,202.59390635490422L103.70373333333333,200.03558857440953L106.94447500000001,198.40756816864018L110.18521666666666,195.15157229900365L113.42595833333334,193.5235518932343L116.66669999999999,190.96527905464177L119.90744166666667,188.87210996150975L123.14818333333334,188.40696127414708L126.38892500000001,185.61611409187321L129.62966666666665,184.2206680297852L132.87040833333333,182.36007328033452L136.11114999999998,181.42977590560918L139.35189166666666,180.03437478542332L142.59263333333334,178.40635437965398L145.833375,177.01090831756596L149.07411666666667,175.61546225547795L152.31485833333335,174.2200611352921L155.55560000000003,173.05718941688542L158.79634166666668,172.12689204216008L162.03708333333336,171.42916901111607L165.277825,170.73144598007207L168.5185666666667,170.03372294902806L171.75930833333334,168.87089617252354L175.00005000000002,168.17317314147954L178.24079166666667,168.17317314147954L181.48153333333335,167.9405987977982L184.722275,168.17317314147954L187.96301666666668,167.70802445411687L191.20375833333333,167.70802445411687L194.4445,167.01030142307286L197.68524166666666,165.84742970466618L200.92598333333336,166.08000404834752L204.166725,165.14970667362218L207.40746666666666,164.6845579862595L210.64820833333332,163.75430555343632L213.88895000000002,163.28915686607365L217.12969166666667,163.05658252239232L220.37043333333332,162.12628514766698L223.61117499999997,161.42856211662297L226.85191666666668,160.9634134292603L230.09265833333333,161.19598777294163L233.33339999999998,161.42856211662297L236.57414166666666,160.49826474189763L239.81488333333334,160.2656903982163L243.05562500000002,159.80054171085362L246.29636666666667,158.87024433612828L249.53710833333335,159.10281867980962L252.77785000000003,159.10281867980962L256.0185916666667,158.17256624698643L259.2593333333333,158.17256624698643L262.50007500000004,157.9399919033051L265.74081666666666,158.17256624698643L268.98155833333334,157.70741755962376L272.22229999999996,157.47484321594243L275.4630416666667,157.2422688722611L278.7037833333333,157.2422688722611L281.944525,157.00969452857976L285.1852666666667,156.5445458412171L288.42600833333336,156.5445458412171L291.66675,156.07939715385442L294.90749166666666,155.84682281017308L298.14823333333334,155.84682281017308L301.388975,155.61424846649174L304.6297166666667,155.3816741228104L307.8704583333333,155.3816741228104L311.11120000000005,155.61424846649174L314.3519416666667,155.14909977912907L317.59268333333335,154.21880240440373L320.833425,154.21880240440373L324.0741666666667,153.75365371704106L327.31490833333334,153.52107937335973L330.55565,153.2885050296784L333.79639166666664,153.52107937335973L337.0371333333334,153.2885050296784L340.277875,153.2885050296784L343.5186166666667,153.05593068599705L346.75935833333335,153.05593068599705L350.00010000000003,152.82340128421788L353.24084166666665,153.05593068599705" style="fill: none;" fill="none"></path></g><g><path stroke="rgb(0, 119, 187)" stroke-width="2px" d="M35.648158333333335,415.87857891321187L38.88890000000001,349.6484392404557L42.12964166666667,306.9323297262192L45.370383333333336,274.56467742919926L48.611125,250.64821500778203L51.851866666666666,231.84852297306065L55.09260833333333,213.6237726926804L58.333349999999996,200.11324818134312L61.57409166666667,187.52263946533208L64.81483333333333,176.71424682140355L68.05557499999999,167.97556359767918L71.29631666666667,158.20200319290166L74.53705833333333,149.86577470302586L77.77780000000001,143.3117622852326L81.01854166666668,136.98767263889317L84.25928333333334,130.60614724159245L87.50002500000001,123.76464147567752L90.74076666666667,118.59043533802036L93.98150833333334,114.16361303329471L97.22225,109.33429105281833L100.46299166666668,105.59737188816074L103.70373333333333,101.11302394866946L106.94447500000001,97.72103388309482L110.18521666666666,94.50153083801273L113.42595833333334,91.39698917865756L116.66669999999999,88.46493453979495L119.90744166666667,85.70532197952274L123.14818333333334,83.11824138164523L126.38892500000001,80.07118041515353L129.62966666666665,78.00147099494937L132.87040833333333,76.10424859523776L136.11114999999998,73.57464869022373L139.35189166666666,71.21749086380008L142.59263333333334,69.03282005786899L145.833375,66.79066855907443L149.07411666666667,64.49099142551425L152.31485833333335,63.111230087280305L155.55560000000003,61.78890450000766L158.79634166666668,60.35161752700809L162.03708333333336,59.25930459499362L165.277825,58.22442741394046L168.5185666666667,56.78714044094089L171.75930833333334,55.52234048843387L175.00005000000002,54.6024696350098L178.24079166666667,53.567637395858796L181.48153333333335,52.82025356292728L184.722275,51.15299887657169L187.96301666666668,50.233128023147614L191.20375833333333,49.083289456367524L194.4445,48.56587333679202L197.68524166666666,47.818489503860505L200.92598333333336,47.186067056655915L204.166725,46.38120253086093L207.40746666666666,45.46133167743686L210.64820833333332,44.71394784450534L213.88895000000002,44.19653172492984L217.12969166666667,43.50662858486179L220.37043333333332,42.93173177242282L223.61117499999997,42.52927703857425L226.85191666666668,42.01186091899875L230.09265833333333,41.72441251277927L233.33339999999998,41.49444479942325L236.57414166666666,41.26447708606723L239.81488333333334,40.86202235221866L243.05562500000002,40.57457394599918L246.29636666666667,40.34460623264316L249.53710833333335,40.22964484691623L252.77785000000003,40.057157826423676L256.0185916666667,39.71218378543857L259.2593333333333,39.654703092575105L262.50007500000004,39.654703092575105L265.74081666666666,39.424735379219086L268.98155833333334,39.25224835872653L272.22229999999996,39.19476766586307L275.4630416666667,39.137286972999604L278.7037833333333,39.022280645370515L281.944525,38.96479995250705L285.1852666666667,38.907319259643586L288.42600833333336,38.84983856678012L291.66675,38.79235787391666L294.90749166666666,38.56239016056064L298.14823333333334,38.44738383293155L301.388975,38.33242244720462L304.6297166666667,38.21741611957553L307.8704583333333,38.15993542671207L311.11120000000005,38.15993542671207L314.3519416666667,38.1024547338486L317.59268333333335,38.1024547338486L320.833425,38.1024547338486L324.0741666666667,38.04492909908298L327.31490833333334,37.987448406219514L330.55565,37.987448406219514L333.79639166666664,37.92996771335605L337.0371333333334,37.92996771335605L340.277875,37.92996771335605L343.5186166666667,37.92996771335605L346.75935833333335,37.872487020492585L350.00010000000003,37.872487020492585L353.24084166666665,37.757480692863496" style="fill: none;" fill="none"></path></g></g></g></g></g></g><g transform="translate(50, 377)" clip-path="url(#clip_1)"><clipPath id="clip_1"><rect width="388" height="22"></rect></clipPath><g><g><line x1="0" y1="0" x2="0" y2="5" style="visibility: inherit;" fill="rgb(0, 0, 0)" stroke="rgb(204, 204, 204)" stroke-width="1px"></line><line x1="32.40741666666666" y1="0" x2="32.40741666666666" y2="5" style="visibility: inherit;" fill="rgb(0, 0, 0)" stroke="rgb(204, 204, 204)" stroke-width="1px"></line><line x1="64.81483333333333" y1="0" x2="64.81483333333333" y2="5" style="visibility: inherit;" fill="rgb(0, 0, 0)" stroke="rgb(204, 204, 204)" stroke-width="1px"></line><line x1="97.22225" y1="0" x2="97.22225" y2="5" style="visibility: inherit;" fill="rgb(0, 0, 0)" stroke="rgb(204, 204, 204)" stroke-width="1px"></line><line x1="129.62966666666665" y1="0" x2="129.62966666666665" y2="5" style="visibility: inherit;" fill="rgb(0, 0, 0)" stroke="rgb(204, 204, 204)" stroke-width="1px"></line><line x1="162.03708333333336" y1="0" x2="162.03708333333336" y2="5" style="visibility: inherit;" fill="rgb(0, 0, 0)" stroke="rgb(204, 204, 204)" stroke-width="1px"></line><line x1="194.4445" y1="0" x2="194.4445" y2="5" style="visibility: inherit;" fill="rgb(0, 0, 0)" stroke="rgb(204, 204, 204)" stroke-width="1px"></line><line x1="226.85191666666668" y1="0" x2="226.85191666666668" y2="5" style="visibility: inherit;" fill="rgb(0, 0, 0)" stroke="rgb(204, 204, 204)" stroke-width="1px"></line><line x1="259.2593333333333" y1="0" x2="259.2593333333333" y2="5" style="visibility: inherit;" fill="rgb(0, 0, 0)" stroke="rgb(204, 204, 204)" stroke-width="1px"></line><line x1="291.66675" y1="0" x2="291.66675" y2="5" style="visibility: inherit;" fill="rgb(0, 0, 0)" stroke="rgb(204, 204, 204)" stroke-width="1px"></line><line x1="324.0741666666667" y1="0" x2="324.0741666666667" y2="5" style="visibility: inherit;" fill="rgb(0, 0, 0)" stroke="rgb(204, 204, 204)" stroke-width="1px"></line><line x1="356.48158333333333" y1="0" x2="356.48158333333333" y2="5" style="visibility: inherit;" fill="rgb(0, 0, 0)" stroke="rgb(204, 204, 204)" stroke-width="1px"></line><line x1="388.889" y1="0" x2="388.889" y2="5" style="visibility: inherit;" fill="rgb(0, 0, 0)" stroke="rgb(204, 204, 204)" stroke-width="1px"></line></g><g transform="translate(0, 8)"><text x="0" y="0" dx="0em" dy="0.95em" style="text-anchor: middle; visibility: hidden; font-family: Roboto, sans-serif; font-size: 12px; font-weight: 200;" fill="rgb(33, 33, 33)" stroke="none" stroke-width="1px">-10</text><text x="32.40741666666666" y="0" dx="0em" dy="0.95em" style="text-anchor: middle; visibility: inherit; font-family: Roboto, sans-serif; font-size: 12px; font-weight: 200;" fill="rgb(33, 33, 33)" stroke="none" stroke-width="1px">0</text><text x="64.81483333333333" y="0" dx="0em" dy="0.95em" style="text-anchor: middle; visibility: inherit; font-family: Roboto, sans-serif; font-size: 12px; font-weight: 200;" fill="rgb(33, 33, 33)" stroke="none" stroke-width="1px">10</text><text x="97.22225" y="0" dx="0em" dy="0.95em" style="text-anchor: middle; visibility: inherit; font-family: Roboto, sans-serif; font-size: 12px; font-weight: 200;" fill="rgb(33, 33, 33)" stroke="none" stroke-width="1px">20</text><text x="129.62966666666665" y="0" dx="0em" dy="0.95em" style="text-anchor: middle; visibility: inherit; font-family: Roboto, sans-serif; font-size: 12px; font-weight: 200;" fill="rgb(33, 33, 33)" stroke="none" stroke-width="1px">30</text><text x="162.03708333333336" y="0" dx="0em" dy="0.95em" style="text-anchor: middle; visibility: inherit; font-family: Roboto, sans-serif; font-size: 12px; font-weight: 200;" fill="rgb(33, 33, 33)" stroke="none" stroke-width="1px">40</text><text x="194.4445" y="0" dx="0em" dy="0.95em" style="text-anchor: middle; visibility: inherit; font-family: Roboto, sans-serif; font-size: 12px; font-weight: 200;" fill="rgb(33, 33, 33)" stroke="none" stroke-width="1px">50</text><text x="226.85191666666668" y="0" dx="0em" dy="0.95em" style="text-anchor: middle; visibility: inherit; font-family: Roboto, sans-serif; font-size: 12px; font-weight: 200;" fill="rgb(33, 33, 33)" stroke="none" stroke-width="1px">60</text><text x="259.2593333333333" y="0" dx="0em" dy="0.95em" style="text-anchor: middle; visibility: inherit; font-family: Roboto, sans-serif; font-size: 12px; font-weight: 200;" fill="rgb(33, 33, 33)" stroke="none" stroke-width="1px">70</text><text x="291.66675" y="0" dx="0em" dy="0.95em" style="text-anchor: middle; visibility: inherit; font-family: Roboto, sans-serif; font-size: 12px; font-weight: 200;" fill="rgb(33, 33, 33)" stroke="none" stroke-width="1px">80</text><text x="324.0741666666667" y="0" dx="0em" dy="0.95em" style="text-anchor: middle; visibility: inherit; font-family: Roboto, sans-serif; font-size: 12px; font-weight: 200;" fill="rgb(33, 33, 33)" stroke="none" stroke-width="1px">90</text><text x="356.48158333333333" y="0" dx="0em" dy="0.95em" style="text-anchor: middle; visibility: inherit; font-family: Roboto, sans-serif; font-size: 12px; font-weight: 200;" fill="rgb(33, 33, 33)" stroke="none" stroke-width="1px">100</text><text x="388.889" y="0" dx="0em" dy="0.95em" style="text-anchor: middle; visibility: hidden; font-family: Roboto, sans-serif; font-size: 12px; font-weight: 200;" fill="rgb(33, 33, 33)" stroke="none" stroke-width="1px">110</text></g><line x1="0" y1="0" x2="388.889" y2="0" fill="rgb(0, 0, 0)" stroke="rgb(204, 204, 204)" stroke-width="1px"></line></g></g></g></g></svg>