<svg viewBox="0 0 652.7142944335938 400.0000305175781" xmlns="http://www.w3.org/2000/svg"><g><g><g><g><g><line x1="50" y1="377" x2="45" y2="377" style="visibility: inherit;" fill="rgb(0, 0, 0)" stroke="rgb(204, 204, 204)" stroke-width="1px"></line><line x1="50" y1="329.87500000000006" x2="45" y2="329.87500000000006" style="visibility: inherit;" fill="rgb(0, 0, 0)" stroke="rgb(204, 204, 204)" stroke-width="1px"></line><line x1="50" y1="282.75" x2="45" y2="282.75" style="visibility: inherit;" fill="rgb(0, 0, 0)" stroke="rgb(204, 204, 204)" stroke-width="1px"></line><line x1="50" y1="235.625" x2="45" y2="235.625" style="visibility: inherit;" fill="rgb(0, 0, 0)" stroke="rgb(204, 204, 204)" stroke-width="1px"></line><line x1="50" y1="188.50000000000003" x2="45" y2="188.50000000000003" style="visibility: inherit;" fill="rgb(0, 0, 0)" stroke="rgb(204, 204, 204)" stroke-width="1px"></line><line x1="50" y1="141.375" x2="45" y2="141.375" style="visibility: inherit;" fill="rgb(0, 0, 0)" stroke="rgb(204, 204, 204)" stroke-width="1px"></line><line x1="50" y1="94.25000000000009" x2="45" y2="94.25000000000009" style="visibility: inherit;" fill="rgb(0, 0, 0)" stroke="rgb(204, 204, 204)" stroke-width="1px"></line><line x1="50" y1="47.12500000000004" x2="45" y2="47.12500000000004" style="visibility: inherit;" fill="rgb(0, 0, 0)" stroke="rgb(204, 204, 204)" stroke-width="1px"></line><line x1="50" y1="0" x2="45" y2="0" style="visibility: inherit;" fill="rgb(0, 0, 0)" stroke="rgb(204, 204, 204)" stroke-width="1px"></line></g><g transform="translate(40, 0)"><text x="0" y="377" dx="0em" dy="0.3em" style="text-anchor: end; visibility: hidden; font-family: Roboto, sans-serif; font-size: 12px; font-weight: 200;" fill="rgb(33, 33, 33)" stroke="none" stroke-width="1px">0.65</text><text x="0" y="329.87500000000006" dx="0em" dy="0.3em" style="text-anchor: end; visibility: inherit; font-family: Roboto, sans-serif; font-size: 12px; font-weight: 200;" fill="rgb(33, 33, 33)" stroke="none" stroke-width="1px">0.7</text><text x="0" y="282.75" dx="0em" dy="0.3em" style="text-anchor: end; visibility: inherit; font-family: Roboto, sans-serif; font-size: 12px; font-weight: 200;" fill="rgb(33, 33, 33)" stroke="none" stroke-width="1px">0.75</text><text x="0" y="235.625" dx="0em" dy="0.3em" style="text-anchor: end; visibility: inherit; font-family: Roboto, sans-serif; font-size: 12px; font-weight: 200;" fill="rgb(33, 33, 33)" stroke="none" stroke-width="1px">0.8</text><text x="0" y="188.50000000000003" dx="0em" dy="0.3em" style="text-anchor: end; visibility: inherit; font-family: Roboto, sans-serif; font-size: 12px; font-weight: 200;" fill="rgb(33, 33, 33)" stroke="none" stroke-width="1px">0.85</text><text x="0" y="141.375" dx="0em" dy="0.3em" style="text-anchor: end; visibility: inherit; font-family: Roboto, sans-serif; font-size: 12px; font-weight: 200;" fill="rgb(33, 33, 33)" stroke="none" stroke-width="1px">0.9</text><text x="0" y="94.25000000000009" dx="0em" dy="0.3em" style="text-anchor: end; visibility: inherit; font-family: Roboto, sans-serif; font-size: 12px; font-weight: 200;" fill="rgb(33, 33, 33)" stroke="none" stroke-width="1px">0.95</text><text x="0" y="47.12500000000004" dx="0em" dy="0.3em" style="text-anchor: end; visibility: inherit; font-family: Roboto, sans-serif; font-size: 12px; font-weight: 200;" fill="rgb(33, 33, 33)" stroke="none" stroke-width="1px">1</text><text x="0" y="0" dx="0em" dy="0.3em" style="text-anchor: end; visibility: hidden; font-family: Roboto, sans-serif; font-size: 12px; font-weight: 200;" fill="rgb(33, 33, 33)" stroke="none" stroke-width="1px">1.05</text></g><line x1="50" y1="0" x2="50" y2="377" fill="rgb(0, 0, 0)" stroke="rgb(204, 204, 204)" stroke-width="1px"></line></g></g><g transform="translate(50, 0)" clip-path="url(#clip_0)"><clipPath id="clip_0"><rect width="602" height="377"></rect></clipPath><g><g><g><line x1="0" y1="0" x2="0" y2="377" fill="rgb(0, 0, 0)" stroke="rgb(66, 66, 66)" stroke-width="1px" opacity="0.25"></line><line x1="50.22616666666667" y1="0" x2="50.22616666666667" y2="377" fill="rgb(0, 0, 0)" stroke="rgb(66, 66, 66)" stroke-width="1px" opacity="0.25"></line><line x1="100.45233333333334" y1="0" x2="100.45233333333334" y2="377" fill="rgb(0, 0, 0)" stroke="rgb(66, 66, 66)" stroke-width="1px" opacity="0.25"></line><line x1="150.6785" y1="0" x2="150.6785" y2="377" fill="rgb(0, 0, 0)" stroke="rgb(66, 66, 66)" stroke-width="1px" opacity="0.25"></line><line x1="200.90466666666669" y1="0" x2="200.90466666666669" y2="377" fill="rgb(0, 0, 0)" stroke="rgb(66, 66, 66)" stroke-width="1px" opacity="0.25"></line><line x1="251.13083333333336" y1="0" x2="251.13083333333336" y2="377" fill="rgb(0, 0, 0)" stroke="rgb(66, 66, 66)" stroke-width="1px" opacity="0.25"></line><line x1="301.357" y1="0" x2="301.357" y2="377" fill="rgb(0, 0, 0)" stroke="rgb(66, 66, 66)" stroke-width="1px" opacity="0.25"></line><line x1="351.5831666666667" y1="0" x2="351.5831666666667" y2="377" fill="rgb(0, 0, 0)" stroke="rgb(66, 66, 66)" stroke-width="1px" opacity="0.25"></line><line x1="401.80933333333337" y1="0" x2="401.80933333333337" y2="377" fill="rgb(0, 0, 0)" stroke="rgb(66, 66, 66)" stroke-width="1px" opacity="0.25"></line><line x1="452.03550000000007" y1="0" x2="452.03550000000007" y2="377" fill="rgb(0, 0, 0)" stroke="rgb(66, 66, 66)" stroke-width="1px" opacity="0.25"></line><line x1="502.2616666666667" y1="0" x2="502.2616666666667" y2="377" fill="rgb(0, 0, 0)" stroke="rgb(66, 66, 66)" stroke-width="1px" opacity="0.25"></line><line x1="552.4878333333334" y1="0" x2="552.4878333333334" y2="377" fill="rgb(0, 0, 0)" stroke="rgb(66, 66, 66)" stroke-width="1px" opacity="0.25"></line><line x1="602.714" y1="0" x2="602.714" y2="377" fill="rgb(0, 0, 0)" stroke="rgb(66, 66, 66)" stroke-width="1px" opacity="0.25"></line></g><g><line x1="0" y1="377" x2="602.714" y2="377" fill="rgb(0, 0, 0)" stroke="rgb(66, 66, 66)" stroke-width="1px" opacity="0.25"></line><line x1="0" y1="329.87500000000006" x2="602.714" y2="329.87500000000006" fill="rgb(0, 0, 0)" stroke="rgb(66, 66, 66)" stroke-width="1px" opacity="0.25"></line><line x1="0" y1="282.75" x2="602.714" y2="282.75" fill="rgb(0, 0, 0)" stroke="rgb(66, 66, 66)" stroke-width="1px" opacity="0.25"></line><line x1="0" y1="235.625" x2="602.714" y2="235.625" fill="rgb(0, 0, 0)" stroke="rgb(66, 66, 66)" stroke-width="1px" opacity="0.25"></line><line x1="0" y1="188.50000000000003" x2="602.714" y2="188.50000000000003" fill="rgb(0, 0, 0)" stroke="rgb(66, 66, 66)" stroke-width="1px" opacity="0.25"></line><line x1="0" y1="141.375" x2="602.714" y2="141.375" fill="rgb(0, 0, 0)" stroke="rgb(66, 66, 66)" stroke-width="1px" opacity="0.25"></line><line x1="0" y1="94.25000000000009" x2="602.714" y2="94.25000000000009" fill="rgb(0, 0, 0)" stroke="rgb(66, 66, 66)" stroke-width="1px" opacity="0.25"></line><line x1="0" y1="47.12500000000004" x2="602.714" y2="47.12500000000004" fill="rgb(0, 0, 0)" stroke="rgb(66, 66, 66)" stroke-width="1px" opacity="0.25"></line><line x1="0" y1="0" x2="602.714" y2="0" fill="rgb(0, 0, 0)" stroke="rgb(66, 66, 66)" stroke-width="1px" opacity="0.25"></line></g></g></g><g><g><line x1="0" y1="989.625" x2="602.714" y2="989.625" fill="rgb(0, 0, 0)" stroke="rgb(153, 153, 153)" stroke-width="1.5px"></line></g></g><g><g><line x1="50.22616666666667" y1="0" x2="50.22616666666667" y2="377" fill="rgb(0, 0, 0)" stroke="rgb(153, 153, 153)" stroke-width="1.5px"></line></g></g><g><g><g><g><g><path stroke="rgb(0, 119, 187)" stroke-width="2px" d="M60.27140000000001,380.6848090291023L70.31663333333334,333.9070530947375L80.36186666666667,300.0433141158566L90.4071,274.5747549084846L100.45233333333334,253.91439789271521L110.49756666666667,236.64964577245934L120.54280000000001,222.82065611437355L130.58803333333336,211.26679442429068L140.63326666666669,201.95258612242844L150.6785,193.5992051235942L160.72373333333334,186.2758199633149L170.76896666666667,181.30980846773812L180.8142,177.17057212969164L190.85943333333333,173.40936912434665L200.90466666666669,170.45585953375584L210.9499,168.2190596940643L220.99513333333334,165.59795578724518L231.0403666666667,163.21140401261135L241.08560000000003,160.84923463530748L251.13083333333336,158.73427241766566L261.1760666666667,157.11645867344L271.22130000000004,155.4480555139169L281.26653333333337,153.7492957136712L291.3117666666667,152.14860747288944L301.357,150.83935780131156L311.4022333333334,149.58866026426603L321.4474666666667,148.60566807478438L331.49270000000007,148.01587314743156L341.53793333333334,146.84798594725942L351.5831666666667,145.91467941786638L361.6284,145.47098276055684L371.6736333333334,145.20476478877092L381.71886666666666,144.57988531314564L391.76410000000004,144.088670465389L401.80933333333337,143.44508004301912L411.8545666666667,142.94263862128523L421.8998,142.52490906891356L431.94503333333336,142.04169699428388L441.9902666666667,141.63548257819906L452.03550000000007,141.39175392889558L462.0807333333334,141.36180391133513L472.1259666666667,141.57640824455663L482.17120000000006,141.7051708444499L492.2164333333334,141.5498540606661L502.2616666666667,141.1078024748624L512.3069,140.7262843515528L522.3521333333334,140.4973734775761L532.3973666666667,140.3600269531935L542.4426000000001,140.04504469488194" style="fill: none;" fill="none"></path></g><g><path stroke="rgb(255, 112, 67)" stroke-width="2px" d="M60.27140000000001,444.04936594516033L70.31663333333334,343.6868684492549L80.36186666666667,273.88031802972887L90.4071,222.5028722489319L100.45233333333334,183.41303897571015L110.49756666666667,153.23425035115918L120.54280000000001,129.91724965754662L130.58803333333336,112.11488848999218L140.63326666666669,98.80152803083142L150.6785,88.2686966841346L160.72373333333334,79.49597268441289L170.76896666666667,72.69027505210936L180.8142,67.20289842276716L190.85943333333333,62.734114984855786L200.90466666666669,59.10531115168026L210.9499,56.1811737855144L220.99513333333334,53.93826029029631L231.0403666666667,52.2189432986416L241.08560000000003,50.89996124161092L251.13083333333336,49.821148159377586L261.1760666666667,49.05889008625814L271.22130000000004,48.45779385425782L281.26653333333337,48.039658187946586L291.3117666666667,47.76003762804485L301.357,47.53476253898047L311.4022333333334,47.37085735563287L321.4474666666667,47.27251435298786L331.49270000000007,47.21350859005169L341.53793333333334,47.178105146204224L351.5831666666667,47.15686308490489L361.6284,47.14411784992866L371.6736333333334,47.136470709591975L381.71886666666666,47.13188242562368L391.76410000000004,47.12912945532689L401.80933333333337,47.127477673179115L411.8545666666667,47.126486603901284L421.8998,47.1258919623386L431.94503333333336,47.125535177402384L441.9902666666667,47.125321106441156L452.03550000000007,47.12519266386454L462.0807333333334,47.125115598318736L472.1259666666667,47.125069358991176L482.17120000000006,47.12504161539472L492.2164333333334,47.125024969236804L502.2616666666667,47.12501498154218L512.3069,47.125008988925316L522.3521333333334,47.12500539335524L532.3973666666667,47.12500323601312L542.4426000000001,47.125001941607835" style="fill: none;" fill="none"></path></g></g></g></g><g opacity="0.2"><g><g><g><path stroke="rgb(0, 119, 187)" stroke-width="2px" d="M50.22616666666667,444.8239255845547L60.27140000000001,342.2013390958309L70.31663333333334,289.00040739774704L80.36186666666667,260.2195570766926L90.4071,241.32300400733948L100.45233333333334,225.33368641138077L110.49756666666667,211.96077400445938L120.54280000000001,202.65785643458366L130.58803333333336,194.22709265351295L140.63326666666669,188.12207230925563L150.6785,181.14489817619327L160.72373333333334,175.33059576153758L170.76896666666667,173.87700611352923L180.8142,170.96982681751254L190.85943333333333,167.77198576927188L200.90466666666669,166.02767819166186L210.9499,164.8648064732552L220.99513333333334,161.66696542501452L231.0403666666667,159.63193991780284L241.08560000000003,157.30619648098948L251.13083333333336,155.56194508075717L261.1760666666667,154.68979129195216L271.22130000000004,152.94548371434215L281.26653333333337,151.20117613673213L291.3117666666667,149.74758648872378L301.357,148.87548887729648L311.4022333333334,147.7126171588898L321.4474666666667,147.13118129968646L331.49270000000007,147.13118129968646L341.53793333333334,145.09615579247478L351.5831666666667,144.51471993327144L361.6284,144.8054378628731L371.6736333333334,144.8054378628731L381.71886666666666,143.64256614446643L391.76410000000004,143.35184821486476L401.80933333333337,142.47969442605975L411.8545666666667,142.18897649645808L421.8998,141.8983147442341L431.94503333333336,141.31687888503077L441.9902666666667,141.0261609554291L452.03550000000007,141.0261609554291L462.0807333333334,141.31687888503077L472.1259666666667,141.8983147442341L482.17120000000006,141.8983147442341L492.2164333333334,141.31687888503077L502.2616666666667,140.44472509622577L512.3069,140.1540071666241L522.3521333333334,140.1540071666241L532.3973666666667,140.1540071666241L542.4426000000001,139.57257130742076" style="fill: none;" fill="none"></path></g><g><path stroke="rgb(255, 112, 67)" stroke-width="2px" d="M50.22616666666667,610.3253453373909L60.27140000000001,344.2837783098221L70.31663333333334,247.33887085318565L80.36186666666667,191.78781473636627L90.4071,155.4244790375233L100.45233333333334,129.33772721886638L110.49756666666667,110.07809975743298L120.54280000000001,95.92083880305294L130.58803333333336,85.85986369848256L140.63326666666669,79.03273934125905L150.6785,72.56498166918759L160.72373333333334,66.38462746143345L170.76896666666667,62.5039503872395L180.8142,58.9825838208199L190.85943333333333,56.03619271516804L200.90466666666669,53.66466471552853L210.9499,51.796205133199734L220.99513333333334,50.57445952296261L231.0403666666667,49.640229731798215L241.08560000000003,48.92160871624951L251.13083333333336,48.2029877007008L261.1760666666667,47.91552805900578L271.22130000000004,47.556161373853726L281.26653333333337,47.412459641695065L291.3117666666667,47.340608775615735L301.357,47.19685086607937L311.4022333333334,47.12500000000004L321.4474666666667,47.12500000000004L331.49270000000007,47.12500000000004L341.53793333333334,47.12500000000004L351.5831666666667,47.12500000000004L361.6284,47.12500000000004L371.6736333333334,47.12500000000004L381.71886666666666,47.12500000000004L391.76410000000004,47.12500000000004L401.80933333333337,47.12500000000004L411.8545666666667,47.12500000000004L421.8998,47.12500000000004L431.94503333333336,47.12500000000004L441.9902666666667,47.12500000000004L452.03550000000007,47.12500000000004L462.0807333333334,47.12500000000004L472.1259666666667,47.12500000000004L482.17120000000006,47.12500000000004L492.2164333333334,47.12500000000004L502.2616666666667,47.12500000000004L512.3069,47.12500000000004L522.3521333333334,47.12500000000004L532.3973666666667,47.12500000000004L542.4426000000001,47.12500000000004" style="fill: none;" fill="none"></path></g></g></g></g></g><g><g opacity="0.0444752"><span fill="rgb(0, 0, 0)" stroke="none" stroke-width="1px">Alt + Scroll to Zoom</span></g></g></g><g transform="translate(50, 377)" clip-path="url(#clip_1)"><clipPath id="clip_1"><rect width="602" height="23"></rect></clipPath><g><g><line x1="0" y1="0" x2="0" y2="5" style="visibility: inherit;" fill="rgb(0, 0, 0)" stroke="rgb(204, 204, 204)" stroke-width="1px"></line><line x1="50.22616666666667" y1="0" x2="50.22616666666667" y2="5" style="visibility: inherit;" fill="rgb(0, 0, 0)" stroke="rgb(204, 204, 204)" stroke-width="1px"></line><line x1="100.45233333333334" y1="0" x2="100.45233333333334" y2="5" style="visibility: inherit;" fill="rgb(0, 0, 0)" stroke="rgb(204, 204, 204)" stroke-width="1px"></line><line x1="150.6785" y1="0" x2="150.6785" y2="5" style="visibility: inherit;" fill="rgb(0, 0, 0)" stroke="rgb(204, 204, 204)" stroke-width="1px"></line><line x1="200.90466666666669" y1="0" x2="200.90466666666669" y2="5" style="visibility: inherit;" fill="rgb(0, 0, 0)" stroke="rgb(204, 204, 204)" stroke-width="1px"></line><line x1="251.13083333333336" y1="0" x2="251.13083333333336" y2="5" style="visibility: inherit;" fill="rgb(0, 0, 0)" stroke="rgb(204, 204, 204)" stroke-width="1px"></line><line x1="301.357" y1="0" x2="301.357" y2="5" style="visibility: inherit;" fill="rgb(0, 0, 0)" stroke="rgb(204, 204, 204)" stroke-width="1px"></line><line x1="351.5831666666667" y1="0" x2="351.5831666666667" y2="5" style="visibility: inherit;" fill="rgb(0, 0, 0)" stroke="rgb(204, 204, 204)" stroke-width="1px"></line><line x1="401.80933333333337" y1="0" x2="401.80933333333337" y2="5" style="visibility: inherit;" fill="rgb(0, 0, 0)" stroke="rgb(204, 204, 204)" stroke-width="1px"></line><line x1="452.03550000000007" y1="0" x2="452.03550000000007" y2="5" style="visibility: inherit;" fill="rgb(0, 0, 0)" stroke="rgb(204, 204, 204)" stroke-width="1px"></line><line x1="502.2616666666667" y1="0" x2="502.2616666666667" y2="5" style="visibility: inherit;" fill="rgb(0, 0, 0)" stroke="rgb(204, 204, 204)" stroke-width="1px"></line><line x1="552.4878333333334" y1="0" x2="552.4878333333334" y2="5" style="visibility: inherit;" fill="rgb(0, 0, 0)" stroke="rgb(204, 204, 204)" stroke-width="1px"></line><line x1="602.714" y1="0" x2="602.714" y2="5" style="visibility: inherit;" fill="rgb(0, 0, 0)" stroke="rgb(204, 204, 204)" stroke-width="1px"></line></g><g transform="translate(0, 8)"><text x="0" y="0" dx="0em" dy="0.95em" style="text-anchor: middle; visibility: hidden; font-family: Roboto, sans-serif; font-size: 12px; font-weight: 200;" fill="rgb(33, 33, 33)" stroke="none" stroke-width="1px">-5</text><text x="50.22616666666667" y="0" dx="0em" dy="0.95em" style="text-anchor: middle; visibility: inherit; font-family: Roboto, sans-serif; font-size: 12px; font-weight: 200;" fill="rgb(33, 33, 33)" stroke="none" stroke-width="1px">0</text><text x="100.45233333333334" y="0" dx="0em" dy="0.95em" style="text-anchor: middle; visibility: inherit; font-family: Roboto, sans-serif; font-size: 12px; font-weight: 200;" fill="rgb(33, 33, 33)" stroke="none" stroke-width="1px">5</text><text x="150.6785" y="0" dx="0em" dy="0.95em" style="text-anchor: middle; visibility: inherit; font-family: Roboto, sans-serif; font-size: 12px; font-weight: 200;" fill="rgb(33, 33, 33)" stroke="none" stroke-width="1px">10</text><text x="200.90466666666669" y="0" dx="0em" dy="0.95em" style="text-anchor: middle; visibility: inherit; font-family: Roboto, sans-serif; font-size: 12px; font-weight: 200;" fill="rgb(33, 33, 33)" stroke="none" stroke-width="1px">15</text><text x="251.13083333333336" y="0" dx="0em" dy="0.95em" style="text-anchor: middle; visibility: inherit; font-family: Roboto, sans-serif; font-size: 12px; font-weight: 200;" fill="rgb(33, 33, 33)" stroke="none" stroke-width="1px">20</text><text x="301.357" y="0" dx="0em" dy="0.95em" style="text-anchor: middle; visibility: inherit; font-family: Roboto, sans-serif; font-size: 12px; font-weight: 200;" fill="rgb(33, 33, 33)" stroke="none" stroke-width="1px">25</text><text x="351.5831666666667" y="0" dx="0em" dy="0.95em" style="text-anchor: middle; visibility: inherit; font-family: Roboto, sans-serif; font-size: 12px; font-weight: 200;" fill="rgb(33, 33, 33)" stroke="none" stroke-width="1px">30</text><text x="401.80933333333337" y="0" dx="0em" dy="0.95em" style="text-anchor: middle; visibility: inherit; font-family: Roboto, sans-serif; font-size: 12px; font-weight: 200;" fill="rgb(33, 33, 33)" stroke="none" stroke-width="1px">35</text><text x="452.03550000000007" y="0" dx="0em" dy="0.95em" style="text-anchor: middle; visibility: inherit; font-family: Roboto, sans-serif; font-size: 12px; font-weight: 200;" fill="rgb(33, 33, 33)" stroke="none" stroke-width="1px">40</text><text x="502.2616666666667" y="0" dx="0em" dy="0.95em" style="text-anchor: middle; visibility: inherit; font-family: Roboto, sans-serif; font-size: 12px; font-weight: 200;" fill="rgb(33, 33, 33)" stroke="none" stroke-width="1px">45</text><text x="552.4878333333334" y="0" dx="0em" dy="0.95em" style="text-anchor: middle; visibility: inherit; font-family: Roboto, sans-serif; font-size: 12px; font-weight: 200;" fill="rgb(33, 33, 33)" stroke="none" stroke-width="1px">50</text><text x="602.714" y="0" dx="0em" dy="0.95em" style="text-anchor: middle; visibility: hidden; font-family: Roboto, sans-serif; font-size: 12px; font-weight: 200;" fill="rgb(33, 33, 33)" stroke="none" stroke-width="1px">55</text></g><line x1="0" y1="0" x2="602.714" y2="0" fill="rgb(0, 0, 0)" stroke="rgb(204, 204, 204)" stroke-width="1px"></line></g></g></g></g></svg>