<svg viewBox="0 0 553 400" xmlns="http://www.w3.org/2000/svg"><g><g><g><g><g><line x1="50" y1="377" x2="45" y2="377" style="visibility: inherit;" fill="rgb(0, 0, 0)" stroke="rgb(204, 204, 204)" stroke-width="1px"></line><line x1="50" y1="335.1111111111111" x2="45" y2="335.1111111111111" style="visibility: inherit;" fill="rgb(0, 0, 0)" stroke="rgb(204, 204, 204)" stroke-width="1px"></line><line x1="50" y1="293.22222222222223" x2="45" y2="293.22222222222223" style="visibility: inherit;" fill="rgb(0, 0, 0)" stroke="rgb(204, 204, 204)" stroke-width="1px"></line><line x1="50" y1="251.33333333333331" x2="45" y2="251.33333333333331" style="visibility: inherit;" fill="rgb(0, 0, 0)" stroke="rgb(204, 204, 204)" stroke-width="1px"></line><line x1="50" y1="209.44444444444446" x2="45" y2="209.44444444444446" style="visibility: inherit;" fill="rgb(0, 0, 0)" stroke="rgb(204, 204, 204)" stroke-width="1px"></line><line x1="50" y1="167.55555555555554" x2="45" y2="167.55555555555554" style="visibility: inherit;" fill="rgb(0, 0, 0)" stroke="rgb(204, 204, 204)" stroke-width="1px"></line><line x1="50" y1="125.66666666666669" x2="45" y2="125.66666666666669" style="visibility: inherit;" fill="rgb(0, 0, 0)" stroke="rgb(204, 204, 204)" stroke-width="1px"></line><line x1="50" y1="83.77777777777781" x2="45" y2="83.77777777777781" style="visibility: inherit;" fill="rgb(0, 0, 0)" stroke="rgb(204, 204, 204)" stroke-width="1px"></line><line x1="50" y1="41.88888888888891" x2="45" y2="41.88888888888891" style="visibility: inherit;" fill="rgb(0, 0, 0)" stroke="rgb(204, 204, 204)" stroke-width="1px"></line><line x1="50" y1="0" x2="45" y2="0" style="visibility: inherit;" fill="rgb(0, 0, 0)" stroke="rgb(204, 204, 204)" stroke-width="1px"></line></g><g transform="translate(40, 0)"><text x="0" y="377" dx="0em" dy="0.3em" style="text-anchor: end; visibility: hidden; font-family: Roboto, sans-serif; font-size: 12px; font-weight: 200;" fill="rgb(33, 33, 33)" stroke="none" stroke-width="1px">-0.2</text><text x="0" y="335.1111111111111" dx="0em" dy="0.3em" style="text-anchor: end; visibility: inherit; font-family: Roboto, sans-serif; font-size: 12px; font-weight: 200;" fill="rgb(33, 33, 33)" stroke="none" stroke-width="1px">0</text><text x="0" y="293.22222222222223" dx="0em" dy="0.3em" style="text-anchor: end; visibility: inherit; font-family: Roboto, sans-serif; font-size: 12px; font-weight: 200;" fill="rgb(33, 33, 33)" stroke="none" stroke-width="1px">0.2</text><text x="0" y="251.33333333333331" dx="0em" dy="0.3em" style="text-anchor: end; visibility: inherit; font-family: Roboto, sans-serif; font-size: 12px; font-weight: 200;" fill="rgb(33, 33, 33)" stroke="none" stroke-width="1px">0.4</text><text x="0" y="209.44444444444446" dx="0em" dy="0.3em" style="text-anchor: end; visibility: inherit; font-family: Roboto, sans-serif; font-size: 12px; font-weight: 200;" fill="rgb(33, 33, 33)" stroke="none" stroke-width="1px">0.6</text><text x="0" y="167.55555555555554" dx="0em" dy="0.3em" style="text-anchor: end; visibility: inherit; font-family: Roboto, sans-serif; font-size: 12px; font-weight: 200;" fill="rgb(33, 33, 33)" stroke="none" stroke-width="1px">0.8</text><text x="0" y="125.66666666666669" dx="0em" dy="0.3em" style="text-anchor: end; visibility: inherit; font-family: Roboto, sans-serif; font-size: 12px; font-weight: 200;" fill="rgb(33, 33, 33)" stroke="none" stroke-width="1px">1</text><text x="0" y="83.77777777777781" dx="0em" dy="0.3em" style="text-anchor: end; visibility: inherit; font-family: Roboto, sans-serif; font-size: 12px; font-weight: 200;" fill="rgb(33, 33, 33)" stroke="none" stroke-width="1px">1.2</text><text x="0" y="41.88888888888891" dx="0em" dy="0.3em" style="text-anchor: end; visibility: inherit; font-family: Roboto, sans-serif; font-size: 12px; font-weight: 200;" fill="rgb(33, 33, 33)" stroke="none" stroke-width="1px">1.4</text><text x="0" y="0" dx="0em" dy="0.3em" style="text-anchor: end; visibility: hidden; font-family: Roboto, sans-serif; font-size: 12px; font-weight: 200;" fill="rgb(33, 33, 33)" stroke="none" stroke-width="1px">1.6</text></g><line x1="50" y1="0" x2="50" y2="377" fill="rgb(0, 0, 0)" stroke="rgb(204, 204, 204)" stroke-width="1px"></line></g></g><g transform="translate(50, 0)" clip-path="url(#clip_0)"><clipPath id="clip_0"><rect width="503" height="377"></rect></clipPath><g><g><g><line x1="0" y1="0" x2="0" y2="377" fill="rgb(0, 0, 0)" stroke="rgb(66, 66, 66)" stroke-width="1px" opacity="0.25"></line><line x1="41.916666666666664" y1="0" x2="41.916666666666664" y2="377" fill="rgb(0, 0, 0)" stroke="rgb(66, 66, 66)" stroke-width="1px" opacity="0.25"></line><line x1="83.83333333333333" y1="0" x2="83.83333333333333" y2="377" fill="rgb(0, 0, 0)" stroke="rgb(66, 66, 66)" stroke-width="1px" opacity="0.25"></line><line x1="125.75" y1="0" x2="125.75" y2="377" fill="rgb(0, 0, 0)" stroke="rgb(66, 66, 66)" stroke-width="1px" opacity="0.25"></line><line x1="167.66666666666666" y1="0" x2="167.66666666666666" y2="377" fill="rgb(0, 0, 0)" stroke="rgb(66, 66, 66)" stroke-width="1px" opacity="0.25"></line><line x1="209.58333333333334" y1="0" x2="209.58333333333334" y2="377" fill="rgb(0, 0, 0)" stroke="rgb(66, 66, 66)" stroke-width="1px" opacity="0.25"></line><line x1="251.5" y1="0" x2="251.5" y2="377" fill="rgb(0, 0, 0)" stroke="rgb(66, 66, 66)" stroke-width="1px" opacity="0.25"></line><line x1="293.4166666666667" y1="0" x2="293.4166666666667" y2="377" fill="rgb(0, 0, 0)" stroke="rgb(66, 66, 66)" stroke-width="1px" opacity="0.25"></line><line x1="335.3333333333333" y1="0" x2="335.3333333333333" y2="377" fill="rgb(0, 0, 0)" stroke="rgb(66, 66, 66)" stroke-width="1px" opacity="0.25"></line><line x1="377.25" y1="0" x2="377.25" y2="377" fill="rgb(0, 0, 0)" stroke="rgb(66, 66, 66)" stroke-width="1px" opacity="0.25"></line><line x1="419.1666666666667" y1="0" x2="419.1666666666667" y2="377" fill="rgb(0, 0, 0)" stroke="rgb(66, 66, 66)" stroke-width="1px" opacity="0.25"></line><line x1="461.0833333333333" y1="0" x2="461.0833333333333" y2="377" fill="rgb(0, 0, 0)" stroke="rgb(66, 66, 66)" stroke-width="1px" opacity="0.25"></line><line x1="503" y1="0" x2="503" y2="377" fill="rgb(0, 0, 0)" stroke="rgb(66, 66, 66)" stroke-width="1px" opacity="0.25"></line></g><g><line x1="0" y1="377" x2="503" y2="377" fill="rgb(0, 0, 0)" stroke="rgb(66, 66, 66)" stroke-width="1px" opacity="0.25"></line><line x1="0" y1="335.1111111111111" x2="503" y2="335.1111111111111" fill="rgb(0, 0, 0)" stroke="rgb(66, 66, 66)" stroke-width="1px" opacity="0.25"></line><line x1="0" y1="293.22222222222223" x2="503" y2="293.22222222222223" fill="rgb(0, 0, 0)" stroke="rgb(66, 66, 66)" stroke-width="1px" opacity="0.25"></line><line x1="0" y1="251.33333333333331" x2="503" y2="251.33333333333331" fill="rgb(0, 0, 0)" stroke="rgb(66, 66, 66)" stroke-width="1px" opacity="0.25"></line><line x1="0" y1="209.44444444444446" x2="503" y2="209.44444444444446" fill="rgb(0, 0, 0)" stroke="rgb(66, 66, 66)" stroke-width="1px" opacity="0.25"></line><line x1="0" y1="167.55555555555554" x2="503" y2="167.55555555555554" fill="rgb(0, 0, 0)" stroke="rgb(66, 66, 66)" stroke-width="1px" opacity="0.25"></line><line x1="0" y1="125.66666666666669" x2="503" y2="125.66666666666669" fill="rgb(0, 0, 0)" stroke="rgb(66, 66, 66)" stroke-width="1px" opacity="0.25"></line><line x1="0" y1="83.77777777777781" x2="503" y2="83.77777777777781" fill="rgb(0, 0, 0)" stroke="rgb(66, 66, 66)" stroke-width="1px" opacity="0.25"></line><line x1="0" y1="41.88888888888891" x2="503" y2="41.88888888888891" fill="rgb(0, 0, 0)" stroke="rgb(66, 66, 66)" stroke-width="1px" opacity="0.25"></line><line x1="0" y1="0" x2="503" y2="0" fill="rgb(0, 0, 0)" stroke="rgb(66, 66, 66)" stroke-width="1px" opacity="0.25"></line></g></g></g><g><g><line x1="0" y1="335.1111111111111" x2="503" y2="335.1111111111111" fill="rgb(0, 0, 0)" stroke="rgb(153, 153, 153)" stroke-width="1.5px"></line></g></g><g><g><line x1="41.916666666666664" y1="0" x2="41.916666666666664" y2="377" fill="rgb(0, 0, 0)" stroke="rgb(153, 153, 153)" stroke-width="1.5px"></line></g></g><g><g><g><g><g><path stroke="rgb(0, 119, 187)" stroke-width="2px" d="M41.916666666666664,-45.24044622315306L50.300000000000004,13.028992628057868L58.68333333333334,54.575225487047355L67.06666666666666,85.81178357379117L75.45,109.94501900632933L83.83333333333333,129.04207950814993L92.21666666666665,144.42661105319948L100.60000000000001,156.95807541484027L108.98333333333333,167.25292031181203L117.36666666666667,175.78086242019424L125.75,182.90589248768964L134.13333333333333,188.91467313821082L142.51666666666665,194.0365324179577L150.9,198.45379823651075L159.28333333333333,202.28785654097373L167.66666666666666,205.60146772577042L176.04999999999998,208.43330273968766L184.4333333333333,210.81957812426427L192.8166666666667,212.79938801437237L201.20000000000002,214.41855988967555L209.58333333333334,215.72949374091291L217.96666666666667,216.78438727625377L226.35,217.62812365841265L234.73333333333335,218.295763339291L243.11666666666667,218.81410822225104L251.5,219.2029337419864L259.8833333333334,219.47627190514643L268.26666666666665,219.64466395246976L276.65000000000003,219.716721564201L285.0333333333333,219.69994368096198L293.4166666666667,219.6008969688564L301.8,219.4255887428299L310.18333333333334,219.17968572021417L318.56666666666666,218.8688899531116L326.95,218.4990395474919L335.3333333333333,218.07606922293803L343.7166666666667,217.6059417062023L352.09999999999997,217.09469645096544L360.48333333333335,216.54785967007186L368.8666666666666,215.97051979968867L377.25,215.36702822320888L385.6333333333334,214.7407697701481L394.01666666666665,214.09461425375986L402.40000000000003,213.43039841354866L410.7833333333333,212.74924426741197L419.1666666666667,212.05172515520485L427.55,211.3379453907019L435.93333333333334,210.60758805277604L444.31666666666666,209.85986875693578L452.7,209.09495604620764" style="fill: none;" fill="none"></path></g><g><path stroke="rgb(255, 112, 67)" stroke-width="2px" d="M50.300000000000004,-48.92005509965943L58.68333333333334,45.13924587462229L67.06666666666666,108.3927970604083L75.45,154.15011916116745L83.83333333333333,188.5486987619478L92.21666666666665,215.0515071508771L100.60000000000001,235.84121635981882L108.98333333333333,252.38659965630637L117.36666666666667,265.7179830678467L125.75,276.5782128854998L134.13333333333333,285.5123011916237L142.51666666666665,292.92449622225917L150.9,299.1187056862891L159.28333333333333,304.326396365725L167.66666666666666,308.72512260301954L176.04999999999998,312.4533948674818L184.4333333333333,315.6217794572612L192.8166666666667,318.3202592732191L201.20000000000002,320.62314410543615L209.58333333333334,322.5921634922466L217.96666666666667,324.278437383783L226.35,325.72468582216874L234.73333333333335,326.96691555206445L243.11666666666667,328.0353459905652L251.5,328.9554547025052L259.8833333333334,329.7488983835602L268.26666666666665,330.43415190226585L276.65000000000003,331.02695312782373L285.0333333333333,331.54066353064616L293.4166666666667,331.98659927448386L301.8,332.3743319838337L310.18333333333334,332.7119644608101L318.56666666666666,333.00637054460856L326.95,333.2633967621162L335.3333333333333,333.48803227691377L343.7166666666667,333.68454916774687L352.09999999999997,333.8566178828833L360.48333333333335,334.00740015383104L368.8666666666666,334.13962625861575L377.25,334.2556582914213L385.6333333333334,334.35754296843703L394.01666666666665,334.4470578628514L402.40000000000003,334.5257463045549L410.7833333333333,334.59495148653014L419.1666666666667,334.655842780494L427.55,334.70944056732867L435.93333333333334,334.75663512432317L444.31666666666666,334.79820511623274L452.7,334.8348312061926" style="fill: none;" fill="none"></path></g></g></g></g><g opacity="0.2"><g><g><g><path stroke="rgb(0, 119, 187)" stroke-width="2px" d="M41.916666666666664,-45.24044622315306L50.300000000000004,47.99065593878429L58.68333333333334,94.45960903167725L67.06666666666666,122.5459758838018L75.45,141.45337118705118L83.83333333333333,155.46018912394845L92.21666666666665,166.42673731512497L100.60000000000001,175.22907075617053L108.98333333333333,182.43581686417264L117.36666666666667,188.44386257065668L125.75,193.5288140906228L134.13333333333333,197.89514459504022L142.51666666666665,201.70259757836664L150.9,205.07104308075378L159.28333333333333,208.0344372060564L167.66666666666666,210.5695474876298L176.04999999999998,212.67985692289142L184.4333333333333,214.39838532606763L192.8166666666667,215.76880124542447L201.20000000000002,216.84716970390747L209.58333333333334,217.69582262304095L217.96666666666667,218.36669286754397L226.35,218.89371157354782L234.73333333333335,219.29721495178012L243.11666666666667,219.5916218625175L251.5,219.7861703634262L259.8833333333334,219.88627845048904L268.26666666666665,219.8972517649333L276.65000000000003,219.82480791542264L285.0333333333333,219.67477686537637L293.4166666666667,219.4523269335429L301.8,219.1626264386707L310.18333333333334,218.81083121564654L318.56666666666666,218.40269632471933L326.95,217.94426395495736L335.3333333333333,217.44161374701395L343.7166666666667,216.9007504383723L352.09999999999997,216.3278285728561L360.48333333333335,215.72760450177725L368.8666666666666,215.10450999604336L377.25,214.46179085969925L385.6333333333334,213.8013820913103L394.01666666666665,213.12538097964398L402.40000000000003,212.43407465351953L410.7833333333333,211.7275130483839L419.1666666666667,211.00544648700293L427.55,210.26727574401434L435.93333333333334,209.51205204592816L444.31666666666666,208.73828981320065L452.7,207.94758698013095" style="fill: none;" fill="none"></path></g><g><path stroke="rgb(255, 112, 67)" stroke-width="2px" d="M41.916666666666664,-216.21577093336316L50.300000000000004,51.457374400562735L58.68333333333334,135.4361748099327L67.06666666666666,182.7789732548926L75.45,213.89087889591855L83.83333333333333,236.1343178384834L92.21666666666665,252.95094719198016L100.60000000000001,266.1528119676643L108.98333333333333,276.78782624337407L117.36666666666667,285.51353374123573L125.75,292.7700561268462L134.13333333333333,298.8648147367769L142.51666666666665,304.0185866653919L150.9,308.39788478116196L159.28333333333333,312.13181093997423L167.66666666666666,315.3201096364194L176.04999999999998,318.04422558430167L184.4333333333333,320.37355188942615L192.8166666666667,322.36756791091625L201.20000000000002,324.0772608609663L209.58333333333334,325.5455845867594L217.96666666666667,326.80779273352687L226.35,327.89402992609473L234.73333333333335,328.8302454315126L243.11666666666667,329.63798405437007L251.5,330.3356138465719L259.8833333333334,330.9390618749377L268.26666666666665,331.4620311282989L276.65000000000003,331.91615442010675L285.0333333333333,332.3112288509599L293.4166666666667,332.65550274236335L301.8,332.95593097071264L310.18333333333334,333.21841313596815L318.56666666666666,333.44797964921844L326.95,333.6489360773315L335.3333333333333,333.82498554331767L343.7166666666667,333.97932450095607L352.09999999999997,334.1147209539906L360.48333333333335,334.23357355941295L368.8666666666666,334.3379654153509L377.25,334.429706340397L385.6333333333334,334.510369983838L394.01666666666665,334.5813302044084L402.40000000000003,334.64377896707606L410.7833333333333,334.69875925947497L419.1666666666667,334.74717972143037L427.55,334.78983724757563L435.93333333333334,334.8274269598122L444.31666666666666,334.86056010409567L452.7,334.8897703411316" style="fill: none;" fill="none"></path></g></g></g></g></g><g><g opacity="0.907025"><span fill="rgb(0, 0, 0)" stroke="none" stroke-width="1px">Alt + Scroll to Zoom</span></g></g></g><g transform="translate(50, 377)" clip-path="url(#clip_1)"><clipPath id="clip_1"><rect width="503" height="23"></rect></clipPath><g><g><line x1="0" y1="0" x2="0" y2="5" style="visibility: inherit;" fill="rgb(0, 0, 0)" stroke="rgb(204, 204, 204)" stroke-width="1px"></line><line x1="41.916666666666664" y1="0" x2="41.916666666666664" y2="5" style="visibility: inherit;" fill="rgb(0, 0, 0)" stroke="rgb(204, 204, 204)" stroke-width="1px"></line><line x1="83.83333333333333" y1="0" x2="83.83333333333333" y2="5" style="visibility: inherit;" fill="rgb(0, 0, 0)" stroke="rgb(204, 204, 204)" stroke-width="1px"></line><line x1="125.75" y1="0" x2="125.75" y2="5" style="visibility: inherit;" fill="rgb(0, 0, 0)" stroke="rgb(204, 204, 204)" stroke-width="1px"></line><line x1="167.66666666666666" y1="0" x2="167.66666666666666" y2="5" style="visibility: inherit;" fill="rgb(0, 0, 0)" stroke="rgb(204, 204, 204)" stroke-width="1px"></line><line x1="209.58333333333334" y1="0" x2="209.58333333333334" y2="5" style="visibility: inherit;" fill="rgb(0, 0, 0)" stroke="rgb(204, 204, 204)" stroke-width="1px"></line><line x1="251.5" y1="0" x2="251.5" y2="5" style="visibility: inherit;" fill="rgb(0, 0, 0)" stroke="rgb(204, 204, 204)" stroke-width="1px"></line><line x1="293.4166666666667" y1="0" x2="293.4166666666667" y2="5" style="visibility: inherit;" fill="rgb(0, 0, 0)" stroke="rgb(204, 204, 204)" stroke-width="1px"></line><line x1="335.3333333333333" y1="0" x2="335.3333333333333" y2="5" style="visibility: inherit;" fill="rgb(0, 0, 0)" stroke="rgb(204, 204, 204)" stroke-width="1px"></line><line x1="377.25" y1="0" x2="377.25" y2="5" style="visibility: inherit;" fill="rgb(0, 0, 0)" stroke="rgb(204, 204, 204)" stroke-width="1px"></line><line x1="419.1666666666667" y1="0" x2="419.1666666666667" y2="5" style="visibility: inherit;" fill="rgb(0, 0, 0)" stroke="rgb(204, 204, 204)" stroke-width="1px"></line><line x1="461.0833333333333" y1="0" x2="461.0833333333333" y2="5" style="visibility: inherit;" fill="rgb(0, 0, 0)" stroke="rgb(204, 204, 204)" stroke-width="1px"></line><line x1="503" y1="0" x2="503" y2="5" style="visibility: inherit;" fill="rgb(0, 0, 0)" stroke="rgb(204, 204, 204)" stroke-width="1px"></line></g><g transform="translate(0, 8)"><text x="0" y="0" dx="0em" dy="0.95em" style="text-anchor: middle; visibility: hidden; font-family: Roboto, sans-serif; font-size: 12px; font-weight: 200;" fill="rgb(33, 33, 33)" stroke="none" stroke-width="1px">-5</text><text x="41.916666666666664" y="0" dx="0em" dy="0.95em" style="text-anchor: middle; visibility: inherit; font-family: Roboto, sans-serif; font-size: 12px; font-weight: 200;" fill="rgb(33, 33, 33)" stroke="none" stroke-width="1px">0</text><text x="83.83333333333333" y="0" dx="0em" dy="0.95em" style="text-anchor: middle; visibility: inherit; font-family: Roboto, sans-serif; font-size: 12px; font-weight: 200;" fill="rgb(33, 33, 33)" stroke="none" stroke-width="1px">5</text><text x="125.75" y="0" dx="0em" dy="0.95em" style="text-anchor: middle; visibility: inherit; font-family: Roboto, sans-serif; font-size: 12px; font-weight: 200;" fill="rgb(33, 33, 33)" stroke="none" stroke-width="1px">10</text><text x="167.66666666666666" y="0" dx="0em" dy="0.95em" style="text-anchor: middle; visibility: inherit; font-family: Roboto, sans-serif; font-size: 12px; font-weight: 200;" fill="rgb(33, 33, 33)" stroke="none" stroke-width="1px">15</text><text x="209.58333333333334" y="0" dx="0em" dy="0.95em" style="text-anchor: middle; visibility: inherit; font-family: Roboto, sans-serif; font-size: 12px; font-weight: 200;" fill="rgb(33, 33, 33)" stroke="none" stroke-width="1px">20</text><text x="251.5" y="0" dx="0em" dy="0.95em" style="text-anchor: middle; visibility: inherit; font-family: Roboto, sans-serif; font-size: 12px; font-weight: 200;" fill="rgb(33, 33, 33)" stroke="none" stroke-width="1px">25</text><text x="293.4166666666667" y="0" dx="0em" dy="0.95em" style="text-anchor: middle; visibility: inherit; font-family: Roboto, sans-serif; font-size: 12px; font-weight: 200;" fill="rgb(33, 33, 33)" stroke="none" stroke-width="1px">30</text><text x="335.3333333333333" y="0" dx="0em" dy="0.95em" style="text-anchor: middle; visibility: inherit; font-family: Roboto, sans-serif; font-size: 12px; font-weight: 200;" fill="rgb(33, 33, 33)" stroke="none" stroke-width="1px">35</text><text x="377.25" y="0" dx="0em" dy="0.95em" style="text-anchor: middle; visibility: inherit; font-family: Roboto, sans-serif; font-size: 12px; font-weight: 200;" fill="rgb(33, 33, 33)" stroke="none" stroke-width="1px">40</text><text x="419.1666666666667" y="0" dx="0em" dy="0.95em" style="text-anchor: middle; visibility: inherit; font-family: Roboto, sans-serif; font-size: 12px; font-weight: 200;" fill="rgb(33, 33, 33)" stroke="none" stroke-width="1px">45</text><text x="461.0833333333333" y="0" dx="0em" dy="0.95em" style="text-anchor: middle; visibility: inherit; font-family: Roboto, sans-serif; font-size: 12px; font-weight: 200;" fill="rgb(33, 33, 33)" stroke="none" stroke-width="1px">50</text><text x="503" y="0" dx="0em" dy="0.95em" style="text-anchor: middle; visibility: hidden; font-family: Roboto, sans-serif; font-size: 12px; font-weight: 200;" fill="rgb(33, 33, 33)" stroke="none" stroke-width="1px">55</text></g><line x1="0" y1="0" x2="503" y2="0" fill="rgb(0, 0, 0)" stroke="rgb(204, 204, 204)" stroke-width="1px"></line></g></g></g></g></svg>