<svg viewBox="0 0 553 400" xmlns="http://www.w3.org/2000/svg"><g><g><g><g><g><line x1="50" y1="377" x2="45" y2="377" style="visibility: inherit;" fill="rgb(0, 0, 0)" stroke="rgb(204, 204, 204)" stroke-width="1px"></line><line x1="50" y1="329.875" x2="45" y2="329.875" style="visibility: inherit;" fill="rgb(0, 0, 0)" stroke="rgb(204, 204, 204)" stroke-width="1px"></line><line x1="50" y1="282.75" x2="45" y2="282.75" style="visibility: inherit;" fill="rgb(0, 0, 0)" stroke="rgb(204, 204, 204)" stroke-width="1px"></line><line x1="50" y1="235.625" x2="45" y2="235.625" style="visibility: inherit;" fill="rgb(0, 0, 0)" stroke="rgb(204, 204, 204)" stroke-width="1px"></line><line x1="50" y1="188.5" x2="45" y2="188.5" style="visibility: inherit;" fill="rgb(0, 0, 0)" stroke="rgb(204, 204, 204)" stroke-width="1px"></line><line x1="50" y1="141.375" x2="45" y2="141.375" style="visibility: inherit;" fill="rgb(0, 0, 0)" stroke="rgb(204, 204, 204)" stroke-width="1px"></line><line x1="50" y1="94.25" x2="45" y2="94.25" style="visibility: inherit;" fill="rgb(0, 0, 0)" stroke="rgb(204, 204, 204)" stroke-width="1px"></line><line x1="50" y1="47.125" x2="45" y2="47.125" style="visibility: inherit;" fill="rgb(0, 0, 0)" stroke="rgb(204, 204, 204)" stroke-width="1px"></line><line x1="50" y1="0" x2="45" y2="0" style="visibility: inherit;" fill="rgb(0, 0, 0)" stroke="rgb(204, 204, 204)" stroke-width="1px"></line></g><g transform="translate(40, 0)"><text x="0" y="377" dx="0em" dy="0.3em" style="text-anchor: end; visibility: hidden; font-family: Roboto, sans-serif; font-size: 12px; font-weight: 200;" fill="rgb(33, 33, 33)" stroke="none" stroke-width="1px">-0.5</text><text x="0" y="329.875" dx="0em" dy="0.3em" style="text-anchor: end; visibility: inherit; font-family: Roboto, sans-serif; font-size: 12px; font-weight: 200;" fill="rgb(33, 33, 33)" stroke="none" stroke-width="1px">0</text><text x="0" y="282.75" dx="0em" dy="0.3em" style="text-anchor: end; visibility: inherit; font-family: Roboto, sans-serif; font-size: 12px; font-weight: 200;" fill="rgb(33, 33, 33)" stroke="none" stroke-width="1px">0.5</text><text x="0" y="235.625" dx="0em" dy="0.3em" style="text-anchor: end; visibility: inherit; font-family: Roboto, sans-serif; font-size: 12px; font-weight: 200;" fill="rgb(33, 33, 33)" stroke="none" stroke-width="1px">1</text><text x="0" y="188.5" dx="0em" dy="0.3em" style="text-anchor: end; visibility: inherit; font-family: Roboto, sans-serif; font-size: 12px; font-weight: 200;" fill="rgb(33, 33, 33)" stroke="none" stroke-width="1px">1.5</text><text x="0" y="141.375" dx="0em" dy="0.3em" style="text-anchor: end; visibility: inherit; font-family: Roboto, sans-serif; font-size: 12px; font-weight: 200;" fill="rgb(33, 33, 33)" stroke="none" stroke-width="1px">2</text><text x="0" y="94.25" dx="0em" dy="0.3em" style="text-anchor: end; visibility: inherit; font-family: Roboto, sans-serif; font-size: 12px; font-weight: 200;" fill="rgb(33, 33, 33)" stroke="none" stroke-width="1px">2.5</text><text x="0" y="47.125" dx="0em" dy="0.3em" style="text-anchor: end; visibility: inherit; font-family: Roboto, sans-serif; font-size: 12px; font-weight: 200;" fill="rgb(33, 33, 33)" stroke="none" stroke-width="1px">3</text><text x="0" y="0" dx="0em" dy="0.3em" style="text-anchor: end; visibility: hidden; font-family: Roboto, sans-serif; font-size: 12px; font-weight: 200;" fill="rgb(33, 33, 33)" stroke="none" stroke-width="1px">3.5</text></g><line x1="50" y1="0" x2="50" y2="377" fill="rgb(0, 0, 0)" stroke="rgb(204, 204, 204)" stroke-width="1px"></line></g></g><g transform="translate(50, 0)" clip-path="url(#clip_0)"><clipPath id="clip_0"><rect width="503" height="377"></rect></clipPath><g><g><g><line x1="0" y1="0" x2="0" y2="377" fill="rgb(0, 0, 0)" stroke="rgb(66, 66, 66)" stroke-width="1px" opacity="0.25"></line><line x1="41.916666666666664" y1="0" x2="41.916666666666664" y2="377" fill="rgb(0, 0, 0)" stroke="rgb(66, 66, 66)" stroke-width="1px" opacity="0.25"></line><line x1="83.83333333333333" y1="0" x2="83.83333333333333" y2="377" fill="rgb(0, 0, 0)" stroke="rgb(66, 66, 66)" stroke-width="1px" opacity="0.25"></line><line x1="125.75" y1="0" x2="125.75" y2="377" fill="rgb(0, 0, 0)" stroke="rgb(66, 66, 66)" stroke-width="1px" opacity="0.25"></line><line x1="167.66666666666666" y1="0" x2="167.66666666666666" y2="377" fill="rgb(0, 0, 0)" stroke="rgb(66, 66, 66)" stroke-width="1px" opacity="0.25"></line><line x1="209.58333333333334" y1="0" x2="209.58333333333334" y2="377" fill="rgb(0, 0, 0)" stroke="rgb(66, 66, 66)" stroke-width="1px" opacity="0.25"></line><line x1="251.5" y1="0" x2="251.5" y2="377" fill="rgb(0, 0, 0)" stroke="rgb(66, 66, 66)" stroke-width="1px" opacity="0.25"></line><line x1="293.4166666666667" y1="0" x2="293.4166666666667" y2="377" fill="rgb(0, 0, 0)" stroke="rgb(66, 66, 66)" stroke-width="1px" opacity="0.25"></line><line x1="335.3333333333333" y1="0" x2="335.3333333333333" y2="377" fill="rgb(0, 0, 0)" stroke="rgb(66, 66, 66)" stroke-width="1px" opacity="0.25"></line><line x1="377.25" y1="0" x2="377.25" y2="377" fill="rgb(0, 0, 0)" stroke="rgb(66, 66, 66)" stroke-width="1px" opacity="0.25"></line><line x1="419.1666666666667" y1="0" x2="419.1666666666667" y2="377" fill="rgb(0, 0, 0)" stroke="rgb(66, 66, 66)" stroke-width="1px" opacity="0.25"></line><line x1="461.0833333333333" y1="0" x2="461.0833333333333" y2="377" fill="rgb(0, 0, 0)" stroke="rgb(66, 66, 66)" stroke-width="1px" opacity="0.25"></line><line x1="503" y1="0" x2="503" y2="377" fill="rgb(0, 0, 0)" stroke="rgb(66, 66, 66)" stroke-width="1px" opacity="0.25"></line></g><g><line x1="0" y1="377" x2="503" y2="377" fill="rgb(0, 0, 0)" stroke="rgb(66, 66, 66)" stroke-width="1px" opacity="0.25"></line><line x1="0" y1="329.875" x2="503" y2="329.875" fill="rgb(0, 0, 0)" stroke="rgb(66, 66, 66)" stroke-width="1px" opacity="0.25"></line><line x1="0" y1="282.75" x2="503" y2="282.75" fill="rgb(0, 0, 0)" stroke="rgb(66, 66, 66)" stroke-width="1px" opacity="0.25"></line><line x1="0" y1="235.625" x2="503" y2="235.625" fill="rgb(0, 0, 0)" stroke="rgb(66, 66, 66)" stroke-width="1px" opacity="0.25"></line><line x1="0" y1="188.5" x2="503" y2="188.5" fill="rgb(0, 0, 0)" stroke="rgb(66, 66, 66)" stroke-width="1px" opacity="0.25"></line><line x1="0" y1="141.375" x2="503" y2="141.375" fill="rgb(0, 0, 0)" stroke="rgb(66, 66, 66)" stroke-width="1px" opacity="0.25"></line><line x1="0" y1="94.25" x2="503" y2="94.25" fill="rgb(0, 0, 0)" stroke="rgb(66, 66, 66)" stroke-width="1px" opacity="0.25"></line><line x1="0" y1="47.125" x2="503" y2="47.125" fill="rgb(0, 0, 0)" stroke="rgb(66, 66, 66)" stroke-width="1px" opacity="0.25"></line><line x1="0" y1="0" x2="503" y2="0" fill="rgb(0, 0, 0)" stroke="rgb(66, 66, 66)" stroke-width="1px" opacity="0.25"></line></g></g></g><g><g><line x1="0" y1="329.875" x2="503" y2="329.875" fill="rgb(0, 0, 0)" stroke="rgb(153, 153, 153)" stroke-width="1.5px"></line></g></g><g><g><line x1="41.916666666666664" y1="0" x2="41.916666666666664" y2="377" fill="rgb(0, 0, 0)" stroke="rgb(153, 153, 153)" stroke-width="1.5px"></line></g></g><g><g><g><g><g><path stroke="rgb(0, 119, 187)" stroke-width="2px" d="M41.916666666666664,-19.64109432697296L50.300000000000004,15.311505168632996L58.68333333333334,38.892869544566466L67.06666666666666,55.28155608950886L75.45,66.69233926975429L83.83333333333333,74.60212500283025L92.21666666666665,80.0348141597815L100.60000000000001,83.74007802202104L108.98333333333333,86.22955021929057L117.36666666666667,87.84684579789825L125.75,88.82913040833998L134.13333333333333,89.34528782058014L142.51666666666665,89.5163971410652L150.9,89.43049547298814L159.28333333333333,89.15309923753223L167.66666666666666,88.734270495171L176.04999999999998,88.21251031839995L184.4333333333333,87.61732586619685L192.8166666666667,86.97103440918438L201.20000000000002,86.29026796573986L209.58333333333334,85.5872675101552L217.96666666666667,84.87112661562468L226.35,84.14859418102621L234.73333333333335,83.42469818785374L243.11666666666667,82.70328845540735L251.5,81.9871833640386L259.8833333333334,81.2784357319007L268.26666666666665,80.57853072057078L276.65000000000003,79.88838951767998L285.0333333333333,79.20865205052569L293.4166666666667,78.53965611962504L301.8,77.8814858619253L310.18333333333334,77.23413054419868L318.56666666666666,76.59740328361808L326.95,75.97109351785244L335.3333333333333,75.35491149435927L343.7166666666667,74.74852377664172L352.09999999999997,74.15162279084997L360.48333333333335,73.56382623487217L368.8666666666666,72.98482232593388L377.25,72.41428345504681L385.6333333333334,71.85186202740339L394.01666666666665,71.29728737439177L402.40000000000003,70.75026133053585L410.7833333333333,70.2105317137938L419.1666666666667,69.67782133948214L427.55,69.1519140060062L435.93333333333334,68.6325319185543L444.31666666666666,68.11950084778996L452.7,67.61261496378766" style="fill: none;" fill="none"></path></g><g><path stroke="rgb(255, 112, 67)" stroke-width="2px" d="M41.916666666666664,-85.43949961662292L50.300000000000004,2.9652124079380613L58.68333333333334,65.26147434332533L67.06666666666666,110.4703868720709L75.45,145.09922987805214L83.83333333333333,172.28210789955725L92.21666666666665,194.02727650579982L100.60000000000001,211.69907345170293L108.98333333333333,226.2580353262877L117.36666666666667,238.4012058244408L125.75,248.63580063361175L134.13333333333333,257.3374980870026L142.51666666666665,264.79059389317894L150.9,271.21523424615634L159.28333333333333,276.78550517540526L167.66666666666666,281.64111520679154L176.04999999999998,285.8951891463336L184.4333333333333,289.63999505406235L192.8166666666667,292.9512567364995L201.20000000000002,295.89150883839L209.58333333333334,298.51261931986494L217.96666666666667,300.85776498346945L226.35,302.9630283865918L234.73333333333335,304.8587353494627L243.11666666666667,306.5705380756898L251.5,308.1202993898659L259.8833333333334,309.5267803877526L268.26666666666665,310.80617104113145L276.65000000000003,311.97251459222707L285.0333333333333,313.03803595817715L293.4166666666667,314.01342280597567L301.8,314.9080449673759L310.18333333333334,315.7301499137632L318.56666666666666,316.48701147289006L326.95,317.1850724873547L335.3333333333333,317.8300456443746L343.7166666666667,318.4270061346186L352.09999999999997,318.9804786175805L360.48333333333335,319.4944943635552L368.8666666666666,319.97265262724426L377.25,320.41817305387906L385.6333333333334,320.8339346209819L394.01666666666665,321.22251701745125L402.40000000000003,321.58623721956343L410.7833333333333,321.92717416009594L419.1666666666667,322.247200813155L427.55,322.5480036668966L435.93333333333334,322.8311053919035L444.31666666666666,323.097882550506L452.7,323.349582770179" style="fill: none;" fill="none"></path></g></g></g></g><g opacity="0.2"><g><g><g><path stroke="rgb(0, 119, 187)" stroke-width="2px" d="M41.916666666666664,-19.64109432697296L50.300000000000004,28.383777379989624L58.68333333333334,51.01076674461365L67.06666666666666,64.56066036224365L75.45,73.37626165151596L83.83333333333333,79.29320013523102L92.21666666666665,83.271659553051L100.60000000000001,85.95150023698807L108.98333333333333,87.71630132198334L117.36666666666667,88.8129511475563L125.75,89.41595911979675L134.13333333333333,89.6536568403244L142.51666666666665,89.61862462759018L150.9,89.37917417287827L159.28333333333333,88.98737066984177L167.66666666666666,88.48404383659363L176.04999999999998,87.90078783035278L184.4333333333333,87.2617364525795L192.8166666666667,86.58491140604019L201.20000000000002,85.88354808092117L209.58333333333334,85.16726404428482L217.96666666666667,84.44327247142792L226.35,83.71692144870758L234.73333333333335,82.99221080541611L243.11666666666667,82.27228647470474L251.5,81.55935060977936L259.8833333333334,80.85499864816666L268.26666666666665,80.16037660837173L276.65000000000003,79.47606873512268L285.0333333333333,78.80254691839218L293.4166666666667,78.1399684548378L301.8,77.48826593160629L310.18333333333334,76.84737193584442L318.56666666666666,76.21699434518814L326.95,75.59690845012665L335.3333333333333,74.98677718639374L343.7166666666667,74.38624101877213L352.09999999999997,73.79500782489777L360.48333333333335,73.21265065670013L368.8666666666666,72.63889986276627L377.25,72.07341837882996L385.6333333333334,71.51584666967392L394.01666666666665,70.96596002578735L402.40000000000003,70.42344385385513L410.7833333333333,69.88807344436646L419.1666666666667,69.35955667495728L427.55,68.83771377801895L435.93333333333334,68.32223016023636L444.31666666666666,67.8129934668541L452.7,67.30977898836136" style="fill: none;" fill="none"></path></g><g><path stroke="rgb(255, 112, 67)" stroke-width="2px" d="M41.916666666666664,-85.43949961662292L50.300000000000004,36.0285747051239L58.68333333333334,97.27402824163437L67.06666666666666,136.06720405817032L75.45,165.3832450211048L83.83333333333333,188.40352097153664L92.21666666666665,206.98324486613274L100.60000000000001,222.2461777329445L108.98333333333333,234.95287138223648L117.36666666666667,245.65503260493279L125.75,254.75007140636444L134.13333333333333,262.53617168962955L142.51666666666665,269.2433685809374L150.9,275.0535869002342L159.28333333333333,280.1134271323681L167.66666666666666,284.54206958413124L176.04999999999998,288.43676010519266L184.4333333333333,291.877307087183L192.8166666666667,294.9295504167676L201.20000000000002,297.64814506471157L209.58333333333334,300.0785862803459L217.96666666666667,302.25885839760303L226.35,304.2208055630326L234.73333333333335,305.9913142696023L243.11666666666667,307.59324449673295L251.5,309.04619512706995L259.8833333333334,310.3670741468668L268.26666666666665,311.57053542509675L276.65000000000003,312.66933965310454L285.0333333333333,313.6746254004538L293.4166666666667,314.5961619131267L301.8,315.4425316900015L310.18333333333334,316.22131165489554L318.56666666666666,316.9391939379275L326.95,317.60212491452694L335.3333333333333,318.21538104489446L343.7166666666667,318.78365665115416L352.09999999999997,319.3111474812031L360.48333333333335,319.80159003287554L368.8666666666666,320.2583254557103L377.25,320.68434659950435L385.6333333333334,321.0823289118707L394.01666666666665,321.4546732734889L402.40000000000003,321.80353970453143L410.7833333333333,322.1308649200946L419.1666666666667,322.4383988454938L427.55,322.72771655395627L435.93333333333334,323.000242844224L444.31666666666666,323.25726698711514L452.7,323.4999595787376" style="fill: none;" fill="none"></path></g></g></g></g></g><g><g opacity="0.0235728"><span fill="rgb(0, 0, 0)" stroke="none" stroke-width="1px">Alt + Scroll to Zoom</span></g></g></g><g transform="translate(50, 377)" clip-path="url(#clip_1)"><clipPath id="clip_1"><rect width="503" height="23"></rect></clipPath><g><g><line x1="0" y1="0" x2="0" y2="5" style="visibility: inherit;" fill="rgb(0, 0, 0)" stroke="rgb(204, 204, 204)" stroke-width="1px"></line><line x1="41.916666666666664" y1="0" x2="41.916666666666664" y2="5" style="visibility: inherit;" fill="rgb(0, 0, 0)" stroke="rgb(204, 204, 204)" stroke-width="1px"></line><line x1="83.83333333333333" y1="0" x2="83.83333333333333" y2="5" style="visibility: inherit;" fill="rgb(0, 0, 0)" stroke="rgb(204, 204, 204)" stroke-width="1px"></line><line x1="125.75" y1="0" x2="125.75" y2="5" style="visibility: inherit;" fill="rgb(0, 0, 0)" stroke="rgb(204, 204, 204)" stroke-width="1px"></line><line x1="167.66666666666666" y1="0" x2="167.66666666666666" y2="5" style="visibility: inherit;" fill="rgb(0, 0, 0)" stroke="rgb(204, 204, 204)" stroke-width="1px"></line><line x1="209.58333333333334" y1="0" x2="209.58333333333334" y2="5" style="visibility: inherit;" fill="rgb(0, 0, 0)" stroke="rgb(204, 204, 204)" stroke-width="1px"></line><line x1="251.5" y1="0" x2="251.5" y2="5" style="visibility: inherit;" fill="rgb(0, 0, 0)" stroke="rgb(204, 204, 204)" stroke-width="1px"></line><line x1="293.4166666666667" y1="0" x2="293.4166666666667" y2="5" style="visibility: inherit;" fill="rgb(0, 0, 0)" stroke="rgb(204, 204, 204)" stroke-width="1px"></line><line x1="335.3333333333333" y1="0" x2="335.3333333333333" y2="5" style="visibility: inherit;" fill="rgb(0, 0, 0)" stroke="rgb(204, 204, 204)" stroke-width="1px"></line><line x1="377.25" y1="0" x2="377.25" y2="5" style="visibility: inherit;" fill="rgb(0, 0, 0)" stroke="rgb(204, 204, 204)" stroke-width="1px"></line><line x1="419.1666666666667" y1="0" x2="419.1666666666667" y2="5" style="visibility: inherit;" fill="rgb(0, 0, 0)" stroke="rgb(204, 204, 204)" stroke-width="1px"></line><line x1="461.0833333333333" y1="0" x2="461.0833333333333" y2="5" style="visibility: inherit;" fill="rgb(0, 0, 0)" stroke="rgb(204, 204, 204)" stroke-width="1px"></line><line x1="503" y1="0" x2="503" y2="5" style="visibility: inherit;" fill="rgb(0, 0, 0)" stroke="rgb(204, 204, 204)" stroke-width="1px"></line></g><g transform="translate(0, 8)"><text x="0" y="0" dx="0em" dy="0.95em" style="text-anchor: middle; visibility: hidden; font-family: Roboto, sans-serif; font-size: 12px; font-weight: 200;" fill="rgb(33, 33, 33)" stroke="none" stroke-width="1px">-5</text><text x="41.916666666666664" y="0" dx="0em" dy="0.95em" style="text-anchor: middle; visibility: inherit; font-family: Roboto, sans-serif; font-size: 12px; font-weight: 200;" fill="rgb(33, 33, 33)" stroke="none" stroke-width="1px">0</text><text x="83.83333333333333" y="0" dx="0em" dy="0.95em" style="text-anchor: middle; visibility: inherit; font-family: Roboto, sans-serif; font-size: 12px; font-weight: 200;" fill="rgb(33, 33, 33)" stroke="none" stroke-width="1px">5</text><text x="125.75" y="0" dx="0em" dy="0.95em" style="text-anchor: middle; visibility: inherit; font-family: Roboto, sans-serif; font-size: 12px; font-weight: 200;" fill="rgb(33, 33, 33)" stroke="none" stroke-width="1px">10</text><text x="167.66666666666666" y="0" dx="0em" dy="0.95em" style="text-anchor: middle; visibility: inherit; font-family: Roboto, sans-serif; font-size: 12px; font-weight: 200;" fill="rgb(33, 33, 33)" stroke="none" stroke-width="1px">15</text><text x="209.58333333333334" y="0" dx="0em" dy="0.95em" style="text-anchor: middle; visibility: inherit; font-family: Roboto, sans-serif; font-size: 12px; font-weight: 200;" fill="rgb(33, 33, 33)" stroke="none" stroke-width="1px">20</text><text x="251.5" y="0" dx="0em" dy="0.95em" style="text-anchor: middle; visibility: inherit; font-family: Roboto, sans-serif; font-size: 12px; font-weight: 200;" fill="rgb(33, 33, 33)" stroke="none" stroke-width="1px">25</text><text x="293.4166666666667" y="0" dx="0em" dy="0.95em" style="text-anchor: middle; visibility: inherit; font-family: Roboto, sans-serif; font-size: 12px; font-weight: 200;" fill="rgb(33, 33, 33)" stroke="none" stroke-width="1px">30</text><text x="335.3333333333333" y="0" dx="0em" dy="0.95em" style="text-anchor: middle; visibility: inherit; font-family: Roboto, sans-serif; font-size: 12px; font-weight: 200;" fill="rgb(33, 33, 33)" stroke="none" stroke-width="1px">35</text><text x="377.25" y="0" dx="0em" dy="0.95em" style="text-anchor: middle; visibility: inherit; font-family: Roboto, sans-serif; font-size: 12px; font-weight: 200;" fill="rgb(33, 33, 33)" stroke="none" stroke-width="1px">40</text><text x="419.1666666666667" y="0" dx="0em" dy="0.95em" style="text-anchor: middle; visibility: inherit; font-family: Roboto, sans-serif; font-size: 12px; font-weight: 200;" fill="rgb(33, 33, 33)" stroke="none" stroke-width="1px">45</text><text x="461.0833333333333" y="0" dx="0em" dy="0.95em" style="text-anchor: middle; visibility: inherit; font-family: Roboto, sans-serif; font-size: 12px; font-weight: 200;" fill="rgb(33, 33, 33)" stroke="none" stroke-width="1px">50</text><text x="503" y="0" dx="0em" dy="0.95em" style="text-anchor: middle; visibility: hidden; font-family: Roboto, sans-serif; font-size: 12px; font-weight: 200;" fill="rgb(33, 33, 33)" stroke="none" stroke-width="1px">55</text></g><line x1="0" y1="0" x2="503" y2="0" fill="rgb(0, 0, 0)" stroke="rgb(204, 204, 204)" stroke-width="1px"></line></g></g></g></g></svg>