<svg viewBox="0 0 651.5714721679688 400.0000305175781" xmlns="http://www.w3.org/2000/svg"><g><g><g><g><g><line x1="50" y1="377" x2="45" y2="377" style="visibility: inherit;" fill="rgb(0, 0, 0)" stroke="rgb(204, 204, 204)" stroke-width="1px"></line><line x1="50" y1="323.1428571428571" x2="45" y2="323.1428571428571" style="visibility: inherit;" fill="rgb(0, 0, 0)" stroke="rgb(204, 204, 204)" stroke-width="1px"></line><line x1="50" y1="269.2857142857142" x2="45" y2="269.2857142857142" style="visibility: inherit;" fill="rgb(0, 0, 0)" stroke="rgb(204, 204, 204)" stroke-width="1px"></line><line x1="50" y1="215.42857142857142" x2="45" y2="215.42857142857142" style="visibility: inherit;" fill="rgb(0, 0, 0)" stroke="rgb(204, 204, 204)" stroke-width="1px"></line><line x1="50" y1="161.57142857142856" x2="45" y2="161.57142857142856" style="visibility: inherit;" fill="rgb(0, 0, 0)" stroke="rgb(204, 204, 204)" stroke-width="1px"></line><line x1="50" y1="107.7142857142858" x2="45" y2="107.7142857142858" style="visibility: inherit;" fill="rgb(0, 0, 0)" stroke="rgb(204, 204, 204)" stroke-width="1px"></line><line x1="50" y1="53.857142857142875" x2="45" y2="53.857142857142875" style="visibility: inherit;" fill="rgb(0, 0, 0)" stroke="rgb(204, 204, 204)" stroke-width="1px"></line><line x1="50" y1="0" x2="45" y2="0" style="visibility: inherit;" fill="rgb(0, 0, 0)" stroke="rgb(204, 204, 204)" stroke-width="1px"></line></g><g transform="translate(40, 0)"><text x="0" y="377" dx="0em" dy="0.3em" style="text-anchor: end; visibility: hidden; font-family: Roboto, sans-serif; font-size: 12px; font-weight: 200;" fill="rgb(33, 33, 33)" stroke="none" stroke-width="1px">0.7</text><text x="0" y="323.1428571428571" dx="0em" dy="0.3em" style="text-anchor: end; visibility: inherit; font-family: Roboto, sans-serif; font-size: 12px; font-weight: 200;" fill="rgb(33, 33, 33)" stroke="none" stroke-width="1px">0.75</text><text x="0" y="269.2857142857142" dx="0em" dy="0.3em" style="text-anchor: end; visibility: inherit; font-family: Roboto, sans-serif; font-size: 12px; font-weight: 200;" fill="rgb(33, 33, 33)" stroke="none" stroke-width="1px">0.8</text><text x="0" y="215.42857142857142" dx="0em" dy="0.3em" style="text-anchor: end; visibility: inherit; font-family: Roboto, sans-serif; font-size: 12px; font-weight: 200;" fill="rgb(33, 33, 33)" stroke="none" stroke-width="1px">0.85</text><text x="0" y="161.57142857142856" dx="0em" dy="0.3em" style="text-anchor: end; visibility: inherit; font-family: Roboto, sans-serif; font-size: 12px; font-weight: 200;" fill="rgb(33, 33, 33)" stroke="none" stroke-width="1px">0.9</text><text x="0" y="107.7142857142858" dx="0em" dy="0.3em" style="text-anchor: end; visibility: inherit; font-family: Roboto, sans-serif; font-size: 12px; font-weight: 200;" fill="rgb(33, 33, 33)" stroke="none" stroke-width="1px">0.95</text><text x="0" y="53.857142857142875" dx="0em" dy="0.3em" style="text-anchor: end; visibility: inherit; font-family: Roboto, sans-serif; font-size: 12px; font-weight: 200;" fill="rgb(33, 33, 33)" stroke="none" stroke-width="1px">1</text><text x="0" y="0" dx="0em" dy="0.3em" style="text-anchor: end; visibility: hidden; font-family: Roboto, sans-serif; font-size: 12px; font-weight: 200;" fill="rgb(33, 33, 33)" stroke="none" stroke-width="1px">1.05</text></g><line x1="50" y1="0" x2="50" y2="377" fill="rgb(0, 0, 0)" stroke="rgb(204, 204, 204)" stroke-width="1px"></line></g></g><g transform="translate(50, 0)" clip-path="url(#clip_0)"><clipPath id="clip_0"><rect width="601" height="377"></rect></clipPath><g><g><g><line x1="0" y1="0" x2="0" y2="377" fill="rgb(0, 0, 0)" stroke="rgb(66, 66, 66)" stroke-width="1px" opacity="0.25"></line><line x1="50.130916666666664" y1="0" x2="50.130916666666664" y2="377" fill="rgb(0, 0, 0)" stroke="rgb(66, 66, 66)" stroke-width="1px" opacity="0.25"></line><line x1="100.26183333333333" y1="0" x2="100.26183333333333" y2="377" fill="rgb(0, 0, 0)" stroke="rgb(66, 66, 66)" stroke-width="1px" opacity="0.25"></line><line x1="150.39275" y1="0" x2="150.39275" y2="377" fill="rgb(0, 0, 0)" stroke="rgb(66, 66, 66)" stroke-width="1px" opacity="0.25"></line><line x1="200.52366666666666" y1="0" x2="200.52366666666666" y2="377" fill="rgb(0, 0, 0)" stroke="rgb(66, 66, 66)" stroke-width="1px" opacity="0.25"></line><line x1="250.65458333333336" y1="0" x2="250.65458333333336" y2="377" fill="rgb(0, 0, 0)" stroke="rgb(66, 66, 66)" stroke-width="1px" opacity="0.25"></line><line x1="300.7855" y1="0" x2="300.7855" y2="377" fill="rgb(0, 0, 0)" stroke="rgb(66, 66, 66)" stroke-width="1px" opacity="0.25"></line><line x1="350.9164166666667" y1="0" x2="350.9164166666667" y2="377" fill="rgb(0, 0, 0)" stroke="rgb(66, 66, 66)" stroke-width="1px" opacity="0.25"></line><line x1="401.0473333333333" y1="0" x2="401.0473333333333" y2="377" fill="rgb(0, 0, 0)" stroke="rgb(66, 66, 66)" stroke-width="1px" opacity="0.25"></line><line x1="451.17825000000005" y1="0" x2="451.17825000000005" y2="377" fill="rgb(0, 0, 0)" stroke="rgb(66, 66, 66)" stroke-width="1px" opacity="0.25"></line><line x1="501.3091666666667" y1="0" x2="501.3091666666667" y2="377" fill="rgb(0, 0, 0)" stroke="rgb(66, 66, 66)" stroke-width="1px" opacity="0.25"></line><line x1="551.4400833333333" y1="0" x2="551.4400833333333" y2="377" fill="rgb(0, 0, 0)" stroke="rgb(66, 66, 66)" stroke-width="1px" opacity="0.25"></line><line x1="601.571" y1="0" x2="601.571" y2="377" fill="rgb(0, 0, 0)" stroke="rgb(66, 66, 66)" stroke-width="1px" opacity="0.25"></line></g><g><line x1="0" y1="377" x2="601.571" y2="377" fill="rgb(0, 0, 0)" stroke="rgb(66, 66, 66)" stroke-width="1px" opacity="0.25"></line><line x1="0" y1="323.1428571428571" x2="601.571" y2="323.1428571428571" fill="rgb(0, 0, 0)" stroke="rgb(66, 66, 66)" stroke-width="1px" opacity="0.25"></line><line x1="0" y1="269.2857142857142" x2="601.571" y2="269.2857142857142" fill="rgb(0, 0, 0)" stroke="rgb(66, 66, 66)" stroke-width="1px" opacity="0.25"></line><line x1="0" y1="215.42857142857142" x2="601.571" y2="215.42857142857142" fill="rgb(0, 0, 0)" stroke="rgb(66, 66, 66)" stroke-width="1px" opacity="0.25"></line><line x1="0" y1="161.57142857142856" x2="601.571" y2="161.57142857142856" fill="rgb(0, 0, 0)" stroke="rgb(66, 66, 66)" stroke-width="1px" opacity="0.25"></line><line x1="0" y1="107.7142857142858" x2="601.571" y2="107.7142857142858" fill="rgb(0, 0, 0)" stroke="rgb(66, 66, 66)" stroke-width="1px" opacity="0.25"></line><line x1="0" y1="53.857142857142875" x2="601.571" y2="53.857142857142875" fill="rgb(0, 0, 0)" stroke="rgb(66, 66, 66)" stroke-width="1px" opacity="0.25"></line><line x1="0" y1="0" x2="601.571" y2="0" fill="rgb(0, 0, 0)" stroke="rgb(66, 66, 66)" stroke-width="1px" opacity="0.25"></line></g></g></g><g><g><line x1="0" y1="1130.9999999999998" x2="601.571" y2="1130.9999999999998" fill="rgb(0, 0, 0)" stroke="rgb(153, 153, 153)" stroke-width="1.5px"></line></g></g><g><g><line x1="50.130916666666664" y1="0" x2="50.130916666666664" y2="377" fill="rgb(0, 0, 0)" stroke="rgb(153, 153, 153)" stroke-width="1.5px"></line></g></g><g><g><g><g><g><path stroke="rgb(0, 119, 187)" stroke-width="2px" d="M60.15710000000001,391.684193521738L70.18328333333334,348.66637883102936L80.20946666666667,314.0428560378671L90.23565,288.6061093874583L100.26183333333333,269.72015672530216L110.28801666666666,254.20547592529465L120.31420000000001,242.13234408045045L130.34038333333334,234.28591213294334L140.36656666666667,226.61489030558397L150.39275,220.21978114863322L160.41893333333334,214.66896379612328L170.44511666666668,209.80089334772669L180.4713,204.52189789332166L190.49748333333332,199.72229319671786L200.52366666666666,195.66344200245862L210.54985,192.32088412540128L220.57603333333333,188.59066613685266L230.6022166666667,185.44487038764066L240.62840000000003,183.46672966391793L250.65458333333336,181.73518371461836L260.68076666666667,180.15157743199376L270.70695,178.56594348733285L280.73313333333334,177.43300498974318L290.7593166666667,176.48089662551897L300.7855,175.09258816437506L310.8116833333334,173.80569092693963L320.8378666666667,172.6704226349856L330.86405,171.89847943018287L340.89023333333336,171.34450534580816L350.9164166666667,170.55820770153204L360.9426,170.35877713048583L370.96878333333336,169.9667708579175L380.99496666666664,169.55000181642572L391.02115000000003,168.93680982347246L401.0473333333333,168.3873293478451L411.0735166666667,168.14842370902207L421.0997,167.46038447046493L431.1258833333334,166.8659956438323L441.15206666666666,166.32779706372847L451.17825000000005,165.36939941906542L461.2044333333334,164.43123026312676L471.23061666666666,163.95911141224332L481.25680000000006,163.49427481704006L491.28298333333333,163.21537285996962L501.3091666666667,163.1388143281161L511.33535,163.18366185137484L521.3615333333333,163.39213565006207L531.3877166666666,163.4264372869058L541.4139,163.26545298428113" style="fill: none;" fill="none"></path></g><g><path stroke="rgb(255, 112, 67)" stroke-width="2px" d="M60.15710000000001,461.3789116548639L70.18328333333334,355.634434049053L80.20946666666667,284.7334817482018L90.23565,232.19806983543708L100.26183333333333,192.70367178640763L110.28801666666666,161.9790961073491L120.31420000000001,137.92502574661546L130.34038333333334,119.41227811990673L140.36656666666667,104.64416456562226L150.39275,92.8370636484405L160.41893333333334,83.77327217010543L170.44511666666668,76.47759283455967L180.4713,71.00285756026337L190.49748333333332,66.52762412292027L200.52366666666666,63.39366875713255L210.54985,60.74869237455951L220.57603333333333,58.64438959297919L230.6022166666667,57.0669212998477L240.62840000000003,55.94047084421005L250.65458333333336,55.19713555262959L260.68076666666667,54.72864788570911L270.70695,54.402539931077L280.73313333333334,54.18438006777873L290.7593166666667,54.05348481138528L300.7855,53.974947895718806L310.8116833333334,53.92782583205937L320.8378666666667,53.899552624730454L330.86405,53.88258871144503L340.89023333333336,53.872410367473925L350.9164166666667,53.866303362531504L360.9426,53.86263916008447L370.96878333333336,53.86044063880278L380.99496666666664,53.85912152610102L391.02115000000003,53.8583300585043L401.0473333333333,53.85785517795484L411.0735166666667,53.85757024962818L421.0997,53.85739929263349L431.1258833333334,53.857296718437084L441.15206666666666,53.857235173919236L451.17825000000005,53.85719824720863L461.2044333333334,53.85717609118233L471.23061666666666,53.857162797566545L481.25680000000006,53.85715482139708L491.28298333333333,53.85715003569539L501.3091666666667,53.85714716427447L511.33535,53.857145441421835L521.3615333333333,53.8571444077102L531.3877166666666,53.857143787483245L541.4139,53.85714341534706" style="fill: none;" fill="none"></path></g></g></g></g><g opacity="0.2"><g><g><g><path stroke="rgb(0, 119, 187)" stroke-width="2px" d="M50.130916666666664,450.1258806841713L60.15710000000001,356.619181224278L70.18328333333334,307.3692767279489L80.20946666666667,273.3255932331085L90.23565,255.3958929606846L100.26183333333333,243.59408525058203L110.28801666666666,232.01923414639063L120.31420000000001,224.52960194860182L130.34038333333334,222.71394910131178L140.36656666666667,215.22431690352306L150.39275,210.68512058258057L160.41893333333334,206.37294507026672L170.44511666666668,202.5146827697754L180.4713,196.61374681336537L190.49748333333332,192.52852790696278L200.52366666666666,189.57802782739913L210.54985,187.30846176828658L220.57603333333333,182.99628625597273L230.6022166666667,180.72665599414282L240.62840000000003,180.49969938823156L250.65458333333336,179.13795975276403L260.68076666666667,177.7762201172965L270.70695,176.18752387591772L280.73313333333334,175.7336106640952L290.7593166666667,175.05274084636144L300.7855,173.01013139316015L310.8116833333334,171.87534836360388L320.8378666666667,170.96752193995886L330.86405,170.7405653340476L340.89023333333336,170.51354452541895L350.9164166666667,169.37876149586268L360.9426,170.05963131359644L370.96878333333336,169.37876149586268L380.99496666666664,168.92484828404017L391.02115000000003,168.01702186039515L401.0473333333333,167.56310864857264L411.0735166666667,167.7900652544839L421.0997,166.42832561901636L431.1258833333334,165.97441240719385L441.15206666666666,165.52049919537134L451.17825000000005,163.93180295399256L461.2044333333334,163.02397653034754L471.23061666666666,163.2509331362588L481.25680000000006,162.79701992443628L491.28298333333333,162.79701992443628L501.3091666666667,163.02397653034754L511.33535,163.2509331362588L521.3615333333333,163.7048463480813L531.3877166666666,163.47788974217005L541.4139,163.02397653034754" style="fill: none;" fill="none"></path></g><g><path stroke="rgb(255, 112, 67)" stroke-width="2px" d="M50.130916666666664,636.9251314401625L60.15710000000001,356.05117978368486L70.18328333333334,254.11973554747445L80.20946666666667,201.35396184240068L90.23565,163.6078360421317L100.26183333333333,138.06870130130224L110.28801666666666,118.04246129308429L120.31420000000001,102.85396024159026L130.34038333333334,92.10957128661022L140.36656666666667,82.71523707253594L150.39275,75.23350180898399L160.41893333333334,70.22690970557079L170.44511666666668,65.55789549010143L180.4713,62.80148022515435L190.49748333333332,59.82003443581719L200.52366666666666,58.694946016584154L210.54985,56.782347066061874L220.57603333333333,55.48846970285692L230.6022166666667,54.700959171567675L240.62840000000003,54.25089812278752L250.65458333333336,54.082173381532996L260.68076666666667,54.025931801114794L270.70695,53.91338443756108L280.73313333333334,53.857142857142875L290.7593166666667,53.857142857142875L300.7855,53.857142857142875L310.8116833333334,53.857142857142875L320.8378666666667,53.857142857142875L330.86405,53.857142857142875L340.89023333333336,53.857142857142875L350.9164166666667,53.857142857142875L360.9426,53.857142857142875L370.96878333333336,53.857142857142875L380.99496666666664,53.857142857142875L391.02115000000003,53.857142857142875L401.0473333333333,53.857142857142875L411.0735166666667,53.857142857142875L421.0997,53.857142857142875L431.1258833333334,53.857142857142875L441.15206666666666,53.857142857142875L451.17825000000005,53.857142857142875L461.2044333333334,53.857142857142875L471.23061666666666,53.857142857142875L481.25680000000006,53.857142857142875L491.28298333333333,53.857142857142875L501.3091666666667,53.857142857142875L511.33535,53.857142857142875L521.3615333333333,53.857142857142875L531.3877166666666,53.857142857142875L541.4139,53.857142857142875" style="fill: none;" fill="none"></path></g></g></g></g></g><g><g opacity="0.563674"><span fill="rgb(0, 0, 0)" stroke="none" stroke-width="1px">Alt + Scroll to Zoom</span></g></g></g><g transform="translate(50, 377)" clip-path="url(#clip_1)"><clipPath id="clip_1"><rect width="601" height="23"></rect></clipPath><g><g><line x1="0" y1="0" x2="0" y2="5" style="visibility: inherit;" fill="rgb(0, 0, 0)" stroke="rgb(204, 204, 204)" stroke-width="1px"></line><line x1="50.130916666666664" y1="0" x2="50.130916666666664" y2="5" style="visibility: inherit;" fill="rgb(0, 0, 0)" stroke="rgb(204, 204, 204)" stroke-width="1px"></line><line x1="100.26183333333333" y1="0" x2="100.26183333333333" y2="5" style="visibility: inherit;" fill="rgb(0, 0, 0)" stroke="rgb(204, 204, 204)" stroke-width="1px"></line><line x1="150.39275" y1="0" x2="150.39275" y2="5" style="visibility: inherit;" fill="rgb(0, 0, 0)" stroke="rgb(204, 204, 204)" stroke-width="1px"></line><line x1="200.52366666666666" y1="0" x2="200.52366666666666" y2="5" style="visibility: inherit;" fill="rgb(0, 0, 0)" stroke="rgb(204, 204, 204)" stroke-width="1px"></line><line x1="250.65458333333336" y1="0" x2="250.65458333333336" y2="5" style="visibility: inherit;" fill="rgb(0, 0, 0)" stroke="rgb(204, 204, 204)" stroke-width="1px"></line><line x1="300.7855" y1="0" x2="300.7855" y2="5" style="visibility: inherit;" fill="rgb(0, 0, 0)" stroke="rgb(204, 204, 204)" stroke-width="1px"></line><line x1="350.9164166666667" y1="0" x2="350.9164166666667" y2="5" style="visibility: inherit;" fill="rgb(0, 0, 0)" stroke="rgb(204, 204, 204)" stroke-width="1px"></line><line x1="401.0473333333333" y1="0" x2="401.0473333333333" y2="5" style="visibility: inherit;" fill="rgb(0, 0, 0)" stroke="rgb(204, 204, 204)" stroke-width="1px"></line><line x1="451.17825000000005" y1="0" x2="451.17825000000005" y2="5" style="visibility: inherit;" fill="rgb(0, 0, 0)" stroke="rgb(204, 204, 204)" stroke-width="1px"></line><line x1="501.3091666666667" y1="0" x2="501.3091666666667" y2="5" style="visibility: inherit;" fill="rgb(0, 0, 0)" stroke="rgb(204, 204, 204)" stroke-width="1px"></line><line x1="551.4400833333333" y1="0" x2="551.4400833333333" y2="5" style="visibility: inherit;" fill="rgb(0, 0, 0)" stroke="rgb(204, 204, 204)" stroke-width="1px"></line><line x1="601.571" y1="0" x2="601.571" y2="5" style="visibility: inherit;" fill="rgb(0, 0, 0)" stroke="rgb(204, 204, 204)" stroke-width="1px"></line></g><g transform="translate(0, 8)"><text x="0" y="0" dx="0em" dy="0.95em" style="text-anchor: middle; visibility: hidden; font-family: Roboto, sans-serif; font-size: 12px; font-weight: 200;" fill="rgb(33, 33, 33)" stroke="none" stroke-width="1px">-5</text><text x="50.130916666666664" y="0" dx="0em" dy="0.95em" style="text-anchor: middle; visibility: inherit; font-family: Roboto, sans-serif; font-size: 12px; font-weight: 200;" fill="rgb(33, 33, 33)" stroke="none" stroke-width="1px">0</text><text x="100.26183333333333" y="0" dx="0em" dy="0.95em" style="text-anchor: middle; visibility: inherit; font-family: Roboto, sans-serif; font-size: 12px; font-weight: 200;" fill="rgb(33, 33, 33)" stroke="none" stroke-width="1px">5</text><text x="150.39275" y="0" dx="0em" dy="0.95em" style="text-anchor: middle; visibility: inherit; font-family: Roboto, sans-serif; font-size: 12px; font-weight: 200;" fill="rgb(33, 33, 33)" stroke="none" stroke-width="1px">10</text><text x="200.52366666666666" y="0" dx="0em" dy="0.95em" style="text-anchor: middle; visibility: inherit; font-family: Roboto, sans-serif; font-size: 12px; font-weight: 200;" fill="rgb(33, 33, 33)" stroke="none" stroke-width="1px">15</text><text x="250.65458333333336" y="0" dx="0em" dy="0.95em" style="text-anchor: middle; visibility: inherit; font-family: Roboto, sans-serif; font-size: 12px; font-weight: 200;" fill="rgb(33, 33, 33)" stroke="none" stroke-width="1px">20</text><text x="300.7855" y="0" dx="0em" dy="0.95em" style="text-anchor: middle; visibility: inherit; font-family: Roboto, sans-serif; font-size: 12px; font-weight: 200;" fill="rgb(33, 33, 33)" stroke="none" stroke-width="1px">25</text><text x="350.9164166666667" y="0" dx="0em" dy="0.95em" style="text-anchor: middle; visibility: inherit; font-family: Roboto, sans-serif; font-size: 12px; font-weight: 200;" fill="rgb(33, 33, 33)" stroke="none" stroke-width="1px">30</text><text x="401.0473333333333" y="0" dx="0em" dy="0.95em" style="text-anchor: middle; visibility: inherit; font-family: Roboto, sans-serif; font-size: 12px; font-weight: 200;" fill="rgb(33, 33, 33)" stroke="none" stroke-width="1px">35</text><text x="451.17825000000005" y="0" dx="0em" dy="0.95em" style="text-anchor: middle; visibility: inherit; font-family: Roboto, sans-serif; font-size: 12px; font-weight: 200;" fill="rgb(33, 33, 33)" stroke="none" stroke-width="1px">40</text><text x="501.3091666666667" y="0" dx="0em" dy="0.95em" style="text-anchor: middle; visibility: inherit; font-family: Roboto, sans-serif; font-size: 12px; font-weight: 200;" fill="rgb(33, 33, 33)" stroke="none" stroke-width="1px">45</text><text x="551.4400833333333" y="0" dx="0em" dy="0.95em" style="text-anchor: middle; visibility: inherit; font-family: Roboto, sans-serif; font-size: 12px; font-weight: 200;" fill="rgb(33, 33, 33)" stroke="none" stroke-width="1px">50</text><text x="601.571" y="0" dx="0em" dy="0.95em" style="text-anchor: middle; visibility: hidden; font-family: Roboto, sans-serif; font-size: 12px; font-weight: 200;" fill="rgb(33, 33, 33)" stroke="none" stroke-width="1px">55</text></g><line x1="0" y1="0" x2="601.571" y2="0" fill="rgb(0, 0, 0)" stroke="rgb(204, 204, 204)" stroke-width="1px"></line></g></g></g></g></svg>