<svg viewBox="0 0 553 400" xmlns="http://www.w3.org/2000/svg"><g><g><g><g><g><line x1="50" y1="377" x2="45" y2="377" style="visibility: inherit;" fill="rgb(0, 0, 0)" stroke="rgb(204, 204, 204)" stroke-width="1px"></line><line x1="50" y1="329.87500000000006" x2="45" y2="329.87500000000006" style="visibility: inherit;" fill="rgb(0, 0, 0)" stroke="rgb(204, 204, 204)" stroke-width="1px"></line><line x1="50" y1="282.75" x2="45" y2="282.75" style="visibility: inherit;" fill="rgb(0, 0, 0)" stroke="rgb(204, 204, 204)" stroke-width="1px"></line><line x1="50" y1="235.625" x2="45" y2="235.625" style="visibility: inherit;" fill="rgb(0, 0, 0)" stroke="rgb(204, 204, 204)" stroke-width="1px"></line><line x1="50" y1="188.50000000000003" x2="45" y2="188.50000000000003" style="visibility: inherit;" fill="rgb(0, 0, 0)" stroke="rgb(204, 204, 204)" stroke-width="1px"></line><line x1="50" y1="141.375" x2="45" y2="141.375" style="visibility: inherit;" fill="rgb(0, 0, 0)" stroke="rgb(204, 204, 204)" stroke-width="1px"></line><line x1="50" y1="94.25000000000009" x2="45" y2="94.25000000000009" style="visibility: inherit;" fill="rgb(0, 0, 0)" stroke="rgb(204, 204, 204)" stroke-width="1px"></line><line x1="50" y1="47.12500000000004" x2="45" y2="47.12500000000004" style="visibility: inherit;" fill="rgb(0, 0, 0)" stroke="rgb(204, 204, 204)" stroke-width="1px"></line><line x1="50" y1="0" x2="45" y2="0" style="visibility: inherit;" fill="rgb(0, 0, 0)" stroke="rgb(204, 204, 204)" stroke-width="1px"></line></g><g transform="translate(40, 0)"><text x="0" y="377" dx="0em" dy="0.3em" style="text-anchor: end; visibility: hidden; font-family: Roboto, sans-serif; font-size: 12px; font-weight: 200;" fill="rgb(33, 33, 33)" stroke="none" stroke-width="1px">0.65</text><text x="0" y="329.87500000000006" dx="0em" dy="0.3em" style="text-anchor: end; visibility: inherit; font-family: Roboto, sans-serif; font-size: 12px; font-weight: 200;" fill="rgb(33, 33, 33)" stroke="none" stroke-width="1px">0.7</text><text x="0" y="282.75" dx="0em" dy="0.3em" style="text-anchor: end; visibility: inherit; font-family: Roboto, sans-serif; font-size: 12px; font-weight: 200;" fill="rgb(33, 33, 33)" stroke="none" stroke-width="1px">0.75</text><text x="0" y="235.625" dx="0em" dy="0.3em" style="text-anchor: end; visibility: inherit; font-family: Roboto, sans-serif; font-size: 12px; font-weight: 200;" fill="rgb(33, 33, 33)" stroke="none" stroke-width="1px">0.8</text><text x="0" y="188.50000000000003" dx="0em" dy="0.3em" style="text-anchor: end; visibility: inherit; font-family: Roboto, sans-serif; font-size: 12px; font-weight: 200;" fill="rgb(33, 33, 33)" stroke="none" stroke-width="1px">0.85</text><text x="0" y="141.375" dx="0em" dy="0.3em" style="text-anchor: end; visibility: inherit; font-family: Roboto, sans-serif; font-size: 12px; font-weight: 200;" fill="rgb(33, 33, 33)" stroke="none" stroke-width="1px">0.9</text><text x="0" y="94.25000000000009" dx="0em" dy="0.3em" style="text-anchor: end; visibility: inherit; font-family: Roboto, sans-serif; font-size: 12px; font-weight: 200;" fill="rgb(33, 33, 33)" stroke="none" stroke-width="1px">0.95</text><text x="0" y="47.12500000000004" dx="0em" dy="0.3em" style="text-anchor: end; visibility: inherit; font-family: Roboto, sans-serif; font-size: 12px; font-weight: 200;" fill="rgb(33, 33, 33)" stroke="none" stroke-width="1px">1</text><text x="0" y="0" dx="0em" dy="0.3em" style="text-anchor: end; visibility: hidden; font-family: Roboto, sans-serif; font-size: 12px; font-weight: 200;" fill="rgb(33, 33, 33)" stroke="none" stroke-width="1px">1.05</text></g><line x1="50" y1="0" x2="50" y2="377" fill="rgb(0, 0, 0)" stroke="rgb(204, 204, 204)" stroke-width="1px"></line></g></g><g transform="translate(50, 0)" clip-path="url(#clip_0)"><clipPath id="clip_0"><rect width="503" height="377"></rect></clipPath><g><g><g><line x1="0" y1="0" x2="0" y2="377" fill="rgb(0, 0, 0)" stroke="rgb(66, 66, 66)" stroke-width="1px" opacity="0.25"></line><line x1="41.916666666666664" y1="0" x2="41.916666666666664" y2="377" fill="rgb(0, 0, 0)" stroke="rgb(66, 66, 66)" stroke-width="1px" opacity="0.25"></line><line x1="83.83333333333333" y1="0" x2="83.83333333333333" y2="377" fill="rgb(0, 0, 0)" stroke="rgb(66, 66, 66)" stroke-width="1px" opacity="0.25"></line><line x1="125.75" y1="0" x2="125.75" y2="377" fill="rgb(0, 0, 0)" stroke="rgb(66, 66, 66)" stroke-width="1px" opacity="0.25"></line><line x1="167.66666666666666" y1="0" x2="167.66666666666666" y2="377" fill="rgb(0, 0, 0)" stroke="rgb(66, 66, 66)" stroke-width="1px" opacity="0.25"></line><line x1="209.58333333333334" y1="0" x2="209.58333333333334" y2="377" fill="rgb(0, 0, 0)" stroke="rgb(66, 66, 66)" stroke-width="1px" opacity="0.25"></line><line x1="251.5" y1="0" x2="251.5" y2="377" fill="rgb(0, 0, 0)" stroke="rgb(66, 66, 66)" stroke-width="1px" opacity="0.25"></line><line x1="293.4166666666667" y1="0" x2="293.4166666666667" y2="377" fill="rgb(0, 0, 0)" stroke="rgb(66, 66, 66)" stroke-width="1px" opacity="0.25"></line><line x1="335.3333333333333" y1="0" x2="335.3333333333333" y2="377" fill="rgb(0, 0, 0)" stroke="rgb(66, 66, 66)" stroke-width="1px" opacity="0.25"></line><line x1="377.25" y1="0" x2="377.25" y2="377" fill="rgb(0, 0, 0)" stroke="rgb(66, 66, 66)" stroke-width="1px" opacity="0.25"></line><line x1="419.1666666666667" y1="0" x2="419.1666666666667" y2="377" fill="rgb(0, 0, 0)" stroke="rgb(66, 66, 66)" stroke-width="1px" opacity="0.25"></line><line x1="461.0833333333333" y1="0" x2="461.0833333333333" y2="377" fill="rgb(0, 0, 0)" stroke="rgb(66, 66, 66)" stroke-width="1px" opacity="0.25"></line><line x1="503" y1="0" x2="503" y2="377" fill="rgb(0, 0, 0)" stroke="rgb(66, 66, 66)" stroke-width="1px" opacity="0.25"></line></g><g><line x1="0" y1="377" x2="503" y2="377" fill="rgb(0, 0, 0)" stroke="rgb(66, 66, 66)" stroke-width="1px" opacity="0.25"></line><line x1="0" y1="329.87500000000006" x2="503" y2="329.87500000000006" fill="rgb(0, 0, 0)" stroke="rgb(66, 66, 66)" stroke-width="1px" opacity="0.25"></line><line x1="0" y1="282.75" x2="503" y2="282.75" fill="rgb(0, 0, 0)" stroke="rgb(66, 66, 66)" stroke-width="1px" opacity="0.25"></line><line x1="0" y1="235.625" x2="503" y2="235.625" fill="rgb(0, 0, 0)" stroke="rgb(66, 66, 66)" stroke-width="1px" opacity="0.25"></line><line x1="0" y1="188.50000000000003" x2="503" y2="188.50000000000003" fill="rgb(0, 0, 0)" stroke="rgb(66, 66, 66)" stroke-width="1px" opacity="0.25"></line><line x1="0" y1="141.375" x2="503" y2="141.375" fill="rgb(0, 0, 0)" stroke="rgb(66, 66, 66)" stroke-width="1px" opacity="0.25"></line><line x1="0" y1="94.25000000000009" x2="503" y2="94.25000000000009" fill="rgb(0, 0, 0)" stroke="rgb(66, 66, 66)" stroke-width="1px" opacity="0.25"></line><line x1="0" y1="47.12500000000004" x2="503" y2="47.12500000000004" fill="rgb(0, 0, 0)" stroke="rgb(66, 66, 66)" stroke-width="1px" opacity="0.25"></line><line x1="0" y1="0" x2="503" y2="0" fill="rgb(0, 0, 0)" stroke="rgb(66, 66, 66)" stroke-width="1px" opacity="0.25"></line></g></g></g><g><g><line x1="0" y1="989.625" x2="503" y2="989.625" fill="rgb(0, 0, 0)" stroke="rgb(153, 153, 153)" stroke-width="1.5px"></line></g></g><g><g><line x1="41.916666666666664" y1="0" x2="41.916666666666664" y2="377" fill="rgb(0, 0, 0)" stroke="rgb(153, 153, 153)" stroke-width="1.5px"></line></g></g><g><g><g><g><g><path stroke="rgb(0, 119, 187)" stroke-width="2px" d="M50.300000000000004,414.4441687837243L58.68333333333334,369.2794129720756L67.06666666666666,338.26492352969956L75.45,314.7540279124282L83.83333333333333,294.06827155154144L92.21666666666665,279.06212515527744L100.60000000000001,266.0740706920628L108.98333333333333,254.66322539705033L117.36666666666667,245.31690431091081L125.75,236.9443803651888L134.13333333333333,231.12456258872427L142.51666666666665,225.19558861018098L150.9,219.78113260286113L159.28333333333333,214.5573639327768L167.66666666666666,210.49413768376084L176.04999999999998,207.1264808085981L184.4333333333333,204.05956069247105L192.8166666666667,200.9403936102882L201.20000000000002,198.25497504442046L209.58333333333334,195.94604840620383L217.96666666666667,194.44443613776627L226.35,193.31090524566298L234.73333333333335,192.1656640192357L243.11666666666667,191.01337274660895L251.5,189.62427585844097L259.8833333333334,188.67453195119106L268.26666666666665,187.5232500126959L276.65000000000003,186.134780484911L285.0333333333333,184.48768871281692L293.4166666666667,183.15057232080648L301.8,182.34830259911132L310.18333333333334,181.0529305652028L318.56666666666666,180.04313303410112L326.95,179.3209673601168L335.3333333333333,178.42254174246233L343.7166666666667,178.23232542453016L352.09999999999997,177.88562128997927L360.48333333333335,177.79388598217253L368.8666666666666,177.27371858058592L377.25,176.84533096814516L385.6333333333334,176.23943688521044L394.01666666666665,175.64332609188767L402.40000000000003,174.93679810042184L410.7833333333333,174.396594133768L419.1666666666667,173.95618458196378L427.55,173.69193885089877L435.93333333333334,173.64967858410932L444.31666666666666,173.62432242403625L452.7,173.2602472124677" style="fill: none;" fill="none"></path></g><g><path stroke="rgb(255, 112, 67)" stroke-width="2px" d="M50.300000000000004,459.8864568918943L58.68333333333334,358.4469229846584L67.06666666666666,286.74507837972664L75.45,232.748925030335L83.83333333333333,191.5310727384713L92.21666666666665,160.96891260617576L100.60000000000001,136.9903135645667L108.98333333333333,118.39164852871725L117.36666666666667,103.50669241598327L125.75,91.22918990270637L134.13333333333333,80.77994341788065L142.51666666666665,72.53891199321873L150.9,66.1915582911153L159.28333333333333,61.09215968998161L167.66666666666666,57.14269596678909L176.04999999999998,54.25620474293138L184.4333333333333,52.06464059328397L192.8166666666667,50.462378637043244L201.20000000000002,49.3573544941484L209.58333333333334,48.60812046368892L217.96666666666667,48.129849839811925L226.35,47.756647303025765L234.73333333333335,47.50398718461549L243.11666666666667,47.35239187977952L251.5,47.26143497271187L259.8833333333334,47.20686092777101L268.26666666666665,47.17411653655449L276.65000000000003,47.15446991469377L285.0333333333333,47.14268194621019L293.4166666666667,47.13560916678803L301.8,47.131365499735146L310.18333333333334,47.12881929971939L318.56666666666666,47.127291579787865L326.95,47.126374947857045L335.3333333333333,47.12582496870854L343.7166666666667,47.125494981222964L352.09999999999997,47.125296988733076L360.48333333333335,47.125178193239655L368.8666666666666,47.1251069159436L377.25,47.12506414956609L385.6333333333334,47.125038489739666L394.01666666666665,47.12502309384385L402.40000000000003,47.125013856306325L410.7833333333333,47.12500831378377L419.1666666666667,47.12500498827031L427.55,47.12500299296224L435.93333333333334,47.125001795777315L444.31666666666666,47.12500107746644L452.7,47.12500064647984" style="fill: none;" fill="none"></path></g></g></g></g><g opacity="0.2"><g><g><g><path stroke="rgb(0, 119, 187)" stroke-width="2px" d="M50.300000000000004,378.2500814795494L58.68333333333334,325.92124739289284L67.06666666666666,301.7918839454651L75.45,284.05820259451866L83.83333333333333,265.4524236321449L92.21666666666665,257.60309571027756L100.60000000000001,247.13736259937286L108.98333333333333,237.83444502949715L117.36666666666667,231.43870675563812L125.75,224.46153262257576L134.13333333333333,222.42650711536407L142.51666666666665,216.32148677110672L150.9,211.6700560748577L159.28333333333333,206.72785127162933L167.66666666666666,204.40216401219368L176.04999999999998,202.07642057538033L184.4333333333333,199.4599592089653L192.8166666666667,196.26211816072464L201.20000000000002,194.22709265351295L209.58333333333334,192.48278507590294L217.96666666666667,192.19206714630127L226.35,191.61063128709793L234.73333333333335,190.44781574606895L243.11666666666667,189.28494402766228L251.5,187.5406364500523L259.8833333333334,187.24991852045062L268.26666666666665,185.79632887244227L276.65000000000003,184.05207747220996L285.0333333333333,182.01705196499827L293.4166666666667,181.14489817619327L301.8,181.14489817619327L310.18333333333334,179.10987266898158L318.56666666666666,178.52843680977824L326.95,178.23771888017657L335.3333333333333,177.0749033391476L343.7166666666667,177.9470009505749L352.09999999999997,177.36556509137156L360.48333333333335,177.65628302097323L368.8666666666666,176.49346747994426L377.25,176.2027495503426L385.6333333333334,175.33059576153758L394.01666666666665,174.74915990233424L402.40000000000003,173.87700611352923L410.7833333333333,173.58628818392756L419.1666666666667,173.2955702543259L427.55,173.2955702543259L435.93333333333334,173.58628818392756L444.31666666666666,173.58628818392756L452.7,172.71413439512256" style="fill: none;" fill="none"></path></g><g><path stroke="rgb(255, 112, 67)" stroke-width="2px" d="M41.916666666666664,621.5361590087414L50.300000000000004,362.8966356217861L58.68333333333334,261.064970433712L67.06666666666666,202.4237091243267L75.45,162.2515472173691L83.83333333333333,134.51194459199908L92.21666666666665,117.26453462243084L100.60000000000001,102.02928596735005L108.98333333333333,90.96223020553593L117.36666666666667,81.40426734089856L125.75,72.92429217696194L134.13333333333333,65.16293802857403L142.51666666666665,60.20427325367932L150.9,56.68296286463742L159.28333333333333,53.44905593991284L167.66666666666666,51.22128584980969L176.04999999999998,49.92768937349324L184.4333333333333,48.77785080671315L192.8166666666667,48.05922979116444L201.20000000000002,47.69991928339009L209.58333333333334,47.484310507774396L217.96666666666667,47.412459641695065L226.35,47.19685086607937L234.73333333333335,47.12500000000004L243.11666666666667,47.12500000000004L251.5,47.12500000000004L259.8833333333334,47.12500000000004L268.26666666666665,47.12500000000004L276.65000000000003,47.12500000000004L285.0333333333333,47.12500000000004L293.4166666666667,47.12500000000004L301.8,47.12500000000004L310.18333333333334,47.12500000000004L318.56666666666666,47.12500000000004L326.95,47.12500000000004L335.3333333333333,47.12500000000004L343.7166666666667,47.12500000000004L352.09999999999997,47.12500000000004L360.48333333333335,47.12500000000004L368.8666666666666,47.12500000000004L377.25,47.12500000000004L385.6333333333334,47.12500000000004L394.01666666666665,47.12500000000004L402.40000000000003,47.12500000000004L410.7833333333333,47.12500000000004L419.1666666666667,47.12500000000004L427.55,47.12500000000004L435.93333333333334,47.12500000000004L444.31666666666666,47.12500000000004L452.7,47.12500000000004" style="fill: none;" fill="none"></path></g></g></g></g></g><g><g><span fill="rgb(0, 0, 0)" stroke="none" stroke-width="1px">Alt + Scroll to Zoom</span></g></g></g><g transform="translate(50, 377)" clip-path="url(#clip_1)"><clipPath id="clip_1"><rect width="503" height="23"></rect></clipPath><g><g><line x1="0" y1="0" x2="0" y2="5" style="visibility: inherit;" fill="rgb(0, 0, 0)" stroke="rgb(204, 204, 204)" stroke-width="1px"></line><line x1="41.916666666666664" y1="0" x2="41.916666666666664" y2="5" style="visibility: inherit;" fill="rgb(0, 0, 0)" stroke="rgb(204, 204, 204)" stroke-width="1px"></line><line x1="83.83333333333333" y1="0" x2="83.83333333333333" y2="5" style="visibility: inherit;" fill="rgb(0, 0, 0)" stroke="rgb(204, 204, 204)" stroke-width="1px"></line><line x1="125.75" y1="0" x2="125.75" y2="5" style="visibility: inherit;" fill="rgb(0, 0, 0)" stroke="rgb(204, 204, 204)" stroke-width="1px"></line><line x1="167.66666666666666" y1="0" x2="167.66666666666666" y2="5" style="visibility: inherit;" fill="rgb(0, 0, 0)" stroke="rgb(204, 204, 204)" stroke-width="1px"></line><line x1="209.58333333333334" y1="0" x2="209.58333333333334" y2="5" style="visibility: inherit;" fill="rgb(0, 0, 0)" stroke="rgb(204, 204, 204)" stroke-width="1px"></line><line x1="251.5" y1="0" x2="251.5" y2="5" style="visibility: inherit;" fill="rgb(0, 0, 0)" stroke="rgb(204, 204, 204)" stroke-width="1px"></line><line x1="293.4166666666667" y1="0" x2="293.4166666666667" y2="5" style="visibility: inherit;" fill="rgb(0, 0, 0)" stroke="rgb(204, 204, 204)" stroke-width="1px"></line><line x1="335.3333333333333" y1="0" x2="335.3333333333333" y2="5" style="visibility: inherit;" fill="rgb(0, 0, 0)" stroke="rgb(204, 204, 204)" stroke-width="1px"></line><line x1="377.25" y1="0" x2="377.25" y2="5" style="visibility: inherit;" fill="rgb(0, 0, 0)" stroke="rgb(204, 204, 204)" stroke-width="1px"></line><line x1="419.1666666666667" y1="0" x2="419.1666666666667" y2="5" style="visibility: inherit;" fill="rgb(0, 0, 0)" stroke="rgb(204, 204, 204)" stroke-width="1px"></line><line x1="461.0833333333333" y1="0" x2="461.0833333333333" y2="5" style="visibility: inherit;" fill="rgb(0, 0, 0)" stroke="rgb(204, 204, 204)" stroke-width="1px"></line><line x1="503" y1="0" x2="503" y2="5" style="visibility: inherit;" fill="rgb(0, 0, 0)" stroke="rgb(204, 204, 204)" stroke-width="1px"></line></g><g transform="translate(0, 8)"><text x="0" y="0" dx="0em" dy="0.95em" style="text-anchor: middle; visibility: hidden; font-family: Roboto, sans-serif; font-size: 12px; font-weight: 200;" fill="rgb(33, 33, 33)" stroke="none" stroke-width="1px">-5</text><text x="41.916666666666664" y="0" dx="0em" dy="0.95em" style="text-anchor: middle; visibility: inherit; font-family: Roboto, sans-serif; font-size: 12px; font-weight: 200;" fill="rgb(33, 33, 33)" stroke="none" stroke-width="1px">0</text><text x="83.83333333333333" y="0" dx="0em" dy="0.95em" style="text-anchor: middle; visibility: inherit; font-family: Roboto, sans-serif; font-size: 12px; font-weight: 200;" fill="rgb(33, 33, 33)" stroke="none" stroke-width="1px">5</text><text x="125.75" y="0" dx="0em" dy="0.95em" style="text-anchor: middle; visibility: inherit; font-family: Roboto, sans-serif; font-size: 12px; font-weight: 200;" fill="rgb(33, 33, 33)" stroke="none" stroke-width="1px">10</text><text x="167.66666666666666" y="0" dx="0em" dy="0.95em" style="text-anchor: middle; visibility: inherit; font-family: Roboto, sans-serif; font-size: 12px; font-weight: 200;" fill="rgb(33, 33, 33)" stroke="none" stroke-width="1px">15</text><text x="209.58333333333334" y="0" dx="0em" dy="0.95em" style="text-anchor: middle; visibility: inherit; font-family: Roboto, sans-serif; font-size: 12px; font-weight: 200;" fill="rgb(33, 33, 33)" stroke="none" stroke-width="1px">20</text><text x="251.5" y="0" dx="0em" dy="0.95em" style="text-anchor: middle; visibility: inherit; font-family: Roboto, sans-serif; font-size: 12px; font-weight: 200;" fill="rgb(33, 33, 33)" stroke="none" stroke-width="1px">25</text><text x="293.4166666666667" y="0" dx="0em" dy="0.95em" style="text-anchor: middle; visibility: inherit; font-family: Roboto, sans-serif; font-size: 12px; font-weight: 200;" fill="rgb(33, 33, 33)" stroke="none" stroke-width="1px">30</text><text x="335.3333333333333" y="0" dx="0em" dy="0.95em" style="text-anchor: middle; visibility: inherit; font-family: Roboto, sans-serif; font-size: 12px; font-weight: 200;" fill="rgb(33, 33, 33)" stroke="none" stroke-width="1px">35</text><text x="377.25" y="0" dx="0em" dy="0.95em" style="text-anchor: middle; visibility: inherit; font-family: Roboto, sans-serif; font-size: 12px; font-weight: 200;" fill="rgb(33, 33, 33)" stroke="none" stroke-width="1px">40</text><text x="419.1666666666667" y="0" dx="0em" dy="0.95em" style="text-anchor: middle; visibility: inherit; font-family: Roboto, sans-serif; font-size: 12px; font-weight: 200;" fill="rgb(33, 33, 33)" stroke="none" stroke-width="1px">45</text><text x="461.0833333333333" y="0" dx="0em" dy="0.95em" style="text-anchor: middle; visibility: inherit; font-family: Roboto, sans-serif; font-size: 12px; font-weight: 200;" fill="rgb(33, 33, 33)" stroke="none" stroke-width="1px">50</text><text x="503" y="0" dx="0em" dy="0.95em" style="text-anchor: middle; visibility: hidden; font-family: Roboto, sans-serif; font-size: 12px; font-weight: 200;" fill="rgb(33, 33, 33)" stroke="none" stroke-width="1px">55</text></g><line x1="0" y1="0" x2="503" y2="0" fill="rgb(0, 0, 0)" stroke="rgb(204, 204, 204)" stroke-width="1px"></line></g></g></g></g></svg>