<svg viewBox="0 0 492.2222595214844 400.0000305175781" xmlns="http://www.w3.org/2000/svg"><g><g><g><g><g><line x1="51.5625" y1="377" x2="46.5625" y2="377" style="visibility: inherit;" fill="rgb(0, 0, 0)" stroke="rgb(204, 204, 204)" stroke-width="1px"></line><line x1="51.5625" y1="339.3" x2="46.5625" y2="339.3" style="visibility: inherit;" fill="rgb(0, 0, 0)" stroke="rgb(204, 204, 204)" stroke-width="1px"></line><line x1="51.5625" y1="301.6" x2="46.5625" y2="301.6" style="visibility: inherit;" fill="rgb(0, 0, 0)" stroke="rgb(204, 204, 204)" stroke-width="1px"></line><line x1="51.5625" y1="263.9" x2="46.5625" y2="263.9" style="visibility: inherit;" fill="rgb(0, 0, 0)" stroke="rgb(204, 204, 204)" stroke-width="1px"></line><line x1="51.5625" y1="226.2" x2="46.5625" y2="226.2" style="visibility: inherit;" fill="rgb(0, 0, 0)" stroke="rgb(204, 204, 204)" stroke-width="1px"></line><line x1="51.5625" y1="188.5" x2="46.5625" y2="188.5" style="visibility: inherit;" fill="rgb(0, 0, 0)" stroke="rgb(204, 204, 204)" stroke-width="1px"></line><line x1="51.5625" y1="150.8" x2="46.5625" y2="150.8" style="visibility: inherit;" fill="rgb(0, 0, 0)" stroke="rgb(204, 204, 204)" stroke-width="1px"></line><line x1="51.5625" y1="113.10000000000002" x2="46.5625" y2="113.10000000000002" style="visibility: inherit;" fill="rgb(0, 0, 0)" stroke="rgb(204, 204, 204)" stroke-width="1px"></line><line x1="51.5625" y1="75.40000000000002" x2="46.5625" y2="75.40000000000002" style="visibility: inherit;" fill="rgb(0, 0, 0)" stroke="rgb(204, 204, 204)" stroke-width="1px"></line><line x1="51.5625" y1="37.69999999999999" x2="46.5625" y2="37.69999999999999" style="visibility: inherit;" fill="rgb(0, 0, 0)" stroke="rgb(204, 204, 204)" stroke-width="1px"></line><line x1="51.5625" y1="0" x2="46.5625" y2="0" style="visibility: inherit;" fill="rgb(0, 0, 0)" stroke="rgb(204, 204, 204)" stroke-width="1px"></line></g><g transform="translate(41.5625, 0)"><text x="0" y="377" dx="0em" dy="0.3em" style="text-anchor: end; visibility: hidden; font-family: Roboto, sans-serif; font-size: 12px; font-weight: 200;" fill="rgb(33, 33, 33)" stroke="none" stroke-width="1px">-0.2</text><text x="0" y="339.3" dx="0em" dy="0.3em" style="text-anchor: end; visibility: inherit; font-family: Roboto, sans-serif; font-size: 12px; font-weight: 200;" fill="rgb(33, 33, 33)" stroke="none" stroke-width="1px">0</text><text x="0" y="301.6" dx="0em" dy="0.3em" style="text-anchor: end; visibility: inherit; font-family: Roboto, sans-serif; font-size: 12px; font-weight: 200;" fill="rgb(33, 33, 33)" stroke="none" stroke-width="1px">0.2</text><text x="0" y="263.9" dx="0em" dy="0.3em" style="text-anchor: end; visibility: inherit; font-family: Roboto, sans-serif; font-size: 12px; font-weight: 200;" fill="rgb(33, 33, 33)" stroke="none" stroke-width="1px">0.4</text><text x="0" y="226.2" dx="0em" dy="0.3em" style="text-anchor: end; visibility: inherit; font-family: Roboto, sans-serif; font-size: 12px; font-weight: 200;" fill="rgb(33, 33, 33)" stroke="none" stroke-width="1px">0.6</text><text x="0" y="188.5" dx="0em" dy="0.3em" style="text-anchor: end; visibility: inherit; font-family: Roboto, sans-serif; font-size: 12px; font-weight: 200;" fill="rgb(33, 33, 33)" stroke="none" stroke-width="1px">0.8</text><text x="0" y="150.8" dx="0em" dy="0.3em" style="text-anchor: end; visibility: inherit; font-family: Roboto, sans-serif; font-size: 12px; font-weight: 200;" fill="rgb(33, 33, 33)" stroke="none" stroke-width="1px">1</text><text x="0" y="113.10000000000002" dx="0em" dy="0.3em" style="text-anchor: end; visibility: inherit; font-family: Roboto, sans-serif; font-size: 12px; font-weight: 200;" fill="rgb(33, 33, 33)" stroke="none" stroke-width="1px">1.2</text><text x="0" y="75.40000000000002" dx="0em" dy="0.3em" style="text-anchor: end; visibility: inherit; font-family: Roboto, sans-serif; font-size: 12px; font-weight: 200;" fill="rgb(33, 33, 33)" stroke="none" stroke-width="1px">1.4</text><text x="0" y="37.69999999999999" dx="0em" dy="0.3em" style="text-anchor: end; visibility: inherit; font-family: Roboto, sans-serif; font-size: 12px; font-weight: 200;" fill="rgb(33, 33, 33)" stroke="none" stroke-width="1px">1.6</text><text x="0" y="0" dx="0em" dy="0.3em" style="text-anchor: end; visibility: hidden; font-family: Roboto, sans-serif; font-size: 12px; font-weight: 200;" fill="rgb(33, 33, 33)" stroke="none" stroke-width="1px">1.8</text></g><line x1="51.5625" y1="0" x2="51.5625" y2="377" fill="rgb(0, 0, 0)" stroke="rgb(204, 204, 204)" stroke-width="1px"></line></g></g><g transform="translate(51, 0)" clip-path="url(#clip_0)"><clipPath id="clip_0"><rect width="440" height="376"></rect></clipPath><g><g><g><line x1="0" y1="0" x2="0" y2="377" fill="rgb(0, 0, 0)" stroke="rgb(66, 66, 66)" stroke-width="1px" opacity="0.25"></line><line x1="36.721624999999996" y1="0" x2="36.721624999999996" y2="377" fill="rgb(0, 0, 0)" stroke="rgb(66, 66, 66)" stroke-width="1px" opacity="0.25"></line><line x1="73.44324999999999" y1="0" x2="73.44324999999999" y2="377" fill="rgb(0, 0, 0)" stroke="rgb(66, 66, 66)" stroke-width="1px" opacity="0.25"></line><line x1="110.164875" y1="0" x2="110.164875" y2="377" fill="rgb(0, 0, 0)" stroke="rgb(66, 66, 66)" stroke-width="1px" opacity="0.25"></line><line x1="146.88649999999998" y1="0" x2="146.88649999999998" y2="377" fill="rgb(0, 0, 0)" stroke="rgb(66, 66, 66)" stroke-width="1px" opacity="0.25"></line><line x1="183.608125" y1="0" x2="183.608125" y2="377" fill="rgb(0, 0, 0)" stroke="rgb(66, 66, 66)" stroke-width="1px" opacity="0.25"></line><line x1="220.32975" y1="0" x2="220.32975" y2="377" fill="rgb(0, 0, 0)" stroke="rgb(66, 66, 66)" stroke-width="1px" opacity="0.25"></line><line x1="257.051375" y1="0" x2="257.051375" y2="377" fill="rgb(0, 0, 0)" stroke="rgb(66, 66, 66)" stroke-width="1px" opacity="0.25"></line><line x1="293.77299999999997" y1="0" x2="293.77299999999997" y2="377" fill="rgb(0, 0, 0)" stroke="rgb(66, 66, 66)" stroke-width="1px" opacity="0.25"></line><line x1="330.494625" y1="0" x2="330.494625" y2="377" fill="rgb(0, 0, 0)" stroke="rgb(66, 66, 66)" stroke-width="1px" opacity="0.25"></line><line x1="367.21625" y1="0" x2="367.21625" y2="377" fill="rgb(0, 0, 0)" stroke="rgb(66, 66, 66)" stroke-width="1px" opacity="0.25"></line><line x1="403.93787499999996" y1="0" x2="403.93787499999996" y2="377" fill="rgb(0, 0, 0)" stroke="rgb(66, 66, 66)" stroke-width="1px" opacity="0.25"></line><line x1="440.6595" y1="0" x2="440.6595" y2="377" fill="rgb(0, 0, 0)" stroke="rgb(66, 66, 66)" stroke-width="1px" opacity="0.25"></line></g><g><line x1="0" y1="377" x2="440.6595" y2="377" fill="rgb(0, 0, 0)" stroke="rgb(66, 66, 66)" stroke-width="1px" opacity="0.25"></line><line x1="0" y1="339.3" x2="440.6595" y2="339.3" fill="rgb(0, 0, 0)" stroke="rgb(66, 66, 66)" stroke-width="1px" opacity="0.25"></line><line x1="0" y1="301.6" x2="440.6595" y2="301.6" fill="rgb(0, 0, 0)" stroke="rgb(66, 66, 66)" stroke-width="1px" opacity="0.25"></line><line x1="0" y1="263.9" x2="440.6595" y2="263.9" fill="rgb(0, 0, 0)" stroke="rgb(66, 66, 66)" stroke-width="1px" opacity="0.25"></line><line x1="0" y1="226.2" x2="440.6595" y2="226.2" fill="rgb(0, 0, 0)" stroke="rgb(66, 66, 66)" stroke-width="1px" opacity="0.25"></line><line x1="0" y1="188.5" x2="440.6595" y2="188.5" fill="rgb(0, 0, 0)" stroke="rgb(66, 66, 66)" stroke-width="1px" opacity="0.25"></line><line x1="0" y1="150.8" x2="440.6595" y2="150.8" fill="rgb(0, 0, 0)" stroke="rgb(66, 66, 66)" stroke-width="1px" opacity="0.25"></line><line x1="0" y1="113.10000000000002" x2="440.6595" y2="113.10000000000002" fill="rgb(0, 0, 0)" stroke="rgb(66, 66, 66)" stroke-width="1px" opacity="0.25"></line><line x1="0" y1="75.40000000000002" x2="440.6595" y2="75.40000000000002" fill="rgb(0, 0, 0)" stroke="rgb(66, 66, 66)" stroke-width="1px" opacity="0.25"></line><line x1="0" y1="37.69999999999999" x2="440.6595" y2="37.69999999999999" fill="rgb(0, 0, 0)" stroke="rgb(66, 66, 66)" stroke-width="1px" opacity="0.25"></line><line x1="0" y1="0" x2="440.6595" y2="0" fill="rgb(0, 0, 0)" stroke="rgb(66, 66, 66)" stroke-width="1px" opacity="0.25"></line></g></g></g><g><g><line x1="0" y1="339.3" x2="440.6595" y2="339.3" fill="rgb(0, 0, 0)" stroke="rgb(153, 153, 153)" stroke-width="1.5px"></line></g></g><g><g><line x1="36.721624999999996" y1="0" x2="36.721624999999996" y2="377" fill="rgb(0, 0, 0)" stroke="rgb(153, 153, 153)" stroke-width="1.5px"></line></g></g><g><g><g><g><g><path stroke="rgb(204, 51, 17)" stroke-width="2px" d="M47.7381125,-12.627123614970316L51.410275,16.928408635101118L55.0824375,41.29625194135149L58.754599999999996,61.63958562320458L62.426762499999995,78.790136300388L66.098925,93.37687759335479L69.7710875,105.88908203227376L73.44324999999999,116.71281709911227L77.11541249999999,126.15492236309936L80.78757499999999,134.4602720047273L84.4597375,141.82439781315026L88.1319,148.40338887627132L91.8040625,154.32195882297933L95.476225,159.6801170806049L99.1483875,164.55846209523025L102.82055,169.02246097007028L106.4927125,173.1258100657915L110.164875,176.91280613415967L113.83703750000001,180.42046020648326L117.50919999999999,183.67980540920837L121.1813625,186.7171572621376L124.85352499999999,189.55491646834946L128.5256875,192.212323215177L132.19785,194.70595836667465L135.8700125,197.05022349806427L139.542175,199.2576960832511L143.2143375,201.339409884913L146.88649999999998,203.30511749181298L150.5586625,205.1634747648639L154.23082499999998,206.9221784468519L157.9029875,208.5881430933973L161.57514999999998,210.16755778823037L165.2473125,211.66600555793502L168.919475,213.0885440069023L172.5916375,214.4397581912136L176.2638,215.72380133062907L179.9359625,216.94451361336752L183.608125,218.10541707750951L187.2802875,219.209726022279L190.95245,220.26046560949368L194.62461249999998,221.26042168125716L198.296775,222.21220952273495L201.96893749999998,223.1182522011433L205.6411,223.98085295874927L209.31326249999998,224.80213528229086L212.985425,225.58411480519206L216.65758749999998,226.32868851860786L220.32975,227.0376327922404L224.00191249999997,227.7126201635893L227.67407500000002,228.35523839988198L231.3462375,228.9669659817099L235.01839999999999,229.54921132349287L238.69056249999997,230.10330035223572L242.362725,230.63048253735323L246.0348875,231.1319524853255L249.70704999999998,231.60880896620907L253.37921249999997,232.0621336959181L257.051375,232.49290377988683L260.72353749999996,232.90207400497357L264.3957,233.29054082498885L268.0678625,233.6591297403928L271.740025,234.0086461505864L275.41218749999996,234.33982047567213L279.08435,234.65337410169508L282.7565125,234.949982546554L286.428675,235.23024886535765L290.1008375,235.49480454258418L293.77299999999997,235.74421722490965L297.4451625,235.97903423308952L301.117325,236.19977720975652L304.7894875,236.4069613790499L308.46164999999996,236.60106665468135L312.1338125,236.78255625829647L315.805975,236.95187440792054L319.4781375,237.10946290778716L323.15029999999996,237.25574413709398L326.8224625,237.39109736068582L330.494625,237.51590293993672L334.1667875,237.63051043480706L337.83895,237.73527788955016L341.51111249999997,237.83051001452233L345.183275,237.91649749650253L348.8554375,237.99352710231364L352.5276,238.06184279909263L356.19976249999996,238.12168534511645L359.871925,238.17327110239458L363.5440875,238.21680628936645L367.21625,238.25247755575867L370.88841249999996,238.28048228102142L374.560575,238.30099282310735L378.2327375,238.31419798640206L381.9049,238.32028745477078L385.5770625,238.31947391071725L389.24922499999997,238.31194788240674L392.9213875,238.29791357054282L396.59355,238.27756540259105L400.2657125,238.25112789559594" style="fill: none;" fill="none"></path></g><g><path stroke="rgb(0, 119, 187)" stroke-width="2px" d="M47.7381125,-24.682274681329677L51.410275,20.45967410769756L55.0824375,56.135675263811414L58.754599999999996,85.01690136603018L62.426762499999995,108.81777673094264L66.098925,128.72229301391448L69.7710875,145.58582263797047L73.44324999999999,160.0438254888771L77.11541249999999,172.57691702803226L80.78757499999999,183.55306195329027L84.4597375,193.25664362750777L88.1319,201.9093021901354L91.8040625,209.68505155930444L95.476225,216.72162209262146L99.1483875,223.1289847262754L102.82055,228.99564297103674L106.4927125,234.3935369555461L110.164875,239.38168378273556L113.83703750000001,244.00891652623994L117.50919999999999,248.3160313655199L121.1813625,252.33740824437407L124.85352499999999,256.1022694405546L128.5256875,259.63557203625084L132.19785,262.9588748924099L135.8700125,266.09088970426666L139.542175,269.0479551267631L143.2143375,271.8444289329137L146.88649999999998,274.4929748938422L150.5586625,277.00488540768316L154.23082499999998,279.39016943305296L157.9029875,281.65784791845084L161.57514999999998,283.8160299310831L165.2473125,285.872034730049L168.919475,287.83251219623526L172.5916375,289.70351508855117L176.2638,291.49057497958694L179.9359625,293.198757928392L183.608125,294.83271024285517L187.2802875,296.39671177855155L190.95245,297.894725894711L194.62461249999998,299.3303889800303L198.296775,300.70709068129025L201.96893749999998,302.0279681102239L205.6411,303.29593607405417L209.31326249999998,304.5137074609052L212.985425,305.68382232425904L216.65758749999998,306.8086394920338L220.32975,307.89036860909926L224.00191249999997,308.9310668918334L227.67407500000002,309.9326731343789L231.3462375,310.89700788854003L235.01839999999999,311.8257746952685L238.69056249999997,312.7205641941975L242.362725,313.5828880486938L246.0348875,314.41417345929466L249.70704999999998,315.2157559393545L253.37921249999997,315.9889030691207L257.051375,316.73480403013355L260.72353749999996,317.4545930998762L264.3957,318.1493418393874L268.0678625,318.82006058534046L271.740025,319.467714513183L275.41218749999996,320.09320855697416L279.08435,320.6974188089992L282.7565125,321.2811686647311L286.428675,321.84524428381775L290.1008375,322.3903999342576L293.77299999999997,322.91734490746586L297.4451625,323.42676207068166L301.117325,323.91931001003144L304.7894875,324.39560746315453L308.46164999999996,324.85625431456174L312.1338125,325.3018183512568L315.805975,325.7328458546448L319.4781375,326.1498628997116L323.15029999999996,326.55336995502165L326.8224625,326.94384482222705L330.494625,327.32175086017196L334.1667875,327.6875261896893L337.83895,328.04159238437086L341.51111249999997,328.3843554717259L345.183275,328.71620119702555L348.8554375,329.0374992037817L352.5276,329.3486024522784L356.19976249999996,329.64985220754164L359.871925,329.94156811132444L363.5440875,330.2240638535881L367.21625,330.49763522798804L370.88841249999996,330.7625678521692L374.560575,331.01914292349215L378.2327375,331.26762747078413L381.9049,331.50828283062145L385.5770625,331.74136495802145L389.24922499999997,331.96712236576286L392.9213875,332.1857968541861L396.59355,332.3976250726211L400.2657125,332.6028363664882" style="fill: none;" fill="none"></path></g></g></g></g><g opacity="0.2"><g><g><g><path stroke="rgb(204, 51, 17)" stroke-width="2px" d="M44.06595,-4.343940448761019L47.7381125,30.334804224967964L51.410275,55.516111540794384L55.0824375,75.00575165748597L58.754599999999996,90.73087828159333L62.426762499999995,103.79580383300782L66.098925,114.88948767185212L69.7710875,124.46824740171434L73.44324999999999,132.85024921894075L77.11541249999999,140.2666967391968L80.78757499999999,146.89117805957795L84.4597375,152.85615943670274L88.1319,158.26414211392404L91.8040625,163.19563950896264L95.476225,167.71508707404138L99.1483875,171.87474100589753L102.82055,175.71777923703195L106.4927125,179.28045864701272L110.164875,182.5930925488472L113.83703750000001,185.68182589411737L117.50919999999999,188.5687588632107L121.1813625,191.27314906120301L124.85352499999999,193.81153510808946L128.5256875,196.19842200279237L132.19785,198.44640471339227L135.8700125,200.56661759614946L139.542175,202.5689029276371L143.2143375,204.4619794368744L146.88649999999998,206.25367825031282L150.5586625,207.95101030468942L154.23082499999998,209.56023375988008L157.9029875,211.08708994388581L161.57514999999998,212.53667976260186L165.2473125,213.91367717385293L168.919475,215.22235165834428L172.5916375,216.46657945513726L176.2638,217.6498660326004L179.9359625,218.77558203339578L183.608125,219.84677227139474L187.2802875,220.86618943810464L190.95245,221.83657498955728L194.62461249999998,222.76035578846933L198.296775,223.63989128470422L201.96893749999998,224.4773162186146L205.6411,225.27475409507753L209.31326249999998,226.03405876755716L212.985425,226.7570840895176L216.65758749999998,227.44554908871652L220.32975,228.1010492026806L224.00191249999997,228.72510122060777L227.67407500000002,229.31916575431825L231.3462375,229.88455735445024L235.01839999999999,230.4225793361664L238.69056249999997,230.9344338953495L242.362725,231.42125581502916L246.0348875,231.8841574072838L249.70704999999998,232.32409368753434L253.37921249999997,232.74212079048158L257.051375,233.13905890583993L260.72353749999996,233.5158293426037L264.3957,233.87324105501176L268.0678625,234.2120131134987L271.740025,234.53292076587678L275.41218749999996,234.83658196330072L279.08435,235.12370454072953L282.7565125,235.3948952138424L286.428675,235.6506483435631L290.1008375,235.891638058424L293.77299999999997,236.11833624839784L297.4451625,236.33125974535943L301.117325,236.53089167475702L304.7894875,236.7177376329899L308.46164999999996,236.8922245681286L312.1338125,237.0547906637192L315.805975,237.20585163235666L319.4781375,237.34584565758706L323.15029999999996,237.47516598105432L326.8224625,237.59412719607354L330.494625,237.7031113088131L334.1667875,237.8024216771126L337.83895,237.89242907166482L341.51111249999997,237.9733582019806L345.183275,238.0454787194729L348.8554375,238.1090715110302L352.5276,238.16431634426118L356.19976249999996,238.21144916415216L359.871925,238.25064973831178L363.5440875,238.28210906982423L367.21625,238.30598445534707L370.88841249999996,238.32248936891557L374.560575,238.3317586362362L378.2327375,238.33400573134423L381.9049,238.32942165732385L385.5770625,238.31825359463693L389.24922499999997,238.30065883994104L392.9213875,238.27686210274697L396.59355,238.2470431506634L400.2657125,238.21147163510324" style="fill: none;" fill="none"></path></g><g><path stroke="rgb(0, 119, 187)" stroke-width="2px" d="M44.06595,-4.083052706718478L47.7381125,45.02676146030427L51.410275,79.39700244665147L55.0824375,105.4884282231331L58.754599999999996,126.31751679182054L62.426762499999995,143.51968150138856L66.098925,158.0775882780552L69.7710875,170.62619878649713L73.44324999999999,181.59969674348832L77.11541249999999,191.30834980607034L80.78757499999999,199.98144032359124L84.4597375,207.79300581216813L88.1319,214.87811915874482L91.8040625,221.34319155216218L95.476225,227.27350025177003L99.1483875,232.73840184807779L102.82055,237.79473661184312L106.4927125,242.4898845434189L110.164875,246.86363046169282L113.83703750000001,250.94961338043214L117.50919999999999,254.77661858797075L121.1813625,258.36942592561246L124.85352499999999,261.7495344758034L128.5256875,264.93551086187364L132.19785,267.9438206732273L135.8700125,270.7889071136713L139.542175,273.48355053663255L143.2143375,276.039138096571L146.88649999999998,278.4657929569483L150.5586625,280.7727506786585L154.23082499999998,282.96809518635274L157.9029875,285.0593654841185L161.57514999999998,287.0533028572798L165.2473125,288.9560418754816L168.919475,290.7732283651829L172.5916375,292.51001940965654L176.2638,294.17116480618716L179.9359625,295.761032345891L183.608125,297.2836387112737L187.2802875,298.7427140802145L190.95245,300.1417470678687L194.62461249999998,301.48388360738755L198.296775,302.77214323282243L201.96893749999998,304.00928425341846L205.6411,305.197888019681L209.31326249999998,306.3403645411134L212.985425,307.4389946192503L216.65758749999998,308.49586524367334L220.32975,309.5129622846842L224.00191249999997,310.49211431592704L227.67407500000002,311.4350824981928L231.3462375,312.3435100197792L235.01839999999999,313.21892490535976L238.69056249999997,314.06274844259025L242.362725,314.8763738304377L246.0348875,315.6611015751958L249.70704999999998,316.4181296594441L253.37921249999997,317.1486237637699L257.051375,317.85365547165276L260.72353749999996,318.5342767044902L264.3957,319.1914649486542L268.0678625,319.82613870427014L271.740025,320.4391954049468L275.41218749999996,321.0314496226609L279.08435,321.60373418703676L282.7565125,322.156793448329L286.428675,322.69135771244765L290.1008375,323.20813340991737L293.77299999999997,323.70776236727835L297.4451625,324.1908878155053L301.117325,324.6581319190562L304.7894875,325.1100536428392L308.46164999999996,325.54722459167243L312.1338125,325.9701644062996L315.805975,326.3793871097267L319.4781375,326.77538846731187L323.15029999999996,327.15863053798677L326.8224625,327.5295571230352L330.494625,327.88860991708935L334.1667875,328.23618918396534L337.83895,328.57269167639316L341.51111249999997,328.8985001027584L345.183275,329.21396978497506L348.8554375,329.51944621391596L352.5276,329.8152573250234L356.19976249999996,330.10172684043647L359.871925,330.3791419669986L363.5440875,330.6478074669838L367.21625,330.90799228958787L370.88841249999996,331.15996678844095L374.560575,331.4040055304766L378.2327375,331.6403542917222L381.9049,331.86926587037743L385.5770625,332.0909881491214L389.24922499999997,332.3057584773749L392.9213875,332.51380858682097L396.59355,332.7153674002737L400.2657125,332.9106533072889" style="fill: none;" fill="none"></path></g></g></g></g></g></g><g transform="translate(51, 377)" clip-path="url(#clip_1)"><clipPath id="clip_1"><rect width="440" height="22"></rect></clipPath><g><g><line x1="0" y1="0" x2="0" y2="5" style="visibility: inherit;" fill="rgb(0, 0, 0)" stroke="rgb(204, 204, 204)" stroke-width="1px"></line><line x1="36.721624999999996" y1="0" x2="36.721624999999996" y2="5" style="visibility: inherit;" fill="rgb(0, 0, 0)" stroke="rgb(204, 204, 204)" stroke-width="1px"></line><line x1="73.44324999999999" y1="0" x2="73.44324999999999" y2="5" style="visibility: inherit;" fill="rgb(0, 0, 0)" stroke="rgb(204, 204, 204)" stroke-width="1px"></line><line x1="110.164875" y1="0" x2="110.164875" y2="5" style="visibility: inherit;" fill="rgb(0, 0, 0)" stroke="rgb(204, 204, 204)" stroke-width="1px"></line><line x1="146.88649999999998" y1="0" x2="146.88649999999998" y2="5" style="visibility: inherit;" fill="rgb(0, 0, 0)" stroke="rgb(204, 204, 204)" stroke-width="1px"></line><line x1="183.608125" y1="0" x2="183.608125" y2="5" style="visibility: inherit;" fill="rgb(0, 0, 0)" stroke="rgb(204, 204, 204)" stroke-width="1px"></line><line x1="220.32975" y1="0" x2="220.32975" y2="5" style="visibility: inherit;" fill="rgb(0, 0, 0)" stroke="rgb(204, 204, 204)" stroke-width="1px"></line><line x1="257.051375" y1="0" x2="257.051375" y2="5" style="visibility: inherit;" fill="rgb(0, 0, 0)" stroke="rgb(204, 204, 204)" stroke-width="1px"></line><line x1="293.77299999999997" y1="0" x2="293.77299999999997" y2="5" style="visibility: inherit;" fill="rgb(0, 0, 0)" stroke="rgb(204, 204, 204)" stroke-width="1px"></line><line x1="330.494625" y1="0" x2="330.494625" y2="5" style="visibility: inherit;" fill="rgb(0, 0, 0)" stroke="rgb(204, 204, 204)" stroke-width="1px"></line><line x1="367.21625" y1="0" x2="367.21625" y2="5" style="visibility: inherit;" fill="rgb(0, 0, 0)" stroke="rgb(204, 204, 204)" stroke-width="1px"></line><line x1="403.93787499999996" y1="0" x2="403.93787499999996" y2="5" style="visibility: inherit;" fill="rgb(0, 0, 0)" stroke="rgb(204, 204, 204)" stroke-width="1px"></line><line x1="440.6595" y1="0" x2="440.6595" y2="5" style="visibility: inherit;" fill="rgb(0, 0, 0)" stroke="rgb(204, 204, 204)" stroke-width="1px"></line></g><g transform="translate(0, 8)"><text x="0" y="0" dx="0em" dy="0.95em" style="text-anchor: middle; visibility: hidden; font-family: Roboto, sans-serif; font-size: 12px; font-weight: 200;" fill="rgb(33, 33, 33)" stroke="none" stroke-width="1px">-10</text><text x="36.721624999999996" y="0" dx="0em" dy="0.95em" style="text-anchor: middle; visibility: inherit; font-family: Roboto, sans-serif; font-size: 12px; font-weight: 200;" fill="rgb(33, 33, 33)" stroke="none" stroke-width="1px">0</text><text x="73.44324999999999" y="0" dx="0em" dy="0.95em" style="text-anchor: middle; visibility: inherit; font-family: Roboto, sans-serif; font-size: 12px; font-weight: 200;" fill="rgb(33, 33, 33)" stroke="none" stroke-width="1px">10</text><text x="110.164875" y="0" dx="0em" dy="0.95em" style="text-anchor: middle; visibility: inherit; font-family: Roboto, sans-serif; font-size: 12px; font-weight: 200;" fill="rgb(33, 33, 33)" stroke="none" stroke-width="1px">20</text><text x="146.88649999999998" y="0" dx="0em" dy="0.95em" style="text-anchor: middle; visibility: inherit; font-family: Roboto, sans-serif; font-size: 12px; font-weight: 200;" fill="rgb(33, 33, 33)" stroke="none" stroke-width="1px">30</text><text x="183.608125" y="0" dx="0em" dy="0.95em" style="text-anchor: middle; visibility: inherit; font-family: Roboto, sans-serif; font-size: 12px; font-weight: 200;" fill="rgb(33, 33, 33)" stroke="none" stroke-width="1px">40</text><text x="220.32975" y="0" dx="0em" dy="0.95em" style="text-anchor: middle; visibility: inherit; font-family: Roboto, sans-serif; font-size: 12px; font-weight: 200;" fill="rgb(33, 33, 33)" stroke="none" stroke-width="1px">50</text><text x="257.051375" y="0" dx="0em" dy="0.95em" style="text-anchor: middle; visibility: inherit; font-family: Roboto, sans-serif; font-size: 12px; font-weight: 200;" fill="rgb(33, 33, 33)" stroke="none" stroke-width="1px">60</text><text x="293.77299999999997" y="0" dx="0em" dy="0.95em" style="text-anchor: middle; visibility: inherit; font-family: Roboto, sans-serif; font-size: 12px; font-weight: 200;" fill="rgb(33, 33, 33)" stroke="none" stroke-width="1px">70</text><text x="330.494625" y="0" dx="0em" dy="0.95em" style="text-anchor: middle; visibility: inherit; font-family: Roboto, sans-serif; font-size: 12px; font-weight: 200;" fill="rgb(33, 33, 33)" stroke="none" stroke-width="1px">80</text><text x="367.21625" y="0" dx="0em" dy="0.95em" style="text-anchor: middle; visibility: inherit; font-family: Roboto, sans-serif; font-size: 12px; font-weight: 200;" fill="rgb(33, 33, 33)" stroke="none" stroke-width="1px">90</text><text x="403.93787499999996" y="0" dx="0em" dy="0.95em" style="text-anchor: middle; visibility: inherit; font-family: Roboto, sans-serif; font-size: 12px; font-weight: 200;" fill="rgb(33, 33, 33)" stroke="none" stroke-width="1px">100</text><text x="440.6595" y="0" dx="0em" dy="0.95em" style="text-anchor: middle; visibility: hidden; font-family: Roboto, sans-serif; font-size: 12px; font-weight: 200;" fill="rgb(33, 33, 33)" stroke="none" stroke-width="1px">110</text></g><line x1="0" y1="0" x2="440.6595" y2="0" fill="rgb(0, 0, 0)" stroke="rgb(204, 204, 204)" stroke-width="1px"></line></g></g></g></g></svg>