<svg viewBox="0 0 438.888916015625 400.0000305175781" xmlns="http://www.w3.org/2000/svg"><g><g><g><g><g><line x1="50" y1="377" x2="45" y2="377" style="visibility: inherit;" fill="rgb(0, 0, 0)" stroke="rgb(204, 204, 204)" stroke-width="1px"></line><line x1="50" y1="339.3" x2="45" y2="339.3" style="visibility: inherit;" fill="rgb(0, 0, 0)" stroke="rgb(204, 204, 204)" stroke-width="1px"></line><line x1="50" y1="301.6" x2="45" y2="301.6" style="visibility: inherit;" fill="rgb(0, 0, 0)" stroke="rgb(204, 204, 204)" stroke-width="1px"></line><line x1="50" y1="263.9" x2="45" y2="263.9" style="visibility: inherit;" fill="rgb(0, 0, 0)" stroke="rgb(204, 204, 204)" stroke-width="1px"></line><line x1="50" y1="226.2" x2="45" y2="226.2" style="visibility: inherit;" fill="rgb(0, 0, 0)" stroke="rgb(204, 204, 204)" stroke-width="1px"></line><line x1="50" y1="188.5" x2="45" y2="188.5" style="visibility: inherit;" fill="rgb(0, 0, 0)" stroke="rgb(204, 204, 204)" stroke-width="1px"></line><line x1="50" y1="150.8" x2="45" y2="150.8" style="visibility: inherit;" fill="rgb(0, 0, 0)" stroke="rgb(204, 204, 204)" stroke-width="1px"></line><line x1="50" y1="113.10000000000002" x2="45" y2="113.10000000000002" style="visibility: inherit;" fill="rgb(0, 0, 0)" stroke="rgb(204, 204, 204)" stroke-width="1px"></line><line x1="50" y1="75.40000000000002" x2="45" y2="75.40000000000002" style="visibility: inherit;" fill="rgb(0, 0, 0)" stroke="rgb(204, 204, 204)" stroke-width="1px"></line><line x1="50" y1="37.69999999999999" x2="45" y2="37.69999999999999" style="visibility: inherit;" fill="rgb(0, 0, 0)" stroke="rgb(204, 204, 204)" stroke-width="1px"></line><line x1="50" y1="0" x2="45" y2="0" style="visibility: inherit;" fill="rgb(0, 0, 0)" stroke="rgb(204, 204, 204)" stroke-width="1px"></line></g><g transform="translate(40, 0)"><text x="0" y="377" dx="0em" dy="0.3em" style="text-anchor: end; visibility: hidden; font-family: Roboto, sans-serif; font-size: 12px; font-weight: 200;" fill="rgb(33, 33, 33)" stroke="none" stroke-width="1px">-0.2</text><text x="0" y="339.3" dx="0em" dy="0.3em" style="text-anchor: end; visibility: inherit; font-family: Roboto, sans-serif; font-size: 12px; font-weight: 200;" fill="rgb(33, 33, 33)" stroke="none" stroke-width="1px">0</text><text x="0" y="301.6" dx="0em" dy="0.3em" style="text-anchor: end; visibility: inherit; font-family: Roboto, sans-serif; font-size: 12px; font-weight: 200;" fill="rgb(33, 33, 33)" stroke="none" stroke-width="1px">0.2</text><text x="0" y="263.9" dx="0em" dy="0.3em" style="text-anchor: end; visibility: inherit; font-family: Roboto, sans-serif; font-size: 12px; font-weight: 200;" fill="rgb(33, 33, 33)" stroke="none" stroke-width="1px">0.4</text><text x="0" y="226.2" dx="0em" dy="0.3em" style="text-anchor: end; visibility: inherit; font-family: Roboto, sans-serif; font-size: 12px; font-weight: 200;" fill="rgb(33, 33, 33)" stroke="none" stroke-width="1px">0.6</text><text x="0" y="188.5" dx="0em" dy="0.3em" style="text-anchor: end; visibility: inherit; font-family: Roboto, sans-serif; font-size: 12px; font-weight: 200;" fill="rgb(33, 33, 33)" stroke="none" stroke-width="1px">0.8</text><text x="0" y="150.8" dx="0em" dy="0.3em" style="text-anchor: end; visibility: inherit; font-family: Roboto, sans-serif; font-size: 12px; font-weight: 200;" fill="rgb(33, 33, 33)" stroke="none" stroke-width="1px">1</text><text x="0" y="113.10000000000002" dx="0em" dy="0.3em" style="text-anchor: end; visibility: inherit; font-family: Roboto, sans-serif; font-size: 12px; font-weight: 200;" fill="rgb(33, 33, 33)" stroke="none" stroke-width="1px">1.2</text><text x="0" y="75.40000000000002" dx="0em" dy="0.3em" style="text-anchor: end; visibility: inherit; font-family: Roboto, sans-serif; font-size: 12px; font-weight: 200;" fill="rgb(33, 33, 33)" stroke="none" stroke-width="1px">1.4</text><text x="0" y="37.69999999999999" dx="0em" dy="0.3em" style="text-anchor: end; visibility: inherit; font-family: Roboto, sans-serif; font-size: 12px; font-weight: 200;" fill="rgb(33, 33, 33)" stroke="none" stroke-width="1px">1.6</text><text x="0" y="0" dx="0em" dy="0.3em" style="text-anchor: end; visibility: hidden; font-family: Roboto, sans-serif; font-size: 12px; font-weight: 200;" fill="rgb(33, 33, 33)" stroke="none" stroke-width="1px">1.8</text></g><line x1="50" y1="0" x2="50" y2="377" fill="rgb(0, 0, 0)" stroke="rgb(204, 204, 204)" stroke-width="1px"></line></g></g><g transform="translate(50, 0)" clip-path="url(#clip_0)"><clipPath id="clip_0"><rect width="388" height="376"></rect></clipPath><g><g><g><line x1="0" y1="0" x2="0" y2="377" fill="rgb(0, 0, 0)" stroke="rgb(66, 66, 66)" stroke-width="1px" opacity="0.25"></line><line x1="32.40741666666666" y1="0" x2="32.40741666666666" y2="377" fill="rgb(0, 0, 0)" stroke="rgb(66, 66, 66)" stroke-width="1px" opacity="0.25"></line><line x1="64.81483333333333" y1="0" x2="64.81483333333333" y2="377" fill="rgb(0, 0, 0)" stroke="rgb(66, 66, 66)" stroke-width="1px" opacity="0.25"></line><line x1="97.22225" y1="0" x2="97.22225" y2="377" fill="rgb(0, 0, 0)" stroke="rgb(66, 66, 66)" stroke-width="1px" opacity="0.25"></line><line x1="129.62966666666665" y1="0" x2="129.62966666666665" y2="377" fill="rgb(0, 0, 0)" stroke="rgb(66, 66, 66)" stroke-width="1px" opacity="0.25"></line><line x1="162.03708333333336" y1="0" x2="162.03708333333336" y2="377" fill="rgb(0, 0, 0)" stroke="rgb(66, 66, 66)" stroke-width="1px" opacity="0.25"></line><line x1="194.4445" y1="0" x2="194.4445" y2="377" fill="rgb(0, 0, 0)" stroke="rgb(66, 66, 66)" stroke-width="1px" opacity="0.25"></line><line x1="226.85191666666668" y1="0" x2="226.85191666666668" y2="377" fill="rgb(0, 0, 0)" stroke="rgb(66, 66, 66)" stroke-width="1px" opacity="0.25"></line><line x1="259.2593333333333" y1="0" x2="259.2593333333333" y2="377" fill="rgb(0, 0, 0)" stroke="rgb(66, 66, 66)" stroke-width="1px" opacity="0.25"></line><line x1="291.66675" y1="0" x2="291.66675" y2="377" fill="rgb(0, 0, 0)" stroke="rgb(66, 66, 66)" stroke-width="1px" opacity="0.25"></line><line x1="324.0741666666667" y1="0" x2="324.0741666666667" y2="377" fill="rgb(0, 0, 0)" stroke="rgb(66, 66, 66)" stroke-width="1px" opacity="0.25"></line><line x1="356.48158333333333" y1="0" x2="356.48158333333333" y2="377" fill="rgb(0, 0, 0)" stroke="rgb(66, 66, 66)" stroke-width="1px" opacity="0.25"></line><line x1="388.889" y1="0" x2="388.889" y2="377" fill="rgb(0, 0, 0)" stroke="rgb(66, 66, 66)" stroke-width="1px" opacity="0.25"></line></g><g><line x1="0" y1="377" x2="388.889" y2="377" fill="rgb(0, 0, 0)" stroke="rgb(66, 66, 66)" stroke-width="1px" opacity="0.25"></line><line x1="0" y1="339.3" x2="388.889" y2="339.3" fill="rgb(0, 0, 0)" stroke="rgb(66, 66, 66)" stroke-width="1px" opacity="0.25"></line><line x1="0" y1="301.6" x2="388.889" y2="301.6" fill="rgb(0, 0, 0)" stroke="rgb(66, 66, 66)" stroke-width="1px" opacity="0.25"></line><line x1="0" y1="263.9" x2="388.889" y2="263.9" fill="rgb(0, 0, 0)" stroke="rgb(66, 66, 66)" stroke-width="1px" opacity="0.25"></line><line x1="0" y1="226.2" x2="388.889" y2="226.2" fill="rgb(0, 0, 0)" stroke="rgb(66, 66, 66)" stroke-width="1px" opacity="0.25"></line><line x1="0" y1="188.5" x2="388.889" y2="188.5" fill="rgb(0, 0, 0)" stroke="rgb(66, 66, 66)" stroke-width="1px" opacity="0.25"></line><line x1="0" y1="150.8" x2="388.889" y2="150.8" fill="rgb(0, 0, 0)" stroke="rgb(66, 66, 66)" stroke-width="1px" opacity="0.25"></line><line x1="0" y1="113.10000000000002" x2="388.889" y2="113.10000000000002" fill="rgb(0, 0, 0)" stroke="rgb(66, 66, 66)" stroke-width="1px" opacity="0.25"></line><line x1="0" y1="75.40000000000002" x2="388.889" y2="75.40000000000002" fill="rgb(0, 0, 0)" stroke="rgb(66, 66, 66)" stroke-width="1px" opacity="0.25"></line><line x1="0" y1="37.69999999999999" x2="388.889" y2="37.69999999999999" fill="rgb(0, 0, 0)" stroke="rgb(66, 66, 66)" stroke-width="1px" opacity="0.25"></line><line x1="0" y1="0" x2="388.889" y2="0" fill="rgb(0, 0, 0)" stroke="rgb(66, 66, 66)" stroke-width="1px" opacity="0.25"></line></g></g></g><g><g><line x1="0" y1="339.3" x2="388.889" y2="339.3" fill="rgb(0, 0, 0)" stroke="rgb(153, 153, 153)" stroke-width="1.5px"></line></g></g><g><g><line x1="32.40741666666666" y1="0" x2="32.40741666666666" y2="377" fill="rgb(0, 0, 0)" stroke="rgb(153, 153, 153)" stroke-width="1.5px"></line></g></g><g><g><g><g><g><path stroke="rgb(204, 51, 17)" stroke-width="2px" d="M42.12964166666667,-12.627123614970316L45.370383333333336,16.928408635101118L48.611125,41.29625194135149L51.851866666666666,61.63958562320458L55.09260833333333,78.790136300388L58.333349999999996,93.37687759335479L61.57409166666667,105.88908203227376L64.81483333333333,116.71281709911227L68.05557499999999,126.15492236309936L71.29631666666667,134.4602720047273L74.53705833333333,141.82439781315026L77.77780000000001,148.40338887627132L81.01854166666668,154.32195882297933L84.25928333333334,159.6801170806049L87.50002500000001,164.55846209523025L90.74076666666667,169.02246097007028L93.98150833333334,173.1258100657915L97.22225,176.91280613415967L100.46299166666668,180.42046020648326L103.70373333333333,183.67980540920837L106.94447500000001,186.7171572621376L110.18521666666666,189.55491646834946L113.42595833333334,192.212323215177L116.66669999999999,194.70595836667465L119.90744166666667,197.05022349806427L123.14818333333334,199.2576960832511L126.38892500000001,201.339409884913L129.62966666666665,203.30511749181298L132.87040833333333,205.1634747648639L136.11114999999998,206.9221784468519L139.35189166666666,208.5881430933973L142.59263333333334,210.16755778823037L145.833375,211.66600555793502L149.07411666666667,213.0885440069023L152.31485833333335,214.4397581912136L155.55560000000003,215.72380133062907L158.79634166666668,216.94451361336752L162.03708333333336,218.10541707750951L165.277825,219.209726022279L168.5185666666667,220.26046560949368L171.75930833333334,221.26042168125716L175.00005000000002,222.21220952273495L178.24079166666667,223.1182522011433L181.48153333333335,223.98085295874927L184.722275,224.80213528229086L187.96301666666668,225.58411480519206L191.20375833333333,226.32868851860786L194.4445,227.0376327922404L197.68524166666666,227.7126201635893L200.92598333333336,228.35523839988198L204.166725,228.9669659817099L207.40746666666666,229.54921132349287L210.64820833333332,230.10330035223572L213.88895000000002,230.63048253735323L217.12969166666667,231.1319524853255L220.37043333333332,231.60880896620907L223.61117499999997,232.0621336959181L226.85191666666668,232.49290377988683L230.09265833333333,232.90207400497357L233.33339999999998,233.29054082498885L236.57414166666666,233.6591297403928L239.81488333333334,234.0086461505864L243.05562500000002,234.33982047567213L246.29636666666667,234.65337410169508L249.53710833333335,234.949982546554L252.77785000000003,235.23024886535765L256.0185916666667,235.49480454258418L259.2593333333333,235.74421722490965L262.50007500000004,235.97903423308952L265.74081666666666,236.19977720975652L268.98155833333334,236.4069613790499L272.22229999999996,236.60106665468135L275.4630416666667,236.78255625829647L278.7037833333333,236.95187440792054L281.944525,237.10946290778716L285.1852666666667,237.25574413709398L288.42600833333336,237.39109736068582L291.66675,237.51590293993672L294.90749166666666,237.63051043480706L298.14823333333334,237.73527788955016L301.388975,237.83051001452233L304.6297166666667,237.91649749650253L307.8704583333333,237.99352710231364L311.11120000000005,238.06184279909263L314.3519416666667,238.12168534511645L317.59268333333335,238.17327110239458L320.833425,238.21680628936645L324.0741666666667,238.25247755575867L327.31490833333334,238.28048228102142L330.55565,238.30099282310735L333.79639166666664,238.31419798640206L337.0371333333334,238.32028745477078L340.277875,238.31947391071725L343.5186166666667,238.31194788240674L346.75935833333335,238.29791357054282L350.00010000000003,238.27756540259105L353.24084166666665,238.25112789559594" style="fill: none;" fill="none"></path></g><g><path stroke="rgb(0, 119, 187)" stroke-width="2px" d="M42.12964166666667,-24.682274681329677L45.370383333333336,20.45967410769756L48.611125,56.135675263811414L51.851866666666666,85.01690136603018L55.09260833333333,108.81777673094264L58.333349999999996,128.72229301391448L61.57409166666667,145.58582263797047L64.81483333333333,160.0438254888771L68.05557499999999,172.57691702803226L71.29631666666667,183.55306195329027L74.53705833333333,193.25664362750777L77.77780000000001,201.9093021901354L81.01854166666668,209.68505155930444L84.25928333333334,216.72162209262146L87.50002500000001,223.1289847262754L90.74076666666667,228.99564297103674L93.98150833333334,234.3935369555461L97.22225,239.38168378273556L100.46299166666668,244.00891652623994L103.70373333333333,248.3160313655199L106.94447500000001,252.33740824437407L110.18521666666666,256.1022694405546L113.42595833333334,259.63557203625084L116.66669999999999,262.9588748924099L119.90744166666667,266.09088970426666L123.14818333333334,269.0479551267631L126.38892500000001,271.8444289329137L129.62966666666665,274.4929748938422L132.87040833333333,277.00488540768316L136.11114999999998,279.39016943305296L139.35189166666666,281.65784791845084L142.59263333333334,283.8160299310831L145.833375,285.872034730049L149.07411666666667,287.83251219623526L152.31485833333335,289.70351508855117L155.55560000000003,291.49057497958694L158.79634166666668,293.198757928392L162.03708333333336,294.83271024285517L165.277825,296.39671177855155L168.5185666666667,297.894725894711L171.75930833333334,299.3303889800303L175.00005000000002,300.70709068129025L178.24079166666667,302.0279681102239L181.48153333333335,303.29593607405417L184.722275,304.5137074609052L187.96301666666668,305.68382232425904L191.20375833333333,306.8086394920338L194.4445,307.89036860909926L197.68524166666666,308.9310668918334L200.92598333333336,309.9326731343789L204.166725,310.89700788854003L207.40746666666666,311.8257746952685L210.64820833333332,312.7205641941975L213.88895000000002,313.5828880486938L217.12969166666667,314.41417345929466L220.37043333333332,315.2157559393545L223.61117499999997,315.9889030691207L226.85191666666668,316.73480403013355L230.09265833333333,317.4545930998762L233.33339999999998,318.1493418393874L236.57414166666666,318.82006058534046L239.81488333333334,319.467714513183L243.05562500000002,320.09320855697416L246.29636666666667,320.6974188089992L249.53710833333335,321.2811686647311L252.77785000000003,321.84524428381775L256.0185916666667,322.3903999342576L259.2593333333333,322.91734490746586L262.50007500000004,323.42676207068166L265.74081666666666,323.91931001003144L268.98155833333334,324.39560746315453L272.22229999999996,324.85625431456174L275.4630416666667,325.3018183512568L278.7037833333333,325.7328458546448L281.944525,326.1498628997116L285.1852666666667,326.55336995502165L288.42600833333336,326.94384482222705L291.66675,327.32175086017196L294.90749166666666,327.6875261896893L298.14823333333334,328.04159238437086L301.388975,328.3843554717259L304.6297166666667,328.71620119702555L307.8704583333333,329.0374992037817L311.11120000000005,329.3486024522784L314.3519416666667,329.64985220754164L317.59268333333335,329.94156811132444L320.833425,330.2240638535881L324.0741666666667,330.49763522798804L327.31490833333334,330.7625678521692L330.55565,331.01914292349215L333.79639166666664,331.26762747078413L337.0371333333334,331.50828283062145L340.277875,331.74136495802145L343.5186166666667,331.96712236576286L346.75935833333335,332.1857968541861L350.00010000000003,332.3976250726211L353.24084166666665,332.6028363664882" style="fill: none;" fill="none"></path></g></g></g></g><g opacity="0.2"><g><g><g><path stroke="rgb(204, 51, 17)" stroke-width="2px" d="M38.88890000000001,-4.343940448761019L42.12964166666667,30.334804224967964L45.370383333333336,55.516111540794384L48.611125,75.00575165748597L51.851866666666666,90.73087828159333L55.09260833333333,103.79580383300782L58.333349999999996,114.88948767185212L61.57409166666667,124.46824740171434L64.81483333333333,132.85024921894075L68.05557499999999,140.2666967391968L71.29631666666667,146.89117805957795L74.53705833333333,152.85615943670274L77.77780000000001,158.26414211392404L81.01854166666668,163.19563950896264L84.25928333333334,167.71508707404138L87.50002500000001,171.87474100589753L90.74076666666667,175.71777923703195L93.98150833333334,179.28045864701272L97.22225,182.5930925488472L100.46299166666668,185.68182589411737L103.70373333333333,188.5687588632107L106.94447500000001,191.27314906120301L110.18521666666666,193.81153510808946L113.42595833333334,196.19842200279237L116.66669999999999,198.44640471339227L119.90744166666667,200.56661759614946L123.14818333333334,202.5689029276371L126.38892500000001,204.4619794368744L129.62966666666665,206.25367825031282L132.87040833333333,207.95101030468942L136.11114999999998,209.56023375988008L139.35189166666666,211.08708994388581L142.59263333333334,212.53667976260186L145.833375,213.91367717385293L149.07411666666667,215.22235165834428L152.31485833333335,216.46657945513726L155.55560000000003,217.6498660326004L158.79634166666668,218.77558203339578L162.03708333333336,219.84677227139474L165.277825,220.86618943810464L168.5185666666667,221.83657498955728L171.75930833333334,222.76035578846933L175.00005000000002,223.63989128470422L178.24079166666667,224.4773162186146L181.48153333333335,225.27475409507753L184.722275,226.03405876755716L187.96301666666668,226.7570840895176L191.20375833333333,227.44554908871652L194.4445,228.1010492026806L197.68524166666666,228.72510122060777L200.92598333333336,229.31916575431825L204.166725,229.88455735445024L207.40746666666666,230.4225793361664L210.64820833333332,230.9344338953495L213.88895000000002,231.42125581502916L217.12969166666667,231.8841574072838L220.37043333333332,232.32409368753434L223.61117499999997,232.74212079048158L226.85191666666668,233.13905890583993L230.09265833333333,233.5158293426037L233.33339999999998,233.87324105501176L236.57414166666666,234.2120131134987L239.81488333333334,234.53292076587678L243.05562500000002,234.83658196330072L246.29636666666667,235.12370454072953L249.53710833333335,235.3948952138424L252.77785000000003,235.6506483435631L256.0185916666667,235.891638058424L259.2593333333333,236.11833624839784L262.50007500000004,236.33125974535943L265.74081666666666,236.53089167475702L268.98155833333334,236.7177376329899L272.22229999999996,236.8922245681286L275.4630416666667,237.0547906637192L278.7037833333333,237.20585163235666L281.944525,237.34584565758706L285.1852666666667,237.47516598105432L288.42600833333336,237.59412719607354L291.66675,237.7031113088131L294.90749166666666,237.8024216771126L298.14823333333334,237.89242907166482L301.388975,237.9733582019806L304.6297166666667,238.0454787194729L307.8704583333333,238.1090715110302L311.11120000000005,238.16431634426118L314.3519416666667,238.21144916415216L317.59268333333335,238.25064973831178L320.833425,238.28210906982423L324.0741666666667,238.30598445534707L327.31490833333334,238.32248936891557L330.55565,238.3317586362362L333.79639166666664,238.33400573134423L337.0371333333334,238.32942165732385L340.277875,238.31825359463693L343.5186166666667,238.30065883994104L346.75935833333335,238.27686210274697L350.00010000000003,238.2470431506634L353.24084166666665,238.21147163510324" style="fill: none;" fill="none"></path></g><g><path stroke="rgb(0, 119, 187)" stroke-width="2px" d="M38.88890000000001,-4.083052706718478L42.12964166666667,45.02676146030427L45.370383333333336,79.39700244665147L48.611125,105.4884282231331L51.851866666666666,126.31751679182054L55.09260833333333,143.51968150138856L58.333349999999996,158.0775882780552L61.57409166666667,170.62619878649713L64.81483333333333,181.59969674348832L68.05557499999999,191.30834980607034L71.29631666666667,199.98144032359124L74.53705833333333,207.79300581216813L77.77780000000001,214.87811915874482L81.01854166666668,221.34319155216218L84.25928333333334,227.27350025177003L87.50002500000001,232.73840184807779L90.74076666666667,237.79473661184312L93.98150833333334,242.4898845434189L97.22225,246.86363046169282L100.46299166666668,250.94961338043214L103.70373333333333,254.77661858797075L106.94447500000001,258.36942592561246L110.18521666666666,261.7495344758034L113.42595833333334,264.93551086187364L116.66669999999999,267.9438206732273L119.90744166666667,270.7889071136713L123.14818333333334,273.48355053663255L126.38892500000001,276.039138096571L129.62966666666665,278.4657929569483L132.87040833333333,280.7727506786585L136.11114999999998,282.96809518635274L139.35189166666666,285.0593654841185L142.59263333333334,287.0533028572798L145.833375,288.9560418754816L149.07411666666667,290.7732283651829L152.31485833333335,292.51001940965654L155.55560000000003,294.17116480618716L158.79634166666668,295.761032345891L162.03708333333336,297.2836387112737L165.277825,298.7427140802145L168.5185666666667,300.1417470678687L171.75930833333334,301.48388360738755L175.00005000000002,302.77214323282243L178.24079166666667,304.00928425341846L181.48153333333335,305.197888019681L184.722275,306.3403645411134L187.96301666666668,307.4389946192503L191.20375833333333,308.49586524367334L194.4445,309.5129622846842L197.68524166666666,310.49211431592704L200.92598333333336,311.4350824981928L204.166725,312.3435100197792L207.40746666666666,313.21892490535976L210.64820833333332,314.06274844259025L213.88895000000002,314.8763738304377L217.12969166666667,315.6611015751958L220.37043333333332,316.4181296594441L223.61117499999997,317.1486237637699L226.85191666666668,317.85365547165276L230.09265833333333,318.5342767044902L233.33339999999998,319.1914649486542L236.57414166666666,319.82613870427014L239.81488333333334,320.4391954049468L243.05562500000002,321.0314496226609L246.29636666666667,321.60373418703676L249.53710833333335,322.156793448329L252.77785000000003,322.69135771244765L256.0185916666667,323.20813340991737L259.2593333333333,323.70776236727835L262.50007500000004,324.1908878155053L265.74081666666666,324.6581319190562L268.98155833333334,325.1100536428392L272.22229999999996,325.54722459167243L275.4630416666667,325.9701644062996L278.7037833333333,326.3793871097267L281.944525,326.77538846731187L285.1852666666667,327.15863053798677L288.42600833333336,327.5295571230352L291.66675,327.88860991708935L294.90749166666666,328.23618918396534L298.14823333333334,328.57269167639316L301.388975,328.8985001027584L304.6297166666667,329.21396978497506L307.8704583333333,329.51944621391596L311.11120000000005,329.8152573250234L314.3519416666667,330.10172684043647L317.59268333333335,330.3791419669986L320.833425,330.6478074669838L324.0741666666667,330.90799228958787L327.31490833333334,331.15996678844095L330.55565,331.4040055304766L333.79639166666664,331.6403542917222L337.0371333333334,331.86926587037743L340.277875,332.0909881491214L343.5186166666667,332.3057584773749L346.75935833333335,332.51380858682097L350.00010000000003,332.7153674002737L353.24084166666665,332.9106533072889" style="fill: none;" fill="none"></path></g></g></g></g></g><g><g opacity="0.733144"><span fill="rgb(0, 0, 0)" stroke="none" stroke-width="1px">Alt + Scroll to Zoom</span></g></g></g><g transform="translate(50, 377)" clip-path="url(#clip_1)"><clipPath id="clip_1"><rect width="388" height="22"></rect></clipPath><g><g><line x1="0" y1="0" x2="0" y2="5" style="visibility: inherit;" fill="rgb(0, 0, 0)" stroke="rgb(204, 204, 204)" stroke-width="1px"></line><line x1="32.40741666666666" y1="0" x2="32.40741666666666" y2="5" style="visibility: inherit;" fill="rgb(0, 0, 0)" stroke="rgb(204, 204, 204)" stroke-width="1px"></line><line x1="64.81483333333333" y1="0" x2="64.81483333333333" y2="5" style="visibility: inherit;" fill="rgb(0, 0, 0)" stroke="rgb(204, 204, 204)" stroke-width="1px"></line><line x1="97.22225" y1="0" x2="97.22225" y2="5" style="visibility: inherit;" fill="rgb(0, 0, 0)" stroke="rgb(204, 204, 204)" stroke-width="1px"></line><line x1="129.62966666666665" y1="0" x2="129.62966666666665" y2="5" style="visibility: inherit;" fill="rgb(0, 0, 0)" stroke="rgb(204, 204, 204)" stroke-width="1px"></line><line x1="162.03708333333336" y1="0" x2="162.03708333333336" y2="5" style="visibility: inherit;" fill="rgb(0, 0, 0)" stroke="rgb(204, 204, 204)" stroke-width="1px"></line><line x1="194.4445" y1="0" x2="194.4445" y2="5" style="visibility: inherit;" fill="rgb(0, 0, 0)" stroke="rgb(204, 204, 204)" stroke-width="1px"></line><line x1="226.85191666666668" y1="0" x2="226.85191666666668" y2="5" style="visibility: inherit;" fill="rgb(0, 0, 0)" stroke="rgb(204, 204, 204)" stroke-width="1px"></line><line x1="259.2593333333333" y1="0" x2="259.2593333333333" y2="5" style="visibility: inherit;" fill="rgb(0, 0, 0)" stroke="rgb(204, 204, 204)" stroke-width="1px"></line><line x1="291.66675" y1="0" x2="291.66675" y2="5" style="visibility: inherit;" fill="rgb(0, 0, 0)" stroke="rgb(204, 204, 204)" stroke-width="1px"></line><line x1="324.0741666666667" y1="0" x2="324.0741666666667" y2="5" style="visibility: inherit;" fill="rgb(0, 0, 0)" stroke="rgb(204, 204, 204)" stroke-width="1px"></line><line x1="356.48158333333333" y1="0" x2="356.48158333333333" y2="5" style="visibility: inherit;" fill="rgb(0, 0, 0)" stroke="rgb(204, 204, 204)" stroke-width="1px"></line><line x1="388.889" y1="0" x2="388.889" y2="5" style="visibility: inherit;" fill="rgb(0, 0, 0)" stroke="rgb(204, 204, 204)" stroke-width="1px"></line></g><g transform="translate(0, 8)"><text x="0" y="0" dx="0em" dy="0.95em" style="text-anchor: middle; visibility: hidden; font-family: Roboto, sans-serif; font-size: 12px; font-weight: 200;" fill="rgb(33, 33, 33)" stroke="none" stroke-width="1px">-10</text><text x="32.40741666666666" y="0" dx="0em" dy="0.95em" style="text-anchor: middle; visibility: inherit; font-family: Roboto, sans-serif; font-size: 12px; font-weight: 200;" fill="rgb(33, 33, 33)" stroke="none" stroke-width="1px">0</text><text x="64.81483333333333" y="0" dx="0em" dy="0.95em" style="text-anchor: middle; visibility: inherit; font-family: Roboto, sans-serif; font-size: 12px; font-weight: 200;" fill="rgb(33, 33, 33)" stroke="none" stroke-width="1px">10</text><text x="97.22225" y="0" dx="0em" dy="0.95em" style="text-anchor: middle; visibility: inherit; font-family: Roboto, sans-serif; font-size: 12px; font-weight: 200;" fill="rgb(33, 33, 33)" stroke="none" stroke-width="1px">20</text><text x="129.62966666666665" y="0" dx="0em" dy="0.95em" style="text-anchor: middle; visibility: inherit; font-family: Roboto, sans-serif; font-size: 12px; font-weight: 200;" fill="rgb(33, 33, 33)" stroke="none" stroke-width="1px">30</text><text x="162.03708333333336" y="0" dx="0em" dy="0.95em" style="text-anchor: middle; visibility: inherit; font-family: Roboto, sans-serif; font-size: 12px; font-weight: 200;" fill="rgb(33, 33, 33)" stroke="none" stroke-width="1px">40</text><text x="194.4445" y="0" dx="0em" dy="0.95em" style="text-anchor: middle; visibility: inherit; font-family: Roboto, sans-serif; font-size: 12px; font-weight: 200;" fill="rgb(33, 33, 33)" stroke="none" stroke-width="1px">50</text><text x="226.85191666666668" y="0" dx="0em" dy="0.95em" style="text-anchor: middle; visibility: inherit; font-family: Roboto, sans-serif; font-size: 12px; font-weight: 200;" fill="rgb(33, 33, 33)" stroke="none" stroke-width="1px">60</text><text x="259.2593333333333" y="0" dx="0em" dy="0.95em" style="text-anchor: middle; visibility: inherit; font-family: Roboto, sans-serif; font-size: 12px; font-weight: 200;" fill="rgb(33, 33, 33)" stroke="none" stroke-width="1px">70</text><text x="291.66675" y="0" dx="0em" dy="0.95em" style="text-anchor: middle; visibility: inherit; font-family: Roboto, sans-serif; font-size: 12px; font-weight: 200;" fill="rgb(33, 33, 33)" stroke="none" stroke-width="1px">80</text><text x="324.0741666666667" y="0" dx="0em" dy="0.95em" style="text-anchor: middle; visibility: inherit; font-family: Roboto, sans-serif; font-size: 12px; font-weight: 200;" fill="rgb(33, 33, 33)" stroke="none" stroke-width="1px">90</text><text x="356.48158333333333" y="0" dx="0em" dy="0.95em" style="text-anchor: middle; visibility: inherit; font-family: Roboto, sans-serif; font-size: 12px; font-weight: 200;" fill="rgb(33, 33, 33)" stroke="none" stroke-width="1px">100</text><text x="388.889" y="0" dx="0em" dy="0.95em" style="text-anchor: middle; visibility: hidden; font-family: Roboto, sans-serif; font-size: 12px; font-weight: 200;" fill="rgb(33, 33, 33)" stroke="none" stroke-width="1px">110</text></g><line x1="0" y1="0" x2="388.889" y2="0" fill="rgb(0, 0, 0)" stroke="rgb(204, 204, 204)" stroke-width="1px"></line></g></g></g></g></svg>