<svg viewBox="0 0 492.2222595214844 400.0000305175781" xmlns="http://www.w3.org/2000/svg"><g><g><g><g><g><line x1="50" y1="377" x2="45" y2="377" style="visibility: inherit;" fill="rgb(0, 0, 0)" stroke="rgb(204, 204, 204)" stroke-width="1px"></line><line x1="50" y1="339.30000000000007" x2="45" y2="339.30000000000007" style="visibility: inherit;" fill="rgb(0, 0, 0)" stroke="rgb(204, 204, 204)" stroke-width="1px"></line><line x1="50" y1="301.6" x2="45" y2="301.6" style="visibility: inherit;" fill="rgb(0, 0, 0)" stroke="rgb(204, 204, 204)" stroke-width="1px"></line><line x1="50" y1="263.9000000000001" x2="45" y2="263.9000000000001" style="visibility: inherit;" fill="rgb(0, 0, 0)" stroke="rgb(204, 204, 204)" stroke-width="1px"></line><line x1="50" y1="226.20000000000005" x2="45" y2="226.20000000000005" style="visibility: inherit;" fill="rgb(0, 0, 0)" stroke="rgb(204, 204, 204)" stroke-width="1px"></line><line x1="50" y1="188.5" x2="45" y2="188.5" style="visibility: inherit;" fill="rgb(0, 0, 0)" stroke="rgb(204, 204, 204)" stroke-width="1px"></line><line x1="50" y1="150.80000000000004" x2="45" y2="150.80000000000004" style="visibility: inherit;" fill="rgb(0, 0, 0)" stroke="rgb(204, 204, 204)" stroke-width="1px"></line><line x1="50" y1="113.10000000000002" x2="45" y2="113.10000000000002" style="visibility: inherit;" fill="rgb(0, 0, 0)" stroke="rgb(204, 204, 204)" stroke-width="1px"></line><line x1="50" y1="75.40000000000006" x2="45" y2="75.40000000000006" style="visibility: inherit;" fill="rgb(0, 0, 0)" stroke="rgb(204, 204, 204)" stroke-width="1px"></line><line x1="50" y1="37.70000000000003" x2="45" y2="37.70000000000003" style="visibility: inherit;" fill="rgb(0, 0, 0)" stroke="rgb(204, 204, 204)" stroke-width="1px"></line><line x1="50" y1="0" x2="45" y2="0" style="visibility: inherit;" fill="rgb(0, 0, 0)" stroke="rgb(204, 204, 204)" stroke-width="1px"></line></g><g transform="translate(40, 0)"><text x="0" y="377" dx="0em" dy="0.3em" style="text-anchor: end; visibility: hidden; font-family: Roboto, sans-serif; font-size: 12px; font-weight: 200;" fill="rgb(33, 33, 33)" stroke="none" stroke-width="1px">0.55</text><text x="0" y="339.30000000000007" dx="0em" dy="0.3em" style="text-anchor: end; visibility: inherit; font-family: Roboto, sans-serif; font-size: 12px; font-weight: 200;" fill="rgb(33, 33, 33)" stroke="none" stroke-width="1px">0.6</text><text x="0" y="301.6" dx="0em" dy="0.3em" style="text-anchor: end; visibility: inherit; font-family: Roboto, sans-serif; font-size: 12px; font-weight: 200;" fill="rgb(33, 33, 33)" stroke="none" stroke-width="1px">0.65</text><text x="0" y="263.9000000000001" dx="0em" dy="0.3em" style="text-anchor: end; visibility: inherit; font-family: Roboto, sans-serif; font-size: 12px; font-weight: 200;" fill="rgb(33, 33, 33)" stroke="none" stroke-width="1px">0.7</text><text x="0" y="226.20000000000005" dx="0em" dy="0.3em" style="text-anchor: end; visibility: inherit; font-family: Roboto, sans-serif; font-size: 12px; font-weight: 200;" fill="rgb(33, 33, 33)" stroke="none" stroke-width="1px">0.75</text><text x="0" y="188.5" dx="0em" dy="0.3em" style="text-anchor: end; visibility: inherit; font-family: Roboto, sans-serif; font-size: 12px; font-weight: 200;" fill="rgb(33, 33, 33)" stroke="none" stroke-width="1px">0.8</text><text x="0" y="150.80000000000004" dx="0em" dy="0.3em" style="text-anchor: end; visibility: inherit; font-family: Roboto, sans-serif; font-size: 12px; font-weight: 200;" fill="rgb(33, 33, 33)" stroke="none" stroke-width="1px">0.85</text><text x="0" y="113.10000000000002" dx="0em" dy="0.3em" style="text-anchor: end; visibility: inherit; font-family: Roboto, sans-serif; font-size: 12px; font-weight: 200;" fill="rgb(33, 33, 33)" stroke="none" stroke-width="1px">0.9</text><text x="0" y="75.40000000000006" dx="0em" dy="0.3em" style="text-anchor: end; visibility: inherit; font-family: Roboto, sans-serif; font-size: 12px; font-weight: 200;" fill="rgb(33, 33, 33)" stroke="none" stroke-width="1px">0.95</text><text x="0" y="37.70000000000003" dx="0em" dy="0.3em" style="text-anchor: end; visibility: inherit; font-family: Roboto, sans-serif; font-size: 12px; font-weight: 200;" fill="rgb(33, 33, 33)" stroke="none" stroke-width="1px">1</text><text x="0" y="0" dx="0em" dy="0.3em" style="text-anchor: end; visibility: hidden; font-family: Roboto, sans-serif; font-size: 12px; font-weight: 200;" fill="rgb(33, 33, 33)" stroke="none" stroke-width="1px">1.05</text></g><line x1="50" y1="0" x2="50" y2="377" fill="rgb(0, 0, 0)" stroke="rgb(204, 204, 204)" stroke-width="1px"></line></g></g><g transform="translate(50, 0)" clip-path="url(#clip_0)"><clipPath id="clip_0"><rect width="442" height="376"></rect></clipPath><g><g><g><line x1="0" y1="0" x2="0" y2="377" fill="rgb(0, 0, 0)" stroke="rgb(66, 66, 66)" stroke-width="1px" opacity="0.25"></line><line x1="36.85183333333333" y1="0" x2="36.85183333333333" y2="377" fill="rgb(0, 0, 0)" stroke="rgb(66, 66, 66)" stroke-width="1px" opacity="0.25"></line><line x1="73.70366666666666" y1="0" x2="73.70366666666666" y2="377" fill="rgb(0, 0, 0)" stroke="rgb(66, 66, 66)" stroke-width="1px" opacity="0.25"></line><line x1="110.5555" y1="0" x2="110.5555" y2="377" fill="rgb(0, 0, 0)" stroke="rgb(66, 66, 66)" stroke-width="1px" opacity="0.25"></line><line x1="147.40733333333333" y1="0" x2="147.40733333333333" y2="377" fill="rgb(0, 0, 0)" stroke="rgb(66, 66, 66)" stroke-width="1px" opacity="0.25"></line><line x1="184.25916666666666" y1="0" x2="184.25916666666666" y2="377" fill="rgb(0, 0, 0)" stroke="rgb(66, 66, 66)" stroke-width="1px" opacity="0.25"></line><line x1="221.111" y1="0" x2="221.111" y2="377" fill="rgb(0, 0, 0)" stroke="rgb(66, 66, 66)" stroke-width="1px" opacity="0.25"></line><line x1="257.9628333333333" y1="0" x2="257.9628333333333" y2="377" fill="rgb(0, 0, 0)" stroke="rgb(66, 66, 66)" stroke-width="1px" opacity="0.25"></line><line x1="294.81466666666665" y1="0" x2="294.81466666666665" y2="377" fill="rgb(0, 0, 0)" stroke="rgb(66, 66, 66)" stroke-width="1px" opacity="0.25"></line><line x1="331.6665" y1="0" x2="331.6665" y2="377" fill="rgb(0, 0, 0)" stroke="rgb(66, 66, 66)" stroke-width="1px" opacity="0.25"></line><line x1="368.5183333333333" y1="0" x2="368.5183333333333" y2="377" fill="rgb(0, 0, 0)" stroke="rgb(66, 66, 66)" stroke-width="1px" opacity="0.25"></line><line x1="405.37016666666665" y1="0" x2="405.37016666666665" y2="377" fill="rgb(0, 0, 0)" stroke="rgb(66, 66, 66)" stroke-width="1px" opacity="0.25"></line><line x1="442.222" y1="0" x2="442.222" y2="377" fill="rgb(0, 0, 0)" stroke="rgb(66, 66, 66)" stroke-width="1px" opacity="0.25"></line></g><g><line x1="0" y1="377" x2="442.222" y2="377" fill="rgb(0, 0, 0)" stroke="rgb(66, 66, 66)" stroke-width="1px" opacity="0.25"></line><line x1="0" y1="339.30000000000007" x2="442.222" y2="339.30000000000007" fill="rgb(0, 0, 0)" stroke="rgb(66, 66, 66)" stroke-width="1px" opacity="0.25"></line><line x1="0" y1="301.6" x2="442.222" y2="301.6" fill="rgb(0, 0, 0)" stroke="rgb(66, 66, 66)" stroke-width="1px" opacity="0.25"></line><line x1="0" y1="263.9000000000001" x2="442.222" y2="263.9000000000001" fill="rgb(0, 0, 0)" stroke="rgb(66, 66, 66)" stroke-width="1px" opacity="0.25"></line><line x1="0" y1="226.20000000000005" x2="442.222" y2="226.20000000000005" fill="rgb(0, 0, 0)" stroke="rgb(66, 66, 66)" stroke-width="1px" opacity="0.25"></line><line x1="0" y1="188.5" x2="442.222" y2="188.5" fill="rgb(0, 0, 0)" stroke="rgb(66, 66, 66)" stroke-width="1px" opacity="0.25"></line><line x1="0" y1="150.80000000000004" x2="442.222" y2="150.80000000000004" fill="rgb(0, 0, 0)" stroke="rgb(66, 66, 66)" stroke-width="1px" opacity="0.25"></line><line x1="0" y1="113.10000000000002" x2="442.222" y2="113.10000000000002" fill="rgb(0, 0, 0)" stroke="rgb(66, 66, 66)" stroke-width="1px" opacity="0.25"></line><line x1="0" y1="75.40000000000006" x2="442.222" y2="75.40000000000006" fill="rgb(0, 0, 0)" stroke="rgb(66, 66, 66)" stroke-width="1px" opacity="0.25"></line><line x1="0" y1="37.70000000000003" x2="442.222" y2="37.70000000000003" fill="rgb(0, 0, 0)" stroke="rgb(66, 66, 66)" stroke-width="1px" opacity="0.25"></line><line x1="0" y1="0" x2="442.222" y2="0" fill="rgb(0, 0, 0)" stroke="rgb(66, 66, 66)" stroke-width="1px" opacity="0.25"></line></g></g></g><g><g><line x1="0" y1="791.7" x2="442.222" y2="791.7" fill="rgb(0, 0, 0)" stroke="rgb(153, 153, 153)" stroke-width="1.5px"></line></g></g><g><g><line x1="36.85183333333333" y1="0" x2="36.85183333333333" y2="377" fill="rgb(0, 0, 0)" stroke="rgb(153, 153, 153)" stroke-width="1.5px"></line></g></g><g><g><g><g><g><path stroke="rgb(204, 51, 17)" stroke-width="2px" d="M44.2222,399.69194160286264L47.907383333333335,370.78398317019736L51.59256666666666,347.0614398249316L55.27775,327.43070083539357L58.96293333333333,309.84286384604434L62.64811666666666,294.690496545369L66.3333,280.59494544083384L70.01848333333332,268.76605839074824L73.70366666666666,258.7268955075751L77.38884999999999,251.1418209484686L81.07403333333332,244.64519571572976L84.75921666666667,238.98372201776039L88.4444,234.19357604872116L92.12958333333333,230.01816444464714L95.81476666666667,226.11800716003862L99.49995,221.82451242155201L103.18513333333333,217.57407532333045L106.87031666666667,213.7215328660111L110.5555,209.54947995186714L114.24068333333334,206.76721389242206L117.92586666666666,204.07454250037736L121.61105,201.80774202671742L125.29623333333332,199.14526656613748L128.98141666666666,196.89657686112244L132.6666,194.52405531027713L136.35178333333334,192.26327578243863L140.03696666666664,190.72074941076815L143.72215,188.6788948318094L147.40733333333333,186.89560387445619L151.09251666666665,185.08139149242052L154.77769999999998,183.62074518794722L158.46288333333334,182.18619698583615L162.14806666666664,180.67425991737198L165.83325,179.20891926233546L169.51843333333335,177.77153645069689L173.20361666666665,176.35094631926006L176.8888,175.0334435553749L180.57398333333333,173.8708229485348L184.25916666666666,172.89416137278408L187.94435,172.02907521528294L191.62953333333334,171.2309343085505L195.31471666666664,170.2869190539762L198.9999,169.4414206888896L202.68508333333332,168.93412166989393L206.37026666666665,168.5367125210408L210.05544999999998,168.391296769213L213.74063333333334,168.1179878431709L217.42581666666663,167.95400248754794L221.111,167.5765220617561L224.79618333333332,166.88488511891802L228.48136666666667,166.5629326906893L232.16655,165.9976422838618L235.85173333333333,165.47240856482054L239.53691666666663,164.78516736026657L243.2221,164.1867631625893L246.90728333333334,163.73469090651045L250.59246666666664,163.09132860297305L254.27764999999997,162.42622200843303L257.9628333333333,161.84109857676393L261.64801666666665,161.5830542552351L265.3332,161.5212573997903L269.0183833333333,161.1120603366332L272.7035666666667,160.77351236126643L276.38874999999996,160.38432410110119L280.0739333333333,159.77869219511211L283.75911666666667,159.50834278899117L287.4443,159.34613314531856L291.1294833333333,158.87670638598556L294.81466666666665,158.59505033038585L298.49985,158.3330269595536L302.1850333333333,158.2688426745267L305.87021666666664,158.04427262856552L309.55539999999996,157.8165008635163L313.24058333333335,157.5868080670142L316.9257666666667,157.44899238911293L320.61095,157.27327324489963L324.2961333333333,156.98178228342658L327.98131666666666,156.80688770654274L331.6665,156.5158914854674L335.3516833333333,156.24826401534963L339.0368666666667,156.08768753327897L342.72204999999997,155.8983119065641L346.4072333333333,155.69165679306258L350.0924166666666,155.5676637249617L353.7776,155.5862976215737L357.46278333333333,155.41141848459586L361.14796666666666,154.93437205251897L364.83315,154.64814419327283L368.5183333333333,154.29034800278012L372.20351666666664,153.9826405510119L375.8887,153.70498634247846L379.5738833333333,153.63142355483097L383.2590666666667,153.49425614476993L386.94425,153.41195569873332L390.6294333333333,153.26954569363878L394.31461666666667,153.18409969058203L397.9998,153.03982032803634L401.6849833333333,153.04626447122064" style="fill: none;" fill="none"></path></g><g><path stroke="rgb(0, 119, 187)" stroke-width="2px" d="M44.2222,413.0802594518174L47.907383333333335,364.29904174703887L51.59256666666666,325.3788629138329L55.27775,294.0236971369251L58.96293333333333,268.43737418108276L62.64811666666666,246.1373793037632L66.3333,227.54031125652378L70.01848333333332,211.4358651125547L73.70366666666666,197.49664672214442L77.38884999999999,185.66245300852165L81.07403333333332,174.6639082194626L84.75921666666667,164.7368755767379L88.4444,156.16279885800603L92.12958333333333,148.49058395421312L95.81476666666667,141.33559816908766L99.49995,134.30650161698236L103.18513333333333,128.01969201253092L106.87031666666667,122.47705777334686L110.5555,117.21983575771566L114.24068333333334,112.57078901834838L117.92586666666666,107.98764679601753L121.61105,103.88098217190539L125.29623333333332,100.12919097189788L128.98141666666666,96.63630429637539L132.6666,93.36775304841252L136.35178333333334,90.3027787386735L140.03696666666664,87.42896273698597L143.72215,84.48584915760726L147.40733333333333,81.8920975484976L151.09251666666665,79.57695778293962L154.77769999999998,77.17603403120432L158.46288333333334,74.79261669595499L162.14806666666664,72.48869800111463L165.83325,70.20948620078981L169.51843333333335,67.92208827652365L173.20361666666665,65.99774499368085L176.8888,64.31420879246083L180.57398333333333,62.729172284160896L184.25916666666666,61.34122520738084L187.94435,60.09450608940468L191.62953333333334,58.77155982963714L195.31471666666664,57.47187209293064L198.9999,56.32411110964305L202.68508333333332,55.22152162406057L206.37026666666665,54.26101439957127L210.05544999999998,53.01780819034355L213.74063333333334,51.903936123450244L217.42581666666663,50.775677456607994L221.111,49.89175580867729L224.79618333333332,49.06244928674823L228.48136666666667,48.3118963947099L232.16655,47.53961884916956L235.85173333333333,46.708303980475925L239.53691666666663,45.91056152608734L243.2221,45.224949605624126L246.90728333333334,44.537621197319176L250.59246666666664,43.895265427360584L254.27764999999997,43.348870071846086L257.9628333333333,42.81406641070717L261.64801666666665,42.37820485153599L265.3332,42.024700830690875L269.0183833333333,41.7206113328414L272.7035666666667,41.37717574059226L276.38874999999996,41.05613502275504L280.0739333333333,40.77152350671036L283.75911666666667,40.55477204279267L287.4443,40.35572635624511L291.1294833333333,40.09830932792249L294.81466666666665,39.92086683378347L298.49985,39.81440133730014L302.1850333333333,39.65853495406767L305.87021666666664,39.49602031593125L309.55539999999996,39.37551925590401L313.24058333333335,39.2802263427423L316.9257666666667,39.177048063793656L320.61095,39.09214881927898L324.2961333333333,39.01821699542477L327.98131666666666,38.95086562396693L331.6665,38.8874625239468L335.3516833333333,38.757433578592305L339.0368666666667,38.63341368032799L342.72204999999997,38.513017187078646L346.4072333333333,38.39477676007736L350.0924166666666,38.30084022673126L353.7776,38.244478306723536L357.46278333333333,38.18766887757355L361.14796666666666,38.15358322008354L364.83315,38.133131825589565L368.5183333333333,38.0978507349869L372.20351666666664,38.05368980348L375.8887,38.027193244575784L379.5738833333333,37.98830303208784L383.2590666666667,37.96496890459516L386.94425,37.950968428099515L390.6294333333333,37.94256814220216L394.31461666666667,37.91453569351827L397.9998,37.89771622430803L401.6849833333333,37.841622011730216" style="fill: none;" fill="none"></path></g></g></g></g><g opacity="0.2"><g><g><g><path stroke="rgb(204, 51, 17)" stroke-width="2px" d="M40.53701666666666,406.7925172567368L44.2222,367.2551934242249L47.907383333333335,336.7882240533829L51.59256666666666,316.0892872333527L55.27775,300.2743217468262L58.96293333333333,284.6919755458832L62.64811666666666,272.5981995582581L66.3333,259.80674548149113L70.01848333333332,251.20153970718388L73.70366666666666,243.7592056512833L77.38884999999999,239.80548675060277L81.07403333333332,234.92147047519688L84.75921666666667,230.50260288715367L88.4444,227.01398773193364L92.12958333333333,223.7579918622971L95.81476666666667,220.26942164897923L99.49995,215.3853604316712L103.18513333333333,211.1990671873093L106.87031666666667,207.94307131767277L110.5555,203.29162938594823L114.24068333333334,202.59390635490422L117.92586666666666,200.03558857440953L121.61105,198.40756816864018L125.29623333333332,195.15157229900365L128.98141666666666,193.5235518932343L132.6666,190.96527905464177L136.35178333333334,188.87210996150975L140.03696666666664,188.40696127414708L143.72215,185.61611409187321L147.40733333333333,184.2206680297852L151.09251666666665,182.36007328033452L154.77769999999998,181.42977590560918L158.46288333333334,180.03437478542332L162.14806666666664,178.40635437965398L165.83325,177.01090831756596L169.51843333333335,175.61546225547795L173.20361666666665,174.2200611352921L176.8888,173.05718941688542L180.57398333333333,172.12689204216008L184.25916666666666,171.42916901111607L187.94435,170.73144598007207L191.62953333333334,170.03372294902806L195.31471666666664,168.87089617252354L198.9999,168.17317314147954L202.68508333333332,168.17317314147954L206.37026666666665,167.9405987977982L210.05544999999998,168.17317314147954L213.74063333333334,167.70802445411687L217.42581666666663,167.70802445411687L221.111,167.01030142307286L224.79618333333332,165.84742970466618L228.48136666666667,166.08000404834752L232.16655,165.14970667362218L235.85173333333333,164.6845579862595L239.53691666666663,163.75430555343632L243.2221,163.28915686607365L246.90728333333334,163.05658252239232L250.59246666666664,162.12628514766698L254.27764999999997,161.42856211662297L257.9628333333333,160.9634134292603L261.64801666666665,161.19598777294163L265.3332,161.42856211662297L269.0183833333333,160.49826474189763L272.7035666666667,160.2656903982163L276.38874999999996,159.80054171085362L280.0739333333333,158.87024433612828L283.75911666666667,159.10281867980962L287.4443,159.10281867980962L291.1294833333333,158.17256624698643L294.81466666666665,158.17256624698643L298.49985,157.9399919033051L302.1850333333333,158.17256624698643L305.87021666666664,157.70741755962376L309.55539999999996,157.47484321594243L313.24058333333335,157.2422688722611L316.9257666666667,157.2422688722611L320.61095,157.00969452857976L324.2961333333333,156.5445458412171L327.98131666666666,156.5445458412171L331.6665,156.07939715385442L335.3516833333333,155.84682281017308L339.0368666666667,155.84682281017308L342.72204999999997,155.61424846649174L346.4072333333333,155.3816741228104L350.0924166666666,155.3816741228104L353.7776,155.61424846649174L357.46278333333333,155.14909977912907L361.14796666666666,154.21880240440373L364.83315,154.21880240440373L368.5183333333333,153.75365371704106L372.20351666666664,153.52107937335973L375.8887,153.2885050296784L379.5738833333333,153.52107937335973L383.2590666666667,153.2885050296784L386.94425,153.2885050296784L390.6294333333333,153.05593068599705L394.31461666666667,153.05593068599705L397.9998,152.82340128421788L401.6849833333333,153.05593068599705" style="fill: none;" fill="none"></path></g><g><path stroke="rgb(0, 119, 187)" stroke-width="2px" d="M40.53701666666666,415.87857891321187L44.2222,349.6484392404557L47.907383333333335,306.9323297262192L51.59256666666666,274.56467742919926L55.27775,250.64821500778203L58.96293333333333,231.84852297306065L62.64811666666666,213.6237726926804L66.3333,200.11324818134312L70.01848333333332,187.52263946533208L73.70366666666666,176.71424682140355L77.38884999999999,167.97556359767918L81.07403333333332,158.20200319290166L84.75921666666667,149.86577470302586L88.4444,143.3117622852326L92.12958333333333,136.98767263889317L95.81476666666667,130.60614724159245L99.49995,123.76464147567752L103.18513333333333,118.59043533802036L106.87031666666667,114.16361303329471L110.5555,109.33429105281833L114.24068333333334,105.59737188816074L117.92586666666666,101.11302394866946L121.61105,97.72103388309482L125.29623333333332,94.50153083801273L128.98141666666666,91.39698917865756L132.6666,88.46493453979495L136.35178333333334,85.70532197952274L140.03696666666664,83.11824138164523L143.72215,80.07118041515353L147.40733333333333,78.00147099494937L151.09251666666665,76.10424859523776L154.77769999999998,73.57464869022373L158.46288333333334,71.21749086380008L162.14806666666664,69.03282005786899L165.83325,66.79066855907443L169.51843333333335,64.49099142551425L173.20361666666665,63.111230087280305L176.8888,61.78890450000766L180.57398333333333,60.35161752700809L184.25916666666666,59.25930459499362L187.94435,58.22442741394046L191.62953333333334,56.78714044094089L195.31471666666664,55.52234048843387L198.9999,54.6024696350098L202.68508333333332,53.567637395858796L206.37026666666665,52.82025356292728L210.05544999999998,51.15299887657169L213.74063333333334,50.233128023147614L217.42581666666663,49.083289456367524L221.111,48.56587333679202L224.79618333333332,47.818489503860505L228.48136666666667,47.186067056655915L232.16655,46.38120253086093L235.85173333333333,45.46133167743686L239.53691666666663,44.71394784450534L243.2221,44.19653172492984L246.90728333333334,43.50662858486179L250.59246666666664,42.93173177242282L254.27764999999997,42.52927703857425L257.9628333333333,42.01186091899875L261.64801666666665,41.72441251277927L265.3332,41.49444479942325L269.0183833333333,41.26447708606723L272.7035666666667,40.86202235221866L276.38874999999996,40.57457394599918L280.0739333333333,40.34460623264316L283.75911666666667,40.22964484691623L287.4443,40.057157826423676L291.1294833333333,39.71218378543857L294.81466666666665,39.654703092575105L298.49985,39.654703092575105L302.1850333333333,39.424735379219086L305.87021666666664,39.25224835872653L309.55539999999996,39.19476766586307L313.24058333333335,39.137286972999604L316.9257666666667,39.022280645370515L320.61095,38.96479995250705L324.2961333333333,38.907319259643586L327.98131666666666,38.84983856678012L331.6665,38.79235787391666L335.3516833333333,38.56239016056064L339.0368666666667,38.44738383293155L342.72204999999997,38.33242244720462L346.4072333333333,38.21741611957553L350.0924166666666,38.15993542671207L353.7776,38.15993542671207L357.46278333333333,38.1024547338486L361.14796666666666,38.1024547338486L364.83315,38.1024547338486L368.5183333333333,38.04492909908298L372.20351666666664,37.987448406219514L375.8887,37.987448406219514L379.5738833333333,37.92996771335605L383.2590666666667,37.92996771335605L386.94425,37.92996771335605L390.6294333333333,37.92996771335605L394.31461666666667,37.872487020492585L397.9998,37.872487020492585L401.6849833333333,37.757480692863496" style="fill: none;" fill="none"></path></g></g></g></g></g></g><g transform="translate(50, 377)" clip-path="url(#clip_1)"><clipPath id="clip_1"><rect width="442" height="22"></rect></clipPath><g><g><line x1="0" y1="0" x2="0" y2="5" style="visibility: inherit;" fill="rgb(0, 0, 0)" stroke="rgb(204, 204, 204)" stroke-width="1px"></line><line x1="36.85183333333333" y1="0" x2="36.85183333333333" y2="5" style="visibility: inherit;" fill="rgb(0, 0, 0)" stroke="rgb(204, 204, 204)" stroke-width="1px"></line><line x1="73.70366666666666" y1="0" x2="73.70366666666666" y2="5" style="visibility: inherit;" fill="rgb(0, 0, 0)" stroke="rgb(204, 204, 204)" stroke-width="1px"></line><line x1="110.5555" y1="0" x2="110.5555" y2="5" style="visibility: inherit;" fill="rgb(0, 0, 0)" stroke="rgb(204, 204, 204)" stroke-width="1px"></line><line x1="147.40733333333333" y1="0" x2="147.40733333333333" y2="5" style="visibility: inherit;" fill="rgb(0, 0, 0)" stroke="rgb(204, 204, 204)" stroke-width="1px"></line><line x1="184.25916666666666" y1="0" x2="184.25916666666666" y2="5" style="visibility: inherit;" fill="rgb(0, 0, 0)" stroke="rgb(204, 204, 204)" stroke-width="1px"></line><line x1="221.111" y1="0" x2="221.111" y2="5" style="visibility: inherit;" fill="rgb(0, 0, 0)" stroke="rgb(204, 204, 204)" stroke-width="1px"></line><line x1="257.9628333333333" y1="0" x2="257.9628333333333" y2="5" style="visibility: inherit;" fill="rgb(0, 0, 0)" stroke="rgb(204, 204, 204)" stroke-width="1px"></line><line x1="294.81466666666665" y1="0" x2="294.81466666666665" y2="5" style="visibility: inherit;" fill="rgb(0, 0, 0)" stroke="rgb(204, 204, 204)" stroke-width="1px"></line><line x1="331.6665" y1="0" x2="331.6665" y2="5" style="visibility: inherit;" fill="rgb(0, 0, 0)" stroke="rgb(204, 204, 204)" stroke-width="1px"></line><line x1="368.5183333333333" y1="0" x2="368.5183333333333" y2="5" style="visibility: inherit;" fill="rgb(0, 0, 0)" stroke="rgb(204, 204, 204)" stroke-width="1px"></line><line x1="405.37016666666665" y1="0" x2="405.37016666666665" y2="5" style="visibility: inherit;" fill="rgb(0, 0, 0)" stroke="rgb(204, 204, 204)" stroke-width="1px"></line><line x1="442.222" y1="0" x2="442.222" y2="5" style="visibility: inherit;" fill="rgb(0, 0, 0)" stroke="rgb(204, 204, 204)" stroke-width="1px"></line></g><g transform="translate(0, 8)"><text x="0" y="0" dx="0em" dy="0.95em" style="text-anchor: middle; visibility: hidden; font-family: Roboto, sans-serif; font-size: 12px; font-weight: 200;" fill="rgb(33, 33, 33)" stroke="none" stroke-width="1px">-10</text><text x="36.85183333333333" y="0" dx="0em" dy="0.95em" style="text-anchor: middle; visibility: inherit; font-family: Roboto, sans-serif; font-size: 12px; font-weight: 200;" fill="rgb(33, 33, 33)" stroke="none" stroke-width="1px">0</text><text x="73.70366666666666" y="0" dx="0em" dy="0.95em" style="text-anchor: middle; visibility: inherit; font-family: Roboto, sans-serif; font-size: 12px; font-weight: 200;" fill="rgb(33, 33, 33)" stroke="none" stroke-width="1px">10</text><text x="110.5555" y="0" dx="0em" dy="0.95em" style="text-anchor: middle; visibility: inherit; font-family: Roboto, sans-serif; font-size: 12px; font-weight: 200;" fill="rgb(33, 33, 33)" stroke="none" stroke-width="1px">20</text><text x="147.40733333333333" y="0" dx="0em" dy="0.95em" style="text-anchor: middle; visibility: inherit; font-family: Roboto, sans-serif; font-size: 12px; font-weight: 200;" fill="rgb(33, 33, 33)" stroke="none" stroke-width="1px">30</text><text x="184.25916666666666" y="0" dx="0em" dy="0.95em" style="text-anchor: middle; visibility: inherit; font-family: Roboto, sans-serif; font-size: 12px; font-weight: 200;" fill="rgb(33, 33, 33)" stroke="none" stroke-width="1px">40</text><text x="221.111" y="0" dx="0em" dy="0.95em" style="text-anchor: middle; visibility: inherit; font-family: Roboto, sans-serif; font-size: 12px; font-weight: 200;" fill="rgb(33, 33, 33)" stroke="none" stroke-width="1px">50</text><text x="257.9628333333333" y="0" dx="0em" dy="0.95em" style="text-anchor: middle; visibility: inherit; font-family: Roboto, sans-serif; font-size: 12px; font-weight: 200;" fill="rgb(33, 33, 33)" stroke="none" stroke-width="1px">60</text><text x="294.81466666666665" y="0" dx="0em" dy="0.95em" style="text-anchor: middle; visibility: inherit; font-family: Roboto, sans-serif; font-size: 12px; font-weight: 200;" fill="rgb(33, 33, 33)" stroke="none" stroke-width="1px">70</text><text x="331.6665" y="0" dx="0em" dy="0.95em" style="text-anchor: middle; visibility: inherit; font-family: Roboto, sans-serif; font-size: 12px; font-weight: 200;" fill="rgb(33, 33, 33)" stroke="none" stroke-width="1px">80</text><text x="368.5183333333333" y="0" dx="0em" dy="0.95em" style="text-anchor: middle; visibility: inherit; font-family: Roboto, sans-serif; font-size: 12px; font-weight: 200;" fill="rgb(33, 33, 33)" stroke="none" stroke-width="1px">90</text><text x="405.37016666666665" y="0" dx="0em" dy="0.95em" style="text-anchor: middle; visibility: inherit; font-family: Roboto, sans-serif; font-size: 12px; font-weight: 200;" fill="rgb(33, 33, 33)" stroke="none" stroke-width="1px">100</text><text x="442.222" y="0" dx="0em" dy="0.95em" style="text-anchor: middle; visibility: hidden; font-family: Roboto, sans-serif; font-size: 12px; font-weight: 200;" fill="rgb(33, 33, 33)" stroke="none" stroke-width="1px">110</text></g><line x1="0" y1="0" x2="442.222" y2="0" fill="rgb(0, 0, 0)" stroke="rgb(204, 204, 204)" stroke-width="1px"></line></g></g></g></g></svg>